M48
; DRILL file {KiCad (5.1.0)-1} date 3/24/2019 12:08:22 AM
; FORMAT={-:-/ absolute / inch / decimal}
; #@! TF.CreationDate,2019-03-24T00:08:22-04:00
; #@! TF.GenerationSoftware,Kicad,Pcbnew,(5.1.0)-1
; #@! TF.FileFunction,Plated,1,2,PTH
FMAT,2
INCH
T1C0.0157
T2C0.0217
T3C0.0260
T4C0.0315
T5C0.0335
T6C0.0339
T7C0.0354
T8C0.0394
T9C0.1250
T10C0.1260
%
G90
G05
T1
X4.1Y-4.34
X4.8Y-4.02
X4.83Y-3.94
X4.86Y-4.45
X4.89Y-3.94
X4.91Y-4.24
X5.09Y-3.42
X5.1255Y-4.0855
X5.1327Y-3.9473
X5.23Y-3.42
X5.23Y-4.24
X5.25Y-4.061
X5.34Y-3.77
X5.39Y-4.28
X5.4Y-3.26
X5.44Y-3.96
X5.44Y-4.04
X5.46Y-3.85
X5.48Y-4.0
X5.4989Y-3.2611
X5.5Y-4.32
X5.52Y-3.92
X5.55Y-4.08
X5.61Y-3.99
X5.61Y-4.08
X5.61Y-4.32
X5.63Y-3.85
X5.63Y-3.91
X5.66Y-4.08
X5.72Y-4.08
X5.72Y-4.32
X5.74Y-3.65
X5.82Y-3.96
X5.85Y-3.6
X5.9Y-4.08
X5.96Y-4.04
T3
X3.7839Y-4.4012
X3.8339Y-4.3512
X3.8339Y-4.4512
X3.9339Y-4.3512
X3.9339Y-4.4512
X3.9839Y-4.4012
T4
X4.99Y-3.23
X4.99Y-3.53
X5.09Y-3.23
X5.09Y-3.53
X5.19Y-3.23
X5.19Y-3.53
T6
X3.8098Y-3.7012
X3.8098Y-3.7764
X3.8098Y-3.8516
X3.8098Y-3.9268
X3.8098Y-4.002
X3.8098Y-4.0772
X3.8098Y-4.1524
X3.8098Y-4.2276
X3.885Y-3.7012
X3.885Y-3.7764
X3.885Y-3.8516
X3.885Y-3.9268
X3.885Y-4.002
X3.885Y-4.0772
X3.885Y-4.1524
X3.885Y-4.2276
X3.9602Y-3.7012
X3.9602Y-3.7764
X3.9602Y-3.8516
X3.9602Y-3.9268
X3.9602Y-4.002
X3.9602Y-4.0772
X3.9602Y-4.1524
X3.9602Y-4.2276
T7
X5.4516Y-3.1931
X5.4516Y-3.323
X5.55Y-3.1931
X5.55Y-3.323
X5.6484Y-3.1931
X5.6484Y-3.323
T8
X6.15Y-4.2
X6.15Y-4.2902
X6.15Y-4.3803
X6.15Y-4.4705
X6.15Y-4.5606
X6.228Y-4.1549
X6.228Y-4.2451
X6.228Y-4.3352
X6.228Y-4.4254
X6.228Y-4.5156
X6.3059Y-4.2
X6.3059Y-4.2902
X6.3059Y-4.3803
X6.3059Y-4.4705
X6.3059Y-4.5606
T9
X3.75Y-3.45
X3.75Y-4.702
T10
X6.2307Y-3.8778
X6.2307Y-4.862
T2
G00X6.364Y-3.2924
M15
G01X6.3896Y-3.2924
M16
G05
G00X6.364Y-3.5976
M15
G01X6.3896Y-3.5976
M16
G05
T5
G00X6.2163Y-3.2983
M15
G01X6.238Y-3.2983
M16
G05
G00X6.2163Y-3.5917
M15
G01X6.238Y-3.5917
M16
G05
T0
M30
