G04 #@! TF.GenerationSoftware,KiCad,Pcbnew,(5.1.0)-1*
G04 #@! TF.CreationDate,2019-03-24T00:08:19-04:00*
G04 #@! TF.ProjectId,vga2dvi,76676132-6476-4692-9e6b-696361645f70,rev?*
G04 #@! TF.SameCoordinates,Original*
G04 #@! TF.FileFunction,Copper,L2,Bot*
G04 #@! TF.FilePolarity,Positive*
%FSLAX46Y46*%
G04 Gerber Fmt 4.6, Leading zero omitted, Abs format (unit mm)*
G04 Created by KiCad (PCBNEW (5.1.0)-1) date 2019-03-24 00:08:19*
%MOMM*%
%LPD*%
G04 APERTURE LIST*
%ADD10R,1.600000X1.600000*%
%ADD11C,1.600000*%
%ADD12C,4.000000*%
%ADD13C,1.408000*%
%ADD14O,2.000000X1.450000*%
%ADD15O,1.800000X1.150000*%
%ADD16O,1.600000X1.600000*%
%ADD17C,4.200000*%
%ADD18C,1.400000*%
%ADD19R,1.400000X1.400000*%
%ADD20C,1.000000*%
%ADD21C,0.800000*%
%ADD22C,0.250000*%
%ADD23C,0.254000*%
G04 APERTURE END LIST*
D10*
X156210000Y-106680000D03*
D11*
X156210000Y-108970000D03*
X156210000Y-111260000D03*
X156210000Y-113550000D03*
X156210000Y-115840000D03*
X158190000Y-105535000D03*
X158190000Y-107825000D03*
X158190000Y-110115000D03*
X158190000Y-112405000D03*
X158190000Y-114695000D03*
X160170000Y-106680000D03*
X160170000Y-108970000D03*
X160170000Y-111260000D03*
X160170000Y-113550000D03*
X160170000Y-115840000D03*
D12*
X158260000Y-123495000D03*
X158260000Y-98495000D03*
D13*
X143470000Y-81104000D03*
X140970000Y-81104000D03*
X138470000Y-81104000D03*
X138470000Y-84404000D03*
X140970000Y-84404000D03*
X143470000Y-84404000D03*
D14*
X158170000Y-91228000D03*
X158170000Y-83778000D03*
D15*
X161970000Y-91378000D03*
X161970000Y-83628000D03*
D10*
X131826000Y-82042000D03*
D16*
X126746000Y-89662000D03*
X129286000Y-82042000D03*
X129286000Y-89662000D03*
X126746000Y-82042000D03*
X131826000Y-89662000D03*
D17*
X95250000Y-87630000D03*
X95250000Y-119430000D03*
D18*
X96770000Y-94010000D03*
X96770000Y-95920000D03*
X96770000Y-97830000D03*
X96770000Y-99740000D03*
X96770000Y-101650000D03*
X96770000Y-103560000D03*
X96770000Y-105470000D03*
X96770000Y-107380000D03*
X98680000Y-94010000D03*
X98680000Y-95920000D03*
X98680000Y-97830000D03*
X98680000Y-99740000D03*
X98680000Y-101650000D03*
X98680000Y-103560000D03*
X98680000Y-105470000D03*
X98680000Y-107380000D03*
D19*
X100590000Y-94010000D03*
D18*
X100590000Y-95920000D03*
X100590000Y-97830000D03*
X100590000Y-99740000D03*
X100590000Y-101650000D03*
X100590000Y-103560000D03*
X100590000Y-105470000D03*
X100590000Y-107380000D03*
D20*
X97380000Y-110520000D03*
X97380000Y-113060000D03*
X96110000Y-111790000D03*
X99920000Y-110520000D03*
X99920000Y-113060000D03*
X101190000Y-111790000D03*
D21*
X151384000Y-102616000D03*
X138176000Y-102616000D03*
X139700000Y-109728000D03*
X143002000Y-99314000D03*
X143002000Y-97790000D03*
X147828000Y-100584000D03*
X138176000Y-100584000D03*
X142494000Y-109728000D03*
X142494000Y-103632000D03*
X142494000Y-101346000D03*
X145288000Y-109728000D03*
X145288000Y-103632000D03*
X136906000Y-108712000D03*
X139671158Y-82832842D03*
X137160000Y-82804000D03*
X129286000Y-86868000D03*
X132842000Y-86868000D03*
X149860000Y-103632000D03*
X143764000Y-103632000D03*
X140970000Y-103632000D03*
X139192000Y-101600000D03*
X140208000Y-99568000D03*
X138684000Y-97790000D03*
X135636000Y-95758000D03*
X145796000Y-92710000D03*
X132842000Y-107696000D03*
X124714000Y-107696000D03*
X133350000Y-103150000D03*
X148590000Y-91440000D03*
X122682000Y-100076000D03*
X121920000Y-102108000D03*
X124206000Y-100076000D03*
X123444004Y-113030000D03*
X104140000Y-110236000D03*
X130369653Y-100262347D03*
X130186653Y-103770653D03*
D22*
X139192000Y-102616000D02*
X138176000Y-102616000D01*
X139700000Y-109728000D02*
X139700000Y-102616000D01*
X151384000Y-102616000D02*
X139700000Y-102616000D01*
X139700000Y-102616000D02*
X139192000Y-102616000D01*
X143002000Y-99314000D02*
X143002000Y-97790000D01*
X142494000Y-109728000D02*
X142494000Y-103632000D01*
X142494000Y-101346000D02*
X142494000Y-100584000D01*
X147828000Y-100584000D02*
X142494000Y-100584000D01*
X142494000Y-100584000D02*
X138176000Y-100584000D01*
X145288000Y-109728000D02*
X145288000Y-103632000D01*
X140970000Y-81104000D02*
X140970000Y-84404000D01*
X134874000Y-106680000D02*
X136906000Y-108712000D01*
X140970000Y-84404000D02*
X134874000Y-90500000D01*
X134874000Y-90500000D02*
X134874000Y-106680000D01*
X137188842Y-82832842D02*
X137160000Y-82804000D01*
X139671158Y-82832842D02*
X137188842Y-82832842D01*
X132842000Y-107696000D02*
X124714000Y-107696000D01*
X158317000Y-105535000D02*
X158317000Y-107825000D01*
X158317000Y-107825000D02*
X158317000Y-110115000D01*
X143470000Y-84404000D02*
X143470000Y-81104000D01*
X161544000Y-109886000D02*
X160170000Y-111260000D01*
X147102999Y-88036999D02*
X147102999Y-91947997D01*
X143470000Y-84404000D02*
X147102999Y-88036999D01*
X158279002Y-103124000D02*
X159512000Y-103124000D01*
X147102999Y-91947997D02*
X158279002Y-103124000D01*
X159512000Y-103124000D02*
X161544000Y-105156000D01*
X161544000Y-105156000D02*
X161544000Y-109886000D01*
X122682000Y-100076000D02*
X122682000Y-101346000D01*
X122682000Y-101346000D02*
X121920000Y-102108000D01*
X123444004Y-100837996D02*
X123444004Y-112464315D01*
X124206000Y-100076000D02*
X123444004Y-100837996D01*
X123444004Y-112464315D02*
X123444004Y-113030000D01*
X103740001Y-110635999D02*
X103740001Y-111651999D01*
X104140000Y-110236000D02*
X103740001Y-110635999D01*
X103740001Y-111651999D02*
X100584000Y-114808000D01*
X99128000Y-114808000D02*
X97380000Y-113060000D01*
X100584000Y-114808000D02*
X99128000Y-114808000D01*
X131826000Y-83092000D02*
X131826000Y-82042000D01*
X130700999Y-84217001D02*
X131826000Y-83092000D01*
X130700999Y-99365316D02*
X130700999Y-84217001D01*
X130369653Y-99696662D02*
X130700999Y-99365316D01*
X130369653Y-100262347D02*
X130369653Y-99696662D01*
X128486001Y-82841999D02*
X129286000Y-82042000D01*
X128160999Y-83167001D02*
X128486001Y-82841999D01*
X128160999Y-101179314D02*
X128160999Y-83167001D01*
X130186653Y-103204968D02*
X128160999Y-101179314D01*
X130186653Y-103770653D02*
X130186653Y-103204968D01*
D23*
G36*
X126194192Y-80709818D02*
G01*
X125944899Y-80843068D01*
X125726392Y-81022392D01*
X125547068Y-81240899D01*
X125413818Y-81490192D01*
X125331764Y-81760691D01*
X125304057Y-82042000D01*
X125331764Y-82323309D01*
X125413818Y-82593808D01*
X125547068Y-82843101D01*
X125726392Y-83061608D01*
X125944899Y-83240932D01*
X126194192Y-83374182D01*
X126464691Y-83456236D01*
X126675508Y-83477000D01*
X126816492Y-83477000D01*
X127027309Y-83456236D01*
X127297808Y-83374182D01*
X127401000Y-83319025D01*
X127401000Y-88384975D01*
X127297808Y-88329818D01*
X127027309Y-88247764D01*
X126816492Y-88227000D01*
X126675508Y-88227000D01*
X126464691Y-88247764D01*
X126194192Y-88329818D01*
X125944899Y-88463068D01*
X125726392Y-88642392D01*
X125547068Y-88860899D01*
X125413818Y-89110192D01*
X125331764Y-89380691D01*
X125304057Y-89662000D01*
X125331764Y-89943309D01*
X125413818Y-90213808D01*
X125547068Y-90463101D01*
X125726392Y-90681608D01*
X125944899Y-90860932D01*
X126194192Y-90994182D01*
X126464691Y-91076236D01*
X126675508Y-91097000D01*
X126816492Y-91097000D01*
X127027309Y-91076236D01*
X127297808Y-90994182D01*
X127401000Y-90939025D01*
X127400999Y-101141992D01*
X127397323Y-101179314D01*
X127400999Y-101216636D01*
X127400999Y-101216646D01*
X127411996Y-101328299D01*
X127448288Y-101447939D01*
X127455453Y-101471560D01*
X127526025Y-101603590D01*
X127538672Y-101619000D01*
X127620998Y-101719315D01*
X127650002Y-101743118D01*
X129245381Y-103338498D01*
X129191427Y-103468755D01*
X129151653Y-103668714D01*
X129151653Y-103872592D01*
X129191427Y-104072551D01*
X129269448Y-104260909D01*
X129382716Y-104430427D01*
X129526879Y-104574590D01*
X129696397Y-104687858D01*
X129884755Y-104765879D01*
X130084714Y-104805653D01*
X130288592Y-104805653D01*
X130488551Y-104765879D01*
X130676909Y-104687858D01*
X130846427Y-104574590D01*
X130990590Y-104430427D01*
X131103858Y-104260909D01*
X131181879Y-104072551D01*
X131221653Y-103872592D01*
X131221653Y-103668714D01*
X131181879Y-103468755D01*
X131103858Y-103280397D01*
X130990590Y-103110879D01*
X130935640Y-103055929D01*
X130892199Y-102912721D01*
X130821627Y-102780692D01*
X130726654Y-102664967D01*
X130697656Y-102641169D01*
X128920999Y-100864513D01*
X128920999Y-91050849D01*
X129004691Y-91076236D01*
X129215508Y-91097000D01*
X129356492Y-91097000D01*
X129567309Y-91076236D01*
X129837808Y-90994182D01*
X129941000Y-90939025D01*
X129940999Y-99050515D01*
X129858651Y-99132863D01*
X129829653Y-99156661D01*
X129805855Y-99185659D01*
X129805854Y-99185660D01*
X129734679Y-99272386D01*
X129713332Y-99312324D01*
X129664107Y-99404415D01*
X129620666Y-99547623D01*
X129565716Y-99602573D01*
X129452448Y-99772091D01*
X129374427Y-99960449D01*
X129334653Y-100160408D01*
X129334653Y-100364286D01*
X129374427Y-100564245D01*
X129452448Y-100752603D01*
X129565716Y-100922121D01*
X129709879Y-101066284D01*
X129879397Y-101179552D01*
X130067755Y-101257573D01*
X130267714Y-101297347D01*
X130471592Y-101297347D01*
X130671551Y-101257573D01*
X130859909Y-101179552D01*
X131029427Y-101066284D01*
X131173590Y-100922121D01*
X131286858Y-100752603D01*
X131364879Y-100564245D01*
X131404653Y-100364286D01*
X131404653Y-100160408D01*
X131364879Y-99960449D01*
X131308150Y-99823494D01*
X131335973Y-99789592D01*
X131406545Y-99657563D01*
X131450002Y-99514302D01*
X131460999Y-99402649D01*
X131460999Y-99402639D01*
X131464675Y-99365317D01*
X131460999Y-99327994D01*
X131460999Y-91050849D01*
X131544691Y-91076236D01*
X131755508Y-91097000D01*
X131896492Y-91097000D01*
X132107309Y-91076236D01*
X132377808Y-90994182D01*
X132627101Y-90860932D01*
X132845608Y-90681608D01*
X133024932Y-90463101D01*
X133158182Y-90213808D01*
X133240236Y-89943309D01*
X133267943Y-89662000D01*
X133240236Y-89380691D01*
X133158182Y-89110192D01*
X133024932Y-88860899D01*
X132845608Y-88642392D01*
X132627101Y-88463068D01*
X132377808Y-88329818D01*
X132107309Y-88247764D01*
X131896492Y-88227000D01*
X131755508Y-88227000D01*
X131544691Y-88247764D01*
X131460999Y-88273151D01*
X131460999Y-84531802D01*
X132337004Y-83655798D01*
X132366001Y-83632001D01*
X132460974Y-83516276D01*
X132480326Y-83480072D01*
X132626000Y-83480072D01*
X132750482Y-83467812D01*
X132870180Y-83431502D01*
X132980494Y-83372537D01*
X133077185Y-83293185D01*
X133156537Y-83196494D01*
X133215502Y-83086180D01*
X133251812Y-82966482D01*
X133264072Y-82842000D01*
X133264072Y-81242000D01*
X133251812Y-81117518D01*
X133215502Y-80997820D01*
X133156537Y-80887506D01*
X133077185Y-80790815D01*
X132980494Y-80711463D01*
X132902923Y-80670000D01*
X137200445Y-80670000D01*
X137182457Y-80713428D01*
X137131000Y-80972120D01*
X137131000Y-81235880D01*
X137182457Y-81494572D01*
X137283393Y-81738254D01*
X137310374Y-81778634D01*
X137261939Y-81769000D01*
X137058061Y-81769000D01*
X136858102Y-81808774D01*
X136669744Y-81886795D01*
X136500226Y-82000063D01*
X136356063Y-82144226D01*
X136242795Y-82313744D01*
X136164774Y-82502102D01*
X136125000Y-82702061D01*
X136125000Y-82905939D01*
X136164774Y-83105898D01*
X136242795Y-83294256D01*
X136356063Y-83463774D01*
X136500226Y-83607937D01*
X136669744Y-83721205D01*
X136858102Y-83799226D01*
X137058061Y-83839000D01*
X137254707Y-83839000D01*
X137182457Y-84013428D01*
X137131000Y-84272120D01*
X137131000Y-84535880D01*
X137182457Y-84794572D01*
X137283393Y-85038254D01*
X137429931Y-85257563D01*
X137616437Y-85444069D01*
X137835746Y-85590607D01*
X138079428Y-85691543D01*
X138338120Y-85743000D01*
X138556198Y-85743000D01*
X134363003Y-89936196D01*
X134333999Y-89959999D01*
X134284656Y-90020124D01*
X134239026Y-90075724D01*
X134189703Y-90168000D01*
X134168454Y-90207754D01*
X134124997Y-90351015D01*
X134114000Y-90462668D01*
X134114000Y-90462678D01*
X134110324Y-90500000D01*
X134114000Y-90537322D01*
X134114001Y-106642667D01*
X134110324Y-106680000D01*
X134114001Y-106717333D01*
X134124245Y-106821335D01*
X134124998Y-106828985D01*
X134168454Y-106972246D01*
X134239026Y-107104276D01*
X134310201Y-107191002D01*
X134334000Y-107220001D01*
X134362998Y-107243799D01*
X135871000Y-108751802D01*
X135871000Y-108813939D01*
X135910774Y-109013898D01*
X135988795Y-109202256D01*
X136102063Y-109371774D01*
X136246226Y-109515937D01*
X136415744Y-109629205D01*
X136604102Y-109707226D01*
X136804061Y-109747000D01*
X137007939Y-109747000D01*
X137207898Y-109707226D01*
X137396256Y-109629205D01*
X137565774Y-109515937D01*
X137709937Y-109371774D01*
X137823205Y-109202256D01*
X137901226Y-109013898D01*
X137941000Y-108813939D01*
X137941000Y-108610061D01*
X137901226Y-108410102D01*
X137823205Y-108221744D01*
X137709937Y-108052226D01*
X137565774Y-107908063D01*
X137396256Y-107794795D01*
X137207898Y-107716774D01*
X137007939Y-107677000D01*
X136945802Y-107677000D01*
X135634000Y-106365199D01*
X135634000Y-100482061D01*
X137141000Y-100482061D01*
X137141000Y-100685939D01*
X137180774Y-100885898D01*
X137258795Y-101074256D01*
X137372063Y-101243774D01*
X137516226Y-101387937D01*
X137685744Y-101501205D01*
X137874102Y-101579226D01*
X137978541Y-101600000D01*
X137874102Y-101620774D01*
X137685744Y-101698795D01*
X137516226Y-101812063D01*
X137372063Y-101956226D01*
X137258795Y-102125744D01*
X137180774Y-102314102D01*
X137141000Y-102514061D01*
X137141000Y-102717939D01*
X137180774Y-102917898D01*
X137258795Y-103106256D01*
X137372063Y-103275774D01*
X137516226Y-103419937D01*
X137685744Y-103533205D01*
X137874102Y-103611226D01*
X138074061Y-103651000D01*
X138277939Y-103651000D01*
X138477898Y-103611226D01*
X138666256Y-103533205D01*
X138835774Y-103419937D01*
X138879711Y-103376000D01*
X138940001Y-103376000D01*
X138940000Y-109024289D01*
X138896063Y-109068226D01*
X138782795Y-109237744D01*
X138704774Y-109426102D01*
X138665000Y-109626061D01*
X138665000Y-109829939D01*
X138704774Y-110029898D01*
X138782795Y-110218256D01*
X138896063Y-110387774D01*
X139040226Y-110531937D01*
X139209744Y-110645205D01*
X139398102Y-110723226D01*
X139598061Y-110763000D01*
X139801939Y-110763000D01*
X140001898Y-110723226D01*
X140190256Y-110645205D01*
X140359774Y-110531937D01*
X140503937Y-110387774D01*
X140617205Y-110218256D01*
X140695226Y-110029898D01*
X140735000Y-109829939D01*
X140735000Y-109626061D01*
X140695226Y-109426102D01*
X140617205Y-109237744D01*
X140503937Y-109068226D01*
X140460000Y-109024289D01*
X140460000Y-103376000D01*
X141489644Y-103376000D01*
X141459000Y-103530061D01*
X141459000Y-103733939D01*
X141498774Y-103933898D01*
X141576795Y-104122256D01*
X141690063Y-104291774D01*
X141734001Y-104335712D01*
X141734000Y-109024289D01*
X141690063Y-109068226D01*
X141576795Y-109237744D01*
X141498774Y-109426102D01*
X141459000Y-109626061D01*
X141459000Y-109829939D01*
X141498774Y-110029898D01*
X141576795Y-110218256D01*
X141690063Y-110387774D01*
X141834226Y-110531937D01*
X142003744Y-110645205D01*
X142192102Y-110723226D01*
X142392061Y-110763000D01*
X142595939Y-110763000D01*
X142795898Y-110723226D01*
X142984256Y-110645205D01*
X143153774Y-110531937D01*
X143297937Y-110387774D01*
X143411205Y-110218256D01*
X143489226Y-110029898D01*
X143529000Y-109829939D01*
X143529000Y-109626061D01*
X143489226Y-109426102D01*
X143411205Y-109237744D01*
X143297937Y-109068226D01*
X143254000Y-109024289D01*
X143254000Y-104335711D01*
X143297937Y-104291774D01*
X143411205Y-104122256D01*
X143489226Y-103933898D01*
X143529000Y-103733939D01*
X143529000Y-103530061D01*
X143498356Y-103376000D01*
X144283644Y-103376000D01*
X144253000Y-103530061D01*
X144253000Y-103733939D01*
X144292774Y-103933898D01*
X144370795Y-104122256D01*
X144484063Y-104291774D01*
X144528001Y-104335712D01*
X144528000Y-109024289D01*
X144484063Y-109068226D01*
X144370795Y-109237744D01*
X144292774Y-109426102D01*
X144253000Y-109626061D01*
X144253000Y-109829939D01*
X144292774Y-110029898D01*
X144370795Y-110218256D01*
X144484063Y-110387774D01*
X144628226Y-110531937D01*
X144797744Y-110645205D01*
X144986102Y-110723226D01*
X145186061Y-110763000D01*
X145389939Y-110763000D01*
X145589898Y-110723226D01*
X145778256Y-110645205D01*
X145947774Y-110531937D01*
X146091937Y-110387774D01*
X146205205Y-110218256D01*
X146283226Y-110029898D01*
X146323000Y-109829939D01*
X146323000Y-109626061D01*
X146283226Y-109426102D01*
X146205205Y-109237744D01*
X146091937Y-109068226D01*
X146048000Y-109024289D01*
X146048000Y-104542298D01*
X157376903Y-104542298D01*
X158190000Y-105355395D01*
X159003097Y-104542298D01*
X158931514Y-104298329D01*
X158676004Y-104177429D01*
X158401816Y-104108700D01*
X158119488Y-104094783D01*
X157839870Y-104136213D01*
X157573708Y-104231397D01*
X157448486Y-104298329D01*
X157376903Y-104542298D01*
X146048000Y-104542298D01*
X146048000Y-104335711D01*
X146091937Y-104291774D01*
X146205205Y-104122256D01*
X146283226Y-103933898D01*
X146323000Y-103733939D01*
X146323000Y-103530061D01*
X146292356Y-103376000D01*
X150680289Y-103376000D01*
X150724226Y-103419937D01*
X150893744Y-103533205D01*
X151082102Y-103611226D01*
X151282061Y-103651000D01*
X151485939Y-103651000D01*
X151685898Y-103611226D01*
X151874256Y-103533205D01*
X152043774Y-103419937D01*
X152187937Y-103275774D01*
X152301205Y-103106256D01*
X152379226Y-102917898D01*
X152419000Y-102717939D01*
X152419000Y-102514061D01*
X152379226Y-102314102D01*
X152301205Y-102125744D01*
X152187937Y-101956226D01*
X152043774Y-101812063D01*
X151874256Y-101698795D01*
X151685898Y-101620774D01*
X151485939Y-101581000D01*
X151282061Y-101581000D01*
X151082102Y-101620774D01*
X150893744Y-101698795D01*
X150724226Y-101812063D01*
X150680289Y-101856000D01*
X143398013Y-101856000D01*
X143411205Y-101836256D01*
X143489226Y-101647898D01*
X143529000Y-101447939D01*
X143529000Y-101344000D01*
X147124289Y-101344000D01*
X147168226Y-101387937D01*
X147337744Y-101501205D01*
X147526102Y-101579226D01*
X147726061Y-101619000D01*
X147929939Y-101619000D01*
X148129898Y-101579226D01*
X148318256Y-101501205D01*
X148487774Y-101387937D01*
X148631937Y-101243774D01*
X148745205Y-101074256D01*
X148823226Y-100885898D01*
X148863000Y-100685939D01*
X148863000Y-100482061D01*
X148823226Y-100282102D01*
X148745205Y-100093744D01*
X148631937Y-99924226D01*
X148487774Y-99780063D01*
X148318256Y-99666795D01*
X148129898Y-99588774D01*
X147929939Y-99549000D01*
X147726061Y-99549000D01*
X147526102Y-99588774D01*
X147337744Y-99666795D01*
X147168226Y-99780063D01*
X147124289Y-99824000D01*
X143906013Y-99824000D01*
X143919205Y-99804256D01*
X143997226Y-99615898D01*
X144037000Y-99415939D01*
X144037000Y-99212061D01*
X143997226Y-99012102D01*
X143919205Y-98823744D01*
X143805937Y-98654226D01*
X143762000Y-98610289D01*
X143762000Y-98493711D01*
X143805937Y-98449774D01*
X143919205Y-98280256D01*
X143997226Y-98091898D01*
X144037000Y-97891939D01*
X144037000Y-97688061D01*
X143997226Y-97488102D01*
X143919205Y-97299744D01*
X143805937Y-97130226D01*
X143661774Y-96986063D01*
X143492256Y-96872795D01*
X143303898Y-96794774D01*
X143103939Y-96755000D01*
X142900061Y-96755000D01*
X142700102Y-96794774D01*
X142511744Y-96872795D01*
X142342226Y-96986063D01*
X142198063Y-97130226D01*
X142084795Y-97299744D01*
X142006774Y-97488102D01*
X141967000Y-97688061D01*
X141967000Y-97891939D01*
X142006774Y-98091898D01*
X142084795Y-98280256D01*
X142198063Y-98449774D01*
X142242001Y-98493712D01*
X142242000Y-98610289D01*
X142198063Y-98654226D01*
X142084795Y-98823744D01*
X142006774Y-99012102D01*
X141967000Y-99212061D01*
X141967000Y-99415939D01*
X142006774Y-99615898D01*
X142084795Y-99804256D01*
X142097987Y-99824000D01*
X138879711Y-99824000D01*
X138835774Y-99780063D01*
X138666256Y-99666795D01*
X138477898Y-99588774D01*
X138277939Y-99549000D01*
X138074061Y-99549000D01*
X137874102Y-99588774D01*
X137685744Y-99666795D01*
X137516226Y-99780063D01*
X137372063Y-99924226D01*
X137258795Y-100093744D01*
X137180774Y-100282102D01*
X137141000Y-100482061D01*
X135634000Y-100482061D01*
X135634000Y-90814801D01*
X140727755Y-85721047D01*
X140838120Y-85743000D01*
X141101880Y-85743000D01*
X141360572Y-85691543D01*
X141604254Y-85590607D01*
X141823563Y-85444069D01*
X142010069Y-85257563D01*
X142156607Y-85038254D01*
X142220000Y-84885209D01*
X142283393Y-85038254D01*
X142429931Y-85257563D01*
X142616437Y-85444069D01*
X142835746Y-85590607D01*
X143079428Y-85691543D01*
X143338120Y-85743000D01*
X143601880Y-85743000D01*
X143712246Y-85721047D01*
X146342999Y-88351802D01*
X146343000Y-91910665D01*
X146339323Y-91947997D01*
X146353997Y-92096982D01*
X146397453Y-92240243D01*
X146468025Y-92372273D01*
X146529594Y-92447294D01*
X146562999Y-92487998D01*
X146591997Y-92511796D01*
X157715202Y-103635002D01*
X157739001Y-103664001D01*
X157767999Y-103687799D01*
X157854725Y-103758974D01*
X157986755Y-103829546D01*
X158130016Y-103873003D01*
X158241669Y-103884000D01*
X158241679Y-103884000D01*
X158279001Y-103887676D01*
X158316324Y-103884000D01*
X159197199Y-103884000D01*
X160630861Y-105317663D01*
X160588574Y-105300147D01*
X160311335Y-105245000D01*
X160028665Y-105245000D01*
X159751426Y-105300147D01*
X159614284Y-105356953D01*
X159588787Y-105184870D01*
X159493603Y-104918708D01*
X159426671Y-104793486D01*
X159182702Y-104721903D01*
X158369605Y-105535000D01*
X158383748Y-105549143D01*
X158204143Y-105728748D01*
X158190000Y-105714605D01*
X158175858Y-105728748D01*
X157996253Y-105549143D01*
X158010395Y-105535000D01*
X157197298Y-104721903D01*
X156953329Y-104793486D01*
X156832429Y-105048996D01*
X156784068Y-105241928D01*
X155410000Y-105241928D01*
X155285518Y-105254188D01*
X155165820Y-105290498D01*
X155055506Y-105349463D01*
X154958815Y-105428815D01*
X154879463Y-105525506D01*
X154820498Y-105635820D01*
X154784188Y-105755518D01*
X154771928Y-105880000D01*
X154771928Y-107480000D01*
X154784188Y-107604482D01*
X154820498Y-107724180D01*
X154879463Y-107834494D01*
X154958815Y-107931185D01*
X155055506Y-108010537D01*
X155110612Y-108039992D01*
X155095363Y-108055241D01*
X154938320Y-108290273D01*
X154830147Y-108551426D01*
X154775000Y-108828665D01*
X154775000Y-109111335D01*
X154830147Y-109388574D01*
X154938320Y-109649727D01*
X155095363Y-109884759D01*
X155295241Y-110084637D01*
X155340683Y-110115000D01*
X155295241Y-110145363D01*
X155095363Y-110345241D01*
X154938320Y-110580273D01*
X154830147Y-110841426D01*
X154775000Y-111118665D01*
X154775000Y-111401335D01*
X154830147Y-111678574D01*
X154938320Y-111939727D01*
X155095363Y-112174759D01*
X155295241Y-112374637D01*
X155340683Y-112405000D01*
X155295241Y-112435363D01*
X155095363Y-112635241D01*
X154938320Y-112870273D01*
X154830147Y-113131426D01*
X154775000Y-113408665D01*
X154775000Y-113691335D01*
X154830147Y-113968574D01*
X154938320Y-114229727D01*
X155095363Y-114464759D01*
X155295241Y-114664637D01*
X155425049Y-114751372D01*
X155396903Y-114847298D01*
X156210000Y-115660395D01*
X156224143Y-115646253D01*
X156403748Y-115825858D01*
X156389605Y-115840000D01*
X157202702Y-116653097D01*
X157446671Y-116581514D01*
X157567571Y-116326004D01*
X157636300Y-116051816D01*
X157637807Y-116021252D01*
X157703996Y-116052571D01*
X157978184Y-116121300D01*
X158260512Y-116135217D01*
X158540130Y-116093787D01*
X158742941Y-116021258D01*
X158790147Y-116258574D01*
X158898320Y-116519727D01*
X159055363Y-116754759D01*
X159255241Y-116954637D01*
X159490273Y-117111680D01*
X159751426Y-117219853D01*
X160028665Y-117275000D01*
X160311335Y-117275000D01*
X160588574Y-117219853D01*
X160849727Y-117111680D01*
X161084759Y-116954637D01*
X161284637Y-116754759D01*
X161441680Y-116519727D01*
X161549853Y-116258574D01*
X161605000Y-115981335D01*
X161605000Y-115698665D01*
X161549853Y-115421426D01*
X161441680Y-115160273D01*
X161284637Y-114925241D01*
X161084759Y-114725363D01*
X161039317Y-114695000D01*
X161084759Y-114664637D01*
X161284637Y-114464759D01*
X161441680Y-114229727D01*
X161549853Y-113968574D01*
X161605000Y-113691335D01*
X161605000Y-113408665D01*
X161549853Y-113131426D01*
X161441680Y-112870273D01*
X161284637Y-112635241D01*
X161084759Y-112435363D01*
X161039317Y-112405000D01*
X161084759Y-112374637D01*
X161284637Y-112174759D01*
X161441680Y-111939727D01*
X161549853Y-111678574D01*
X161605000Y-111401335D01*
X161605000Y-111118665D01*
X161568688Y-110936114D01*
X162055008Y-110449795D01*
X162084001Y-110426001D01*
X162107795Y-110397008D01*
X162107799Y-110397004D01*
X162178973Y-110310277D01*
X162187350Y-110294605D01*
X162249546Y-110178247D01*
X162293003Y-110034986D01*
X162304000Y-109923333D01*
X162304000Y-109923324D01*
X162307676Y-109886001D01*
X162304000Y-109848678D01*
X162304000Y-105193323D01*
X162307676Y-105156000D01*
X162304000Y-105118677D01*
X162304000Y-105118667D01*
X162293003Y-105007014D01*
X162249546Y-104863753D01*
X162229331Y-104825934D01*
X162178974Y-104731723D01*
X162107799Y-104644997D01*
X162084001Y-104615999D01*
X162055004Y-104592202D01*
X160075804Y-102613003D01*
X160052001Y-102583999D01*
X159936276Y-102489026D01*
X159804247Y-102418454D01*
X159660986Y-102374997D01*
X159549333Y-102364000D01*
X159549322Y-102364000D01*
X159512000Y-102360324D01*
X159474678Y-102364000D01*
X158593804Y-102364000D01*
X157082718Y-100852915D01*
X157268105Y-100949938D01*
X157766098Y-101096275D01*
X158283071Y-101142648D01*
X158799159Y-101087273D01*
X159294526Y-100932279D01*
X159711772Y-100709258D01*
X159927894Y-100342499D01*
X158260000Y-98674605D01*
X158245858Y-98688748D01*
X158066253Y-98509143D01*
X158080395Y-98495000D01*
X158439605Y-98495000D01*
X160107499Y-100162894D01*
X160474258Y-99946772D01*
X160714938Y-99486895D01*
X160861275Y-98988902D01*
X160907648Y-98471929D01*
X160852273Y-97955841D01*
X160697279Y-97460474D01*
X160474258Y-97043228D01*
X160107499Y-96827106D01*
X158439605Y-98495000D01*
X158080395Y-98495000D01*
X156412501Y-96827106D01*
X156045742Y-97043228D01*
X155805062Y-97503105D01*
X155658725Y-98001098D01*
X155612352Y-98518071D01*
X155667727Y-99034159D01*
X155822721Y-99529526D01*
X155895511Y-99665707D01*
X152877305Y-96647501D01*
X156592106Y-96647501D01*
X158260000Y-98315395D01*
X159927894Y-96647501D01*
X159711772Y-96280742D01*
X159251895Y-96040062D01*
X158753902Y-95893725D01*
X158236929Y-95847352D01*
X157720841Y-95902727D01*
X157225474Y-96057721D01*
X156808228Y-96280742D01*
X156592106Y-96647501D01*
X152877305Y-96647501D01*
X147862999Y-91633196D01*
X147862999Y-91565258D01*
X156577481Y-91565258D01*
X156589922Y-91631117D01*
X156693643Y-91877979D01*
X156843531Y-92099863D01*
X157033827Y-92288242D01*
X157257217Y-92435876D01*
X157505117Y-92537092D01*
X157768000Y-92588000D01*
X158043000Y-92588000D01*
X158043000Y-91355000D01*
X158297000Y-91355000D01*
X158297000Y-92588000D01*
X158572000Y-92588000D01*
X158834883Y-92537092D01*
X159082783Y-92435876D01*
X159306173Y-92288242D01*
X159496469Y-92099863D01*
X159646357Y-91877979D01*
X159724633Y-91691677D01*
X160476365Y-91691677D01*
X160478504Y-91723715D01*
X160568364Y-91944644D01*
X160699598Y-92143797D01*
X160867163Y-92313521D01*
X161064620Y-92447294D01*
X161284381Y-92539974D01*
X161518000Y-92588000D01*
X161843000Y-92588000D01*
X161843000Y-91505000D01*
X160601450Y-91505000D01*
X160476365Y-91691677D01*
X159724633Y-91691677D01*
X159750078Y-91631117D01*
X159762519Y-91565258D01*
X159639518Y-91355000D01*
X158297000Y-91355000D01*
X158043000Y-91355000D01*
X156700482Y-91355000D01*
X156577481Y-91565258D01*
X147862999Y-91565258D01*
X147862999Y-90890742D01*
X156577481Y-90890742D01*
X156700482Y-91101000D01*
X158043000Y-91101000D01*
X158043000Y-90003000D01*
X158179993Y-90003000D01*
X158199976Y-90205895D01*
X158259159Y-90400993D01*
X158297000Y-90471789D01*
X158297000Y-91101000D01*
X159639518Y-91101000D01*
X159660974Y-91064323D01*
X160476365Y-91064323D01*
X160601450Y-91251000D01*
X161843000Y-91251000D01*
X161843000Y-90168000D01*
X161518000Y-90168000D01*
X161284381Y-90216026D01*
X161064620Y-90308706D01*
X160867163Y-90442479D01*
X160699598Y-90612203D01*
X160568364Y-90811356D01*
X160478504Y-91032285D01*
X160476365Y-91064323D01*
X159660974Y-91064323D01*
X159762519Y-90890742D01*
X159761807Y-90886971D01*
X159797797Y-90867734D01*
X159955396Y-90738396D01*
X160084734Y-90580797D01*
X160180841Y-90400993D01*
X160240024Y-90205895D01*
X160260007Y-90003000D01*
X160240024Y-89800105D01*
X160180841Y-89605007D01*
X160084734Y-89425203D01*
X159955396Y-89267604D01*
X159797797Y-89138266D01*
X159617993Y-89042159D01*
X159422895Y-88982976D01*
X159270838Y-88968000D01*
X159169162Y-88968000D01*
X159017105Y-88982976D01*
X158822007Y-89042159D01*
X158642203Y-89138266D01*
X158484604Y-89267604D01*
X158355266Y-89425203D01*
X158259159Y-89605007D01*
X158199976Y-89800105D01*
X158179993Y-90003000D01*
X158043000Y-90003000D01*
X158043000Y-89868000D01*
X157768000Y-89868000D01*
X157505117Y-89918908D01*
X157257217Y-90020124D01*
X157033827Y-90167758D01*
X156843531Y-90356137D01*
X156693643Y-90578021D01*
X156589922Y-90824883D01*
X156577481Y-90890742D01*
X147862999Y-90890742D01*
X147862999Y-88074321D01*
X147866675Y-88036998D01*
X147862999Y-87999675D01*
X147862999Y-87999666D01*
X147852002Y-87888013D01*
X147808545Y-87744752D01*
X147737973Y-87612723D01*
X147724810Y-87596684D01*
X147666798Y-87525995D01*
X147666794Y-87525991D01*
X147643000Y-87496998D01*
X147614008Y-87473205D01*
X144787047Y-84646246D01*
X144809000Y-84535880D01*
X144809000Y-84272120D01*
X144757543Y-84013428D01*
X144656607Y-83769746D01*
X144543101Y-83599872D01*
X148133000Y-83599872D01*
X148133000Y-84040128D01*
X148218890Y-84471925D01*
X148387369Y-84878669D01*
X148631962Y-85244729D01*
X148943271Y-85556038D01*
X149309331Y-85800631D01*
X149716075Y-85969110D01*
X150147872Y-86055000D01*
X150588128Y-86055000D01*
X151019925Y-85969110D01*
X151426669Y-85800631D01*
X151792729Y-85556038D01*
X152104038Y-85244729D01*
X152348631Y-84878669D01*
X152517110Y-84471925D01*
X152588055Y-84115258D01*
X156577481Y-84115258D01*
X156589922Y-84181117D01*
X156693643Y-84427979D01*
X156843531Y-84649863D01*
X157033827Y-84838242D01*
X157257217Y-84985876D01*
X157505117Y-85087092D01*
X157768000Y-85138000D01*
X158043000Y-85138000D01*
X158043000Y-85003000D01*
X158179993Y-85003000D01*
X158199976Y-85205895D01*
X158259159Y-85400993D01*
X158355266Y-85580797D01*
X158484604Y-85738396D01*
X158642203Y-85867734D01*
X158822007Y-85963841D01*
X159017105Y-86023024D01*
X159169162Y-86038000D01*
X159270838Y-86038000D01*
X159422895Y-86023024D01*
X159617993Y-85963841D01*
X159797797Y-85867734D01*
X159955396Y-85738396D01*
X160084734Y-85580797D01*
X160180841Y-85400993D01*
X160240024Y-85205895D01*
X160260007Y-85003000D01*
X160240024Y-84800105D01*
X160180841Y-84605007D01*
X160084734Y-84425203D01*
X159955396Y-84267604D01*
X159797797Y-84138266D01*
X159761807Y-84119029D01*
X159762519Y-84115258D01*
X159660975Y-83941677D01*
X160476365Y-83941677D01*
X160478504Y-83973715D01*
X160568364Y-84194644D01*
X160699598Y-84393797D01*
X160867163Y-84563521D01*
X161064620Y-84697294D01*
X161284381Y-84789974D01*
X161518000Y-84838000D01*
X161843000Y-84838000D01*
X161843000Y-83755000D01*
X160601450Y-83755000D01*
X160476365Y-83941677D01*
X159660975Y-83941677D01*
X159639518Y-83905000D01*
X158297000Y-83905000D01*
X158297000Y-84534211D01*
X158259159Y-84605007D01*
X158199976Y-84800105D01*
X158179993Y-85003000D01*
X158043000Y-85003000D01*
X158043000Y-83905000D01*
X156700482Y-83905000D01*
X156577481Y-84115258D01*
X152588055Y-84115258D01*
X152603000Y-84040128D01*
X152603000Y-83599872D01*
X152571347Y-83440742D01*
X156577481Y-83440742D01*
X156700482Y-83651000D01*
X158043000Y-83651000D01*
X158043000Y-83631000D01*
X158297000Y-83631000D01*
X158297000Y-83651000D01*
X159639518Y-83651000D01*
X159762519Y-83440742D01*
X159750078Y-83374883D01*
X159724634Y-83314323D01*
X160476365Y-83314323D01*
X160601450Y-83501000D01*
X161843000Y-83501000D01*
X161843000Y-82418000D01*
X161518000Y-82418000D01*
X161284381Y-82466026D01*
X161064620Y-82558706D01*
X160867163Y-82692479D01*
X160699598Y-82862203D01*
X160568364Y-83061356D01*
X160478504Y-83282285D01*
X160476365Y-83314323D01*
X159724634Y-83314323D01*
X159646357Y-83128021D01*
X159496469Y-82906137D01*
X159306173Y-82717758D01*
X159082783Y-82570124D01*
X158834883Y-82468908D01*
X158572000Y-82418000D01*
X157768000Y-82418000D01*
X157505117Y-82468908D01*
X157257217Y-82570124D01*
X157033827Y-82717758D01*
X156843531Y-82906137D01*
X156693643Y-83128021D01*
X156589922Y-83374883D01*
X156577481Y-83440742D01*
X152571347Y-83440742D01*
X152517110Y-83168075D01*
X152348631Y-82761331D01*
X152104038Y-82395271D01*
X151792729Y-82083962D01*
X151426669Y-81839369D01*
X151019925Y-81670890D01*
X150588128Y-81585000D01*
X150147872Y-81585000D01*
X149716075Y-81670890D01*
X149309331Y-81839369D01*
X148943271Y-82083962D01*
X148631962Y-82395271D01*
X148387369Y-82761331D01*
X148218890Y-83168075D01*
X148133000Y-83599872D01*
X144543101Y-83599872D01*
X144510069Y-83550437D01*
X144323563Y-83363931D01*
X144230000Y-83301414D01*
X144230000Y-82206586D01*
X144323563Y-82144069D01*
X144510069Y-81957563D01*
X144656607Y-81738254D01*
X144757543Y-81494572D01*
X144809000Y-81235880D01*
X144809000Y-80972120D01*
X144757543Y-80713428D01*
X144739555Y-80670000D01*
X163170000Y-80670000D01*
X163170000Y-82790894D01*
X163072837Y-82692479D01*
X162875380Y-82558706D01*
X162655619Y-82466026D01*
X162422000Y-82418000D01*
X162097000Y-82418000D01*
X162097000Y-83501000D01*
X162117000Y-83501000D01*
X162117000Y-83755000D01*
X162097000Y-83755000D01*
X162097000Y-84838000D01*
X162422000Y-84838000D01*
X162655619Y-84789974D01*
X162875380Y-84697294D01*
X163072837Y-84563521D01*
X163170000Y-84465106D01*
X163170000Y-90540894D01*
X163072837Y-90442479D01*
X162875380Y-90308706D01*
X162655619Y-90216026D01*
X162422000Y-90168000D01*
X162097000Y-90168000D01*
X162097000Y-91251000D01*
X162117000Y-91251000D01*
X162117000Y-91505000D01*
X162097000Y-91505000D01*
X162097000Y-92588000D01*
X162422000Y-92588000D01*
X162655619Y-92539974D01*
X162875380Y-92447294D01*
X163072837Y-92313521D01*
X163170000Y-92215106D01*
X163170001Y-126340000D01*
X92100000Y-126340000D01*
X92100000Y-123223872D01*
X103937000Y-123223872D01*
X103937000Y-123664128D01*
X104022890Y-124095925D01*
X104191369Y-124502669D01*
X104435962Y-124868729D01*
X104747271Y-125180038D01*
X105113331Y-125424631D01*
X105520075Y-125593110D01*
X105951872Y-125679000D01*
X106392128Y-125679000D01*
X106823925Y-125593110D01*
X107230669Y-125424631D01*
X107596729Y-125180038D01*
X107908038Y-124868729D01*
X108152631Y-124502669D01*
X108321110Y-124095925D01*
X108407000Y-123664128D01*
X108407000Y-123223872D01*
X148133000Y-123223872D01*
X148133000Y-123664128D01*
X148218890Y-124095925D01*
X148387369Y-124502669D01*
X148631962Y-124868729D01*
X148943271Y-125180038D01*
X149309331Y-125424631D01*
X149716075Y-125593110D01*
X150147872Y-125679000D01*
X150588128Y-125679000D01*
X151019925Y-125593110D01*
X151426669Y-125424631D01*
X151549588Y-125342499D01*
X156592106Y-125342499D01*
X156808228Y-125709258D01*
X157268105Y-125949938D01*
X157766098Y-126096275D01*
X158283071Y-126142648D01*
X158799159Y-126087273D01*
X159294526Y-125932279D01*
X159711772Y-125709258D01*
X159927894Y-125342499D01*
X158260000Y-123674605D01*
X156592106Y-125342499D01*
X151549588Y-125342499D01*
X151792729Y-125180038D01*
X152104038Y-124868729D01*
X152348631Y-124502669D01*
X152517110Y-124095925D01*
X152603000Y-123664128D01*
X152603000Y-123518071D01*
X155612352Y-123518071D01*
X155667727Y-124034159D01*
X155822721Y-124529526D01*
X156045742Y-124946772D01*
X156412501Y-125162894D01*
X158080395Y-123495000D01*
X158439605Y-123495000D01*
X160107499Y-125162894D01*
X160474258Y-124946772D01*
X160714938Y-124486895D01*
X160861275Y-123988902D01*
X160907648Y-123471929D01*
X160852273Y-122955841D01*
X160697279Y-122460474D01*
X160474258Y-122043228D01*
X160107499Y-121827106D01*
X158439605Y-123495000D01*
X158080395Y-123495000D01*
X156412501Y-121827106D01*
X156045742Y-122043228D01*
X155805062Y-122503105D01*
X155658725Y-123001098D01*
X155612352Y-123518071D01*
X152603000Y-123518071D01*
X152603000Y-123223872D01*
X152517110Y-122792075D01*
X152348631Y-122385331D01*
X152104038Y-122019271D01*
X151792729Y-121707962D01*
X151702243Y-121647501D01*
X156592106Y-121647501D01*
X158260000Y-123315395D01*
X159927894Y-121647501D01*
X159711772Y-121280742D01*
X159251895Y-121040062D01*
X158753902Y-120893725D01*
X158236929Y-120847352D01*
X157720841Y-120902727D01*
X157225474Y-121057721D01*
X156808228Y-121280742D01*
X156592106Y-121647501D01*
X151702243Y-121647501D01*
X151426669Y-121463369D01*
X151019925Y-121294890D01*
X150588128Y-121209000D01*
X150147872Y-121209000D01*
X149716075Y-121294890D01*
X149309331Y-121463369D01*
X148943271Y-121707962D01*
X148631962Y-122019271D01*
X148387369Y-122385331D01*
X148218890Y-122792075D01*
X148133000Y-123223872D01*
X108407000Y-123223872D01*
X108321110Y-122792075D01*
X108152631Y-122385331D01*
X107908038Y-122019271D01*
X107596729Y-121707962D01*
X107230669Y-121463369D01*
X106823925Y-121294890D01*
X106392128Y-121209000D01*
X105951872Y-121209000D01*
X105520075Y-121294890D01*
X105113331Y-121463369D01*
X104747271Y-121707962D01*
X104435962Y-122019271D01*
X104191369Y-122385331D01*
X104022890Y-122792075D01*
X103937000Y-123223872D01*
X92100000Y-123223872D01*
X92100000Y-121348640D01*
X93510965Y-121348640D01*
X93739099Y-121725641D01*
X94215989Y-121976292D01*
X94732614Y-122129092D01*
X95269122Y-122178167D01*
X95804896Y-122121631D01*
X96319345Y-121961657D01*
X96760901Y-121725641D01*
X96989035Y-121348640D01*
X95250000Y-119609605D01*
X93510965Y-121348640D01*
X92100000Y-121348640D01*
X92100000Y-119449122D01*
X92501833Y-119449122D01*
X92558369Y-119984896D01*
X92718343Y-120499345D01*
X92954359Y-120940901D01*
X93331360Y-121169035D01*
X95070395Y-119430000D01*
X95429605Y-119430000D01*
X97168640Y-121169035D01*
X97545641Y-120940901D01*
X97796292Y-120464011D01*
X97949092Y-119947386D01*
X97998167Y-119410878D01*
X97941631Y-118875104D01*
X97781657Y-118360655D01*
X97545641Y-117919099D01*
X97168640Y-117690965D01*
X95429605Y-119430000D01*
X95070395Y-119430000D01*
X93331360Y-117690965D01*
X92954359Y-117919099D01*
X92703708Y-118395989D01*
X92550908Y-118912614D01*
X92501833Y-119449122D01*
X92100000Y-119449122D01*
X92100000Y-117511360D01*
X93510965Y-117511360D01*
X95250000Y-119250395D01*
X96989035Y-117511360D01*
X96760901Y-117134359D01*
X96284011Y-116883708D01*
X96111557Y-116832702D01*
X155396903Y-116832702D01*
X155468486Y-117076671D01*
X155723996Y-117197571D01*
X155998184Y-117266300D01*
X156280512Y-117280217D01*
X156560130Y-117238787D01*
X156826292Y-117143603D01*
X156951514Y-117076671D01*
X157023097Y-116832702D01*
X156210000Y-116019605D01*
X155396903Y-116832702D01*
X96111557Y-116832702D01*
X95767386Y-116730908D01*
X95230878Y-116681833D01*
X94695104Y-116738369D01*
X94180655Y-116898343D01*
X93739099Y-117134359D01*
X93510965Y-117511360D01*
X92100000Y-117511360D01*
X92100000Y-115910512D01*
X154769783Y-115910512D01*
X154811213Y-116190130D01*
X154906397Y-116456292D01*
X154973329Y-116581514D01*
X155217298Y-116653097D01*
X156030395Y-115840000D01*
X155217298Y-115026903D01*
X154973329Y-115098486D01*
X154852429Y-115353996D01*
X154783700Y-115628184D01*
X154769783Y-115910512D01*
X92100000Y-115910512D01*
X92100000Y-111872406D01*
X94972489Y-111872406D01*
X95010423Y-112092740D01*
X95090613Y-112301440D01*
X95118412Y-112353450D01*
X95331834Y-112388561D01*
X95930395Y-111790000D01*
X95331834Y-111191439D01*
X95118412Y-111226550D01*
X95027542Y-111430826D01*
X94978269Y-111648905D01*
X94972489Y-111872406D01*
X92100000Y-111872406D01*
X92100000Y-111011834D01*
X95511439Y-111011834D01*
X96110000Y-111610395D01*
X96124143Y-111596253D01*
X96303748Y-111775858D01*
X96289605Y-111790000D01*
X96303748Y-111804143D01*
X96124143Y-111983748D01*
X96110000Y-111969605D01*
X95511439Y-112568166D01*
X95546550Y-112781588D01*
X95750826Y-112872458D01*
X95968905Y-112921731D01*
X96192406Y-112927511D01*
X96251129Y-112917401D01*
X96245000Y-112948212D01*
X96245000Y-113171788D01*
X96288617Y-113391067D01*
X96374176Y-113597624D01*
X96498388Y-113783520D01*
X96656480Y-113941612D01*
X96842376Y-114065824D01*
X97048933Y-114151383D01*
X97268212Y-114195000D01*
X97440199Y-114195000D01*
X98564201Y-115319003D01*
X98587999Y-115348001D01*
X98703724Y-115442974D01*
X98835753Y-115513546D01*
X98979014Y-115557003D01*
X99090667Y-115568000D01*
X99090676Y-115568000D01*
X99127999Y-115571676D01*
X99165322Y-115568000D01*
X100546678Y-115568000D01*
X100584000Y-115571676D01*
X100621322Y-115568000D01*
X100621333Y-115568000D01*
X100732986Y-115557003D01*
X100876247Y-115513546D01*
X101008276Y-115442974D01*
X101124001Y-115348001D01*
X101147804Y-115318997D01*
X104251009Y-112215794D01*
X104280002Y-112192000D01*
X104303796Y-112163007D01*
X104303800Y-112163003D01*
X104374974Y-112076276D01*
X104394343Y-112040040D01*
X104445547Y-111944246D01*
X104489004Y-111800985D01*
X104500001Y-111689332D01*
X104500001Y-111689323D01*
X104503677Y-111652000D01*
X104500001Y-111614677D01*
X104500001Y-111207159D01*
X104630256Y-111153205D01*
X104799774Y-111039937D01*
X104943937Y-110895774D01*
X105057205Y-110726256D01*
X105135226Y-110537898D01*
X105175000Y-110337939D01*
X105175000Y-110134061D01*
X105135226Y-109934102D01*
X105057205Y-109745744D01*
X104943937Y-109576226D01*
X104799774Y-109432063D01*
X104630256Y-109318795D01*
X104441898Y-109240774D01*
X104241939Y-109201000D01*
X104038061Y-109201000D01*
X103838102Y-109240774D01*
X103649744Y-109318795D01*
X103480226Y-109432063D01*
X103336063Y-109576226D01*
X103222795Y-109745744D01*
X103144774Y-109934102D01*
X103105000Y-110134061D01*
X103105000Y-110211774D01*
X103043508Y-110326816D01*
X103034455Y-110343753D01*
X102990998Y-110487014D01*
X102980001Y-110598667D01*
X102980001Y-110598677D01*
X102976325Y-110635999D01*
X102980001Y-110673322D01*
X102980002Y-111337195D01*
X102302941Y-112014256D01*
X102321731Y-111931095D01*
X102327511Y-111707594D01*
X102289577Y-111487260D01*
X102209387Y-111278560D01*
X102181588Y-111226550D01*
X101968166Y-111191439D01*
X101369605Y-111790000D01*
X101383748Y-111804143D01*
X101204143Y-111983748D01*
X101190000Y-111969605D01*
X101175858Y-111983748D01*
X100996253Y-111804143D01*
X101010395Y-111790000D01*
X100996253Y-111775858D01*
X101175858Y-111596253D01*
X101190000Y-111610395D01*
X101788561Y-111011834D01*
X101753450Y-110798412D01*
X101549174Y-110707542D01*
X101331095Y-110658269D01*
X101107594Y-110652489D01*
X101048871Y-110662599D01*
X101055000Y-110631788D01*
X101055000Y-110408212D01*
X101011383Y-110188933D01*
X100925824Y-109982376D01*
X100801612Y-109796480D01*
X100643520Y-109638388D01*
X100457624Y-109514176D01*
X100251067Y-109428617D01*
X100031788Y-109385000D01*
X99808212Y-109385000D01*
X99588933Y-109428617D01*
X99382376Y-109514176D01*
X99196480Y-109638388D01*
X99038388Y-109796480D01*
X98914176Y-109982376D01*
X98828617Y-110188933D01*
X98785000Y-110408212D01*
X98785000Y-110631788D01*
X98828617Y-110851067D01*
X98914176Y-111057624D01*
X99038388Y-111243520D01*
X99196480Y-111401612D01*
X99382376Y-111525824D01*
X99588933Y-111611383D01*
X99808212Y-111655000D01*
X100031788Y-111655000D01*
X100058247Y-111649737D01*
X100052489Y-111872406D01*
X100062599Y-111931129D01*
X100031788Y-111925000D01*
X99808212Y-111925000D01*
X99588933Y-111968617D01*
X99382376Y-112054176D01*
X99196480Y-112178388D01*
X99038388Y-112336480D01*
X98914176Y-112522376D01*
X98828617Y-112728933D01*
X98785000Y-112948212D01*
X98785000Y-113171788D01*
X98828617Y-113391067D01*
X98858845Y-113464043D01*
X98515000Y-113120199D01*
X98515000Y-112948212D01*
X98471383Y-112728933D01*
X98385824Y-112522376D01*
X98261612Y-112336480D01*
X98103520Y-112178388D01*
X97917624Y-112054176D01*
X97711067Y-111968617D01*
X97491788Y-111925000D01*
X97268212Y-111925000D01*
X97241753Y-111930263D01*
X97247511Y-111707594D01*
X97237401Y-111648871D01*
X97268212Y-111655000D01*
X97491788Y-111655000D01*
X97711067Y-111611383D01*
X97917624Y-111525824D01*
X98103520Y-111401612D01*
X98261612Y-111243520D01*
X98385824Y-111057624D01*
X98471383Y-110851067D01*
X98515000Y-110631788D01*
X98515000Y-110408212D01*
X98471383Y-110188933D01*
X98385824Y-109982376D01*
X98261612Y-109796480D01*
X98103520Y-109638388D01*
X97917624Y-109514176D01*
X97711067Y-109428617D01*
X97491788Y-109385000D01*
X97268212Y-109385000D01*
X97048933Y-109428617D01*
X96842376Y-109514176D01*
X96656480Y-109638388D01*
X96498388Y-109796480D01*
X96374176Y-109982376D01*
X96288617Y-110188933D01*
X96245000Y-110408212D01*
X96245000Y-110631788D01*
X96250263Y-110658247D01*
X96027594Y-110652489D01*
X95807260Y-110690423D01*
X95598560Y-110770613D01*
X95546550Y-110798412D01*
X95511439Y-111011834D01*
X92100000Y-111011834D01*
X92100000Y-103634473D01*
X95430610Y-103634473D01*
X95470875Y-103894344D01*
X95561065Y-104141366D01*
X95614963Y-104242203D01*
X95848731Y-104301664D01*
X96590395Y-103560000D01*
X95848731Y-102818336D01*
X95614963Y-102877797D01*
X95504066Y-103116242D01*
X95441817Y-103371740D01*
X95430610Y-103634473D01*
X92100000Y-103634473D01*
X92100000Y-99608514D01*
X95435000Y-99608514D01*
X95435000Y-99871486D01*
X95486304Y-100129405D01*
X95586939Y-100372359D01*
X95733038Y-100591013D01*
X95837025Y-100695000D01*
X95733038Y-100798987D01*
X95586939Y-101017641D01*
X95486304Y-101260595D01*
X95435000Y-101518514D01*
X95435000Y-101781486D01*
X95486304Y-102039405D01*
X95586939Y-102282359D01*
X95733038Y-102501013D01*
X95918987Y-102686962D01*
X96137641Y-102833061D01*
X96282788Y-102893183D01*
X96770000Y-103380395D01*
X97257212Y-102893183D01*
X97402359Y-102833061D01*
X97621013Y-102686962D01*
X97725000Y-102582975D01*
X97747025Y-102605000D01*
X97643038Y-102708987D01*
X97496939Y-102927641D01*
X97436817Y-103072788D01*
X96949605Y-103560000D01*
X97436817Y-104047212D01*
X97496939Y-104192359D01*
X97643038Y-104411013D01*
X97828987Y-104596962D01*
X98047641Y-104743061D01*
X98192788Y-104803183D01*
X98680000Y-105290395D01*
X99167212Y-104803183D01*
X99312359Y-104743061D01*
X99531013Y-104596962D01*
X99635000Y-104492975D01*
X99657025Y-104515000D01*
X99553038Y-104618987D01*
X99406939Y-104837641D01*
X99346817Y-104982788D01*
X98859605Y-105470000D01*
X99346817Y-105957212D01*
X99406939Y-106102359D01*
X99553038Y-106321013D01*
X99657025Y-106425000D01*
X99635000Y-106447025D01*
X99531013Y-106343038D01*
X99312359Y-106196939D01*
X99167212Y-106136817D01*
X98680000Y-105649605D01*
X98192788Y-106136817D01*
X98047641Y-106196939D01*
X97828987Y-106343038D01*
X97725000Y-106447025D01*
X97702975Y-106425000D01*
X97806962Y-106321013D01*
X97953061Y-106102359D01*
X98013183Y-105957212D01*
X98500395Y-105470000D01*
X98013183Y-104982788D01*
X97953061Y-104837641D01*
X97806962Y-104618987D01*
X97621013Y-104433038D01*
X97402359Y-104286939D01*
X97257212Y-104226817D01*
X96770000Y-103739605D01*
X96282788Y-104226817D01*
X96137641Y-104286939D01*
X95918987Y-104433038D01*
X95733038Y-104618987D01*
X95586939Y-104837641D01*
X95486304Y-105080595D01*
X95435000Y-105338514D01*
X95435000Y-105601486D01*
X95486304Y-105859405D01*
X95586939Y-106102359D01*
X95733038Y-106321013D01*
X95837025Y-106425000D01*
X95733038Y-106528987D01*
X95586939Y-106747641D01*
X95486304Y-106990595D01*
X95435000Y-107248514D01*
X95435000Y-107511486D01*
X95486304Y-107769405D01*
X95586939Y-108012359D01*
X95733038Y-108231013D01*
X95918987Y-108416962D01*
X96137641Y-108563061D01*
X96380595Y-108663696D01*
X96638514Y-108715000D01*
X96901486Y-108715000D01*
X97159405Y-108663696D01*
X97402359Y-108563061D01*
X97621013Y-108416962D01*
X97725000Y-108312975D01*
X97828987Y-108416962D01*
X98047641Y-108563061D01*
X98290595Y-108663696D01*
X98548514Y-108715000D01*
X98811486Y-108715000D01*
X99069405Y-108663696D01*
X99312359Y-108563061D01*
X99531013Y-108416962D01*
X99635000Y-108312975D01*
X99738987Y-108416962D01*
X99957641Y-108563061D01*
X100200595Y-108663696D01*
X100458514Y-108715000D01*
X100721486Y-108715000D01*
X100979405Y-108663696D01*
X101222359Y-108563061D01*
X101441013Y-108416962D01*
X101626962Y-108231013D01*
X101773061Y-108012359D01*
X101873696Y-107769405D01*
X101925000Y-107511486D01*
X101925000Y-107248514D01*
X101873696Y-106990595D01*
X101773061Y-106747641D01*
X101626962Y-106528987D01*
X101522975Y-106425000D01*
X101626962Y-106321013D01*
X101773061Y-106102359D01*
X101873696Y-105859405D01*
X101925000Y-105601486D01*
X101925000Y-105338514D01*
X101873696Y-105080595D01*
X101773061Y-104837641D01*
X101626962Y-104618987D01*
X101522975Y-104515000D01*
X101626962Y-104411013D01*
X101773061Y-104192359D01*
X101873696Y-103949405D01*
X101925000Y-103691486D01*
X101925000Y-103428514D01*
X101873696Y-103170595D01*
X101773061Y-102927641D01*
X101626962Y-102708987D01*
X101522975Y-102605000D01*
X101626962Y-102501013D01*
X101773061Y-102282359D01*
X101873696Y-102039405D01*
X101880328Y-102006061D01*
X120885000Y-102006061D01*
X120885000Y-102209939D01*
X120924774Y-102409898D01*
X121002795Y-102598256D01*
X121116063Y-102767774D01*
X121260226Y-102911937D01*
X121429744Y-103025205D01*
X121618102Y-103103226D01*
X121818061Y-103143000D01*
X122021939Y-103143000D01*
X122221898Y-103103226D01*
X122410256Y-103025205D01*
X122579774Y-102911937D01*
X122684004Y-102807707D01*
X122684005Y-112326288D01*
X122640067Y-112370226D01*
X122526799Y-112539744D01*
X122448778Y-112728102D01*
X122409004Y-112928061D01*
X122409004Y-113131939D01*
X122448778Y-113331898D01*
X122526799Y-113520256D01*
X122640067Y-113689774D01*
X122784230Y-113833937D01*
X122953748Y-113947205D01*
X123142106Y-114025226D01*
X123342065Y-114065000D01*
X123545943Y-114065000D01*
X123745902Y-114025226D01*
X123934260Y-113947205D01*
X124103778Y-113833937D01*
X124247941Y-113689774D01*
X124361209Y-113520256D01*
X124439230Y-113331898D01*
X124479004Y-113131939D01*
X124479004Y-112928061D01*
X124439230Y-112728102D01*
X124361209Y-112539744D01*
X124247941Y-112370226D01*
X124204004Y-112326289D01*
X124204004Y-101152797D01*
X124245801Y-101111000D01*
X124307939Y-101111000D01*
X124507898Y-101071226D01*
X124696256Y-100993205D01*
X124865774Y-100879937D01*
X125009937Y-100735774D01*
X125123205Y-100566256D01*
X125201226Y-100377898D01*
X125241000Y-100177939D01*
X125241000Y-99974061D01*
X125201226Y-99774102D01*
X125123205Y-99585744D01*
X125009937Y-99416226D01*
X124865774Y-99272063D01*
X124696256Y-99158795D01*
X124507898Y-99080774D01*
X124307939Y-99041000D01*
X124104061Y-99041000D01*
X123904102Y-99080774D01*
X123715744Y-99158795D01*
X123546226Y-99272063D01*
X123444000Y-99374289D01*
X123341774Y-99272063D01*
X123172256Y-99158795D01*
X122983898Y-99080774D01*
X122783939Y-99041000D01*
X122580061Y-99041000D01*
X122380102Y-99080774D01*
X122191744Y-99158795D01*
X122022226Y-99272063D01*
X121878063Y-99416226D01*
X121764795Y-99585744D01*
X121686774Y-99774102D01*
X121647000Y-99974061D01*
X121647000Y-100177939D01*
X121686774Y-100377898D01*
X121764795Y-100566256D01*
X121878063Y-100735774D01*
X121922001Y-100779712D01*
X121922001Y-101031198D01*
X121880198Y-101073000D01*
X121818061Y-101073000D01*
X121618102Y-101112774D01*
X121429744Y-101190795D01*
X121260226Y-101304063D01*
X121116063Y-101448226D01*
X121002795Y-101617744D01*
X120924774Y-101806102D01*
X120885000Y-102006061D01*
X101880328Y-102006061D01*
X101925000Y-101781486D01*
X101925000Y-101518514D01*
X101873696Y-101260595D01*
X101773061Y-101017641D01*
X101626962Y-100798987D01*
X101522975Y-100695000D01*
X101626962Y-100591013D01*
X101773061Y-100372359D01*
X101873696Y-100129405D01*
X101925000Y-99871486D01*
X101925000Y-99608514D01*
X101873696Y-99350595D01*
X101773061Y-99107641D01*
X101626962Y-98888987D01*
X101441013Y-98703038D01*
X101222359Y-98556939D01*
X101077212Y-98496817D01*
X100590000Y-98009605D01*
X100102788Y-98496817D01*
X99957641Y-98556939D01*
X99738987Y-98703038D01*
X99635000Y-98807025D01*
X99531013Y-98703038D01*
X99312359Y-98556939D01*
X99167212Y-98496817D01*
X98680000Y-98009605D01*
X98192788Y-98496817D01*
X98047641Y-98556939D01*
X97828987Y-98703038D01*
X97725000Y-98807025D01*
X97621013Y-98703038D01*
X97402359Y-98556939D01*
X97257212Y-98496817D01*
X96770000Y-98009605D01*
X96282788Y-98496817D01*
X96137641Y-98556939D01*
X95918987Y-98703038D01*
X95733038Y-98888987D01*
X95586939Y-99107641D01*
X95486304Y-99350595D01*
X95435000Y-99608514D01*
X92100000Y-99608514D01*
X92100000Y-97904473D01*
X95430610Y-97904473D01*
X95470875Y-98164344D01*
X95561065Y-98411366D01*
X95614963Y-98512203D01*
X95848731Y-98571664D01*
X96590395Y-97830000D01*
X96949605Y-97830000D01*
X97436615Y-98317010D01*
X97471065Y-98411366D01*
X97524963Y-98512203D01*
X97668256Y-98548651D01*
X97691269Y-98571664D01*
X97725000Y-98563084D01*
X97758731Y-98571664D01*
X97781744Y-98548651D01*
X97925037Y-98512203D01*
X98017934Y-98312461D01*
X98500395Y-97830000D01*
X98859605Y-97830000D01*
X99346615Y-98317010D01*
X99381065Y-98411366D01*
X99434963Y-98512203D01*
X99578256Y-98548651D01*
X99601269Y-98571664D01*
X99635000Y-98563084D01*
X99668731Y-98571664D01*
X99691744Y-98548651D01*
X99835037Y-98512203D01*
X99927934Y-98312461D01*
X100410395Y-97830000D01*
X100769605Y-97830000D01*
X101511269Y-98571664D01*
X101745037Y-98512203D01*
X101855934Y-98273758D01*
X101918183Y-98018260D01*
X101929390Y-97755527D01*
X101889125Y-97495656D01*
X101798935Y-97248634D01*
X101745037Y-97147797D01*
X101511269Y-97088336D01*
X100769605Y-97830000D01*
X100410395Y-97830000D01*
X99923385Y-97342990D01*
X99888935Y-97248634D01*
X99835037Y-97147797D01*
X99691744Y-97111349D01*
X99668731Y-97088336D01*
X99635000Y-97096916D01*
X99601269Y-97088336D01*
X99578256Y-97111349D01*
X99434963Y-97147797D01*
X99342066Y-97347539D01*
X98859605Y-97830000D01*
X98500395Y-97830000D01*
X98013385Y-97342990D01*
X97978935Y-97248634D01*
X97925037Y-97147797D01*
X97781744Y-97111349D01*
X97758731Y-97088336D01*
X97725000Y-97096916D01*
X97691269Y-97088336D01*
X97668256Y-97111349D01*
X97524963Y-97147797D01*
X97432066Y-97347539D01*
X96949605Y-97830000D01*
X96590395Y-97830000D01*
X95848731Y-97088336D01*
X95614963Y-97147797D01*
X95504066Y-97386242D01*
X95441817Y-97641740D01*
X95430610Y-97904473D01*
X92100000Y-97904473D01*
X92100000Y-93878514D01*
X95435000Y-93878514D01*
X95435000Y-94141486D01*
X95486304Y-94399405D01*
X95586939Y-94642359D01*
X95733038Y-94861013D01*
X95837025Y-94965000D01*
X95733038Y-95068987D01*
X95586939Y-95287641D01*
X95486304Y-95530595D01*
X95435000Y-95788514D01*
X95435000Y-96051486D01*
X95486304Y-96309405D01*
X95586939Y-96552359D01*
X95733038Y-96771013D01*
X95918987Y-96956962D01*
X96137641Y-97103061D01*
X96282788Y-97163183D01*
X96770000Y-97650395D01*
X97257212Y-97163183D01*
X97402359Y-97103061D01*
X97621013Y-96956962D01*
X97725000Y-96852975D01*
X97828987Y-96956962D01*
X98047641Y-97103061D01*
X98192788Y-97163183D01*
X98680000Y-97650395D01*
X99167212Y-97163183D01*
X99312359Y-97103061D01*
X99531013Y-96956962D01*
X99635000Y-96852975D01*
X99738987Y-96956962D01*
X99957641Y-97103061D01*
X100102788Y-97163183D01*
X100590000Y-97650395D01*
X101077212Y-97163183D01*
X101222359Y-97103061D01*
X101441013Y-96956962D01*
X101626962Y-96771013D01*
X101773061Y-96552359D01*
X101873696Y-96309405D01*
X101925000Y-96051486D01*
X101925000Y-95788514D01*
X101873696Y-95530595D01*
X101773061Y-95287641D01*
X101707201Y-95189075D01*
X101741185Y-95161185D01*
X101820537Y-95064494D01*
X101879502Y-94954180D01*
X101915812Y-94834482D01*
X101928072Y-94710000D01*
X101928072Y-93310000D01*
X101915812Y-93185518D01*
X101879502Y-93065820D01*
X101820537Y-92955506D01*
X101741185Y-92858815D01*
X101644494Y-92779463D01*
X101534180Y-92720498D01*
X101414482Y-92684188D01*
X101290000Y-92671928D01*
X99890000Y-92671928D01*
X99765518Y-92684188D01*
X99645820Y-92720498D01*
X99535506Y-92779463D01*
X99438815Y-92858815D01*
X99410925Y-92892799D01*
X99312359Y-92826939D01*
X99069405Y-92726304D01*
X98811486Y-92675000D01*
X98548514Y-92675000D01*
X98290595Y-92726304D01*
X98047641Y-92826939D01*
X97828987Y-92973038D01*
X97725000Y-93077025D01*
X97621013Y-92973038D01*
X97402359Y-92826939D01*
X97159405Y-92726304D01*
X96901486Y-92675000D01*
X96638514Y-92675000D01*
X96380595Y-92726304D01*
X96137641Y-92826939D01*
X95918987Y-92973038D01*
X95733038Y-93158987D01*
X95586939Y-93377641D01*
X95486304Y-93620595D01*
X95435000Y-93878514D01*
X92100000Y-93878514D01*
X92100000Y-89548640D01*
X93510965Y-89548640D01*
X93739099Y-89925641D01*
X94215989Y-90176292D01*
X94732614Y-90329092D01*
X95269122Y-90378167D01*
X95804896Y-90321631D01*
X96319345Y-90161657D01*
X96760901Y-89925641D01*
X96989035Y-89548640D01*
X95250000Y-87809605D01*
X93510965Y-89548640D01*
X92100000Y-89548640D01*
X92100000Y-87649122D01*
X92501833Y-87649122D01*
X92558369Y-88184896D01*
X92718343Y-88699345D01*
X92954359Y-89140901D01*
X93331360Y-89369035D01*
X95070395Y-87630000D01*
X95429605Y-87630000D01*
X97168640Y-89369035D01*
X97545641Y-89140901D01*
X97796292Y-88664011D01*
X97949092Y-88147386D01*
X97998167Y-87610878D01*
X97941631Y-87075104D01*
X97781657Y-86560655D01*
X97545641Y-86119099D01*
X97168640Y-85890965D01*
X95429605Y-87630000D01*
X95070395Y-87630000D01*
X93331360Y-85890965D01*
X92954359Y-86119099D01*
X92703708Y-86595989D01*
X92550908Y-87112614D01*
X92501833Y-87649122D01*
X92100000Y-87649122D01*
X92100000Y-85711360D01*
X93510965Y-85711360D01*
X95250000Y-87450395D01*
X96989035Y-85711360D01*
X96760901Y-85334359D01*
X96284011Y-85083708D01*
X95767386Y-84930908D01*
X95230878Y-84881833D01*
X94695104Y-84938369D01*
X94180655Y-85098343D01*
X93739099Y-85334359D01*
X93510965Y-85711360D01*
X92100000Y-85711360D01*
X92100000Y-83599872D01*
X103937000Y-83599872D01*
X103937000Y-84040128D01*
X104022890Y-84471925D01*
X104191369Y-84878669D01*
X104435962Y-85244729D01*
X104747271Y-85556038D01*
X105113331Y-85800631D01*
X105520075Y-85969110D01*
X105951872Y-86055000D01*
X106392128Y-86055000D01*
X106823925Y-85969110D01*
X107230669Y-85800631D01*
X107596729Y-85556038D01*
X107908038Y-85244729D01*
X108152631Y-84878669D01*
X108321110Y-84471925D01*
X108407000Y-84040128D01*
X108407000Y-83599872D01*
X108321110Y-83168075D01*
X108152631Y-82761331D01*
X107908038Y-82395271D01*
X107596729Y-82083962D01*
X107230669Y-81839369D01*
X106823925Y-81670890D01*
X106392128Y-81585000D01*
X105951872Y-81585000D01*
X105520075Y-81670890D01*
X105113331Y-81839369D01*
X104747271Y-82083962D01*
X104435962Y-82395271D01*
X104191369Y-82761331D01*
X104022890Y-83168075D01*
X103937000Y-83599872D01*
X92100000Y-83599872D01*
X92100000Y-80670000D01*
X126325456Y-80670000D01*
X126194192Y-80709818D01*
X126194192Y-80709818D01*
G37*
X126194192Y-80709818D02*
X125944899Y-80843068D01*
X125726392Y-81022392D01*
X125547068Y-81240899D01*
X125413818Y-81490192D01*
X125331764Y-81760691D01*
X125304057Y-82042000D01*
X125331764Y-82323309D01*
X125413818Y-82593808D01*
X125547068Y-82843101D01*
X125726392Y-83061608D01*
X125944899Y-83240932D01*
X126194192Y-83374182D01*
X126464691Y-83456236D01*
X126675508Y-83477000D01*
X126816492Y-83477000D01*
X127027309Y-83456236D01*
X127297808Y-83374182D01*
X127401000Y-83319025D01*
X127401000Y-88384975D01*
X127297808Y-88329818D01*
X127027309Y-88247764D01*
X126816492Y-88227000D01*
X126675508Y-88227000D01*
X126464691Y-88247764D01*
X126194192Y-88329818D01*
X125944899Y-88463068D01*
X125726392Y-88642392D01*
X125547068Y-88860899D01*
X125413818Y-89110192D01*
X125331764Y-89380691D01*
X125304057Y-89662000D01*
X125331764Y-89943309D01*
X125413818Y-90213808D01*
X125547068Y-90463101D01*
X125726392Y-90681608D01*
X125944899Y-90860932D01*
X126194192Y-90994182D01*
X126464691Y-91076236D01*
X126675508Y-91097000D01*
X126816492Y-91097000D01*
X127027309Y-91076236D01*
X127297808Y-90994182D01*
X127401000Y-90939025D01*
X127400999Y-101141992D01*
X127397323Y-101179314D01*
X127400999Y-101216636D01*
X127400999Y-101216646D01*
X127411996Y-101328299D01*
X127448288Y-101447939D01*
X127455453Y-101471560D01*
X127526025Y-101603590D01*
X127538672Y-101619000D01*
X127620998Y-101719315D01*
X127650002Y-101743118D01*
X129245381Y-103338498D01*
X129191427Y-103468755D01*
X129151653Y-103668714D01*
X129151653Y-103872592D01*
X129191427Y-104072551D01*
X129269448Y-104260909D01*
X129382716Y-104430427D01*
X129526879Y-104574590D01*
X129696397Y-104687858D01*
X129884755Y-104765879D01*
X130084714Y-104805653D01*
X130288592Y-104805653D01*
X130488551Y-104765879D01*
X130676909Y-104687858D01*
X130846427Y-104574590D01*
X130990590Y-104430427D01*
X131103858Y-104260909D01*
X131181879Y-104072551D01*
X131221653Y-103872592D01*
X131221653Y-103668714D01*
X131181879Y-103468755D01*
X131103858Y-103280397D01*
X130990590Y-103110879D01*
X130935640Y-103055929D01*
X130892199Y-102912721D01*
X130821627Y-102780692D01*
X130726654Y-102664967D01*
X130697656Y-102641169D01*
X128920999Y-100864513D01*
X128920999Y-91050849D01*
X129004691Y-91076236D01*
X129215508Y-91097000D01*
X129356492Y-91097000D01*
X129567309Y-91076236D01*
X129837808Y-90994182D01*
X129941000Y-90939025D01*
X129940999Y-99050515D01*
X129858651Y-99132863D01*
X129829653Y-99156661D01*
X129805855Y-99185659D01*
X129805854Y-99185660D01*
X129734679Y-99272386D01*
X129713332Y-99312324D01*
X129664107Y-99404415D01*
X129620666Y-99547623D01*
X129565716Y-99602573D01*
X129452448Y-99772091D01*
X129374427Y-99960449D01*
X129334653Y-100160408D01*
X129334653Y-100364286D01*
X129374427Y-100564245D01*
X129452448Y-100752603D01*
X129565716Y-100922121D01*
X129709879Y-101066284D01*
X129879397Y-101179552D01*
X130067755Y-101257573D01*
X130267714Y-101297347D01*
X130471592Y-101297347D01*
X130671551Y-101257573D01*
X130859909Y-101179552D01*
X131029427Y-101066284D01*
X131173590Y-100922121D01*
X131286858Y-100752603D01*
X131364879Y-100564245D01*
X131404653Y-100364286D01*
X131404653Y-100160408D01*
X131364879Y-99960449D01*
X131308150Y-99823494D01*
X131335973Y-99789592D01*
X131406545Y-99657563D01*
X131450002Y-99514302D01*
X131460999Y-99402649D01*
X131460999Y-99402639D01*
X131464675Y-99365317D01*
X131460999Y-99327994D01*
X131460999Y-91050849D01*
X131544691Y-91076236D01*
X131755508Y-91097000D01*
X131896492Y-91097000D01*
X132107309Y-91076236D01*
X132377808Y-90994182D01*
X132627101Y-90860932D01*
X132845608Y-90681608D01*
X133024932Y-90463101D01*
X133158182Y-90213808D01*
X133240236Y-89943309D01*
X133267943Y-89662000D01*
X133240236Y-89380691D01*
X133158182Y-89110192D01*
X133024932Y-88860899D01*
X132845608Y-88642392D01*
X132627101Y-88463068D01*
X132377808Y-88329818D01*
X132107309Y-88247764D01*
X131896492Y-88227000D01*
X131755508Y-88227000D01*
X131544691Y-88247764D01*
X131460999Y-88273151D01*
X131460999Y-84531802D01*
X132337004Y-83655798D01*
X132366001Y-83632001D01*
X132460974Y-83516276D01*
X132480326Y-83480072D01*
X132626000Y-83480072D01*
X132750482Y-83467812D01*
X132870180Y-83431502D01*
X132980494Y-83372537D01*
X133077185Y-83293185D01*
X133156537Y-83196494D01*
X133215502Y-83086180D01*
X133251812Y-82966482D01*
X133264072Y-82842000D01*
X133264072Y-81242000D01*
X133251812Y-81117518D01*
X133215502Y-80997820D01*
X133156537Y-80887506D01*
X133077185Y-80790815D01*
X132980494Y-80711463D01*
X132902923Y-80670000D01*
X137200445Y-80670000D01*
X137182457Y-80713428D01*
X137131000Y-80972120D01*
X137131000Y-81235880D01*
X137182457Y-81494572D01*
X137283393Y-81738254D01*
X137310374Y-81778634D01*
X137261939Y-81769000D01*
X137058061Y-81769000D01*
X136858102Y-81808774D01*
X136669744Y-81886795D01*
X136500226Y-82000063D01*
X136356063Y-82144226D01*
X136242795Y-82313744D01*
X136164774Y-82502102D01*
X136125000Y-82702061D01*
X136125000Y-82905939D01*
X136164774Y-83105898D01*
X136242795Y-83294256D01*
X136356063Y-83463774D01*
X136500226Y-83607937D01*
X136669744Y-83721205D01*
X136858102Y-83799226D01*
X137058061Y-83839000D01*
X137254707Y-83839000D01*
X137182457Y-84013428D01*
X137131000Y-84272120D01*
X137131000Y-84535880D01*
X137182457Y-84794572D01*
X137283393Y-85038254D01*
X137429931Y-85257563D01*
X137616437Y-85444069D01*
X137835746Y-85590607D01*
X138079428Y-85691543D01*
X138338120Y-85743000D01*
X138556198Y-85743000D01*
X134363003Y-89936196D01*
X134333999Y-89959999D01*
X134284656Y-90020124D01*
X134239026Y-90075724D01*
X134189703Y-90168000D01*
X134168454Y-90207754D01*
X134124997Y-90351015D01*
X134114000Y-90462668D01*
X134114000Y-90462678D01*
X134110324Y-90500000D01*
X134114000Y-90537322D01*
X134114001Y-106642667D01*
X134110324Y-106680000D01*
X134114001Y-106717333D01*
X134124245Y-106821335D01*
X134124998Y-106828985D01*
X134168454Y-106972246D01*
X134239026Y-107104276D01*
X134310201Y-107191002D01*
X134334000Y-107220001D01*
X134362998Y-107243799D01*
X135871000Y-108751802D01*
X135871000Y-108813939D01*
X135910774Y-109013898D01*
X135988795Y-109202256D01*
X136102063Y-109371774D01*
X136246226Y-109515937D01*
X136415744Y-109629205D01*
X136604102Y-109707226D01*
X136804061Y-109747000D01*
X137007939Y-109747000D01*
X137207898Y-109707226D01*
X137396256Y-109629205D01*
X137565774Y-109515937D01*
X137709937Y-109371774D01*
X137823205Y-109202256D01*
X137901226Y-109013898D01*
X137941000Y-108813939D01*
X137941000Y-108610061D01*
X137901226Y-108410102D01*
X137823205Y-108221744D01*
X137709937Y-108052226D01*
X137565774Y-107908063D01*
X137396256Y-107794795D01*
X137207898Y-107716774D01*
X137007939Y-107677000D01*
X136945802Y-107677000D01*
X135634000Y-106365199D01*
X135634000Y-100482061D01*
X137141000Y-100482061D01*
X137141000Y-100685939D01*
X137180774Y-100885898D01*
X137258795Y-101074256D01*
X137372063Y-101243774D01*
X137516226Y-101387937D01*
X137685744Y-101501205D01*
X137874102Y-101579226D01*
X137978541Y-101600000D01*
X137874102Y-101620774D01*
X137685744Y-101698795D01*
X137516226Y-101812063D01*
X137372063Y-101956226D01*
X137258795Y-102125744D01*
X137180774Y-102314102D01*
X137141000Y-102514061D01*
X137141000Y-102717939D01*
X137180774Y-102917898D01*
X137258795Y-103106256D01*
X137372063Y-103275774D01*
X137516226Y-103419937D01*
X137685744Y-103533205D01*
X137874102Y-103611226D01*
X138074061Y-103651000D01*
X138277939Y-103651000D01*
X138477898Y-103611226D01*
X138666256Y-103533205D01*
X138835774Y-103419937D01*
X138879711Y-103376000D01*
X138940001Y-103376000D01*
X138940000Y-109024289D01*
X138896063Y-109068226D01*
X138782795Y-109237744D01*
X138704774Y-109426102D01*
X138665000Y-109626061D01*
X138665000Y-109829939D01*
X138704774Y-110029898D01*
X138782795Y-110218256D01*
X138896063Y-110387774D01*
X139040226Y-110531937D01*
X139209744Y-110645205D01*
X139398102Y-110723226D01*
X139598061Y-110763000D01*
X139801939Y-110763000D01*
X140001898Y-110723226D01*
X140190256Y-110645205D01*
X140359774Y-110531937D01*
X140503937Y-110387774D01*
X140617205Y-110218256D01*
X140695226Y-110029898D01*
X140735000Y-109829939D01*
X140735000Y-109626061D01*
X140695226Y-109426102D01*
X140617205Y-109237744D01*
X140503937Y-109068226D01*
X140460000Y-109024289D01*
X140460000Y-103376000D01*
X141489644Y-103376000D01*
X141459000Y-103530061D01*
X141459000Y-103733939D01*
X141498774Y-103933898D01*
X141576795Y-104122256D01*
X141690063Y-104291774D01*
X141734001Y-104335712D01*
X141734000Y-109024289D01*
X141690063Y-109068226D01*
X141576795Y-109237744D01*
X141498774Y-109426102D01*
X141459000Y-109626061D01*
X141459000Y-109829939D01*
X141498774Y-110029898D01*
X141576795Y-110218256D01*
X141690063Y-110387774D01*
X141834226Y-110531937D01*
X142003744Y-110645205D01*
X142192102Y-110723226D01*
X142392061Y-110763000D01*
X142595939Y-110763000D01*
X142795898Y-110723226D01*
X142984256Y-110645205D01*
X143153774Y-110531937D01*
X143297937Y-110387774D01*
X143411205Y-110218256D01*
X143489226Y-110029898D01*
X143529000Y-109829939D01*
X143529000Y-109626061D01*
X143489226Y-109426102D01*
X143411205Y-109237744D01*
X143297937Y-109068226D01*
X143254000Y-109024289D01*
X143254000Y-104335711D01*
X143297937Y-104291774D01*
X143411205Y-104122256D01*
X143489226Y-103933898D01*
X143529000Y-103733939D01*
X143529000Y-103530061D01*
X143498356Y-103376000D01*
X144283644Y-103376000D01*
X144253000Y-103530061D01*
X144253000Y-103733939D01*
X144292774Y-103933898D01*
X144370795Y-104122256D01*
X144484063Y-104291774D01*
X144528001Y-104335712D01*
X144528000Y-109024289D01*
X144484063Y-109068226D01*
X144370795Y-109237744D01*
X144292774Y-109426102D01*
X144253000Y-109626061D01*
X144253000Y-109829939D01*
X144292774Y-110029898D01*
X144370795Y-110218256D01*
X144484063Y-110387774D01*
X144628226Y-110531937D01*
X144797744Y-110645205D01*
X144986102Y-110723226D01*
X145186061Y-110763000D01*
X145389939Y-110763000D01*
X145589898Y-110723226D01*
X145778256Y-110645205D01*
X145947774Y-110531937D01*
X146091937Y-110387774D01*
X146205205Y-110218256D01*
X146283226Y-110029898D01*
X146323000Y-109829939D01*
X146323000Y-109626061D01*
X146283226Y-109426102D01*
X146205205Y-109237744D01*
X146091937Y-109068226D01*
X146048000Y-109024289D01*
X146048000Y-104542298D01*
X157376903Y-104542298D01*
X158190000Y-105355395D01*
X159003097Y-104542298D01*
X158931514Y-104298329D01*
X158676004Y-104177429D01*
X158401816Y-104108700D01*
X158119488Y-104094783D01*
X157839870Y-104136213D01*
X157573708Y-104231397D01*
X157448486Y-104298329D01*
X157376903Y-104542298D01*
X146048000Y-104542298D01*
X146048000Y-104335711D01*
X146091937Y-104291774D01*
X146205205Y-104122256D01*
X146283226Y-103933898D01*
X146323000Y-103733939D01*
X146323000Y-103530061D01*
X146292356Y-103376000D01*
X150680289Y-103376000D01*
X150724226Y-103419937D01*
X150893744Y-103533205D01*
X151082102Y-103611226D01*
X151282061Y-103651000D01*
X151485939Y-103651000D01*
X151685898Y-103611226D01*
X151874256Y-103533205D01*
X152043774Y-103419937D01*
X152187937Y-103275774D01*
X152301205Y-103106256D01*
X152379226Y-102917898D01*
X152419000Y-102717939D01*
X152419000Y-102514061D01*
X152379226Y-102314102D01*
X152301205Y-102125744D01*
X152187937Y-101956226D01*
X152043774Y-101812063D01*
X151874256Y-101698795D01*
X151685898Y-101620774D01*
X151485939Y-101581000D01*
X151282061Y-101581000D01*
X151082102Y-101620774D01*
X150893744Y-101698795D01*
X150724226Y-101812063D01*
X150680289Y-101856000D01*
X143398013Y-101856000D01*
X143411205Y-101836256D01*
X143489226Y-101647898D01*
X143529000Y-101447939D01*
X143529000Y-101344000D01*
X147124289Y-101344000D01*
X147168226Y-101387937D01*
X147337744Y-101501205D01*
X147526102Y-101579226D01*
X147726061Y-101619000D01*
X147929939Y-101619000D01*
X148129898Y-101579226D01*
X148318256Y-101501205D01*
X148487774Y-101387937D01*
X148631937Y-101243774D01*
X148745205Y-101074256D01*
X148823226Y-100885898D01*
X148863000Y-100685939D01*
X148863000Y-100482061D01*
X148823226Y-100282102D01*
X148745205Y-100093744D01*
X148631937Y-99924226D01*
X148487774Y-99780063D01*
X148318256Y-99666795D01*
X148129898Y-99588774D01*
X147929939Y-99549000D01*
X147726061Y-99549000D01*
X147526102Y-99588774D01*
X147337744Y-99666795D01*
X147168226Y-99780063D01*
X147124289Y-99824000D01*
X143906013Y-99824000D01*
X143919205Y-99804256D01*
X143997226Y-99615898D01*
X144037000Y-99415939D01*
X144037000Y-99212061D01*
X143997226Y-99012102D01*
X143919205Y-98823744D01*
X143805937Y-98654226D01*
X143762000Y-98610289D01*
X143762000Y-98493711D01*
X143805937Y-98449774D01*
X143919205Y-98280256D01*
X143997226Y-98091898D01*
X144037000Y-97891939D01*
X144037000Y-97688061D01*
X143997226Y-97488102D01*
X143919205Y-97299744D01*
X143805937Y-97130226D01*
X143661774Y-96986063D01*
X143492256Y-96872795D01*
X143303898Y-96794774D01*
X143103939Y-96755000D01*
X142900061Y-96755000D01*
X142700102Y-96794774D01*
X142511744Y-96872795D01*
X142342226Y-96986063D01*
X142198063Y-97130226D01*
X142084795Y-97299744D01*
X142006774Y-97488102D01*
X141967000Y-97688061D01*
X141967000Y-97891939D01*
X142006774Y-98091898D01*
X142084795Y-98280256D01*
X142198063Y-98449774D01*
X142242001Y-98493712D01*
X142242000Y-98610289D01*
X142198063Y-98654226D01*
X142084795Y-98823744D01*
X142006774Y-99012102D01*
X141967000Y-99212061D01*
X141967000Y-99415939D01*
X142006774Y-99615898D01*
X142084795Y-99804256D01*
X142097987Y-99824000D01*
X138879711Y-99824000D01*
X138835774Y-99780063D01*
X138666256Y-99666795D01*
X138477898Y-99588774D01*
X138277939Y-99549000D01*
X138074061Y-99549000D01*
X137874102Y-99588774D01*
X137685744Y-99666795D01*
X137516226Y-99780063D01*
X137372063Y-99924226D01*
X137258795Y-100093744D01*
X137180774Y-100282102D01*
X137141000Y-100482061D01*
X135634000Y-100482061D01*
X135634000Y-90814801D01*
X140727755Y-85721047D01*
X140838120Y-85743000D01*
X141101880Y-85743000D01*
X141360572Y-85691543D01*
X141604254Y-85590607D01*
X141823563Y-85444069D01*
X142010069Y-85257563D01*
X142156607Y-85038254D01*
X142220000Y-84885209D01*
X142283393Y-85038254D01*
X142429931Y-85257563D01*
X142616437Y-85444069D01*
X142835746Y-85590607D01*
X143079428Y-85691543D01*
X143338120Y-85743000D01*
X143601880Y-85743000D01*
X143712246Y-85721047D01*
X146342999Y-88351802D01*
X146343000Y-91910665D01*
X146339323Y-91947997D01*
X146353997Y-92096982D01*
X146397453Y-92240243D01*
X146468025Y-92372273D01*
X146529594Y-92447294D01*
X146562999Y-92487998D01*
X146591997Y-92511796D01*
X157715202Y-103635002D01*
X157739001Y-103664001D01*
X157767999Y-103687799D01*
X157854725Y-103758974D01*
X157986755Y-103829546D01*
X158130016Y-103873003D01*
X158241669Y-103884000D01*
X158241679Y-103884000D01*
X158279001Y-103887676D01*
X158316324Y-103884000D01*
X159197199Y-103884000D01*
X160630861Y-105317663D01*
X160588574Y-105300147D01*
X160311335Y-105245000D01*
X160028665Y-105245000D01*
X159751426Y-105300147D01*
X159614284Y-105356953D01*
X159588787Y-105184870D01*
X159493603Y-104918708D01*
X159426671Y-104793486D01*
X159182702Y-104721903D01*
X158369605Y-105535000D01*
X158383748Y-105549143D01*
X158204143Y-105728748D01*
X158190000Y-105714605D01*
X158175858Y-105728748D01*
X157996253Y-105549143D01*
X158010395Y-105535000D01*
X157197298Y-104721903D01*
X156953329Y-104793486D01*
X156832429Y-105048996D01*
X156784068Y-105241928D01*
X155410000Y-105241928D01*
X155285518Y-105254188D01*
X155165820Y-105290498D01*
X155055506Y-105349463D01*
X154958815Y-105428815D01*
X154879463Y-105525506D01*
X154820498Y-105635820D01*
X154784188Y-105755518D01*
X154771928Y-105880000D01*
X154771928Y-107480000D01*
X154784188Y-107604482D01*
X154820498Y-107724180D01*
X154879463Y-107834494D01*
X154958815Y-107931185D01*
X155055506Y-108010537D01*
X155110612Y-108039992D01*
X155095363Y-108055241D01*
X154938320Y-108290273D01*
X154830147Y-108551426D01*
X154775000Y-108828665D01*
X154775000Y-109111335D01*
X154830147Y-109388574D01*
X154938320Y-109649727D01*
X155095363Y-109884759D01*
X155295241Y-110084637D01*
X155340683Y-110115000D01*
X155295241Y-110145363D01*
X155095363Y-110345241D01*
X154938320Y-110580273D01*
X154830147Y-110841426D01*
X154775000Y-111118665D01*
X154775000Y-111401335D01*
X154830147Y-111678574D01*
X154938320Y-111939727D01*
X155095363Y-112174759D01*
X155295241Y-112374637D01*
X155340683Y-112405000D01*
X155295241Y-112435363D01*
X155095363Y-112635241D01*
X154938320Y-112870273D01*
X154830147Y-113131426D01*
X154775000Y-113408665D01*
X154775000Y-113691335D01*
X154830147Y-113968574D01*
X154938320Y-114229727D01*
X155095363Y-114464759D01*
X155295241Y-114664637D01*
X155425049Y-114751372D01*
X155396903Y-114847298D01*
X156210000Y-115660395D01*
X156224143Y-115646253D01*
X156403748Y-115825858D01*
X156389605Y-115840000D01*
X157202702Y-116653097D01*
X157446671Y-116581514D01*
X157567571Y-116326004D01*
X157636300Y-116051816D01*
X157637807Y-116021252D01*
X157703996Y-116052571D01*
X157978184Y-116121300D01*
X158260512Y-116135217D01*
X158540130Y-116093787D01*
X158742941Y-116021258D01*
X158790147Y-116258574D01*
X158898320Y-116519727D01*
X159055363Y-116754759D01*
X159255241Y-116954637D01*
X159490273Y-117111680D01*
X159751426Y-117219853D01*
X160028665Y-117275000D01*
X160311335Y-117275000D01*
X160588574Y-117219853D01*
X160849727Y-117111680D01*
X161084759Y-116954637D01*
X161284637Y-116754759D01*
X161441680Y-116519727D01*
X161549853Y-116258574D01*
X161605000Y-115981335D01*
X161605000Y-115698665D01*
X161549853Y-115421426D01*
X161441680Y-115160273D01*
X161284637Y-114925241D01*
X161084759Y-114725363D01*
X161039317Y-114695000D01*
X161084759Y-114664637D01*
X161284637Y-114464759D01*
X161441680Y-114229727D01*
X161549853Y-113968574D01*
X161605000Y-113691335D01*
X161605000Y-113408665D01*
X161549853Y-113131426D01*
X161441680Y-112870273D01*
X161284637Y-112635241D01*
X161084759Y-112435363D01*
X161039317Y-112405000D01*
X161084759Y-112374637D01*
X161284637Y-112174759D01*
X161441680Y-111939727D01*
X161549853Y-111678574D01*
X161605000Y-111401335D01*
X161605000Y-111118665D01*
X161568688Y-110936114D01*
X162055008Y-110449795D01*
X162084001Y-110426001D01*
X162107795Y-110397008D01*
X162107799Y-110397004D01*
X162178973Y-110310277D01*
X162187350Y-110294605D01*
X162249546Y-110178247D01*
X162293003Y-110034986D01*
X162304000Y-109923333D01*
X162304000Y-109923324D01*
X162307676Y-109886001D01*
X162304000Y-109848678D01*
X162304000Y-105193323D01*
X162307676Y-105156000D01*
X162304000Y-105118677D01*
X162304000Y-105118667D01*
X162293003Y-105007014D01*
X162249546Y-104863753D01*
X162229331Y-104825934D01*
X162178974Y-104731723D01*
X162107799Y-104644997D01*
X162084001Y-104615999D01*
X162055004Y-104592202D01*
X160075804Y-102613003D01*
X160052001Y-102583999D01*
X159936276Y-102489026D01*
X159804247Y-102418454D01*
X159660986Y-102374997D01*
X159549333Y-102364000D01*
X159549322Y-102364000D01*
X159512000Y-102360324D01*
X159474678Y-102364000D01*
X158593804Y-102364000D01*
X157082718Y-100852915D01*
X157268105Y-100949938D01*
X157766098Y-101096275D01*
X158283071Y-101142648D01*
X158799159Y-101087273D01*
X159294526Y-100932279D01*
X159711772Y-100709258D01*
X159927894Y-100342499D01*
X158260000Y-98674605D01*
X158245858Y-98688748D01*
X158066253Y-98509143D01*
X158080395Y-98495000D01*
X158439605Y-98495000D01*
X160107499Y-100162894D01*
X160474258Y-99946772D01*
X160714938Y-99486895D01*
X160861275Y-98988902D01*
X160907648Y-98471929D01*
X160852273Y-97955841D01*
X160697279Y-97460474D01*
X160474258Y-97043228D01*
X160107499Y-96827106D01*
X158439605Y-98495000D01*
X158080395Y-98495000D01*
X156412501Y-96827106D01*
X156045742Y-97043228D01*
X155805062Y-97503105D01*
X155658725Y-98001098D01*
X155612352Y-98518071D01*
X155667727Y-99034159D01*
X155822721Y-99529526D01*
X155895511Y-99665707D01*
X152877305Y-96647501D01*
X156592106Y-96647501D01*
X158260000Y-98315395D01*
X159927894Y-96647501D01*
X159711772Y-96280742D01*
X159251895Y-96040062D01*
X158753902Y-95893725D01*
X158236929Y-95847352D01*
X157720841Y-95902727D01*
X157225474Y-96057721D01*
X156808228Y-96280742D01*
X156592106Y-96647501D01*
X152877305Y-96647501D01*
X147862999Y-91633196D01*
X147862999Y-91565258D01*
X156577481Y-91565258D01*
X156589922Y-91631117D01*
X156693643Y-91877979D01*
X156843531Y-92099863D01*
X157033827Y-92288242D01*
X157257217Y-92435876D01*
X157505117Y-92537092D01*
X157768000Y-92588000D01*
X158043000Y-92588000D01*
X158043000Y-91355000D01*
X158297000Y-91355000D01*
X158297000Y-92588000D01*
X158572000Y-92588000D01*
X158834883Y-92537092D01*
X159082783Y-92435876D01*
X159306173Y-92288242D01*
X159496469Y-92099863D01*
X159646357Y-91877979D01*
X159724633Y-91691677D01*
X160476365Y-91691677D01*
X160478504Y-91723715D01*
X160568364Y-91944644D01*
X160699598Y-92143797D01*
X160867163Y-92313521D01*
X161064620Y-92447294D01*
X161284381Y-92539974D01*
X161518000Y-92588000D01*
X161843000Y-92588000D01*
X161843000Y-91505000D01*
X160601450Y-91505000D01*
X160476365Y-91691677D01*
X159724633Y-91691677D01*
X159750078Y-91631117D01*
X159762519Y-91565258D01*
X159639518Y-91355000D01*
X158297000Y-91355000D01*
X158043000Y-91355000D01*
X156700482Y-91355000D01*
X156577481Y-91565258D01*
X147862999Y-91565258D01*
X147862999Y-90890742D01*
X156577481Y-90890742D01*
X156700482Y-91101000D01*
X158043000Y-91101000D01*
X158043000Y-90003000D01*
X158179993Y-90003000D01*
X158199976Y-90205895D01*
X158259159Y-90400993D01*
X158297000Y-90471789D01*
X158297000Y-91101000D01*
X159639518Y-91101000D01*
X159660974Y-91064323D01*
X160476365Y-91064323D01*
X160601450Y-91251000D01*
X161843000Y-91251000D01*
X161843000Y-90168000D01*
X161518000Y-90168000D01*
X161284381Y-90216026D01*
X161064620Y-90308706D01*
X160867163Y-90442479D01*
X160699598Y-90612203D01*
X160568364Y-90811356D01*
X160478504Y-91032285D01*
X160476365Y-91064323D01*
X159660974Y-91064323D01*
X159762519Y-90890742D01*
X159761807Y-90886971D01*
X159797797Y-90867734D01*
X159955396Y-90738396D01*
X160084734Y-90580797D01*
X160180841Y-90400993D01*
X160240024Y-90205895D01*
X160260007Y-90003000D01*
X160240024Y-89800105D01*
X160180841Y-89605007D01*
X160084734Y-89425203D01*
X159955396Y-89267604D01*
X159797797Y-89138266D01*
X159617993Y-89042159D01*
X159422895Y-88982976D01*
X159270838Y-88968000D01*
X159169162Y-88968000D01*
X159017105Y-88982976D01*
X158822007Y-89042159D01*
X158642203Y-89138266D01*
X158484604Y-89267604D01*
X158355266Y-89425203D01*
X158259159Y-89605007D01*
X158199976Y-89800105D01*
X158179993Y-90003000D01*
X158043000Y-90003000D01*
X158043000Y-89868000D01*
X157768000Y-89868000D01*
X157505117Y-89918908D01*
X157257217Y-90020124D01*
X157033827Y-90167758D01*
X156843531Y-90356137D01*
X156693643Y-90578021D01*
X156589922Y-90824883D01*
X156577481Y-90890742D01*
X147862999Y-90890742D01*
X147862999Y-88074321D01*
X147866675Y-88036998D01*
X147862999Y-87999675D01*
X147862999Y-87999666D01*
X147852002Y-87888013D01*
X147808545Y-87744752D01*
X147737973Y-87612723D01*
X147724810Y-87596684D01*
X147666798Y-87525995D01*
X147666794Y-87525991D01*
X147643000Y-87496998D01*
X147614008Y-87473205D01*
X144787047Y-84646246D01*
X144809000Y-84535880D01*
X144809000Y-84272120D01*
X144757543Y-84013428D01*
X144656607Y-83769746D01*
X144543101Y-83599872D01*
X148133000Y-83599872D01*
X148133000Y-84040128D01*
X148218890Y-84471925D01*
X148387369Y-84878669D01*
X148631962Y-85244729D01*
X148943271Y-85556038D01*
X149309331Y-85800631D01*
X149716075Y-85969110D01*
X150147872Y-86055000D01*
X150588128Y-86055000D01*
X151019925Y-85969110D01*
X151426669Y-85800631D01*
X151792729Y-85556038D01*
X152104038Y-85244729D01*
X152348631Y-84878669D01*
X152517110Y-84471925D01*
X152588055Y-84115258D01*
X156577481Y-84115258D01*
X156589922Y-84181117D01*
X156693643Y-84427979D01*
X156843531Y-84649863D01*
X157033827Y-84838242D01*
X157257217Y-84985876D01*
X157505117Y-85087092D01*
X157768000Y-85138000D01*
X158043000Y-85138000D01*
X158043000Y-85003000D01*
X158179993Y-85003000D01*
X158199976Y-85205895D01*
X158259159Y-85400993D01*
X158355266Y-85580797D01*
X158484604Y-85738396D01*
X158642203Y-85867734D01*
X158822007Y-85963841D01*
X159017105Y-86023024D01*
X159169162Y-86038000D01*
X159270838Y-86038000D01*
X159422895Y-86023024D01*
X159617993Y-85963841D01*
X159797797Y-85867734D01*
X159955396Y-85738396D01*
X160084734Y-85580797D01*
X160180841Y-85400993D01*
X160240024Y-85205895D01*
X160260007Y-85003000D01*
X160240024Y-84800105D01*
X160180841Y-84605007D01*
X160084734Y-84425203D01*
X159955396Y-84267604D01*
X159797797Y-84138266D01*
X159761807Y-84119029D01*
X159762519Y-84115258D01*
X159660975Y-83941677D01*
X160476365Y-83941677D01*
X160478504Y-83973715D01*
X160568364Y-84194644D01*
X160699598Y-84393797D01*
X160867163Y-84563521D01*
X161064620Y-84697294D01*
X161284381Y-84789974D01*
X161518000Y-84838000D01*
X161843000Y-84838000D01*
X161843000Y-83755000D01*
X160601450Y-83755000D01*
X160476365Y-83941677D01*
X159660975Y-83941677D01*
X159639518Y-83905000D01*
X158297000Y-83905000D01*
X158297000Y-84534211D01*
X158259159Y-84605007D01*
X158199976Y-84800105D01*
X158179993Y-85003000D01*
X158043000Y-85003000D01*
X158043000Y-83905000D01*
X156700482Y-83905000D01*
X156577481Y-84115258D01*
X152588055Y-84115258D01*
X152603000Y-84040128D01*
X152603000Y-83599872D01*
X152571347Y-83440742D01*
X156577481Y-83440742D01*
X156700482Y-83651000D01*
X158043000Y-83651000D01*
X158043000Y-83631000D01*
X158297000Y-83631000D01*
X158297000Y-83651000D01*
X159639518Y-83651000D01*
X159762519Y-83440742D01*
X159750078Y-83374883D01*
X159724634Y-83314323D01*
X160476365Y-83314323D01*
X160601450Y-83501000D01*
X161843000Y-83501000D01*
X161843000Y-82418000D01*
X161518000Y-82418000D01*
X161284381Y-82466026D01*
X161064620Y-82558706D01*
X160867163Y-82692479D01*
X160699598Y-82862203D01*
X160568364Y-83061356D01*
X160478504Y-83282285D01*
X160476365Y-83314323D01*
X159724634Y-83314323D01*
X159646357Y-83128021D01*
X159496469Y-82906137D01*
X159306173Y-82717758D01*
X159082783Y-82570124D01*
X158834883Y-82468908D01*
X158572000Y-82418000D01*
X157768000Y-82418000D01*
X157505117Y-82468908D01*
X157257217Y-82570124D01*
X157033827Y-82717758D01*
X156843531Y-82906137D01*
X156693643Y-83128021D01*
X156589922Y-83374883D01*
X156577481Y-83440742D01*
X152571347Y-83440742D01*
X152517110Y-83168075D01*
X152348631Y-82761331D01*
X152104038Y-82395271D01*
X151792729Y-82083962D01*
X151426669Y-81839369D01*
X151019925Y-81670890D01*
X150588128Y-81585000D01*
X150147872Y-81585000D01*
X149716075Y-81670890D01*
X149309331Y-81839369D01*
X148943271Y-82083962D01*
X148631962Y-82395271D01*
X148387369Y-82761331D01*
X148218890Y-83168075D01*
X148133000Y-83599872D01*
X144543101Y-83599872D01*
X144510069Y-83550437D01*
X144323563Y-83363931D01*
X144230000Y-83301414D01*
X144230000Y-82206586D01*
X144323563Y-82144069D01*
X144510069Y-81957563D01*
X144656607Y-81738254D01*
X144757543Y-81494572D01*
X144809000Y-81235880D01*
X144809000Y-80972120D01*
X144757543Y-80713428D01*
X144739555Y-80670000D01*
X163170000Y-80670000D01*
X163170000Y-82790894D01*
X163072837Y-82692479D01*
X162875380Y-82558706D01*
X162655619Y-82466026D01*
X162422000Y-82418000D01*
X162097000Y-82418000D01*
X162097000Y-83501000D01*
X162117000Y-83501000D01*
X162117000Y-83755000D01*
X162097000Y-83755000D01*
X162097000Y-84838000D01*
X162422000Y-84838000D01*
X162655619Y-84789974D01*
X162875380Y-84697294D01*
X163072837Y-84563521D01*
X163170000Y-84465106D01*
X163170000Y-90540894D01*
X163072837Y-90442479D01*
X162875380Y-90308706D01*
X162655619Y-90216026D01*
X162422000Y-90168000D01*
X162097000Y-90168000D01*
X162097000Y-91251000D01*
X162117000Y-91251000D01*
X162117000Y-91505000D01*
X162097000Y-91505000D01*
X162097000Y-92588000D01*
X162422000Y-92588000D01*
X162655619Y-92539974D01*
X162875380Y-92447294D01*
X163072837Y-92313521D01*
X163170000Y-92215106D01*
X163170001Y-126340000D01*
X92100000Y-126340000D01*
X92100000Y-123223872D01*
X103937000Y-123223872D01*
X103937000Y-123664128D01*
X104022890Y-124095925D01*
X104191369Y-124502669D01*
X104435962Y-124868729D01*
X104747271Y-125180038D01*
X105113331Y-125424631D01*
X105520075Y-125593110D01*
X105951872Y-125679000D01*
X106392128Y-125679000D01*
X106823925Y-125593110D01*
X107230669Y-125424631D01*
X107596729Y-125180038D01*
X107908038Y-124868729D01*
X108152631Y-124502669D01*
X108321110Y-124095925D01*
X108407000Y-123664128D01*
X108407000Y-123223872D01*
X148133000Y-123223872D01*
X148133000Y-123664128D01*
X148218890Y-124095925D01*
X148387369Y-124502669D01*
X148631962Y-124868729D01*
X148943271Y-125180038D01*
X149309331Y-125424631D01*
X149716075Y-125593110D01*
X150147872Y-125679000D01*
X150588128Y-125679000D01*
X151019925Y-125593110D01*
X151426669Y-125424631D01*
X151549588Y-125342499D01*
X156592106Y-125342499D01*
X156808228Y-125709258D01*
X157268105Y-125949938D01*
X157766098Y-126096275D01*
X158283071Y-126142648D01*
X158799159Y-126087273D01*
X159294526Y-125932279D01*
X159711772Y-125709258D01*
X159927894Y-125342499D01*
X158260000Y-123674605D01*
X156592106Y-125342499D01*
X151549588Y-125342499D01*
X151792729Y-125180038D01*
X152104038Y-124868729D01*
X152348631Y-124502669D01*
X152517110Y-124095925D01*
X152603000Y-123664128D01*
X152603000Y-123518071D01*
X155612352Y-123518071D01*
X155667727Y-124034159D01*
X155822721Y-124529526D01*
X156045742Y-124946772D01*
X156412501Y-125162894D01*
X158080395Y-123495000D01*
X158439605Y-123495000D01*
X160107499Y-125162894D01*
X160474258Y-124946772D01*
X160714938Y-124486895D01*
X160861275Y-123988902D01*
X160907648Y-123471929D01*
X160852273Y-122955841D01*
X160697279Y-122460474D01*
X160474258Y-122043228D01*
X160107499Y-121827106D01*
X158439605Y-123495000D01*
X158080395Y-123495000D01*
X156412501Y-121827106D01*
X156045742Y-122043228D01*
X155805062Y-122503105D01*
X155658725Y-123001098D01*
X155612352Y-123518071D01*
X152603000Y-123518071D01*
X152603000Y-123223872D01*
X152517110Y-122792075D01*
X152348631Y-122385331D01*
X152104038Y-122019271D01*
X151792729Y-121707962D01*
X151702243Y-121647501D01*
X156592106Y-121647501D01*
X158260000Y-123315395D01*
X159927894Y-121647501D01*
X159711772Y-121280742D01*
X159251895Y-121040062D01*
X158753902Y-120893725D01*
X158236929Y-120847352D01*
X157720841Y-120902727D01*
X157225474Y-121057721D01*
X156808228Y-121280742D01*
X156592106Y-121647501D01*
X151702243Y-121647501D01*
X151426669Y-121463369D01*
X151019925Y-121294890D01*
X150588128Y-121209000D01*
X150147872Y-121209000D01*
X149716075Y-121294890D01*
X149309331Y-121463369D01*
X148943271Y-121707962D01*
X148631962Y-122019271D01*
X148387369Y-122385331D01*
X148218890Y-122792075D01*
X148133000Y-123223872D01*
X108407000Y-123223872D01*
X108321110Y-122792075D01*
X108152631Y-122385331D01*
X107908038Y-122019271D01*
X107596729Y-121707962D01*
X107230669Y-121463369D01*
X106823925Y-121294890D01*
X106392128Y-121209000D01*
X105951872Y-121209000D01*
X105520075Y-121294890D01*
X105113331Y-121463369D01*
X104747271Y-121707962D01*
X104435962Y-122019271D01*
X104191369Y-122385331D01*
X104022890Y-122792075D01*
X103937000Y-123223872D01*
X92100000Y-123223872D01*
X92100000Y-121348640D01*
X93510965Y-121348640D01*
X93739099Y-121725641D01*
X94215989Y-121976292D01*
X94732614Y-122129092D01*
X95269122Y-122178167D01*
X95804896Y-122121631D01*
X96319345Y-121961657D01*
X96760901Y-121725641D01*
X96989035Y-121348640D01*
X95250000Y-119609605D01*
X93510965Y-121348640D01*
X92100000Y-121348640D01*
X92100000Y-119449122D01*
X92501833Y-119449122D01*
X92558369Y-119984896D01*
X92718343Y-120499345D01*
X92954359Y-120940901D01*
X93331360Y-121169035D01*
X95070395Y-119430000D01*
X95429605Y-119430000D01*
X97168640Y-121169035D01*
X97545641Y-120940901D01*
X97796292Y-120464011D01*
X97949092Y-119947386D01*
X97998167Y-119410878D01*
X97941631Y-118875104D01*
X97781657Y-118360655D01*
X97545641Y-117919099D01*
X97168640Y-117690965D01*
X95429605Y-119430000D01*
X95070395Y-119430000D01*
X93331360Y-117690965D01*
X92954359Y-117919099D01*
X92703708Y-118395989D01*
X92550908Y-118912614D01*
X92501833Y-119449122D01*
X92100000Y-119449122D01*
X92100000Y-117511360D01*
X93510965Y-117511360D01*
X95250000Y-119250395D01*
X96989035Y-117511360D01*
X96760901Y-117134359D01*
X96284011Y-116883708D01*
X96111557Y-116832702D01*
X155396903Y-116832702D01*
X155468486Y-117076671D01*
X155723996Y-117197571D01*
X155998184Y-117266300D01*
X156280512Y-117280217D01*
X156560130Y-117238787D01*
X156826292Y-117143603D01*
X156951514Y-117076671D01*
X157023097Y-116832702D01*
X156210000Y-116019605D01*
X155396903Y-116832702D01*
X96111557Y-116832702D01*
X95767386Y-116730908D01*
X95230878Y-116681833D01*
X94695104Y-116738369D01*
X94180655Y-116898343D01*
X93739099Y-117134359D01*
X93510965Y-117511360D01*
X92100000Y-117511360D01*
X92100000Y-115910512D01*
X154769783Y-115910512D01*
X154811213Y-116190130D01*
X154906397Y-116456292D01*
X154973329Y-116581514D01*
X155217298Y-116653097D01*
X156030395Y-115840000D01*
X155217298Y-115026903D01*
X154973329Y-115098486D01*
X154852429Y-115353996D01*
X154783700Y-115628184D01*
X154769783Y-115910512D01*
X92100000Y-115910512D01*
X92100000Y-111872406D01*
X94972489Y-111872406D01*
X95010423Y-112092740D01*
X95090613Y-112301440D01*
X95118412Y-112353450D01*
X95331834Y-112388561D01*
X95930395Y-111790000D01*
X95331834Y-111191439D01*
X95118412Y-111226550D01*
X95027542Y-111430826D01*
X94978269Y-111648905D01*
X94972489Y-111872406D01*
X92100000Y-111872406D01*
X92100000Y-111011834D01*
X95511439Y-111011834D01*
X96110000Y-111610395D01*
X96124143Y-111596253D01*
X96303748Y-111775858D01*
X96289605Y-111790000D01*
X96303748Y-111804143D01*
X96124143Y-111983748D01*
X96110000Y-111969605D01*
X95511439Y-112568166D01*
X95546550Y-112781588D01*
X95750826Y-112872458D01*
X95968905Y-112921731D01*
X96192406Y-112927511D01*
X96251129Y-112917401D01*
X96245000Y-112948212D01*
X96245000Y-113171788D01*
X96288617Y-113391067D01*
X96374176Y-113597624D01*
X96498388Y-113783520D01*
X96656480Y-113941612D01*
X96842376Y-114065824D01*
X97048933Y-114151383D01*
X97268212Y-114195000D01*
X97440199Y-114195000D01*
X98564201Y-115319003D01*
X98587999Y-115348001D01*
X98703724Y-115442974D01*
X98835753Y-115513546D01*
X98979014Y-115557003D01*
X99090667Y-115568000D01*
X99090676Y-115568000D01*
X99127999Y-115571676D01*
X99165322Y-115568000D01*
X100546678Y-115568000D01*
X100584000Y-115571676D01*
X100621322Y-115568000D01*
X100621333Y-115568000D01*
X100732986Y-115557003D01*
X100876247Y-115513546D01*
X101008276Y-115442974D01*
X101124001Y-115348001D01*
X101147804Y-115318997D01*
X104251009Y-112215794D01*
X104280002Y-112192000D01*
X104303796Y-112163007D01*
X104303800Y-112163003D01*
X104374974Y-112076276D01*
X104394343Y-112040040D01*
X104445547Y-111944246D01*
X104489004Y-111800985D01*
X104500001Y-111689332D01*
X104500001Y-111689323D01*
X104503677Y-111652000D01*
X104500001Y-111614677D01*
X104500001Y-111207159D01*
X104630256Y-111153205D01*
X104799774Y-111039937D01*
X104943937Y-110895774D01*
X105057205Y-110726256D01*
X105135226Y-110537898D01*
X105175000Y-110337939D01*
X105175000Y-110134061D01*
X105135226Y-109934102D01*
X105057205Y-109745744D01*
X104943937Y-109576226D01*
X104799774Y-109432063D01*
X104630256Y-109318795D01*
X104441898Y-109240774D01*
X104241939Y-109201000D01*
X104038061Y-109201000D01*
X103838102Y-109240774D01*
X103649744Y-109318795D01*
X103480226Y-109432063D01*
X103336063Y-109576226D01*
X103222795Y-109745744D01*
X103144774Y-109934102D01*
X103105000Y-110134061D01*
X103105000Y-110211774D01*
X103043508Y-110326816D01*
X103034455Y-110343753D01*
X102990998Y-110487014D01*
X102980001Y-110598667D01*
X102980001Y-110598677D01*
X102976325Y-110635999D01*
X102980001Y-110673322D01*
X102980002Y-111337195D01*
X102302941Y-112014256D01*
X102321731Y-111931095D01*
X102327511Y-111707594D01*
X102289577Y-111487260D01*
X102209387Y-111278560D01*
X102181588Y-111226550D01*
X101968166Y-111191439D01*
X101369605Y-111790000D01*
X101383748Y-111804143D01*
X101204143Y-111983748D01*
X101190000Y-111969605D01*
X101175858Y-111983748D01*
X100996253Y-111804143D01*
X101010395Y-111790000D01*
X100996253Y-111775858D01*
X101175858Y-111596253D01*
X101190000Y-111610395D01*
X101788561Y-111011834D01*
X101753450Y-110798412D01*
X101549174Y-110707542D01*
X101331095Y-110658269D01*
X101107594Y-110652489D01*
X101048871Y-110662599D01*
X101055000Y-110631788D01*
X101055000Y-110408212D01*
X101011383Y-110188933D01*
X100925824Y-109982376D01*
X100801612Y-109796480D01*
X100643520Y-109638388D01*
X100457624Y-109514176D01*
X100251067Y-109428617D01*
X100031788Y-109385000D01*
X99808212Y-109385000D01*
X99588933Y-109428617D01*
X99382376Y-109514176D01*
X99196480Y-109638388D01*
X99038388Y-109796480D01*
X98914176Y-109982376D01*
X98828617Y-110188933D01*
X98785000Y-110408212D01*
X98785000Y-110631788D01*
X98828617Y-110851067D01*
X98914176Y-111057624D01*
X99038388Y-111243520D01*
X99196480Y-111401612D01*
X99382376Y-111525824D01*
X99588933Y-111611383D01*
X99808212Y-111655000D01*
X100031788Y-111655000D01*
X100058247Y-111649737D01*
X100052489Y-111872406D01*
X100062599Y-111931129D01*
X100031788Y-111925000D01*
X99808212Y-111925000D01*
X99588933Y-111968617D01*
X99382376Y-112054176D01*
X99196480Y-112178388D01*
X99038388Y-112336480D01*
X98914176Y-112522376D01*
X98828617Y-112728933D01*
X98785000Y-112948212D01*
X98785000Y-113171788D01*
X98828617Y-113391067D01*
X98858845Y-113464043D01*
X98515000Y-113120199D01*
X98515000Y-112948212D01*
X98471383Y-112728933D01*
X98385824Y-112522376D01*
X98261612Y-112336480D01*
X98103520Y-112178388D01*
X97917624Y-112054176D01*
X97711067Y-111968617D01*
X97491788Y-111925000D01*
X97268212Y-111925000D01*
X97241753Y-111930263D01*
X97247511Y-111707594D01*
X97237401Y-111648871D01*
X97268212Y-111655000D01*
X97491788Y-111655000D01*
X97711067Y-111611383D01*
X97917624Y-111525824D01*
X98103520Y-111401612D01*
X98261612Y-111243520D01*
X98385824Y-111057624D01*
X98471383Y-110851067D01*
X98515000Y-110631788D01*
X98515000Y-110408212D01*
X98471383Y-110188933D01*
X98385824Y-109982376D01*
X98261612Y-109796480D01*
X98103520Y-109638388D01*
X97917624Y-109514176D01*
X97711067Y-109428617D01*
X97491788Y-109385000D01*
X97268212Y-109385000D01*
X97048933Y-109428617D01*
X96842376Y-109514176D01*
X96656480Y-109638388D01*
X96498388Y-109796480D01*
X96374176Y-109982376D01*
X96288617Y-110188933D01*
X96245000Y-110408212D01*
X96245000Y-110631788D01*
X96250263Y-110658247D01*
X96027594Y-110652489D01*
X95807260Y-110690423D01*
X95598560Y-110770613D01*
X95546550Y-110798412D01*
X95511439Y-111011834D01*
X92100000Y-111011834D01*
X92100000Y-103634473D01*
X95430610Y-103634473D01*
X95470875Y-103894344D01*
X95561065Y-104141366D01*
X95614963Y-104242203D01*
X95848731Y-104301664D01*
X96590395Y-103560000D01*
X95848731Y-102818336D01*
X95614963Y-102877797D01*
X95504066Y-103116242D01*
X95441817Y-103371740D01*
X95430610Y-103634473D01*
X92100000Y-103634473D01*
X92100000Y-99608514D01*
X95435000Y-99608514D01*
X95435000Y-99871486D01*
X95486304Y-100129405D01*
X95586939Y-100372359D01*
X95733038Y-100591013D01*
X95837025Y-100695000D01*
X95733038Y-100798987D01*
X95586939Y-101017641D01*
X95486304Y-101260595D01*
X95435000Y-101518514D01*
X95435000Y-101781486D01*
X95486304Y-102039405D01*
X95586939Y-102282359D01*
X95733038Y-102501013D01*
X95918987Y-102686962D01*
X96137641Y-102833061D01*
X96282788Y-102893183D01*
X96770000Y-103380395D01*
X97257212Y-102893183D01*
X97402359Y-102833061D01*
X97621013Y-102686962D01*
X97725000Y-102582975D01*
X97747025Y-102605000D01*
X97643038Y-102708987D01*
X97496939Y-102927641D01*
X97436817Y-103072788D01*
X96949605Y-103560000D01*
X97436817Y-104047212D01*
X97496939Y-104192359D01*
X97643038Y-104411013D01*
X97828987Y-104596962D01*
X98047641Y-104743061D01*
X98192788Y-104803183D01*
X98680000Y-105290395D01*
X99167212Y-104803183D01*
X99312359Y-104743061D01*
X99531013Y-104596962D01*
X99635000Y-104492975D01*
X99657025Y-104515000D01*
X99553038Y-104618987D01*
X99406939Y-104837641D01*
X99346817Y-104982788D01*
X98859605Y-105470000D01*
X99346817Y-105957212D01*
X99406939Y-106102359D01*
X99553038Y-106321013D01*
X99657025Y-106425000D01*
X99635000Y-106447025D01*
X99531013Y-106343038D01*
X99312359Y-106196939D01*
X99167212Y-106136817D01*
X98680000Y-105649605D01*
X98192788Y-106136817D01*
X98047641Y-106196939D01*
X97828987Y-106343038D01*
X97725000Y-106447025D01*
X97702975Y-106425000D01*
X97806962Y-106321013D01*
X97953061Y-106102359D01*
X98013183Y-105957212D01*
X98500395Y-105470000D01*
X98013183Y-104982788D01*
X97953061Y-104837641D01*
X97806962Y-104618987D01*
X97621013Y-104433038D01*
X97402359Y-104286939D01*
X97257212Y-104226817D01*
X96770000Y-103739605D01*
X96282788Y-104226817D01*
X96137641Y-104286939D01*
X95918987Y-104433038D01*
X95733038Y-104618987D01*
X95586939Y-104837641D01*
X95486304Y-105080595D01*
X95435000Y-105338514D01*
X95435000Y-105601486D01*
X95486304Y-105859405D01*
X95586939Y-106102359D01*
X95733038Y-106321013D01*
X95837025Y-106425000D01*
X95733038Y-106528987D01*
X95586939Y-106747641D01*
X95486304Y-106990595D01*
X95435000Y-107248514D01*
X95435000Y-107511486D01*
X95486304Y-107769405D01*
X95586939Y-108012359D01*
X95733038Y-108231013D01*
X95918987Y-108416962D01*
X96137641Y-108563061D01*
X96380595Y-108663696D01*
X96638514Y-108715000D01*
X96901486Y-108715000D01*
X97159405Y-108663696D01*
X97402359Y-108563061D01*
X97621013Y-108416962D01*
X97725000Y-108312975D01*
X97828987Y-108416962D01*
X98047641Y-108563061D01*
X98290595Y-108663696D01*
X98548514Y-108715000D01*
X98811486Y-108715000D01*
X99069405Y-108663696D01*
X99312359Y-108563061D01*
X99531013Y-108416962D01*
X99635000Y-108312975D01*
X99738987Y-108416962D01*
X99957641Y-108563061D01*
X100200595Y-108663696D01*
X100458514Y-108715000D01*
X100721486Y-108715000D01*
X100979405Y-108663696D01*
X101222359Y-108563061D01*
X101441013Y-108416962D01*
X101626962Y-108231013D01*
X101773061Y-108012359D01*
X101873696Y-107769405D01*
X101925000Y-107511486D01*
X101925000Y-107248514D01*
X101873696Y-106990595D01*
X101773061Y-106747641D01*
X101626962Y-106528987D01*
X101522975Y-106425000D01*
X101626962Y-106321013D01*
X101773061Y-106102359D01*
X101873696Y-105859405D01*
X101925000Y-105601486D01*
X101925000Y-105338514D01*
X101873696Y-105080595D01*
X101773061Y-104837641D01*
X101626962Y-104618987D01*
X101522975Y-104515000D01*
X101626962Y-104411013D01*
X101773061Y-104192359D01*
X101873696Y-103949405D01*
X101925000Y-103691486D01*
X101925000Y-103428514D01*
X101873696Y-103170595D01*
X101773061Y-102927641D01*
X101626962Y-102708987D01*
X101522975Y-102605000D01*
X101626962Y-102501013D01*
X101773061Y-102282359D01*
X101873696Y-102039405D01*
X101880328Y-102006061D01*
X120885000Y-102006061D01*
X120885000Y-102209939D01*
X120924774Y-102409898D01*
X121002795Y-102598256D01*
X121116063Y-102767774D01*
X121260226Y-102911937D01*
X121429744Y-103025205D01*
X121618102Y-103103226D01*
X121818061Y-103143000D01*
X122021939Y-103143000D01*
X122221898Y-103103226D01*
X122410256Y-103025205D01*
X122579774Y-102911937D01*
X122684004Y-102807707D01*
X122684005Y-112326288D01*
X122640067Y-112370226D01*
X122526799Y-112539744D01*
X122448778Y-112728102D01*
X122409004Y-112928061D01*
X122409004Y-113131939D01*
X122448778Y-113331898D01*
X122526799Y-113520256D01*
X122640067Y-113689774D01*
X122784230Y-113833937D01*
X122953748Y-113947205D01*
X123142106Y-114025226D01*
X123342065Y-114065000D01*
X123545943Y-114065000D01*
X123745902Y-114025226D01*
X123934260Y-113947205D01*
X124103778Y-113833937D01*
X124247941Y-113689774D01*
X124361209Y-113520256D01*
X124439230Y-113331898D01*
X124479004Y-113131939D01*
X124479004Y-112928061D01*
X124439230Y-112728102D01*
X124361209Y-112539744D01*
X124247941Y-112370226D01*
X124204004Y-112326289D01*
X124204004Y-101152797D01*
X124245801Y-101111000D01*
X124307939Y-101111000D01*
X124507898Y-101071226D01*
X124696256Y-100993205D01*
X124865774Y-100879937D01*
X125009937Y-100735774D01*
X125123205Y-100566256D01*
X125201226Y-100377898D01*
X125241000Y-100177939D01*
X125241000Y-99974061D01*
X125201226Y-99774102D01*
X125123205Y-99585744D01*
X125009937Y-99416226D01*
X124865774Y-99272063D01*
X124696256Y-99158795D01*
X124507898Y-99080774D01*
X124307939Y-99041000D01*
X124104061Y-99041000D01*
X123904102Y-99080774D01*
X123715744Y-99158795D01*
X123546226Y-99272063D01*
X123444000Y-99374289D01*
X123341774Y-99272063D01*
X123172256Y-99158795D01*
X122983898Y-99080774D01*
X122783939Y-99041000D01*
X122580061Y-99041000D01*
X122380102Y-99080774D01*
X122191744Y-99158795D01*
X122022226Y-99272063D01*
X121878063Y-99416226D01*
X121764795Y-99585744D01*
X121686774Y-99774102D01*
X121647000Y-99974061D01*
X121647000Y-100177939D01*
X121686774Y-100377898D01*
X121764795Y-100566256D01*
X121878063Y-100735774D01*
X121922001Y-100779712D01*
X121922001Y-101031198D01*
X121880198Y-101073000D01*
X121818061Y-101073000D01*
X121618102Y-101112774D01*
X121429744Y-101190795D01*
X121260226Y-101304063D01*
X121116063Y-101448226D01*
X121002795Y-101617744D01*
X120924774Y-101806102D01*
X120885000Y-102006061D01*
X101880328Y-102006061D01*
X101925000Y-101781486D01*
X101925000Y-101518514D01*
X101873696Y-101260595D01*
X101773061Y-101017641D01*
X101626962Y-100798987D01*
X101522975Y-100695000D01*
X101626962Y-100591013D01*
X101773061Y-100372359D01*
X101873696Y-100129405D01*
X101925000Y-99871486D01*
X101925000Y-99608514D01*
X101873696Y-99350595D01*
X101773061Y-99107641D01*
X101626962Y-98888987D01*
X101441013Y-98703038D01*
X101222359Y-98556939D01*
X101077212Y-98496817D01*
X100590000Y-98009605D01*
X100102788Y-98496817D01*
X99957641Y-98556939D01*
X99738987Y-98703038D01*
X99635000Y-98807025D01*
X99531013Y-98703038D01*
X99312359Y-98556939D01*
X99167212Y-98496817D01*
X98680000Y-98009605D01*
X98192788Y-98496817D01*
X98047641Y-98556939D01*
X97828987Y-98703038D01*
X97725000Y-98807025D01*
X97621013Y-98703038D01*
X97402359Y-98556939D01*
X97257212Y-98496817D01*
X96770000Y-98009605D01*
X96282788Y-98496817D01*
X96137641Y-98556939D01*
X95918987Y-98703038D01*
X95733038Y-98888987D01*
X95586939Y-99107641D01*
X95486304Y-99350595D01*
X95435000Y-99608514D01*
X92100000Y-99608514D01*
X92100000Y-97904473D01*
X95430610Y-97904473D01*
X95470875Y-98164344D01*
X95561065Y-98411366D01*
X95614963Y-98512203D01*
X95848731Y-98571664D01*
X96590395Y-97830000D01*
X96949605Y-97830000D01*
X97436615Y-98317010D01*
X97471065Y-98411366D01*
X97524963Y-98512203D01*
X97668256Y-98548651D01*
X97691269Y-98571664D01*
X97725000Y-98563084D01*
X97758731Y-98571664D01*
X97781744Y-98548651D01*
X97925037Y-98512203D01*
X98017934Y-98312461D01*
X98500395Y-97830000D01*
X98859605Y-97830000D01*
X99346615Y-98317010D01*
X99381065Y-98411366D01*
X99434963Y-98512203D01*
X99578256Y-98548651D01*
X99601269Y-98571664D01*
X99635000Y-98563084D01*
X99668731Y-98571664D01*
X99691744Y-98548651D01*
X99835037Y-98512203D01*
X99927934Y-98312461D01*
X100410395Y-97830000D01*
X100769605Y-97830000D01*
X101511269Y-98571664D01*
X101745037Y-98512203D01*
X101855934Y-98273758D01*
X101918183Y-98018260D01*
X101929390Y-97755527D01*
X101889125Y-97495656D01*
X101798935Y-97248634D01*
X101745037Y-97147797D01*
X101511269Y-97088336D01*
X100769605Y-97830000D01*
X100410395Y-97830000D01*
X99923385Y-97342990D01*
X99888935Y-97248634D01*
X99835037Y-97147797D01*
X99691744Y-97111349D01*
X99668731Y-97088336D01*
X99635000Y-97096916D01*
X99601269Y-97088336D01*
X99578256Y-97111349D01*
X99434963Y-97147797D01*
X99342066Y-97347539D01*
X98859605Y-97830000D01*
X98500395Y-97830000D01*
X98013385Y-97342990D01*
X97978935Y-97248634D01*
X97925037Y-97147797D01*
X97781744Y-97111349D01*
X97758731Y-97088336D01*
X97725000Y-97096916D01*
X97691269Y-97088336D01*
X97668256Y-97111349D01*
X97524963Y-97147797D01*
X97432066Y-97347539D01*
X96949605Y-97830000D01*
X96590395Y-97830000D01*
X95848731Y-97088336D01*
X95614963Y-97147797D01*
X95504066Y-97386242D01*
X95441817Y-97641740D01*
X95430610Y-97904473D01*
X92100000Y-97904473D01*
X92100000Y-93878514D01*
X95435000Y-93878514D01*
X95435000Y-94141486D01*
X95486304Y-94399405D01*
X95586939Y-94642359D01*
X95733038Y-94861013D01*
X95837025Y-94965000D01*
X95733038Y-95068987D01*
X95586939Y-95287641D01*
X95486304Y-95530595D01*
X95435000Y-95788514D01*
X95435000Y-96051486D01*
X95486304Y-96309405D01*
X95586939Y-96552359D01*
X95733038Y-96771013D01*
X95918987Y-96956962D01*
X96137641Y-97103061D01*
X96282788Y-97163183D01*
X96770000Y-97650395D01*
X97257212Y-97163183D01*
X97402359Y-97103061D01*
X97621013Y-96956962D01*
X97725000Y-96852975D01*
X97828987Y-96956962D01*
X98047641Y-97103061D01*
X98192788Y-97163183D01*
X98680000Y-97650395D01*
X99167212Y-97163183D01*
X99312359Y-97103061D01*
X99531013Y-96956962D01*
X99635000Y-96852975D01*
X99738987Y-96956962D01*
X99957641Y-97103061D01*
X100102788Y-97163183D01*
X100590000Y-97650395D01*
X101077212Y-97163183D01*
X101222359Y-97103061D01*
X101441013Y-96956962D01*
X101626962Y-96771013D01*
X101773061Y-96552359D01*
X101873696Y-96309405D01*
X101925000Y-96051486D01*
X101925000Y-95788514D01*
X101873696Y-95530595D01*
X101773061Y-95287641D01*
X101707201Y-95189075D01*
X101741185Y-95161185D01*
X101820537Y-95064494D01*
X101879502Y-94954180D01*
X101915812Y-94834482D01*
X101928072Y-94710000D01*
X101928072Y-93310000D01*
X101915812Y-93185518D01*
X101879502Y-93065820D01*
X101820537Y-92955506D01*
X101741185Y-92858815D01*
X101644494Y-92779463D01*
X101534180Y-92720498D01*
X101414482Y-92684188D01*
X101290000Y-92671928D01*
X99890000Y-92671928D01*
X99765518Y-92684188D01*
X99645820Y-92720498D01*
X99535506Y-92779463D01*
X99438815Y-92858815D01*
X99410925Y-92892799D01*
X99312359Y-92826939D01*
X99069405Y-92726304D01*
X98811486Y-92675000D01*
X98548514Y-92675000D01*
X98290595Y-92726304D01*
X98047641Y-92826939D01*
X97828987Y-92973038D01*
X97725000Y-93077025D01*
X97621013Y-92973038D01*
X97402359Y-92826939D01*
X97159405Y-92726304D01*
X96901486Y-92675000D01*
X96638514Y-92675000D01*
X96380595Y-92726304D01*
X96137641Y-92826939D01*
X95918987Y-92973038D01*
X95733038Y-93158987D01*
X95586939Y-93377641D01*
X95486304Y-93620595D01*
X95435000Y-93878514D01*
X92100000Y-93878514D01*
X92100000Y-89548640D01*
X93510965Y-89548640D01*
X93739099Y-89925641D01*
X94215989Y-90176292D01*
X94732614Y-90329092D01*
X95269122Y-90378167D01*
X95804896Y-90321631D01*
X96319345Y-90161657D01*
X96760901Y-89925641D01*
X96989035Y-89548640D01*
X95250000Y-87809605D01*
X93510965Y-89548640D01*
X92100000Y-89548640D01*
X92100000Y-87649122D01*
X92501833Y-87649122D01*
X92558369Y-88184896D01*
X92718343Y-88699345D01*
X92954359Y-89140901D01*
X93331360Y-89369035D01*
X95070395Y-87630000D01*
X95429605Y-87630000D01*
X97168640Y-89369035D01*
X97545641Y-89140901D01*
X97796292Y-88664011D01*
X97949092Y-88147386D01*
X97998167Y-87610878D01*
X97941631Y-87075104D01*
X97781657Y-86560655D01*
X97545641Y-86119099D01*
X97168640Y-85890965D01*
X95429605Y-87630000D01*
X95070395Y-87630000D01*
X93331360Y-85890965D01*
X92954359Y-86119099D01*
X92703708Y-86595989D01*
X92550908Y-87112614D01*
X92501833Y-87649122D01*
X92100000Y-87649122D01*
X92100000Y-85711360D01*
X93510965Y-85711360D01*
X95250000Y-87450395D01*
X96989035Y-85711360D01*
X96760901Y-85334359D01*
X96284011Y-85083708D01*
X95767386Y-84930908D01*
X95230878Y-84881833D01*
X94695104Y-84938369D01*
X94180655Y-85098343D01*
X93739099Y-85334359D01*
X93510965Y-85711360D01*
X92100000Y-85711360D01*
X92100000Y-83599872D01*
X103937000Y-83599872D01*
X103937000Y-84040128D01*
X104022890Y-84471925D01*
X104191369Y-84878669D01*
X104435962Y-85244729D01*
X104747271Y-85556038D01*
X105113331Y-85800631D01*
X105520075Y-85969110D01*
X105951872Y-86055000D01*
X106392128Y-86055000D01*
X106823925Y-85969110D01*
X107230669Y-85800631D01*
X107596729Y-85556038D01*
X107908038Y-85244729D01*
X108152631Y-84878669D01*
X108321110Y-84471925D01*
X108407000Y-84040128D01*
X108407000Y-83599872D01*
X108321110Y-83168075D01*
X108152631Y-82761331D01*
X107908038Y-82395271D01*
X107596729Y-82083962D01*
X107230669Y-81839369D01*
X106823925Y-81670890D01*
X106392128Y-81585000D01*
X105951872Y-81585000D01*
X105520075Y-81670890D01*
X105113331Y-81839369D01*
X104747271Y-82083962D01*
X104435962Y-82395271D01*
X104191369Y-82761331D01*
X104022890Y-83168075D01*
X103937000Y-83599872D01*
X92100000Y-83599872D01*
X92100000Y-80670000D01*
X126325456Y-80670000D01*
X126194192Y-80709818D01*
G36*
X141459000Y-101447939D02*
G01*
X141498774Y-101647898D01*
X141576795Y-101836256D01*
X141589987Y-101856000D01*
X139737333Y-101856000D01*
X139700000Y-101852323D01*
X139662667Y-101856000D01*
X138879711Y-101856000D01*
X138835774Y-101812063D01*
X138666256Y-101698795D01*
X138477898Y-101620774D01*
X138373459Y-101600000D01*
X138477898Y-101579226D01*
X138666256Y-101501205D01*
X138835774Y-101387937D01*
X138879711Y-101344000D01*
X141459000Y-101344000D01*
X141459000Y-101447939D01*
X141459000Y-101447939D01*
G37*
X141459000Y-101447939D02*
X141498774Y-101647898D01*
X141576795Y-101836256D01*
X141589987Y-101856000D01*
X139737333Y-101856000D01*
X139700000Y-101852323D01*
X139662667Y-101856000D01*
X138879711Y-101856000D01*
X138835774Y-101812063D01*
X138666256Y-101698795D01*
X138477898Y-101620774D01*
X138373459Y-101600000D01*
X138477898Y-101579226D01*
X138666256Y-101501205D01*
X138835774Y-101387937D01*
X138879711Y-101344000D01*
X141459000Y-101344000D01*
X141459000Y-101447939D01*
G36*
X158383748Y-114680858D02*
G01*
X158369605Y-114695000D01*
X158383748Y-114709143D01*
X158204143Y-114888748D01*
X158190000Y-114874605D01*
X158175858Y-114888748D01*
X157996253Y-114709143D01*
X158010395Y-114695000D01*
X157996253Y-114680858D01*
X158175858Y-114501253D01*
X158190000Y-114515395D01*
X158204143Y-114501253D01*
X158383748Y-114680858D01*
X158383748Y-114680858D01*
G37*
X158383748Y-114680858D02*
X158369605Y-114695000D01*
X158383748Y-114709143D01*
X158204143Y-114888748D01*
X158190000Y-114874605D01*
X158175858Y-114888748D01*
X157996253Y-114709143D01*
X158010395Y-114695000D01*
X157996253Y-114680858D01*
X158175858Y-114501253D01*
X158190000Y-114515395D01*
X158204143Y-114501253D01*
X158383748Y-114680858D01*
G36*
X158383748Y-110100858D02*
G01*
X158369605Y-110115000D01*
X158383748Y-110129143D01*
X158204143Y-110308748D01*
X158190000Y-110294605D01*
X158175858Y-110308748D01*
X157996253Y-110129143D01*
X158010395Y-110115000D01*
X157996253Y-110100858D01*
X158175858Y-109921253D01*
X158190000Y-109935395D01*
X158204143Y-109921253D01*
X158383748Y-110100858D01*
X158383748Y-110100858D01*
G37*
X158383748Y-110100858D02*
X158369605Y-110115000D01*
X158383748Y-110129143D01*
X158204143Y-110308748D01*
X158190000Y-110294605D01*
X158175858Y-110308748D01*
X157996253Y-110129143D01*
X158010395Y-110115000D01*
X157996253Y-110100858D01*
X158175858Y-109921253D01*
X158190000Y-109935395D01*
X158204143Y-109921253D01*
X158383748Y-110100858D01*
G36*
X158383748Y-107810858D02*
G01*
X158369605Y-107825000D01*
X158383748Y-107839143D01*
X158204143Y-108018748D01*
X158190000Y-108004605D01*
X158175858Y-108018748D01*
X157996253Y-107839143D01*
X158010395Y-107825000D01*
X157996253Y-107810858D01*
X158175858Y-107631253D01*
X158190000Y-107645395D01*
X158204143Y-107631253D01*
X158383748Y-107810858D01*
X158383748Y-107810858D01*
G37*
X158383748Y-107810858D02*
X158369605Y-107825000D01*
X158383748Y-107839143D01*
X158204143Y-108018748D01*
X158190000Y-108004605D01*
X158175858Y-108018748D01*
X157996253Y-107839143D01*
X158010395Y-107825000D01*
X157996253Y-107810858D01*
X158175858Y-107631253D01*
X158190000Y-107645395D01*
X158204143Y-107631253D01*
X158383748Y-107810858D01*
G36*
X130400188Y-82966482D02*
G01*
X130436498Y-83086180D01*
X130495463Y-83196494D01*
X130563636Y-83279563D01*
X130189997Y-83653202D01*
X130160999Y-83677000D01*
X130137201Y-83705998D01*
X130137200Y-83705999D01*
X130066025Y-83792725D01*
X129995453Y-83924755D01*
X129951997Y-84068016D01*
X129937323Y-84217001D01*
X129941000Y-84254334D01*
X129941000Y-88384975D01*
X129837808Y-88329818D01*
X129567309Y-88247764D01*
X129356492Y-88227000D01*
X129215508Y-88227000D01*
X129004691Y-88247764D01*
X128920999Y-88273151D01*
X128920999Y-83481802D01*
X128960093Y-83442708D01*
X129004691Y-83456236D01*
X129215508Y-83477000D01*
X129356492Y-83477000D01*
X129567309Y-83456236D01*
X129837808Y-83374182D01*
X130087101Y-83240932D01*
X130305608Y-83061608D01*
X130398419Y-82948518D01*
X130400188Y-82966482D01*
X130400188Y-82966482D01*
G37*
X130400188Y-82966482D02*
X130436498Y-83086180D01*
X130495463Y-83196494D01*
X130563636Y-83279563D01*
X130189997Y-83653202D01*
X130160999Y-83677000D01*
X130137201Y-83705998D01*
X130137200Y-83705999D01*
X130066025Y-83792725D01*
X129995453Y-83924755D01*
X129951997Y-84068016D01*
X129937323Y-84217001D01*
X129941000Y-84254334D01*
X129941000Y-88384975D01*
X129837808Y-88329818D01*
X129567309Y-88247764D01*
X129356492Y-88227000D01*
X129215508Y-88227000D01*
X129004691Y-88247764D01*
X128920999Y-88273151D01*
X128920999Y-83481802D01*
X128960093Y-83442708D01*
X129004691Y-83456236D01*
X129215508Y-83477000D01*
X129356492Y-83477000D01*
X129567309Y-83456236D01*
X129837808Y-83374182D01*
X130087101Y-83240932D01*
X130305608Y-83061608D01*
X130398419Y-82948518D01*
X130400188Y-82966482D01*
M02*
