G04 #@! TF.GenerationSoftware,KiCad,Pcbnew,(5.1.0)-1*
G04 #@! TF.CreationDate,2019-03-24T00:08:19-04:00*
G04 #@! TF.ProjectId,vga2dvi,76676132-6476-4692-9e6b-696361645f70,rev?*
G04 #@! TF.SameCoordinates,Original*
G04 #@! TF.FileFunction,Legend,Top*
G04 #@! TF.FilePolarity,Positive*
%FSLAX46Y46*%
G04 Gerber Fmt 4.6, Leading zero omitted, Abs format (unit mm)*
G04 Created by KiCad (PCBNEW (5.1.0)-1) date 2019-03-24 00:08:19*
%MOMM*%
%LPD*%
G04 APERTURE LIST*
%ADD10C,0.120000*%
%ADD11C,0.150000*%
%ADD12C,0.127000*%
%ADD13C,0.100000*%
G04 APERTURE END LIST*
D10*
X130175000Y-115570000D02*
X130175000Y-125095000D01*
D11*
X121318928Y-115945571D02*
X120985595Y-115945571D01*
X120985595Y-116469380D02*
X120985595Y-115469380D01*
X121461785Y-115469380D01*
X122366547Y-116469380D02*
X121795119Y-116469380D01*
X122080833Y-116469380D02*
X122080833Y-115469380D01*
X121985595Y-115612238D01*
X121890357Y-115707476D01*
X121795119Y-115755095D01*
X124652261Y-115945571D02*
X124318928Y-115945571D01*
X124318928Y-116469380D02*
X124318928Y-115469380D01*
X124795119Y-115469380D01*
X125128452Y-115564619D02*
X125176071Y-115517000D01*
X125271309Y-115469380D01*
X125509404Y-115469380D01*
X125604642Y-115517000D01*
X125652261Y-115564619D01*
X125699880Y-115659857D01*
X125699880Y-115755095D01*
X125652261Y-115897952D01*
X125080833Y-116469380D01*
X125699880Y-116469380D01*
X127985595Y-115945571D02*
X128128452Y-115993190D01*
X128176071Y-116040809D01*
X128223690Y-116136047D01*
X128223690Y-116278904D01*
X128176071Y-116374142D01*
X128128452Y-116421761D01*
X128033214Y-116469380D01*
X127652261Y-116469380D01*
X127652261Y-115469380D01*
X127985595Y-115469380D01*
X128080833Y-115517000D01*
X128128452Y-115564619D01*
X128176071Y-115659857D01*
X128176071Y-115755095D01*
X128128452Y-115850333D01*
X128080833Y-115897952D01*
X127985595Y-115945571D01*
X127652261Y-115945571D01*
X128652261Y-116469380D02*
X128652261Y-115469380D01*
X129033214Y-115469380D01*
X129128452Y-115517000D01*
X129176071Y-115564619D01*
X129223690Y-115659857D01*
X129223690Y-115802714D01*
X129176071Y-115897952D01*
X129128452Y-115945571D01*
X129033214Y-115993190D01*
X128652261Y-115993190D01*
X131366547Y-115469380D02*
X131461785Y-115469380D01*
X131557023Y-115517000D01*
X131604642Y-115564619D01*
X131652261Y-115659857D01*
X131699880Y-115850333D01*
X131699880Y-116088428D01*
X131652261Y-116278904D01*
X131604642Y-116374142D01*
X131557023Y-116421761D01*
X131461785Y-116469380D01*
X131366547Y-116469380D01*
X131271309Y-116421761D01*
X131223690Y-116374142D01*
X131176071Y-116278904D01*
X131128452Y-116088428D01*
X131128452Y-115850333D01*
X131176071Y-115659857D01*
X131223690Y-115564619D01*
X131271309Y-115517000D01*
X131366547Y-115469380D01*
X132890357Y-116469380D02*
X132890357Y-115802714D01*
X132890357Y-115469380D02*
X132842738Y-115517000D01*
X132890357Y-115564619D01*
X132937976Y-115517000D01*
X132890357Y-115469380D01*
X132890357Y-115564619D01*
X133318928Y-116421761D02*
X133414166Y-116469380D01*
X133604642Y-116469380D01*
X133699880Y-116421761D01*
X133747500Y-116326523D01*
X133747500Y-116278904D01*
X133699880Y-116183666D01*
X133604642Y-116136047D01*
X133461785Y-116136047D01*
X133366547Y-116088428D01*
X133318928Y-115993190D01*
X133318928Y-115945571D01*
X133366547Y-115850333D01*
X133461785Y-115802714D01*
X133604642Y-115802714D01*
X133699880Y-115850333D01*
X135366547Y-115802714D02*
X135366547Y-116469380D01*
X134937976Y-115802714D02*
X134937976Y-116326523D01*
X134985595Y-116421761D01*
X135080833Y-116469380D01*
X135223690Y-116469380D01*
X135318928Y-116421761D01*
X135366547Y-116374142D01*
X135842738Y-115802714D02*
X135842738Y-116802714D01*
X135842738Y-115850333D02*
X135937976Y-115802714D01*
X136128452Y-115802714D01*
X136223690Y-115850333D01*
X136271309Y-115897952D01*
X136318928Y-115993190D01*
X136318928Y-116278904D01*
X136271309Y-116374142D01*
X136223690Y-116421761D01*
X136128452Y-116469380D01*
X135937976Y-116469380D01*
X135842738Y-116421761D01*
X136795119Y-116421761D02*
X136795119Y-116469380D01*
X136747500Y-116564619D01*
X136699880Y-116612238D01*
X138509404Y-116469380D02*
X137937976Y-116469380D01*
X138223690Y-116469380D02*
X138223690Y-115469380D01*
X138128452Y-115612238D01*
X138033214Y-115707476D01*
X137937976Y-115755095D01*
X139699880Y-116469380D02*
X139699880Y-115802714D01*
X139699880Y-115469380D02*
X139652261Y-115517000D01*
X139699880Y-115564619D01*
X139747500Y-115517000D01*
X139699880Y-115469380D01*
X139699880Y-115564619D01*
X140128452Y-116421761D02*
X140223690Y-116469380D01*
X140414166Y-116469380D01*
X140509404Y-116421761D01*
X140557023Y-116326523D01*
X140557023Y-116278904D01*
X140509404Y-116183666D01*
X140414166Y-116136047D01*
X140271309Y-116136047D01*
X140176071Y-116088428D01*
X140128452Y-115993190D01*
X140128452Y-115945571D01*
X140176071Y-115850333D01*
X140271309Y-115802714D01*
X140414166Y-115802714D01*
X140509404Y-115850333D01*
X142176071Y-116469380D02*
X142176071Y-115469380D01*
X142176071Y-116421761D02*
X142080833Y-116469380D01*
X141890357Y-116469380D01*
X141795119Y-116421761D01*
X141747500Y-116374142D01*
X141699880Y-116278904D01*
X141699880Y-115993190D01*
X141747500Y-115897952D01*
X141795119Y-115850333D01*
X141890357Y-115802714D01*
X142080833Y-115802714D01*
X142176071Y-115850333D01*
X142795119Y-116469380D02*
X142699880Y-116421761D01*
X142652261Y-116374142D01*
X142604642Y-116278904D01*
X142604642Y-115993190D01*
X142652261Y-115897952D01*
X142699880Y-115850333D01*
X142795119Y-115802714D01*
X142937976Y-115802714D01*
X143033214Y-115850333D01*
X143080833Y-115897952D01*
X143128452Y-115993190D01*
X143128452Y-116278904D01*
X143080833Y-116374142D01*
X143033214Y-116421761D01*
X142937976Y-116469380D01*
X142795119Y-116469380D01*
X143461785Y-115802714D02*
X143652261Y-116469380D01*
X143842738Y-115993190D01*
X144033214Y-116469380D01*
X144223690Y-115802714D01*
X144604642Y-115802714D02*
X144604642Y-116469380D01*
X144604642Y-115897952D02*
X144652261Y-115850333D01*
X144747500Y-115802714D01*
X144890357Y-115802714D01*
X144985595Y-115850333D01*
X145033214Y-115945571D01*
X145033214Y-116469380D01*
X121937976Y-117119380D02*
X122033214Y-117119380D01*
X122128452Y-117167000D01*
X122176071Y-117214619D01*
X122223690Y-117309857D01*
X122271309Y-117500333D01*
X122271309Y-117738428D01*
X122223690Y-117928904D01*
X122176071Y-118024142D01*
X122128452Y-118071761D01*
X122033214Y-118119380D01*
X121937976Y-118119380D01*
X121842738Y-118071761D01*
X121795119Y-118024142D01*
X121747500Y-117928904D01*
X121699880Y-117738428D01*
X121699880Y-117500333D01*
X121747500Y-117309857D01*
X121795119Y-117214619D01*
X121842738Y-117167000D01*
X121937976Y-117119380D01*
X125176071Y-117119380D02*
X125271309Y-117119380D01*
X125366547Y-117167000D01*
X125414166Y-117214619D01*
X125461785Y-117309857D01*
X125509404Y-117500333D01*
X125509404Y-117738428D01*
X125461785Y-117928904D01*
X125414166Y-118024142D01*
X125366547Y-118071761D01*
X125271309Y-118119380D01*
X125176071Y-118119380D01*
X125080833Y-118071761D01*
X125033214Y-118024142D01*
X124985595Y-117928904D01*
X124937976Y-117738428D01*
X124937976Y-117500333D01*
X124985595Y-117309857D01*
X125033214Y-117214619D01*
X125080833Y-117167000D01*
X125176071Y-117119380D01*
X128414166Y-117119380D02*
X128509404Y-117119380D01*
X128604642Y-117167000D01*
X128652261Y-117214619D01*
X128699880Y-117309857D01*
X128747500Y-117500333D01*
X128747500Y-117738428D01*
X128699880Y-117928904D01*
X128652261Y-118024142D01*
X128604642Y-118071761D01*
X128509404Y-118119380D01*
X128414166Y-118119380D01*
X128318928Y-118071761D01*
X128271309Y-118024142D01*
X128223690Y-117928904D01*
X128176071Y-117738428D01*
X128176071Y-117500333D01*
X128223690Y-117309857D01*
X128271309Y-117214619D01*
X128318928Y-117167000D01*
X128414166Y-117119380D01*
X131414166Y-118071761D02*
X131557023Y-118119380D01*
X131795119Y-118119380D01*
X131890357Y-118071761D01*
X131937976Y-118024142D01*
X131985595Y-117928904D01*
X131985595Y-117833666D01*
X131937976Y-117738428D01*
X131890357Y-117690809D01*
X131795119Y-117643190D01*
X131604642Y-117595571D01*
X131509404Y-117547952D01*
X131461785Y-117500333D01*
X131414166Y-117405095D01*
X131414166Y-117309857D01*
X131461785Y-117214619D01*
X131509404Y-117167000D01*
X131604642Y-117119380D01*
X131842738Y-117119380D01*
X131985595Y-117167000D01*
X132414166Y-118119380D02*
X132414166Y-117119380D01*
X132652261Y-117119380D01*
X132795119Y-117167000D01*
X132890357Y-117262238D01*
X132937976Y-117357476D01*
X132985595Y-117547952D01*
X132985595Y-117690809D01*
X132937976Y-117881285D01*
X132890357Y-117976523D01*
X132795119Y-118071761D01*
X132652261Y-118119380D01*
X132414166Y-118119380D01*
X134128452Y-117214619D02*
X134176071Y-117167000D01*
X134271309Y-117119380D01*
X134509404Y-117119380D01*
X134604642Y-117167000D01*
X134652261Y-117214619D01*
X134699880Y-117309857D01*
X134699880Y-117405095D01*
X134652261Y-117547952D01*
X134080833Y-118119380D01*
X134699880Y-118119380D01*
X135557023Y-117452714D02*
X135557023Y-118119380D01*
X135318928Y-117071761D02*
X135080833Y-117786047D01*
X135699880Y-117786047D01*
X136271309Y-117119380D02*
X136366547Y-117119380D01*
X136461785Y-117167000D01*
X136509404Y-117214619D01*
X136557023Y-117309857D01*
X136604642Y-117500333D01*
X136604642Y-117738428D01*
X136557023Y-117928904D01*
X136509404Y-118024142D01*
X136461785Y-118071761D01*
X136366547Y-118119380D01*
X136271309Y-118119380D01*
X136176071Y-118071761D01*
X136128452Y-118024142D01*
X136080833Y-117928904D01*
X136033214Y-117738428D01*
X136033214Y-117500333D01*
X136080833Y-117309857D01*
X136128452Y-117214619D01*
X136176071Y-117167000D01*
X136271309Y-117119380D01*
X137033214Y-117452714D02*
X137033214Y-118452714D01*
X137033214Y-117500333D02*
X137128452Y-117452714D01*
X137318928Y-117452714D01*
X137414166Y-117500333D01*
X137461785Y-117547952D01*
X137509404Y-117643190D01*
X137509404Y-117928904D01*
X137461785Y-118024142D01*
X137414166Y-118071761D01*
X137318928Y-118119380D01*
X137128452Y-118119380D01*
X137033214Y-118071761D01*
X138747500Y-118119380D02*
X138937976Y-118119380D01*
X139033214Y-118071761D01*
X139080833Y-118024142D01*
X139176071Y-117881285D01*
X139223690Y-117690809D01*
X139223690Y-117309857D01*
X139176071Y-117214619D01*
X139128452Y-117167000D01*
X139033214Y-117119380D01*
X138842738Y-117119380D01*
X138747500Y-117167000D01*
X138699880Y-117214619D01*
X138652261Y-117309857D01*
X138652261Y-117547952D01*
X138699880Y-117643190D01*
X138747500Y-117690809D01*
X138842738Y-117738428D01*
X139033214Y-117738428D01*
X139128452Y-117690809D01*
X139176071Y-117643190D01*
X139223690Y-117547952D01*
X139652261Y-118024142D02*
X139699880Y-118071761D01*
X139652261Y-118119380D01*
X139604642Y-118071761D01*
X139652261Y-118024142D01*
X139652261Y-118119380D01*
X140604642Y-117119380D02*
X140128452Y-117119380D01*
X140080833Y-117595571D01*
X140128452Y-117547952D01*
X140223690Y-117500333D01*
X140461785Y-117500333D01*
X140557023Y-117547952D01*
X140604642Y-117595571D01*
X140652261Y-117690809D01*
X140652261Y-117928904D01*
X140604642Y-118024142D01*
X140557023Y-118071761D01*
X140461785Y-118119380D01*
X140223690Y-118119380D01*
X140128452Y-118071761D01*
X140080833Y-118024142D01*
X141080833Y-118119380D02*
X141080833Y-117119380D01*
X141414166Y-117833666D01*
X141747500Y-117119380D01*
X141747500Y-118119380D01*
X142223690Y-118119380D02*
X142223690Y-117119380D01*
X142223690Y-117595571D02*
X142795119Y-117595571D01*
X142795119Y-118119380D02*
X142795119Y-117119380D01*
X143176071Y-117452714D02*
X143699880Y-117452714D01*
X143176071Y-118119380D01*
X143699880Y-118119380D01*
X121937976Y-118769380D02*
X122033214Y-118769380D01*
X122128452Y-118817000D01*
X122176071Y-118864619D01*
X122223690Y-118959857D01*
X122271309Y-119150333D01*
X122271309Y-119388428D01*
X122223690Y-119578904D01*
X122176071Y-119674142D01*
X122128452Y-119721761D01*
X122033214Y-119769380D01*
X121937976Y-119769380D01*
X121842738Y-119721761D01*
X121795119Y-119674142D01*
X121747500Y-119578904D01*
X121699880Y-119388428D01*
X121699880Y-119150333D01*
X121747500Y-118959857D01*
X121795119Y-118864619D01*
X121842738Y-118817000D01*
X121937976Y-118769380D01*
X125509404Y-119769380D02*
X124937976Y-119769380D01*
X125223690Y-119769380D02*
X125223690Y-118769380D01*
X125128452Y-118912238D01*
X125033214Y-119007476D01*
X124937976Y-119055095D01*
X128414166Y-118769380D02*
X128509404Y-118769380D01*
X128604642Y-118817000D01*
X128652261Y-118864619D01*
X128699880Y-118959857D01*
X128747500Y-119150333D01*
X128747500Y-119388428D01*
X128699880Y-119578904D01*
X128652261Y-119674142D01*
X128604642Y-119721761D01*
X128509404Y-119769380D01*
X128414166Y-119769380D01*
X128318928Y-119721761D01*
X128271309Y-119674142D01*
X128223690Y-119578904D01*
X128176071Y-119388428D01*
X128176071Y-119150333D01*
X128223690Y-118959857D01*
X128271309Y-118864619D01*
X128318928Y-118817000D01*
X128414166Y-118769380D01*
X131461785Y-119245571D02*
X131795119Y-119245571D01*
X131937976Y-119769380D02*
X131461785Y-119769380D01*
X131461785Y-118769380D01*
X131937976Y-118769380D01*
X132366547Y-119769380D02*
X132366547Y-118769380D01*
X132604642Y-118769380D01*
X132747500Y-118817000D01*
X132842738Y-118912238D01*
X132890357Y-119007476D01*
X132937976Y-119197952D01*
X132937976Y-119340809D01*
X132890357Y-119531285D01*
X132842738Y-119626523D01*
X132747500Y-119721761D01*
X132604642Y-119769380D01*
X132366547Y-119769380D01*
X134557023Y-119102714D02*
X134557023Y-119769380D01*
X134318928Y-118721761D02*
X134080833Y-119436047D01*
X134699880Y-119436047D01*
X135223690Y-119197952D02*
X135128452Y-119150333D01*
X135080833Y-119102714D01*
X135033214Y-119007476D01*
X135033214Y-118959857D01*
X135080833Y-118864619D01*
X135128452Y-118817000D01*
X135223690Y-118769380D01*
X135414166Y-118769380D01*
X135509404Y-118817000D01*
X135557023Y-118864619D01*
X135604642Y-118959857D01*
X135604642Y-119007476D01*
X135557023Y-119102714D01*
X135509404Y-119150333D01*
X135414166Y-119197952D01*
X135223690Y-119197952D01*
X135128452Y-119245571D01*
X135080833Y-119293190D01*
X135033214Y-119388428D01*
X135033214Y-119578904D01*
X135080833Y-119674142D01*
X135128452Y-119721761D01*
X135223690Y-119769380D01*
X135414166Y-119769380D01*
X135509404Y-119721761D01*
X135557023Y-119674142D01*
X135604642Y-119578904D01*
X135604642Y-119388428D01*
X135557023Y-119293190D01*
X135509404Y-119245571D01*
X135414166Y-119197952D01*
X136223690Y-118769380D02*
X136318928Y-118769380D01*
X136414166Y-118817000D01*
X136461785Y-118864619D01*
X136509404Y-118959857D01*
X136557023Y-119150333D01*
X136557023Y-119388428D01*
X136509404Y-119578904D01*
X136461785Y-119674142D01*
X136414166Y-119721761D01*
X136318928Y-119769380D01*
X136223690Y-119769380D01*
X136128452Y-119721761D01*
X136080833Y-119674142D01*
X136033214Y-119578904D01*
X135985595Y-119388428D01*
X135985595Y-119150333D01*
X136033214Y-118959857D01*
X136080833Y-118864619D01*
X136128452Y-118817000D01*
X136223690Y-118769380D01*
X136985595Y-119102714D02*
X136985595Y-120102714D01*
X136985595Y-119150333D02*
X137080833Y-119102714D01*
X137271309Y-119102714D01*
X137366547Y-119150333D01*
X137414166Y-119197952D01*
X137461785Y-119293190D01*
X137461785Y-119578904D01*
X137414166Y-119674142D01*
X137366547Y-119721761D01*
X137271309Y-119769380D01*
X137080833Y-119769380D01*
X136985595Y-119721761D01*
X139176071Y-119769380D02*
X138604642Y-119769380D01*
X138890357Y-119769380D02*
X138890357Y-118769380D01*
X138795119Y-118912238D01*
X138699880Y-119007476D01*
X138604642Y-119055095D01*
X139509404Y-118769380D02*
X140176071Y-118769380D01*
X139747500Y-119769380D01*
X140557023Y-119769380D02*
X140557023Y-118769380D01*
X140890357Y-119483666D01*
X141223690Y-118769380D01*
X141223690Y-119769380D01*
X141699880Y-119769380D02*
X141699880Y-118769380D01*
X141699880Y-119245571D02*
X142271309Y-119245571D01*
X142271309Y-119769380D02*
X142271309Y-118769380D01*
X142652261Y-119102714D02*
X143176071Y-119102714D01*
X142652261Y-119769380D01*
X143176071Y-119769380D01*
X122271309Y-121419380D02*
X121699880Y-121419380D01*
X121985595Y-121419380D02*
X121985595Y-120419380D01*
X121890357Y-120562238D01*
X121795119Y-120657476D01*
X121699880Y-120705095D01*
X125176071Y-120419380D02*
X125271309Y-120419380D01*
X125366547Y-120467000D01*
X125414166Y-120514619D01*
X125461785Y-120609857D01*
X125509404Y-120800333D01*
X125509404Y-121038428D01*
X125461785Y-121228904D01*
X125414166Y-121324142D01*
X125366547Y-121371761D01*
X125271309Y-121419380D01*
X125176071Y-121419380D01*
X125080833Y-121371761D01*
X125033214Y-121324142D01*
X124985595Y-121228904D01*
X124937976Y-121038428D01*
X124937976Y-120800333D01*
X124985595Y-120609857D01*
X125033214Y-120514619D01*
X125080833Y-120467000D01*
X125176071Y-120419380D01*
X128414166Y-120419380D02*
X128509404Y-120419380D01*
X128604642Y-120467000D01*
X128652261Y-120514619D01*
X128699880Y-120609857D01*
X128747500Y-120800333D01*
X128747500Y-121038428D01*
X128699880Y-121228904D01*
X128652261Y-121324142D01*
X128604642Y-121371761D01*
X128509404Y-121419380D01*
X128414166Y-121419380D01*
X128318928Y-121371761D01*
X128271309Y-121324142D01*
X128223690Y-121228904D01*
X128176071Y-121038428D01*
X128176071Y-120800333D01*
X128223690Y-120609857D01*
X128271309Y-120514619D01*
X128318928Y-120467000D01*
X128414166Y-120419380D01*
X131461785Y-121419380D02*
X131461785Y-120419380D01*
X131461785Y-120895571D02*
X132033214Y-120895571D01*
X132033214Y-121419380D02*
X132033214Y-120419380D01*
X132509404Y-121419380D02*
X132509404Y-120419380D01*
X132747500Y-120419380D01*
X132890357Y-120467000D01*
X132985595Y-120562238D01*
X133033214Y-120657476D01*
X133080833Y-120847952D01*
X133080833Y-120990809D01*
X133033214Y-121181285D01*
X132985595Y-121276523D01*
X132890357Y-121371761D01*
X132747500Y-121419380D01*
X132509404Y-121419380D01*
X134176071Y-120419380D02*
X134842738Y-120419380D01*
X134414166Y-121419380D01*
X135176071Y-120514619D02*
X135223690Y-120467000D01*
X135318928Y-120419380D01*
X135557023Y-120419380D01*
X135652261Y-120467000D01*
X135699880Y-120514619D01*
X135747500Y-120609857D01*
X135747500Y-120705095D01*
X135699880Y-120847952D01*
X135128452Y-121419380D01*
X135747500Y-121419380D01*
X136366547Y-120419380D02*
X136461785Y-120419380D01*
X136557023Y-120467000D01*
X136604642Y-120514619D01*
X136652261Y-120609857D01*
X136699880Y-120800333D01*
X136699880Y-121038428D01*
X136652261Y-121228904D01*
X136604642Y-121324142D01*
X136557023Y-121371761D01*
X136461785Y-121419380D01*
X136366547Y-121419380D01*
X136271309Y-121371761D01*
X136223690Y-121324142D01*
X136176071Y-121228904D01*
X136128452Y-121038428D01*
X136128452Y-120800333D01*
X136176071Y-120609857D01*
X136223690Y-120514619D01*
X136271309Y-120467000D01*
X136366547Y-120419380D01*
X137128452Y-120752714D02*
X137128452Y-121752714D01*
X137128452Y-120800333D02*
X137223690Y-120752714D01*
X137414166Y-120752714D01*
X137509404Y-120800333D01*
X137557023Y-120847952D01*
X137604642Y-120943190D01*
X137604642Y-121228904D01*
X137557023Y-121324142D01*
X137509404Y-121371761D01*
X137414166Y-121419380D01*
X137223690Y-121419380D01*
X137128452Y-121371761D01*
X138699880Y-120419380D02*
X139318928Y-120419380D01*
X138985595Y-120800333D01*
X139128452Y-120800333D01*
X139223690Y-120847952D01*
X139271309Y-120895571D01*
X139318928Y-120990809D01*
X139318928Y-121228904D01*
X139271309Y-121324142D01*
X139223690Y-121371761D01*
X139128452Y-121419380D01*
X138842738Y-121419380D01*
X138747500Y-121371761D01*
X138699880Y-121324142D01*
X140223690Y-120419380D02*
X139747500Y-120419380D01*
X139699880Y-120895571D01*
X139747500Y-120847952D01*
X139842738Y-120800333D01*
X140080833Y-120800333D01*
X140176071Y-120847952D01*
X140223690Y-120895571D01*
X140271309Y-120990809D01*
X140271309Y-121228904D01*
X140223690Y-121324142D01*
X140176071Y-121371761D01*
X140080833Y-121419380D01*
X139842738Y-121419380D01*
X139747500Y-121371761D01*
X139699880Y-121324142D01*
X140699880Y-121419380D02*
X140699880Y-120419380D01*
X141033214Y-121133666D01*
X141366547Y-120419380D01*
X141366547Y-121419380D01*
X141842738Y-121419380D02*
X141842738Y-120419380D01*
X141842738Y-120895571D02*
X142414166Y-120895571D01*
X142414166Y-121419380D02*
X142414166Y-120419380D01*
X142795119Y-120752714D02*
X143318928Y-120752714D01*
X142795119Y-121419380D01*
X143318928Y-121419380D01*
X122271309Y-123069380D02*
X121699880Y-123069380D01*
X121985595Y-123069380D02*
X121985595Y-122069380D01*
X121890357Y-122212238D01*
X121795119Y-122307476D01*
X121699880Y-122355095D01*
X125509404Y-123069380D02*
X124937976Y-123069380D01*
X125223690Y-123069380D02*
X125223690Y-122069380D01*
X125128452Y-122212238D01*
X125033214Y-122307476D01*
X124937976Y-122355095D01*
X128414166Y-122069380D02*
X128509404Y-122069380D01*
X128604642Y-122117000D01*
X128652261Y-122164619D01*
X128699880Y-122259857D01*
X128747500Y-122450333D01*
X128747500Y-122688428D01*
X128699880Y-122878904D01*
X128652261Y-122974142D01*
X128604642Y-123021761D01*
X128509404Y-123069380D01*
X128414166Y-123069380D01*
X128318928Y-123021761D01*
X128271309Y-122974142D01*
X128223690Y-122878904D01*
X128176071Y-122688428D01*
X128176071Y-122450333D01*
X128223690Y-122259857D01*
X128271309Y-122164619D01*
X128318928Y-122117000D01*
X128414166Y-122069380D01*
X131795119Y-122545571D02*
X131461785Y-122545571D01*
X131461785Y-123069380D02*
X131461785Y-122069380D01*
X131937976Y-122069380D01*
X132318928Y-123069380D02*
X132318928Y-122069380D01*
X132318928Y-122545571D02*
X132890357Y-122545571D01*
X132890357Y-123069380D02*
X132890357Y-122069380D01*
X133366547Y-123069380D02*
X133366547Y-122069380D01*
X133604642Y-122069380D01*
X133747500Y-122117000D01*
X133842738Y-122212238D01*
X133890357Y-122307476D01*
X133937976Y-122497952D01*
X133937976Y-122640809D01*
X133890357Y-122831285D01*
X133842738Y-122926523D01*
X133747500Y-123021761D01*
X133604642Y-123069380D01*
X133366547Y-123069380D01*
X135652261Y-123069380D02*
X135080833Y-123069380D01*
X135366547Y-123069380D02*
X135366547Y-122069380D01*
X135271309Y-122212238D01*
X135176071Y-122307476D01*
X135080833Y-122355095D01*
X136271309Y-122069380D02*
X136366547Y-122069380D01*
X136461785Y-122117000D01*
X136509404Y-122164619D01*
X136557023Y-122259857D01*
X136604642Y-122450333D01*
X136604642Y-122688428D01*
X136557023Y-122878904D01*
X136509404Y-122974142D01*
X136461785Y-123021761D01*
X136366547Y-123069380D01*
X136271309Y-123069380D01*
X136176071Y-123021761D01*
X136128452Y-122974142D01*
X136080833Y-122878904D01*
X136033214Y-122688428D01*
X136033214Y-122450333D01*
X136080833Y-122259857D01*
X136128452Y-122164619D01*
X136176071Y-122117000D01*
X136271309Y-122069380D01*
X137176071Y-122497952D02*
X137080833Y-122450333D01*
X137033214Y-122402714D01*
X136985595Y-122307476D01*
X136985595Y-122259857D01*
X137033214Y-122164619D01*
X137080833Y-122117000D01*
X137176071Y-122069380D01*
X137366547Y-122069380D01*
X137461785Y-122117000D01*
X137509404Y-122164619D01*
X137557023Y-122259857D01*
X137557023Y-122307476D01*
X137509404Y-122402714D01*
X137461785Y-122450333D01*
X137366547Y-122497952D01*
X137176071Y-122497952D01*
X137080833Y-122545571D01*
X137033214Y-122593190D01*
X136985595Y-122688428D01*
X136985595Y-122878904D01*
X137033214Y-122974142D01*
X137080833Y-123021761D01*
X137176071Y-123069380D01*
X137366547Y-123069380D01*
X137461785Y-123021761D01*
X137509404Y-122974142D01*
X137557023Y-122878904D01*
X137557023Y-122688428D01*
X137509404Y-122593190D01*
X137461785Y-122545571D01*
X137366547Y-122497952D01*
X138176071Y-122069380D02*
X138271309Y-122069380D01*
X138366547Y-122117000D01*
X138414166Y-122164619D01*
X138461785Y-122259857D01*
X138509404Y-122450333D01*
X138509404Y-122688428D01*
X138461785Y-122878904D01*
X138414166Y-122974142D01*
X138366547Y-123021761D01*
X138271309Y-123069380D01*
X138176071Y-123069380D01*
X138080833Y-123021761D01*
X138033214Y-122974142D01*
X137985595Y-122878904D01*
X137937976Y-122688428D01*
X137937976Y-122450333D01*
X137985595Y-122259857D01*
X138033214Y-122164619D01*
X138080833Y-122117000D01*
X138176071Y-122069380D01*
X138937976Y-122402714D02*
X138937976Y-123402714D01*
X138937976Y-122450333D02*
X139033214Y-122402714D01*
X139223690Y-122402714D01*
X139318928Y-122450333D01*
X139366547Y-122497952D01*
X139414166Y-122593190D01*
X139414166Y-122878904D01*
X139366547Y-122974142D01*
X139318928Y-123021761D01*
X139223690Y-123069380D01*
X139033214Y-123069380D01*
X138937976Y-123021761D01*
X140509404Y-122069380D02*
X141176071Y-122069380D01*
X140747500Y-123069380D01*
X141747500Y-122069380D02*
X141842738Y-122069380D01*
X141937976Y-122117000D01*
X141985595Y-122164619D01*
X142033214Y-122259857D01*
X142080833Y-122450333D01*
X142080833Y-122688428D01*
X142033214Y-122878904D01*
X141985595Y-122974142D01*
X141937976Y-123021761D01*
X141842738Y-123069380D01*
X141747500Y-123069380D01*
X141652261Y-123021761D01*
X141604642Y-122974142D01*
X141557023Y-122878904D01*
X141509404Y-122688428D01*
X141509404Y-122450333D01*
X141557023Y-122259857D01*
X141604642Y-122164619D01*
X141652261Y-122117000D01*
X141747500Y-122069380D01*
X142509404Y-123069380D02*
X142509404Y-122069380D01*
X142842738Y-122783666D01*
X143176071Y-122069380D01*
X143176071Y-123069380D01*
X143652261Y-123069380D02*
X143652261Y-122069380D01*
X143652261Y-122545571D02*
X144223690Y-122545571D01*
X144223690Y-123069380D02*
X144223690Y-122069380D01*
X144604642Y-122402714D02*
X145128452Y-122402714D01*
X144604642Y-123069380D01*
X145128452Y-123069380D01*
X121652261Y-123719380D02*
X122318928Y-124719380D01*
X122318928Y-123719380D02*
X121652261Y-124719380D01*
X124890357Y-123719380D02*
X125557023Y-124719380D01*
X125557023Y-123719380D02*
X124890357Y-124719380D01*
X128747500Y-124719380D02*
X128176071Y-124719380D01*
X128461785Y-124719380D02*
X128461785Y-123719380D01*
X128366547Y-123862238D01*
X128271309Y-123957476D01*
X128176071Y-124005095D01*
X131795119Y-124195571D02*
X131461785Y-124195571D01*
X131461785Y-124719380D02*
X131461785Y-123719380D01*
X131937976Y-123719380D01*
X132318928Y-124719380D02*
X132318928Y-124052714D01*
X132318928Y-123719380D02*
X132271309Y-123767000D01*
X132318928Y-123814619D01*
X132366547Y-123767000D01*
X132318928Y-123719380D01*
X132318928Y-123814619D01*
X132937976Y-124719380D02*
X132842738Y-124671761D01*
X132795119Y-124576523D01*
X132795119Y-123719380D01*
X133176071Y-124052714D02*
X133557023Y-124052714D01*
X133318928Y-123719380D02*
X133318928Y-124576523D01*
X133366547Y-124671761D01*
X133461785Y-124719380D01*
X133557023Y-124719380D01*
X134271309Y-124671761D02*
X134176071Y-124719380D01*
X133985595Y-124719380D01*
X133890357Y-124671761D01*
X133842738Y-124576523D01*
X133842738Y-124195571D01*
X133890357Y-124100333D01*
X133985595Y-124052714D01*
X134176071Y-124052714D01*
X134271309Y-124100333D01*
X134318928Y-124195571D01*
X134318928Y-124290809D01*
X133842738Y-124386047D01*
X134747500Y-124719380D02*
X134747500Y-124052714D01*
X134747500Y-124243190D02*
X134795119Y-124147952D01*
X134842738Y-124100333D01*
X134937976Y-124052714D01*
X135033214Y-124052714D01*
X136318928Y-123719380D02*
X136509404Y-123719380D01*
X136604642Y-123767000D01*
X136699880Y-123862238D01*
X136747500Y-124052714D01*
X136747500Y-124386047D01*
X136699880Y-124576523D01*
X136604642Y-124671761D01*
X136509404Y-124719380D01*
X136318928Y-124719380D01*
X136223690Y-124671761D01*
X136128452Y-124576523D01*
X136080833Y-124386047D01*
X136080833Y-124052714D01*
X136128452Y-123862238D01*
X136223690Y-123767000D01*
X136318928Y-123719380D01*
X137033214Y-124052714D02*
X137414166Y-124052714D01*
X137176071Y-124719380D02*
X137176071Y-123862238D01*
X137223690Y-123767000D01*
X137318928Y-123719380D01*
X137414166Y-123719380D01*
X137604642Y-124052714D02*
X137985595Y-124052714D01*
X137747500Y-124719380D02*
X137747500Y-123862238D01*
X137795119Y-123767000D01*
X137890357Y-123719380D01*
X137985595Y-123719380D01*
X146137380Y-83502380D02*
X146137380Y-83311904D01*
X146185000Y-83216666D01*
X146280238Y-83121428D01*
X146470714Y-83073809D01*
X146804047Y-83073809D01*
X146994523Y-83121428D01*
X147089761Y-83216666D01*
X147137380Y-83311904D01*
X147137380Y-83502380D01*
X147089761Y-83597619D01*
X146994523Y-83692857D01*
X146804047Y-83740476D01*
X146470714Y-83740476D01*
X146280238Y-83692857D01*
X146185000Y-83597619D01*
X146137380Y-83502380D01*
X146613571Y-82311904D02*
X146613571Y-82645238D01*
X147137380Y-82645238D02*
X146137380Y-82645238D01*
X146137380Y-82169047D01*
X146613571Y-81454761D02*
X146613571Y-81788095D01*
X147137380Y-81788095D02*
X146137380Y-81788095D01*
X146137380Y-81311904D01*
X134834380Y-83169047D02*
X134834380Y-82978571D01*
X134882000Y-82883333D01*
X134977238Y-82788095D01*
X135167714Y-82740476D01*
X135501047Y-82740476D01*
X135691523Y-82788095D01*
X135786761Y-82883333D01*
X135834380Y-82978571D01*
X135834380Y-83169047D01*
X135786761Y-83264285D01*
X135691523Y-83359523D01*
X135501047Y-83407142D01*
X135167714Y-83407142D01*
X134977238Y-83359523D01*
X134882000Y-83264285D01*
X134834380Y-83169047D01*
X135834380Y-82311904D02*
X134834380Y-82311904D01*
X135834380Y-81740476D01*
X134834380Y-81740476D01*
X139636666Y-83208761D02*
X139779523Y-83256380D01*
X140017619Y-83256380D01*
X140112857Y-83208761D01*
X140160476Y-83161142D01*
X140208095Y-83065904D01*
X140208095Y-82970666D01*
X140160476Y-82875428D01*
X140112857Y-82827809D01*
X140017619Y-82780190D01*
X139827142Y-82732571D01*
X139731904Y-82684952D01*
X139684285Y-82637333D01*
X139636666Y-82542095D01*
X139636666Y-82446857D01*
X139684285Y-82351619D01*
X139731904Y-82304000D01*
X139827142Y-82256380D01*
X140065238Y-82256380D01*
X140208095Y-82304000D01*
X140541428Y-82256380D02*
X140779523Y-83256380D01*
X140970000Y-82542095D01*
X141160476Y-83256380D01*
X141398571Y-82256380D01*
X142303333Y-83256380D02*
X141731904Y-83256380D01*
X142017619Y-83256380D02*
X142017619Y-82256380D01*
X141922380Y-82399238D01*
X141827142Y-82494476D01*
X141731904Y-82542095D01*
D10*
X163140000Y-126480000D02*
X154540000Y-126480000D01*
X154540000Y-126480000D02*
X154540000Y-95510000D01*
X154540000Y-95510000D02*
X163140000Y-95510000D01*
X153645662Y-106930000D02*
X153645662Y-106430000D01*
X153645662Y-106430000D02*
X154078675Y-106680000D01*
X154078675Y-106680000D02*
X153645662Y-106930000D01*
D12*
X145470000Y-84404000D02*
X136470000Y-84404000D01*
X136470000Y-84404000D02*
X136470000Y-81104000D01*
X136470000Y-81104000D02*
X141470000Y-81104000D01*
X141470000Y-81104000D02*
X142970000Y-81104000D01*
X142970000Y-81104000D02*
X145470000Y-81104000D01*
X145470000Y-81104000D02*
X145470000Y-84404000D01*
X142970000Y-81104000D02*
X142970000Y-79404000D01*
X142970000Y-79404000D02*
X141470000Y-79404000D01*
X141470000Y-79404000D02*
X141470000Y-81104000D01*
D10*
X135859733Y-103126000D02*
X136202267Y-103126000D01*
X135859733Y-102106000D02*
X136202267Y-102106000D01*
X135859733Y-100074000D02*
X136202267Y-100074000D01*
X135859733Y-101094000D02*
X136202267Y-101094000D01*
X135831733Y-99062000D02*
X136174267Y-99062000D01*
X135831733Y-98042000D02*
X136174267Y-98042000D01*
X135859733Y-106170000D02*
X136202267Y-106170000D01*
X135859733Y-107190000D02*
X136202267Y-107190000D01*
X135859733Y-105158000D02*
X136202267Y-105158000D01*
X135859733Y-104138000D02*
X136202267Y-104138000D01*
X136654000Y-90736267D02*
X136654000Y-90393733D01*
X135634000Y-90736267D02*
X135634000Y-90393733D01*
X136240733Y-85469000D02*
X136583267Y-85469000D01*
X136240733Y-86489000D02*
X136583267Y-86489000D01*
X146175000Y-89974267D02*
X146175000Y-89631733D01*
X147195000Y-89974267D02*
X147195000Y-89631733D01*
X126155000Y-105886000D02*
X126155000Y-106386000D01*
X125905000Y-106136000D02*
X126405000Y-106136000D01*
X126645000Y-108891563D02*
X127709437Y-109956000D01*
X126645000Y-106500437D02*
X127709437Y-105436000D01*
X126645000Y-106500437D02*
X126645000Y-106636000D01*
X126645000Y-108891563D02*
X126645000Y-108756000D01*
X127709437Y-109956000D02*
X131165000Y-109956000D01*
X127709437Y-105436000D02*
X131165000Y-105436000D01*
X131165000Y-105436000D02*
X131165000Y-106636000D01*
X131165000Y-109956000D02*
X131165000Y-108756000D01*
X129443267Y-110361000D02*
X129100733Y-110361000D01*
X129443267Y-111381000D02*
X129100733Y-111381000D01*
X129457267Y-112905000D02*
X129114733Y-112905000D01*
X129457267Y-111885000D02*
X129114733Y-111885000D01*
X146098000Y-92482000D02*
X146098000Y-93682000D01*
X146098000Y-97002000D02*
X146098000Y-95802000D01*
X149553563Y-97002000D02*
X146098000Y-97002000D01*
X149553563Y-92482000D02*
X146098000Y-92482000D01*
X150618000Y-93546437D02*
X150618000Y-93682000D01*
X150618000Y-95937563D02*
X150618000Y-95802000D01*
X150618000Y-95937563D02*
X149553563Y-97002000D01*
X150618000Y-93546437D02*
X149553563Y-92482000D01*
X151358000Y-96302000D02*
X150858000Y-96302000D01*
X151108000Y-96552000D02*
X151108000Y-96052000D01*
X148023733Y-98300000D02*
X148366267Y-98300000D01*
X148023733Y-97280000D02*
X148366267Y-97280000D01*
X148023733Y-98804000D02*
X148366267Y-98804000D01*
X148023733Y-99824000D02*
X148366267Y-99824000D01*
X117020000Y-108765000D02*
X117020000Y-105015000D01*
X117020000Y-98245000D02*
X117020000Y-101995000D01*
X107564437Y-98245000D02*
X117020000Y-98245000D01*
X107564437Y-108765000D02*
X117020000Y-108765000D01*
X106500000Y-107700563D02*
X106500000Y-105015000D01*
X106500000Y-99309437D02*
X106500000Y-101995000D01*
X106500000Y-99309437D02*
X107564437Y-98245000D01*
X106500000Y-107700563D02*
X107564437Y-108765000D01*
X105010000Y-100745000D02*
X106260000Y-100745000D01*
X105635000Y-100120000D02*
X105635000Y-101370000D01*
X105635000Y-111169000D02*
X105635000Y-112419000D01*
X105010000Y-111794000D02*
X106260000Y-111794000D01*
X106500000Y-118749563D02*
X107564437Y-119814000D01*
X106500000Y-110358437D02*
X107564437Y-109294000D01*
X106500000Y-110358437D02*
X106500000Y-113044000D01*
X106500000Y-118749563D02*
X106500000Y-116064000D01*
X107564437Y-119814000D02*
X117020000Y-119814000D01*
X107564437Y-109294000D02*
X117020000Y-109294000D01*
X117020000Y-109294000D02*
X117020000Y-113044000D01*
X117020000Y-119814000D02*
X117020000Y-116064000D01*
X117020000Y-97716000D02*
X117020000Y-93966000D01*
X117020000Y-87196000D02*
X117020000Y-90946000D01*
X107564437Y-87196000D02*
X117020000Y-87196000D01*
X107564437Y-97716000D02*
X117020000Y-97716000D01*
X106500000Y-96651563D02*
X106500000Y-93966000D01*
X106500000Y-88260437D02*
X106500000Y-90946000D01*
X106500000Y-88260437D02*
X107564437Y-87196000D01*
X106500000Y-96651563D02*
X107564437Y-97716000D01*
X105010000Y-89696000D02*
X106260000Y-89696000D01*
X105635000Y-89071000D02*
X105635000Y-90321000D01*
X149731000Y-89974267D02*
X149731000Y-89631733D01*
X150751000Y-89974267D02*
X150751000Y-89631733D01*
D11*
X159370000Y-91653000D02*
X160770000Y-91653000D01*
X163170000Y-91653000D02*
X163320000Y-91653000D01*
X163320000Y-91653000D02*
X163320000Y-91353000D01*
X163320000Y-91353000D02*
X163770000Y-91353000D01*
X163770000Y-83653000D02*
X163320000Y-83653000D01*
X163320000Y-83653000D02*
X163320000Y-83353000D01*
X163320000Y-83353000D02*
X163170000Y-83353000D01*
X160770000Y-83353000D02*
X159370000Y-83353000D01*
X157195000Y-88578000D02*
X157195000Y-89303000D01*
X157195000Y-89303000D02*
X157620000Y-89303000D01*
X157620000Y-89303000D02*
X157620000Y-90303000D01*
X157620000Y-85703000D02*
X157620000Y-84703000D01*
D10*
X139190000Y-112298267D02*
X139190000Y-111955733D01*
X140210000Y-112298267D02*
X140210000Y-111955733D01*
X141984000Y-112298267D02*
X141984000Y-111955733D01*
X143004000Y-112298267D02*
X143004000Y-111955733D01*
X145798000Y-112298267D02*
X145798000Y-111955733D01*
X144778000Y-112298267D02*
X144778000Y-111955733D01*
X148592000Y-112326267D02*
X148592000Y-111983733D01*
X147572000Y-112326267D02*
X147572000Y-111983733D01*
X150366000Y-112298267D02*
X150366000Y-111955733D01*
X151386000Y-112298267D02*
X151386000Y-111955733D01*
X140812733Y-86870000D02*
X141155267Y-86870000D01*
X140812733Y-85850000D02*
X141155267Y-85850000D01*
X132463000Y-93314733D02*
X132463000Y-93657267D01*
X131443000Y-93314733D02*
X131443000Y-93657267D01*
X128776000Y-93286733D02*
X128776000Y-93629267D01*
X129796000Y-93286733D02*
X129796000Y-93629267D01*
X126236000Y-93314733D02*
X126236000Y-93657267D01*
X127256000Y-93314733D02*
X127256000Y-93657267D01*
X120873733Y-102995000D02*
X121216267Y-102995000D01*
X120873733Y-104015000D02*
X121216267Y-104015000D01*
X121099733Y-113540000D02*
X121442267Y-113540000D01*
X121099733Y-112520000D02*
X121442267Y-112520000D01*
X120873733Y-91946000D02*
X121216267Y-91946000D01*
X120873733Y-92966000D02*
X121216267Y-92966000D01*
X120873733Y-109726000D02*
X121216267Y-109726000D01*
X120873733Y-110746000D02*
X121216267Y-110746000D01*
X120873733Y-97538000D02*
X121216267Y-97538000D01*
X120873733Y-96518000D02*
X121216267Y-96518000D01*
X143512000Y-95473733D02*
X143512000Y-95816267D01*
X142492000Y-95473733D02*
X142492000Y-95816267D01*
X139952000Y-95473733D02*
X139952000Y-95816267D01*
X140972000Y-95473733D02*
X140972000Y-95816267D01*
X133936000Y-80392000D02*
X133936000Y-91312000D01*
X124636000Y-80392000D02*
X124636000Y-91312000D01*
X133936000Y-80392000D02*
X124636000Y-80392000D01*
X133936000Y-91312000D02*
X124636000Y-91312000D01*
X134176000Y-80152000D02*
X134176000Y-81535000D01*
X134176000Y-80152000D02*
X132793000Y-80152000D01*
X132636000Y-78532000D02*
X132636000Y-80392000D01*
X131016000Y-78532000D02*
X131016000Y-80392000D01*
X132636000Y-78532000D02*
X131016000Y-78532000D01*
X132636000Y-80392000D02*
X131016000Y-80392000D01*
X130096000Y-78532000D02*
X130096000Y-80392000D01*
X128476000Y-78532000D02*
X128476000Y-80392000D01*
X130096000Y-78532000D02*
X128476000Y-78532000D01*
X130096000Y-80392000D02*
X128476000Y-80392000D01*
X127556000Y-78532000D02*
X127556000Y-80392000D01*
X125936000Y-78532000D02*
X125936000Y-80392000D01*
X127556000Y-78532000D02*
X125936000Y-78532000D01*
X127556000Y-80392000D02*
X125936000Y-80392000D01*
D11*
X131257000Y-98150000D02*
X126807000Y-98150000D01*
X132782000Y-105050000D02*
X126807000Y-105050000D01*
X138895000Y-87468000D02*
X138895000Y-87518000D01*
X143045000Y-87468000D02*
X143045000Y-87613000D01*
X143045000Y-92618000D02*
X143045000Y-92473000D01*
X138895000Y-92618000D02*
X138895000Y-92473000D01*
X138895000Y-87468000D02*
X143045000Y-87468000D01*
X138895000Y-92618000D02*
X143045000Y-92618000D01*
X138895000Y-87518000D02*
X137495000Y-87518000D01*
D13*
X92900000Y-122055000D02*
X91950000Y-122055000D01*
X91950000Y-122055000D02*
X91950000Y-121030000D01*
X92925000Y-85005000D02*
X91950000Y-85005000D01*
X91950000Y-85005000D02*
X91950000Y-86030000D01*
X102575000Y-86055000D02*
X102575000Y-85005000D01*
X102575000Y-85005000D02*
X101825000Y-85005000D01*
X102575000Y-121330000D02*
X102575000Y-122055000D01*
X102575000Y-122055000D02*
X101950000Y-122055000D01*
D11*
X153368476Y-84272380D02*
X153368476Y-83272380D01*
X153701809Y-83986666D01*
X154035142Y-83272380D01*
X154035142Y-84272380D01*
X154416095Y-83272380D02*
X155035142Y-83272380D01*
X154701809Y-83653333D01*
X154844666Y-83653333D01*
X154939904Y-83700952D01*
X154987523Y-83748571D01*
X155035142Y-83843809D01*
X155035142Y-84081904D01*
X154987523Y-84177142D01*
X154939904Y-84224761D01*
X154844666Y-84272380D01*
X154558952Y-84272380D01*
X154463714Y-84224761D01*
X154416095Y-84177142D01*
X149304476Y-119578380D02*
X149304476Y-118578380D01*
X149637809Y-119292666D01*
X149971142Y-118578380D01*
X149971142Y-119578380D01*
X150352095Y-118578380D02*
X150971142Y-118578380D01*
X150637809Y-118959333D01*
X150780666Y-118959333D01*
X150875904Y-119006952D01*
X150923523Y-119054571D01*
X150971142Y-119149809D01*
X150971142Y-119387904D01*
X150923523Y-119483142D01*
X150875904Y-119530761D01*
X150780666Y-119578380D01*
X150494952Y-119578380D01*
X150399714Y-119530761D01*
X150352095Y-119483142D01*
X100790476Y-84272380D02*
X100790476Y-83272380D01*
X101123809Y-83986666D01*
X101457142Y-83272380D01*
X101457142Y-84272380D01*
X101838095Y-83272380D02*
X102457142Y-83272380D01*
X102123809Y-83653333D01*
X102266666Y-83653333D01*
X102361904Y-83700952D01*
X102409523Y-83748571D01*
X102457142Y-83843809D01*
X102457142Y-84081904D01*
X102409523Y-84177142D01*
X102361904Y-84224761D01*
X102266666Y-84272380D01*
X101980952Y-84272380D01*
X101885714Y-84224761D01*
X101838095Y-84177142D01*
X100790476Y-124150380D02*
X100790476Y-123150380D01*
X101123809Y-123864666D01*
X101457142Y-123150380D01*
X101457142Y-124150380D01*
X101838095Y-123150380D02*
X102457142Y-123150380D01*
X102123809Y-123531333D01*
X102266666Y-123531333D01*
X102361904Y-123578952D01*
X102409523Y-123626571D01*
X102457142Y-123721809D01*
X102457142Y-123959904D01*
X102409523Y-124055142D01*
X102361904Y-124102761D01*
X102266666Y-124150380D01*
X101980952Y-124150380D01*
X101885714Y-124102761D01*
X101838095Y-124055142D01*
X153052380Y-111328333D02*
X153766666Y-111328333D01*
X153909523Y-111375952D01*
X154004761Y-111471190D01*
X154052380Y-111614047D01*
X154052380Y-111709285D01*
X154052380Y-110328333D02*
X154052380Y-110899761D01*
X154052380Y-110614047D02*
X153052380Y-110614047D01*
X153195238Y-110709285D01*
X153290476Y-110804523D01*
X153338095Y-110899761D01*
X138517333Y-102973142D02*
X138469714Y-103020761D01*
X138326857Y-103068380D01*
X138231619Y-103068380D01*
X138088761Y-103020761D01*
X137993523Y-102925523D01*
X137945904Y-102830285D01*
X137898285Y-102639809D01*
X137898285Y-102496952D01*
X137945904Y-102306476D01*
X137993523Y-102211238D01*
X138088761Y-102116000D01*
X138231619Y-102068380D01*
X138326857Y-102068380D01*
X138469714Y-102116000D01*
X138517333Y-102163619D01*
X139469714Y-103068380D02*
X138898285Y-103068380D01*
X139184000Y-103068380D02*
X139184000Y-102068380D01*
X139088761Y-102211238D01*
X138993523Y-102306476D01*
X138898285Y-102354095D01*
X138517333Y-100941142D02*
X138469714Y-100988761D01*
X138326857Y-101036380D01*
X138231619Y-101036380D01*
X138088761Y-100988761D01*
X137993523Y-100893523D01*
X137945904Y-100798285D01*
X137898285Y-100607809D01*
X137898285Y-100464952D01*
X137945904Y-100274476D01*
X137993523Y-100179238D01*
X138088761Y-100084000D01*
X138231619Y-100036380D01*
X138326857Y-100036380D01*
X138469714Y-100084000D01*
X138517333Y-100131619D01*
X138898285Y-100131619D02*
X138945904Y-100084000D01*
X139041142Y-100036380D01*
X139279238Y-100036380D01*
X139374476Y-100084000D01*
X139422095Y-100131619D01*
X139469714Y-100226857D01*
X139469714Y-100322095D01*
X139422095Y-100464952D01*
X138850666Y-101036380D01*
X139469714Y-101036380D01*
X138517333Y-98909142D02*
X138469714Y-98956761D01*
X138326857Y-99004380D01*
X138231619Y-99004380D01*
X138088761Y-98956761D01*
X137993523Y-98861523D01*
X137945904Y-98766285D01*
X137898285Y-98575809D01*
X137898285Y-98432952D01*
X137945904Y-98242476D01*
X137993523Y-98147238D01*
X138088761Y-98052000D01*
X138231619Y-98004380D01*
X138326857Y-98004380D01*
X138469714Y-98052000D01*
X138517333Y-98099619D01*
X138850666Y-98004380D02*
X139469714Y-98004380D01*
X139136380Y-98385333D01*
X139279238Y-98385333D01*
X139374476Y-98432952D01*
X139422095Y-98480571D01*
X139469714Y-98575809D01*
X139469714Y-98813904D01*
X139422095Y-98909142D01*
X139374476Y-98956761D01*
X139279238Y-99004380D01*
X138993523Y-99004380D01*
X138898285Y-98956761D01*
X138850666Y-98909142D01*
X138517333Y-107037142D02*
X138469714Y-107084761D01*
X138326857Y-107132380D01*
X138231619Y-107132380D01*
X138088761Y-107084761D01*
X137993523Y-106989523D01*
X137945904Y-106894285D01*
X137898285Y-106703809D01*
X137898285Y-106560952D01*
X137945904Y-106370476D01*
X137993523Y-106275238D01*
X138088761Y-106180000D01*
X138231619Y-106132380D01*
X138326857Y-106132380D01*
X138469714Y-106180000D01*
X138517333Y-106227619D01*
X139374476Y-106465714D02*
X139374476Y-107132380D01*
X139136380Y-106084761D02*
X138898285Y-106799047D01*
X139517333Y-106799047D01*
X138517333Y-105005142D02*
X138469714Y-105052761D01*
X138326857Y-105100380D01*
X138231619Y-105100380D01*
X138088761Y-105052761D01*
X137993523Y-104957523D01*
X137945904Y-104862285D01*
X137898285Y-104671809D01*
X137898285Y-104528952D01*
X137945904Y-104338476D01*
X137993523Y-104243238D01*
X138088761Y-104148000D01*
X138231619Y-104100380D01*
X138326857Y-104100380D01*
X138469714Y-104148000D01*
X138517333Y-104195619D01*
X139422095Y-104100380D02*
X138945904Y-104100380D01*
X138898285Y-104576571D01*
X138945904Y-104528952D01*
X139041142Y-104481333D01*
X139279238Y-104481333D01*
X139374476Y-104528952D01*
X139422095Y-104576571D01*
X139469714Y-104671809D01*
X139469714Y-104909904D01*
X139422095Y-105005142D01*
X139374476Y-105052761D01*
X139279238Y-105100380D01*
X139041142Y-105100380D01*
X138945904Y-105052761D01*
X138898285Y-105005142D01*
X135071142Y-90731666D02*
X135118761Y-90779285D01*
X135166380Y-90922142D01*
X135166380Y-91017380D01*
X135118761Y-91160238D01*
X135023523Y-91255476D01*
X134928285Y-91303095D01*
X134737809Y-91350714D01*
X134594952Y-91350714D01*
X134404476Y-91303095D01*
X134309238Y-91255476D01*
X134214000Y-91160238D01*
X134166380Y-91017380D01*
X134166380Y-90922142D01*
X134214000Y-90779285D01*
X134261619Y-90731666D01*
X134166380Y-89874523D02*
X134166380Y-90065000D01*
X134214000Y-90160238D01*
X134261619Y-90207857D01*
X134404476Y-90303095D01*
X134594952Y-90350714D01*
X134975904Y-90350714D01*
X135071142Y-90303095D01*
X135118761Y-90255476D01*
X135166380Y-90160238D01*
X135166380Y-89969761D01*
X135118761Y-89874523D01*
X135071142Y-89826904D01*
X134975904Y-89779285D01*
X134737809Y-89779285D01*
X134642571Y-89826904D01*
X134594952Y-89874523D01*
X134547333Y-89969761D01*
X134547333Y-90160238D01*
X134594952Y-90255476D01*
X134642571Y-90303095D01*
X134737809Y-90350714D01*
X135215333Y-84939142D02*
X135167714Y-84986761D01*
X135024857Y-85034380D01*
X134929619Y-85034380D01*
X134786761Y-84986761D01*
X134691523Y-84891523D01*
X134643904Y-84796285D01*
X134596285Y-84605809D01*
X134596285Y-84462952D01*
X134643904Y-84272476D01*
X134691523Y-84177238D01*
X134786761Y-84082000D01*
X134929619Y-84034380D01*
X135024857Y-84034380D01*
X135167714Y-84082000D01*
X135215333Y-84129619D01*
X135548666Y-84034380D02*
X136215333Y-84034380D01*
X135786761Y-85034380D01*
X146391333Y-87733142D02*
X146343714Y-87780761D01*
X146200857Y-87828380D01*
X146105619Y-87828380D01*
X145962761Y-87780761D01*
X145867523Y-87685523D01*
X145819904Y-87590285D01*
X145772285Y-87399809D01*
X145772285Y-87256952D01*
X145819904Y-87066476D01*
X145867523Y-86971238D01*
X145962761Y-86876000D01*
X146105619Y-86828380D01*
X146200857Y-86828380D01*
X146343714Y-86876000D01*
X146391333Y-86923619D01*
X146962761Y-87256952D02*
X146867523Y-87209333D01*
X146819904Y-87161714D01*
X146772285Y-87066476D01*
X146772285Y-87018857D01*
X146819904Y-86923619D01*
X146867523Y-86876000D01*
X146962761Y-86828380D01*
X147153238Y-86828380D01*
X147248476Y-86876000D01*
X147296095Y-86923619D01*
X147343714Y-87018857D01*
X147343714Y-87066476D01*
X147296095Y-87161714D01*
X147248476Y-87209333D01*
X147153238Y-87256952D01*
X146962761Y-87256952D01*
X146867523Y-87304571D01*
X146819904Y-87352190D01*
X146772285Y-87447428D01*
X146772285Y-87637904D01*
X146819904Y-87733142D01*
X146867523Y-87780761D01*
X146962761Y-87828380D01*
X147153238Y-87828380D01*
X147248476Y-87780761D01*
X147296095Y-87733142D01*
X147343714Y-87637904D01*
X147343714Y-87447428D01*
X147296095Y-87352190D01*
X147248476Y-87304571D01*
X147153238Y-87256952D01*
X133183333Y-108053142D02*
X133135714Y-108100761D01*
X132992857Y-108148380D01*
X132897619Y-108148380D01*
X132754761Y-108100761D01*
X132659523Y-108005523D01*
X132611904Y-107910285D01*
X132564285Y-107719809D01*
X132564285Y-107576952D01*
X132611904Y-107386476D01*
X132659523Y-107291238D01*
X132754761Y-107196000D01*
X132897619Y-107148380D01*
X132992857Y-107148380D01*
X133135714Y-107196000D01*
X133183333Y-107243619D01*
X133659523Y-108148380D02*
X133850000Y-108148380D01*
X133945238Y-108100761D01*
X133992857Y-108053142D01*
X134088095Y-107910285D01*
X134135714Y-107719809D01*
X134135714Y-107338857D01*
X134088095Y-107243619D01*
X134040476Y-107196000D01*
X133945238Y-107148380D01*
X133754761Y-107148380D01*
X133659523Y-107196000D01*
X133611904Y-107243619D01*
X133564285Y-107338857D01*
X133564285Y-107576952D01*
X133611904Y-107672190D01*
X133659523Y-107719809D01*
X133754761Y-107767428D01*
X133945238Y-107767428D01*
X134040476Y-107719809D01*
X134088095Y-107672190D01*
X134135714Y-107576952D01*
X131691142Y-111355142D02*
X131643523Y-111402761D01*
X131500666Y-111450380D01*
X131405428Y-111450380D01*
X131262571Y-111402761D01*
X131167333Y-111307523D01*
X131119714Y-111212285D01*
X131072095Y-111021809D01*
X131072095Y-110878952D01*
X131119714Y-110688476D01*
X131167333Y-110593238D01*
X131262571Y-110498000D01*
X131405428Y-110450380D01*
X131500666Y-110450380D01*
X131643523Y-110498000D01*
X131691142Y-110545619D01*
X132643523Y-111450380D02*
X132072095Y-111450380D01*
X132357809Y-111450380D02*
X132357809Y-110450380D01*
X132262571Y-110593238D01*
X132167333Y-110688476D01*
X132072095Y-110736095D01*
X133262571Y-110450380D02*
X133357809Y-110450380D01*
X133453047Y-110498000D01*
X133500666Y-110545619D01*
X133548285Y-110640857D01*
X133595904Y-110831333D01*
X133595904Y-111069428D01*
X133548285Y-111259904D01*
X133500666Y-111355142D01*
X133453047Y-111402761D01*
X133357809Y-111450380D01*
X133262571Y-111450380D01*
X133167333Y-111402761D01*
X133119714Y-111355142D01*
X133072095Y-111259904D01*
X133024476Y-111069428D01*
X133024476Y-110831333D01*
X133072095Y-110640857D01*
X133119714Y-110545619D01*
X133167333Y-110498000D01*
X133262571Y-110450380D01*
X131691142Y-112879142D02*
X131643523Y-112926761D01*
X131500666Y-112974380D01*
X131405428Y-112974380D01*
X131262571Y-112926761D01*
X131167333Y-112831523D01*
X131119714Y-112736285D01*
X131072095Y-112545809D01*
X131072095Y-112402952D01*
X131119714Y-112212476D01*
X131167333Y-112117238D01*
X131262571Y-112022000D01*
X131405428Y-111974380D01*
X131500666Y-111974380D01*
X131643523Y-112022000D01*
X131691142Y-112069619D01*
X132643523Y-112974380D02*
X132072095Y-112974380D01*
X132357809Y-112974380D02*
X132357809Y-111974380D01*
X132262571Y-112117238D01*
X132167333Y-112212476D01*
X132072095Y-112260095D01*
X133595904Y-112974380D02*
X133024476Y-112974380D01*
X133310190Y-112974380D02*
X133310190Y-111974380D01*
X133214952Y-112117238D01*
X133119714Y-112212476D01*
X133024476Y-112260095D01*
X151503142Y-93321142D02*
X151455523Y-93368761D01*
X151312666Y-93416380D01*
X151217428Y-93416380D01*
X151074571Y-93368761D01*
X150979333Y-93273523D01*
X150931714Y-93178285D01*
X150884095Y-92987809D01*
X150884095Y-92844952D01*
X150931714Y-92654476D01*
X150979333Y-92559238D01*
X151074571Y-92464000D01*
X151217428Y-92416380D01*
X151312666Y-92416380D01*
X151455523Y-92464000D01*
X151503142Y-92511619D01*
X152455523Y-93416380D02*
X151884095Y-93416380D01*
X152169809Y-93416380D02*
X152169809Y-92416380D01*
X152074571Y-92559238D01*
X151979333Y-92654476D01*
X151884095Y-92702095D01*
X152836476Y-92511619D02*
X152884095Y-92464000D01*
X152979333Y-92416380D01*
X153217428Y-92416380D01*
X153312666Y-92464000D01*
X153360285Y-92511619D01*
X153407904Y-92606857D01*
X153407904Y-92702095D01*
X153360285Y-92844952D01*
X152788857Y-93416380D01*
X153407904Y-93416380D01*
X150741142Y-98147142D02*
X150693523Y-98194761D01*
X150550666Y-98242380D01*
X150455428Y-98242380D01*
X150312571Y-98194761D01*
X150217333Y-98099523D01*
X150169714Y-98004285D01*
X150122095Y-97813809D01*
X150122095Y-97670952D01*
X150169714Y-97480476D01*
X150217333Y-97385238D01*
X150312571Y-97290000D01*
X150455428Y-97242380D01*
X150550666Y-97242380D01*
X150693523Y-97290000D01*
X150741142Y-97337619D01*
X151693523Y-98242380D02*
X151122095Y-98242380D01*
X151407809Y-98242380D02*
X151407809Y-97242380D01*
X151312571Y-97385238D01*
X151217333Y-97480476D01*
X151122095Y-97528095D01*
X152026857Y-97242380D02*
X152645904Y-97242380D01*
X152312571Y-97623333D01*
X152455428Y-97623333D01*
X152550666Y-97670952D01*
X152598285Y-97718571D01*
X152645904Y-97813809D01*
X152645904Y-98051904D01*
X152598285Y-98147142D01*
X152550666Y-98194761D01*
X152455428Y-98242380D01*
X152169714Y-98242380D01*
X152074476Y-98194761D01*
X152026857Y-98147142D01*
X150741142Y-99925142D02*
X150693523Y-99972761D01*
X150550666Y-100020380D01*
X150455428Y-100020380D01*
X150312571Y-99972761D01*
X150217333Y-99877523D01*
X150169714Y-99782285D01*
X150122095Y-99591809D01*
X150122095Y-99448952D01*
X150169714Y-99258476D01*
X150217333Y-99163238D01*
X150312571Y-99068000D01*
X150455428Y-99020380D01*
X150550666Y-99020380D01*
X150693523Y-99068000D01*
X150741142Y-99115619D01*
X151693523Y-100020380D02*
X151122095Y-100020380D01*
X151407809Y-100020380D02*
X151407809Y-99020380D01*
X151312571Y-99163238D01*
X151217333Y-99258476D01*
X151122095Y-99306095D01*
X152550666Y-99353714D02*
X152550666Y-100020380D01*
X152312571Y-98972761D02*
X152074476Y-99687047D01*
X152693523Y-99687047D01*
X111117142Y-97662142D02*
X111069523Y-97709761D01*
X110926666Y-97757380D01*
X110831428Y-97757380D01*
X110688571Y-97709761D01*
X110593333Y-97614523D01*
X110545714Y-97519285D01*
X110498095Y-97328809D01*
X110498095Y-97185952D01*
X110545714Y-96995476D01*
X110593333Y-96900238D01*
X110688571Y-96805000D01*
X110831428Y-96757380D01*
X110926666Y-96757380D01*
X111069523Y-96805000D01*
X111117142Y-96852619D01*
X112069523Y-97757380D02*
X111498095Y-97757380D01*
X111783809Y-97757380D02*
X111783809Y-96757380D01*
X111688571Y-96900238D01*
X111593333Y-96995476D01*
X111498095Y-97043095D01*
X112974285Y-96757380D02*
X112498095Y-96757380D01*
X112450476Y-97233571D01*
X112498095Y-97185952D01*
X112593333Y-97138333D01*
X112831428Y-97138333D01*
X112926666Y-97185952D01*
X112974285Y-97233571D01*
X113021904Y-97328809D01*
X113021904Y-97566904D01*
X112974285Y-97662142D01*
X112926666Y-97709761D01*
X112831428Y-97757380D01*
X112593333Y-97757380D01*
X112498095Y-97709761D01*
X112450476Y-97662142D01*
X111117142Y-108711142D02*
X111069523Y-108758761D01*
X110926666Y-108806380D01*
X110831428Y-108806380D01*
X110688571Y-108758761D01*
X110593333Y-108663523D01*
X110545714Y-108568285D01*
X110498095Y-108377809D01*
X110498095Y-108234952D01*
X110545714Y-108044476D01*
X110593333Y-107949238D01*
X110688571Y-107854000D01*
X110831428Y-107806380D01*
X110926666Y-107806380D01*
X111069523Y-107854000D01*
X111117142Y-107901619D01*
X112069523Y-108806380D02*
X111498095Y-108806380D01*
X111783809Y-108806380D02*
X111783809Y-107806380D01*
X111688571Y-107949238D01*
X111593333Y-108044476D01*
X111498095Y-108092095D01*
X112926666Y-107806380D02*
X112736190Y-107806380D01*
X112640952Y-107854000D01*
X112593333Y-107901619D01*
X112498095Y-108044476D01*
X112450476Y-108234952D01*
X112450476Y-108615904D01*
X112498095Y-108711142D01*
X112545714Y-108758761D01*
X112640952Y-108806380D01*
X112831428Y-108806380D01*
X112926666Y-108758761D01*
X112974285Y-108711142D01*
X113021904Y-108615904D01*
X113021904Y-108377809D01*
X112974285Y-108282571D01*
X112926666Y-108234952D01*
X112831428Y-108187333D01*
X112640952Y-108187333D01*
X112545714Y-108234952D01*
X112498095Y-108282571D01*
X112450476Y-108377809D01*
X111117142Y-86613142D02*
X111069523Y-86660761D01*
X110926666Y-86708380D01*
X110831428Y-86708380D01*
X110688571Y-86660761D01*
X110593333Y-86565523D01*
X110545714Y-86470285D01*
X110498095Y-86279809D01*
X110498095Y-86136952D01*
X110545714Y-85946476D01*
X110593333Y-85851238D01*
X110688571Y-85756000D01*
X110831428Y-85708380D01*
X110926666Y-85708380D01*
X111069523Y-85756000D01*
X111117142Y-85803619D01*
X112069523Y-86708380D02*
X111498095Y-86708380D01*
X111783809Y-86708380D02*
X111783809Y-85708380D01*
X111688571Y-85851238D01*
X111593333Y-85946476D01*
X111498095Y-85994095D01*
X112402857Y-85708380D02*
X113069523Y-85708380D01*
X112640952Y-86708380D01*
X151820666Y-89844571D02*
X151487333Y-89844571D01*
X151487333Y-90368380D02*
X151487333Y-89368380D01*
X151963523Y-89368380D01*
X152677809Y-89844571D02*
X152820666Y-89892190D01*
X152868285Y-89939809D01*
X152915904Y-90035047D01*
X152915904Y-90177904D01*
X152868285Y-90273142D01*
X152820666Y-90320761D01*
X152725428Y-90368380D01*
X152344476Y-90368380D01*
X152344476Y-89368380D01*
X152677809Y-89368380D01*
X152773047Y-89416000D01*
X152820666Y-89463619D01*
X152868285Y-89558857D01*
X152868285Y-89654095D01*
X152820666Y-89749333D01*
X152773047Y-89796952D01*
X152677809Y-89844571D01*
X152344476Y-89844571D01*
X153868285Y-90368380D02*
X153296857Y-90368380D01*
X153582571Y-90368380D02*
X153582571Y-89368380D01*
X153487333Y-89511238D01*
X153392095Y-89606476D01*
X153296857Y-89654095D01*
X155972380Y-87836333D02*
X156686666Y-87836333D01*
X156829523Y-87883952D01*
X156924761Y-87979190D01*
X156972380Y-88122047D01*
X156972380Y-88217285D01*
X156067619Y-87407761D02*
X156020000Y-87360142D01*
X155972380Y-87264904D01*
X155972380Y-87026809D01*
X156020000Y-86931571D01*
X156067619Y-86883952D01*
X156162857Y-86836333D01*
X156258095Y-86836333D01*
X156400952Y-86883952D01*
X156972380Y-87455380D01*
X156972380Y-86836333D01*
X139533333Y-110307380D02*
X139200000Y-109831190D01*
X138961904Y-110307380D02*
X138961904Y-109307380D01*
X139342857Y-109307380D01*
X139438095Y-109355000D01*
X139485714Y-109402619D01*
X139533333Y-109497857D01*
X139533333Y-109640714D01*
X139485714Y-109735952D01*
X139438095Y-109783571D01*
X139342857Y-109831190D01*
X138961904Y-109831190D01*
X140485714Y-110307380D02*
X139914285Y-110307380D01*
X140200000Y-110307380D02*
X140200000Y-109307380D01*
X140104761Y-109450238D01*
X140009523Y-109545476D01*
X139914285Y-109593095D01*
X142327333Y-110307380D02*
X141994000Y-109831190D01*
X141755904Y-110307380D02*
X141755904Y-109307380D01*
X142136857Y-109307380D01*
X142232095Y-109355000D01*
X142279714Y-109402619D01*
X142327333Y-109497857D01*
X142327333Y-109640714D01*
X142279714Y-109735952D01*
X142232095Y-109783571D01*
X142136857Y-109831190D01*
X141755904Y-109831190D01*
X142708285Y-109402619D02*
X142755904Y-109355000D01*
X142851142Y-109307380D01*
X143089238Y-109307380D01*
X143184476Y-109355000D01*
X143232095Y-109402619D01*
X143279714Y-109497857D01*
X143279714Y-109593095D01*
X143232095Y-109735952D01*
X142660666Y-110307380D01*
X143279714Y-110307380D01*
X145121333Y-110307380D02*
X144788000Y-109831190D01*
X144549904Y-110307380D02*
X144549904Y-109307380D01*
X144930857Y-109307380D01*
X145026095Y-109355000D01*
X145073714Y-109402619D01*
X145121333Y-109497857D01*
X145121333Y-109640714D01*
X145073714Y-109735952D01*
X145026095Y-109783571D01*
X144930857Y-109831190D01*
X144549904Y-109831190D01*
X145454666Y-109307380D02*
X146073714Y-109307380D01*
X145740380Y-109688333D01*
X145883238Y-109688333D01*
X145978476Y-109735952D01*
X146026095Y-109783571D01*
X146073714Y-109878809D01*
X146073714Y-110116904D01*
X146026095Y-110212142D01*
X145978476Y-110259761D01*
X145883238Y-110307380D01*
X145597523Y-110307380D01*
X145502285Y-110259761D01*
X145454666Y-110212142D01*
X147915333Y-110307380D02*
X147582000Y-109831190D01*
X147343904Y-110307380D02*
X147343904Y-109307380D01*
X147724857Y-109307380D01*
X147820095Y-109355000D01*
X147867714Y-109402619D01*
X147915333Y-109497857D01*
X147915333Y-109640714D01*
X147867714Y-109735952D01*
X147820095Y-109783571D01*
X147724857Y-109831190D01*
X147343904Y-109831190D01*
X148772476Y-109640714D02*
X148772476Y-110307380D01*
X148534380Y-109259761D02*
X148296285Y-109974047D01*
X148915333Y-109974047D01*
X150709333Y-110307380D02*
X150376000Y-109831190D01*
X150137904Y-110307380D02*
X150137904Y-109307380D01*
X150518857Y-109307380D01*
X150614095Y-109355000D01*
X150661714Y-109402619D01*
X150709333Y-109497857D01*
X150709333Y-109640714D01*
X150661714Y-109735952D01*
X150614095Y-109783571D01*
X150518857Y-109831190D01*
X150137904Y-109831190D01*
X151614095Y-109307380D02*
X151137904Y-109307380D01*
X151090285Y-109783571D01*
X151137904Y-109735952D01*
X151233142Y-109688333D01*
X151471238Y-109688333D01*
X151566476Y-109735952D01*
X151614095Y-109783571D01*
X151661714Y-109878809D01*
X151661714Y-110116904D01*
X151614095Y-110212142D01*
X151566476Y-110259761D01*
X151471238Y-110307380D01*
X151233142Y-110307380D01*
X151137904Y-110259761D01*
X151090285Y-110212142D01*
X143343333Y-86812380D02*
X143010000Y-86336190D01*
X142771904Y-86812380D02*
X142771904Y-85812380D01*
X143152857Y-85812380D01*
X143248095Y-85860000D01*
X143295714Y-85907619D01*
X143343333Y-86002857D01*
X143343333Y-86145714D01*
X143295714Y-86240952D01*
X143248095Y-86288571D01*
X143152857Y-86336190D01*
X142771904Y-86336190D01*
X144200476Y-85812380D02*
X144010000Y-85812380D01*
X143914761Y-85860000D01*
X143867142Y-85907619D01*
X143771904Y-86050476D01*
X143724285Y-86240952D01*
X143724285Y-86621904D01*
X143771904Y-86717142D01*
X143819523Y-86764761D01*
X143914761Y-86812380D01*
X144105238Y-86812380D01*
X144200476Y-86764761D01*
X144248095Y-86717142D01*
X144295714Y-86621904D01*
X144295714Y-86383809D01*
X144248095Y-86288571D01*
X144200476Y-86240952D01*
X144105238Y-86193333D01*
X143914761Y-86193333D01*
X143819523Y-86240952D01*
X143771904Y-86288571D01*
X143724285Y-86383809D01*
X131659333Y-96464380D02*
X131326000Y-95988190D01*
X131087904Y-96464380D02*
X131087904Y-95464380D01*
X131468857Y-95464380D01*
X131564095Y-95512000D01*
X131611714Y-95559619D01*
X131659333Y-95654857D01*
X131659333Y-95797714D01*
X131611714Y-95892952D01*
X131564095Y-95940571D01*
X131468857Y-95988190D01*
X131087904Y-95988190D01*
X131992666Y-95464380D02*
X132659333Y-95464380D01*
X132230761Y-96464380D01*
X129119333Y-96464380D02*
X128786000Y-95988190D01*
X128547904Y-96464380D02*
X128547904Y-95464380D01*
X128928857Y-95464380D01*
X129024095Y-95512000D01*
X129071714Y-95559619D01*
X129119333Y-95654857D01*
X129119333Y-95797714D01*
X129071714Y-95892952D01*
X129024095Y-95940571D01*
X128928857Y-95988190D01*
X128547904Y-95988190D01*
X129690761Y-95892952D02*
X129595523Y-95845333D01*
X129547904Y-95797714D01*
X129500285Y-95702476D01*
X129500285Y-95654857D01*
X129547904Y-95559619D01*
X129595523Y-95512000D01*
X129690761Y-95464380D01*
X129881238Y-95464380D01*
X129976476Y-95512000D01*
X130024095Y-95559619D01*
X130071714Y-95654857D01*
X130071714Y-95702476D01*
X130024095Y-95797714D01*
X129976476Y-95845333D01*
X129881238Y-95892952D01*
X129690761Y-95892952D01*
X129595523Y-95940571D01*
X129547904Y-95988190D01*
X129500285Y-96083428D01*
X129500285Y-96273904D01*
X129547904Y-96369142D01*
X129595523Y-96416761D01*
X129690761Y-96464380D01*
X129881238Y-96464380D01*
X129976476Y-96416761D01*
X130024095Y-96369142D01*
X130071714Y-96273904D01*
X130071714Y-96083428D01*
X130024095Y-95988190D01*
X129976476Y-95940571D01*
X129881238Y-95892952D01*
X126579333Y-96464380D02*
X126246000Y-95988190D01*
X126007904Y-96464380D02*
X126007904Y-95464380D01*
X126388857Y-95464380D01*
X126484095Y-95512000D01*
X126531714Y-95559619D01*
X126579333Y-95654857D01*
X126579333Y-95797714D01*
X126531714Y-95892952D01*
X126484095Y-95940571D01*
X126388857Y-95988190D01*
X126007904Y-95988190D01*
X127055523Y-96464380D02*
X127246000Y-96464380D01*
X127341238Y-96416761D01*
X127388857Y-96369142D01*
X127484095Y-96226285D01*
X127531714Y-96035809D01*
X127531714Y-95654857D01*
X127484095Y-95559619D01*
X127436476Y-95512000D01*
X127341238Y-95464380D01*
X127150761Y-95464380D01*
X127055523Y-95512000D01*
X127007904Y-95559619D01*
X126960285Y-95654857D01*
X126960285Y-95892952D01*
X127007904Y-95988190D01*
X127055523Y-96035809D01*
X127150761Y-96083428D01*
X127341238Y-96083428D01*
X127436476Y-96035809D01*
X127484095Y-95988190D01*
X127531714Y-95892952D01*
X120402142Y-102527380D02*
X120068809Y-102051190D01*
X119830714Y-102527380D02*
X119830714Y-101527380D01*
X120211666Y-101527380D01*
X120306904Y-101575000D01*
X120354523Y-101622619D01*
X120402142Y-101717857D01*
X120402142Y-101860714D01*
X120354523Y-101955952D01*
X120306904Y-102003571D01*
X120211666Y-102051190D01*
X119830714Y-102051190D01*
X121354523Y-102527380D02*
X120783095Y-102527380D01*
X121068809Y-102527380D02*
X121068809Y-101527380D01*
X120973571Y-101670238D01*
X120878333Y-101765476D01*
X120783095Y-101813095D01*
X121973571Y-101527380D02*
X122068809Y-101527380D01*
X122164047Y-101575000D01*
X122211666Y-101622619D01*
X122259285Y-101717857D01*
X122306904Y-101908333D01*
X122306904Y-102146428D01*
X122259285Y-102336904D01*
X122211666Y-102432142D01*
X122164047Y-102479761D01*
X122068809Y-102527380D01*
X121973571Y-102527380D01*
X121878333Y-102479761D01*
X121830714Y-102432142D01*
X121783095Y-102336904D01*
X121735476Y-102146428D01*
X121735476Y-101908333D01*
X121783095Y-101717857D01*
X121830714Y-101622619D01*
X121878333Y-101575000D01*
X121973571Y-101527380D01*
X123817142Y-113482380D02*
X123483809Y-113006190D01*
X123245714Y-113482380D02*
X123245714Y-112482380D01*
X123626666Y-112482380D01*
X123721904Y-112530000D01*
X123769523Y-112577619D01*
X123817142Y-112672857D01*
X123817142Y-112815714D01*
X123769523Y-112910952D01*
X123721904Y-112958571D01*
X123626666Y-113006190D01*
X123245714Y-113006190D01*
X124769523Y-113482380D02*
X124198095Y-113482380D01*
X124483809Y-113482380D02*
X124483809Y-112482380D01*
X124388571Y-112625238D01*
X124293333Y-112720476D01*
X124198095Y-112768095D01*
X125721904Y-113482380D02*
X125150476Y-113482380D01*
X125436190Y-113482380D02*
X125436190Y-112482380D01*
X125340952Y-112625238D01*
X125245714Y-112720476D01*
X125150476Y-112768095D01*
X120402142Y-91478380D02*
X120068809Y-91002190D01*
X119830714Y-91478380D02*
X119830714Y-90478380D01*
X120211666Y-90478380D01*
X120306904Y-90526000D01*
X120354523Y-90573619D01*
X120402142Y-90668857D01*
X120402142Y-90811714D01*
X120354523Y-90906952D01*
X120306904Y-90954571D01*
X120211666Y-91002190D01*
X119830714Y-91002190D01*
X121354523Y-91478380D02*
X120783095Y-91478380D01*
X121068809Y-91478380D02*
X121068809Y-90478380D01*
X120973571Y-90621238D01*
X120878333Y-90716476D01*
X120783095Y-90764095D01*
X121735476Y-90573619D02*
X121783095Y-90526000D01*
X121878333Y-90478380D01*
X122116428Y-90478380D01*
X122211666Y-90526000D01*
X122259285Y-90573619D01*
X122306904Y-90668857D01*
X122306904Y-90764095D01*
X122259285Y-90906952D01*
X121687857Y-91478380D01*
X122306904Y-91478380D01*
X123817142Y-110942380D02*
X123483809Y-110466190D01*
X123245714Y-110942380D02*
X123245714Y-109942380D01*
X123626666Y-109942380D01*
X123721904Y-109990000D01*
X123769523Y-110037619D01*
X123817142Y-110132857D01*
X123817142Y-110275714D01*
X123769523Y-110370952D01*
X123721904Y-110418571D01*
X123626666Y-110466190D01*
X123245714Y-110466190D01*
X124769523Y-110942380D02*
X124198095Y-110942380D01*
X124483809Y-110942380D02*
X124483809Y-109942380D01*
X124388571Y-110085238D01*
X124293333Y-110180476D01*
X124198095Y-110228095D01*
X125102857Y-109942380D02*
X125721904Y-109942380D01*
X125388571Y-110323333D01*
X125531428Y-110323333D01*
X125626666Y-110370952D01*
X125674285Y-110418571D01*
X125721904Y-110513809D01*
X125721904Y-110751904D01*
X125674285Y-110847142D01*
X125626666Y-110894761D01*
X125531428Y-110942380D01*
X125245714Y-110942380D01*
X125150476Y-110894761D01*
X125102857Y-110847142D01*
X123182142Y-97607380D02*
X122848809Y-97131190D01*
X122610714Y-97607380D02*
X122610714Y-96607380D01*
X122991666Y-96607380D01*
X123086904Y-96655000D01*
X123134523Y-96702619D01*
X123182142Y-96797857D01*
X123182142Y-96940714D01*
X123134523Y-97035952D01*
X123086904Y-97083571D01*
X122991666Y-97131190D01*
X122610714Y-97131190D01*
X124134523Y-97607380D02*
X123563095Y-97607380D01*
X123848809Y-97607380D02*
X123848809Y-96607380D01*
X123753571Y-96750238D01*
X123658333Y-96845476D01*
X123563095Y-96893095D01*
X124991666Y-96940714D02*
X124991666Y-97607380D01*
X124753571Y-96559761D02*
X124515476Y-97274047D01*
X125134523Y-97274047D01*
X142613142Y-98496380D02*
X142279809Y-98020190D01*
X142041714Y-98496380D02*
X142041714Y-97496380D01*
X142422666Y-97496380D01*
X142517904Y-97544000D01*
X142565523Y-97591619D01*
X142613142Y-97686857D01*
X142613142Y-97829714D01*
X142565523Y-97924952D01*
X142517904Y-97972571D01*
X142422666Y-98020190D01*
X142041714Y-98020190D01*
X143565523Y-98496380D02*
X142994095Y-98496380D01*
X143279809Y-98496380D02*
X143279809Y-97496380D01*
X143184571Y-97639238D01*
X143089333Y-97734476D01*
X142994095Y-97782095D01*
X144470285Y-97496380D02*
X143994095Y-97496380D01*
X143946476Y-97972571D01*
X143994095Y-97924952D01*
X144089333Y-97877333D01*
X144327428Y-97877333D01*
X144422666Y-97924952D01*
X144470285Y-97972571D01*
X144517904Y-98067809D01*
X144517904Y-98305904D01*
X144470285Y-98401142D01*
X144422666Y-98448761D01*
X144327428Y-98496380D01*
X144089333Y-98496380D01*
X143994095Y-98448761D01*
X143946476Y-98401142D01*
X137533142Y-96210380D02*
X137199809Y-95734190D01*
X136961714Y-96210380D02*
X136961714Y-95210380D01*
X137342666Y-95210380D01*
X137437904Y-95258000D01*
X137485523Y-95305619D01*
X137533142Y-95400857D01*
X137533142Y-95543714D01*
X137485523Y-95638952D01*
X137437904Y-95686571D01*
X137342666Y-95734190D01*
X136961714Y-95734190D01*
X138485523Y-96210380D02*
X137914095Y-96210380D01*
X138199809Y-96210380D02*
X138199809Y-95210380D01*
X138104571Y-95353238D01*
X138009333Y-95448476D01*
X137914095Y-95496095D01*
X139342666Y-95210380D02*
X139152190Y-95210380D01*
X139056952Y-95258000D01*
X139009333Y-95305619D01*
X138914095Y-95448476D01*
X138866476Y-95638952D01*
X138866476Y-96019904D01*
X138914095Y-96115142D01*
X138961714Y-96162761D01*
X139056952Y-96210380D01*
X139247428Y-96210380D01*
X139342666Y-96162761D01*
X139390285Y-96115142D01*
X139437904Y-96019904D01*
X139437904Y-95781809D01*
X139390285Y-95686571D01*
X139342666Y-95638952D01*
X139247428Y-95591333D01*
X139056952Y-95591333D01*
X138961714Y-95638952D01*
X138914095Y-95686571D01*
X138866476Y-95781809D01*
X127952666Y-85748761D02*
X128095523Y-85796380D01*
X128333619Y-85796380D01*
X128428857Y-85748761D01*
X128476476Y-85701142D01*
X128524095Y-85605904D01*
X128524095Y-85510666D01*
X128476476Y-85415428D01*
X128428857Y-85367809D01*
X128333619Y-85320190D01*
X128143142Y-85272571D01*
X128047904Y-85224952D01*
X128000285Y-85177333D01*
X127952666Y-85082095D01*
X127952666Y-84986857D01*
X128000285Y-84891619D01*
X128047904Y-84844000D01*
X128143142Y-84796380D01*
X128381238Y-84796380D01*
X128524095Y-84844000D01*
X128857428Y-84796380D02*
X129095523Y-85796380D01*
X129286000Y-85082095D01*
X129476476Y-85796380D01*
X129714571Y-84796380D01*
X130047904Y-84891619D02*
X130095523Y-84844000D01*
X130190761Y-84796380D01*
X130428857Y-84796380D01*
X130524095Y-84844000D01*
X130571714Y-84891619D01*
X130619333Y-84986857D01*
X130619333Y-85082095D01*
X130571714Y-85224952D01*
X130000285Y-85796380D01*
X130619333Y-85796380D01*
X128270095Y-96988380D02*
X128270095Y-97797904D01*
X128317714Y-97893142D01*
X128365333Y-97940761D01*
X128460571Y-97988380D01*
X128651047Y-97988380D01*
X128746285Y-97940761D01*
X128793904Y-97893142D01*
X128841523Y-97797904D01*
X128841523Y-96988380D01*
X129841523Y-97988380D02*
X129270095Y-97988380D01*
X129555809Y-97988380D02*
X129555809Y-96988380D01*
X129460571Y-97131238D01*
X129365333Y-97226476D01*
X129270095Y-97274095D01*
X140462095Y-92924380D02*
X140462095Y-93733904D01*
X140509714Y-93829142D01*
X140557333Y-93876761D01*
X140652571Y-93924380D01*
X140843047Y-93924380D01*
X140938285Y-93876761D01*
X140985904Y-93829142D01*
X141033523Y-93733904D01*
X141033523Y-92924380D01*
X141462095Y-93019619D02*
X141509714Y-92972000D01*
X141604952Y-92924380D01*
X141843047Y-92924380D01*
X141938285Y-92972000D01*
X141985904Y-93019619D01*
X142033523Y-93114857D01*
X142033523Y-93210095D01*
X141985904Y-93352952D01*
X141414476Y-93924380D01*
X142033523Y-93924380D01*
X103052380Y-102664523D02*
X104052380Y-101997857D01*
X103052380Y-101997857D02*
X104052380Y-102664523D01*
X104052380Y-101093095D02*
X104052380Y-101664523D01*
X104052380Y-101378809D02*
X103052380Y-101378809D01*
X103195238Y-101474047D01*
X103290476Y-101569285D01*
X103338095Y-101664523D01*
M02*
