G04 #@! TF.GenerationSoftware,KiCad,Pcbnew,(5.1.0)-1*
G04 #@! TF.CreationDate,2019-03-24T00:08:19-04:00*
G04 #@! TF.ProjectId,vga2dvi,76676132-6476-4692-9e6b-696361645f70,rev?*
G04 #@! TF.SameCoordinates,Original*
G04 #@! TF.FileFunction,Soldermask,Top*
G04 #@! TF.FilePolarity,Negative*
%FSLAX46Y46*%
G04 Gerber Fmt 4.6, Leading zero omitted, Abs format (unit mm)*
G04 Created by KiCad (PCBNEW (5.1.0)-1) date 2019-03-24 00:08:19*
%MOMM*%
%LPD*%
G04 APERTURE LIST*
%ADD10C,0.100000*%
G04 APERTURE END LIST*
D10*
G36*
X158858254Y-121522818D02*
G01*
X159231511Y-121677426D01*
X159231513Y-121677427D01*
X159567436Y-121901884D01*
X159853116Y-122187564D01*
X159989415Y-122391549D01*
X160077574Y-122523489D01*
X160232182Y-122896746D01*
X160311000Y-123292993D01*
X160311000Y-123697007D01*
X160232182Y-124093254D01*
X160177180Y-124226040D01*
X160077573Y-124466513D01*
X159853116Y-124802436D01*
X159567436Y-125088116D01*
X159231513Y-125312573D01*
X159231512Y-125312574D01*
X159231511Y-125312574D01*
X158858254Y-125467182D01*
X158462007Y-125546000D01*
X158057993Y-125546000D01*
X157661746Y-125467182D01*
X157288489Y-125312574D01*
X157288488Y-125312574D01*
X157288487Y-125312573D01*
X156952564Y-125088116D01*
X156666884Y-124802436D01*
X156442427Y-124466513D01*
X156342820Y-124226040D01*
X156287818Y-124093254D01*
X156209000Y-123697007D01*
X156209000Y-123292993D01*
X156287818Y-122896746D01*
X156442426Y-122523489D01*
X156530586Y-122391549D01*
X156666884Y-122187564D01*
X156952564Y-121901884D01*
X157288487Y-121677427D01*
X157288489Y-121677426D01*
X157661746Y-121522818D01*
X158057993Y-121444000D01*
X158462007Y-121444000D01*
X158858254Y-121522818D01*
X158858254Y-121522818D01*
G37*
G36*
X150743256Y-121835298D02*
G01*
X150849579Y-121856447D01*
X151150042Y-121980903D01*
X151420451Y-122161585D01*
X151650415Y-122391549D01*
X151831097Y-122661958D01*
X151955553Y-122962421D01*
X152019000Y-123281391D01*
X152019000Y-123606609D01*
X151955553Y-123925579D01*
X151831097Y-124226042D01*
X151650415Y-124496451D01*
X151420451Y-124726415D01*
X151150042Y-124907097D01*
X150849579Y-125031553D01*
X150743256Y-125052702D01*
X150530611Y-125095000D01*
X150205389Y-125095000D01*
X149992744Y-125052702D01*
X149886421Y-125031553D01*
X149585958Y-124907097D01*
X149315549Y-124726415D01*
X149085585Y-124496451D01*
X148904903Y-124226042D01*
X148780447Y-123925579D01*
X148717000Y-123606609D01*
X148717000Y-123281391D01*
X148780447Y-122962421D01*
X148904903Y-122661958D01*
X149085585Y-122391549D01*
X149315549Y-122161585D01*
X149585958Y-121980903D01*
X149886421Y-121856447D01*
X149992744Y-121835298D01*
X150205389Y-121793000D01*
X150530611Y-121793000D01*
X150743256Y-121835298D01*
X150743256Y-121835298D01*
G37*
G36*
X106547256Y-121835298D02*
G01*
X106653579Y-121856447D01*
X106954042Y-121980903D01*
X107224451Y-122161585D01*
X107454415Y-122391549D01*
X107635097Y-122661958D01*
X107759553Y-122962421D01*
X107823000Y-123281391D01*
X107823000Y-123606609D01*
X107759553Y-123925579D01*
X107635097Y-124226042D01*
X107454415Y-124496451D01*
X107224451Y-124726415D01*
X106954042Y-124907097D01*
X106653579Y-125031553D01*
X106547256Y-125052702D01*
X106334611Y-125095000D01*
X106009389Y-125095000D01*
X105796744Y-125052702D01*
X105690421Y-125031553D01*
X105389958Y-124907097D01*
X105119549Y-124726415D01*
X104889585Y-124496451D01*
X104708903Y-124226042D01*
X104584447Y-123925579D01*
X104521000Y-123606609D01*
X104521000Y-123281391D01*
X104584447Y-122962421D01*
X104708903Y-122661958D01*
X104889585Y-122391549D01*
X105119549Y-122161585D01*
X105389958Y-121980903D01*
X105690421Y-121856447D01*
X105796744Y-121835298D01*
X106009389Y-121793000D01*
X106334611Y-121793000D01*
X106547256Y-121835298D01*
X106547256Y-121835298D01*
G37*
G36*
X95877423Y-117361661D02*
G01*
X96268879Y-117523807D01*
X96268881Y-117523808D01*
X96621183Y-117759209D01*
X96920791Y-118058817D01*
X97156192Y-118411119D01*
X97156193Y-118411121D01*
X97318339Y-118802577D01*
X97401000Y-119218144D01*
X97401000Y-119641856D01*
X97318339Y-120057423D01*
X97156193Y-120448879D01*
X97156192Y-120448881D01*
X96920791Y-120801183D01*
X96621183Y-121100791D01*
X96268881Y-121336192D01*
X96268880Y-121336193D01*
X96268879Y-121336193D01*
X95877423Y-121498339D01*
X95461856Y-121581000D01*
X95038144Y-121581000D01*
X94622577Y-121498339D01*
X94231121Y-121336193D01*
X94231120Y-121336193D01*
X94231119Y-121336192D01*
X93878817Y-121100791D01*
X93579209Y-120801183D01*
X93343808Y-120448881D01*
X93343807Y-120448879D01*
X93181661Y-120057423D01*
X93099000Y-119641856D01*
X93099000Y-119218144D01*
X93181661Y-118802577D01*
X93343807Y-118411121D01*
X93343808Y-118411119D01*
X93579209Y-118058817D01*
X93878817Y-117759209D01*
X94231119Y-117523808D01*
X94231121Y-117523807D01*
X94622577Y-117361661D01*
X95038144Y-117279000D01*
X95461856Y-117279000D01*
X95877423Y-117361661D01*
X95877423Y-117361661D01*
G37*
G36*
X156458228Y-115021703D02*
G01*
X156613100Y-115085853D01*
X156752481Y-115178985D01*
X156871015Y-115297519D01*
X156964147Y-115436900D01*
X157028297Y-115591772D01*
X157061000Y-115756184D01*
X157061000Y-115923816D01*
X157028297Y-116088228D01*
X156964147Y-116243100D01*
X156871015Y-116382481D01*
X156752481Y-116501015D01*
X156613100Y-116594147D01*
X156458228Y-116658297D01*
X156293816Y-116691000D01*
X156126184Y-116691000D01*
X155961772Y-116658297D01*
X155806900Y-116594147D01*
X155667519Y-116501015D01*
X155548985Y-116382481D01*
X155455853Y-116243100D01*
X155391703Y-116088228D01*
X155359000Y-115923816D01*
X155359000Y-115756184D01*
X155391703Y-115591772D01*
X155455853Y-115436900D01*
X155548985Y-115297519D01*
X155667519Y-115178985D01*
X155806900Y-115085853D01*
X155961772Y-115021703D01*
X156126184Y-114989000D01*
X156293816Y-114989000D01*
X156458228Y-115021703D01*
X156458228Y-115021703D01*
G37*
G36*
X160418228Y-115021703D02*
G01*
X160573100Y-115085853D01*
X160712481Y-115178985D01*
X160831015Y-115297519D01*
X160924147Y-115436900D01*
X160988297Y-115591772D01*
X161021000Y-115756184D01*
X161021000Y-115923816D01*
X160988297Y-116088228D01*
X160924147Y-116243100D01*
X160831015Y-116382481D01*
X160712481Y-116501015D01*
X160573100Y-116594147D01*
X160418228Y-116658297D01*
X160253816Y-116691000D01*
X160086184Y-116691000D01*
X159921772Y-116658297D01*
X159766900Y-116594147D01*
X159627519Y-116501015D01*
X159508985Y-116382481D01*
X159415853Y-116243100D01*
X159351703Y-116088228D01*
X159319000Y-115923816D01*
X159319000Y-115756184D01*
X159351703Y-115591772D01*
X159415853Y-115436900D01*
X159508985Y-115297519D01*
X159627519Y-115178985D01*
X159766900Y-115085853D01*
X159921772Y-115021703D01*
X160086184Y-114989000D01*
X160253816Y-114989000D01*
X160418228Y-115021703D01*
X160418228Y-115021703D01*
G37*
G36*
X117681934Y-113256671D02*
G01*
X117711877Y-113265754D01*
X117739465Y-113280500D01*
X117763651Y-113300349D01*
X117783500Y-113324535D01*
X117798246Y-113352123D01*
X117807329Y-113382066D01*
X117811000Y-113419340D01*
X117811000Y-115688660D01*
X117807329Y-115725934D01*
X117798246Y-115755877D01*
X117783500Y-115783465D01*
X117763651Y-115807651D01*
X117739465Y-115827500D01*
X117711877Y-115842246D01*
X117681934Y-115851329D01*
X117644660Y-115855000D01*
X113875340Y-115855000D01*
X113838066Y-115851329D01*
X113808123Y-115842246D01*
X113780535Y-115827500D01*
X113756349Y-115807651D01*
X113736500Y-115783465D01*
X113721754Y-115755877D01*
X113712671Y-115725934D01*
X113709000Y-115688660D01*
X113709000Y-113419340D01*
X113712671Y-113382066D01*
X113721754Y-113352123D01*
X113736500Y-113324535D01*
X113756349Y-113300349D01*
X113780535Y-113280500D01*
X113808123Y-113265754D01*
X113838066Y-113256671D01*
X113875340Y-113253000D01*
X117644660Y-113253000D01*
X117681934Y-113256671D01*
X117681934Y-113256671D01*
G37*
G36*
X109681934Y-113256671D02*
G01*
X109711877Y-113265754D01*
X109739465Y-113280500D01*
X109763651Y-113300349D01*
X109783500Y-113324535D01*
X109798246Y-113352123D01*
X109807329Y-113382066D01*
X109811000Y-113419340D01*
X109811000Y-115688660D01*
X109807329Y-115725934D01*
X109798246Y-115755877D01*
X109783500Y-115783465D01*
X109763651Y-115807651D01*
X109739465Y-115827500D01*
X109711877Y-115842246D01*
X109681934Y-115851329D01*
X109644660Y-115855000D01*
X105875340Y-115855000D01*
X105838066Y-115851329D01*
X105808123Y-115842246D01*
X105780535Y-115827500D01*
X105756349Y-115807651D01*
X105736500Y-115783465D01*
X105721754Y-115755877D01*
X105712671Y-115725934D01*
X105709000Y-115688660D01*
X105709000Y-113419340D01*
X105712671Y-113382066D01*
X105721754Y-113352123D01*
X105736500Y-113324535D01*
X105756349Y-113300349D01*
X105780535Y-113280500D01*
X105808123Y-113265754D01*
X105838066Y-113256671D01*
X105875340Y-113253000D01*
X109644660Y-113253000D01*
X109681934Y-113256671D01*
X109681934Y-113256671D01*
G37*
G36*
X158438228Y-113876703D02*
G01*
X158593100Y-113940853D01*
X158732481Y-114033985D01*
X158851015Y-114152519D01*
X158944147Y-114291900D01*
X159008297Y-114446772D01*
X159041000Y-114611184D01*
X159041000Y-114778816D01*
X159008297Y-114943228D01*
X158944147Y-115098100D01*
X158851015Y-115237481D01*
X158732481Y-115356015D01*
X158593100Y-115449147D01*
X158438228Y-115513297D01*
X158273816Y-115546000D01*
X158106184Y-115546000D01*
X157941772Y-115513297D01*
X157786900Y-115449147D01*
X157647519Y-115356015D01*
X157528985Y-115237481D01*
X157435853Y-115098100D01*
X157371703Y-114943228D01*
X157339000Y-114778816D01*
X157339000Y-114611184D01*
X157371703Y-114446772D01*
X157435853Y-114291900D01*
X157528985Y-114152519D01*
X157647519Y-114033985D01*
X157786900Y-113940853D01*
X157941772Y-113876703D01*
X158106184Y-113844000D01*
X158273816Y-113844000D01*
X158438228Y-113876703D01*
X158438228Y-113876703D01*
G37*
G36*
X160418228Y-112731703D02*
G01*
X160573100Y-112795853D01*
X160712481Y-112888985D01*
X160831015Y-113007519D01*
X160924147Y-113146900D01*
X160988297Y-113301772D01*
X161021000Y-113466184D01*
X161021000Y-113633816D01*
X160988297Y-113798228D01*
X160924147Y-113953100D01*
X160831015Y-114092481D01*
X160712481Y-114211015D01*
X160573100Y-114304147D01*
X160418228Y-114368297D01*
X160253816Y-114401000D01*
X160086184Y-114401000D01*
X159921772Y-114368297D01*
X159766900Y-114304147D01*
X159627519Y-114211015D01*
X159508985Y-114092481D01*
X159415853Y-113953100D01*
X159351703Y-113798228D01*
X159319000Y-113633816D01*
X159319000Y-113466184D01*
X159351703Y-113301772D01*
X159415853Y-113146900D01*
X159508985Y-113007519D01*
X159627519Y-112888985D01*
X159766900Y-112795853D01*
X159921772Y-112731703D01*
X160086184Y-112699000D01*
X160253816Y-112699000D01*
X160418228Y-112731703D01*
X160418228Y-112731703D01*
G37*
G36*
X156458228Y-112731703D02*
G01*
X156613100Y-112795853D01*
X156752481Y-112888985D01*
X156871015Y-113007519D01*
X156964147Y-113146900D01*
X157028297Y-113301772D01*
X157061000Y-113466184D01*
X157061000Y-113633816D01*
X157028297Y-113798228D01*
X156964147Y-113953100D01*
X156871015Y-114092481D01*
X156752481Y-114211015D01*
X156613100Y-114304147D01*
X156458228Y-114368297D01*
X156293816Y-114401000D01*
X156126184Y-114401000D01*
X155961772Y-114368297D01*
X155806900Y-114304147D01*
X155667519Y-114211015D01*
X155548985Y-114092481D01*
X155455853Y-113953100D01*
X155391703Y-113798228D01*
X155359000Y-113633816D01*
X155359000Y-113466184D01*
X155391703Y-113301772D01*
X155455853Y-113146900D01*
X155548985Y-113007519D01*
X155667519Y-112888985D01*
X155806900Y-112795853D01*
X155961772Y-112731703D01*
X156126184Y-112699000D01*
X156293816Y-112699000D01*
X156458228Y-112731703D01*
X156458228Y-112731703D01*
G37*
G36*
X100080721Y-112530174D02*
G01*
X100180995Y-112571709D01*
X100225812Y-112601655D01*
X100271242Y-112632010D01*
X100347990Y-112708758D01*
X100378345Y-112754188D01*
X100408291Y-112799005D01*
X100449826Y-112899279D01*
X100471000Y-113005730D01*
X100471000Y-113114270D01*
X100449826Y-113220721D01*
X100408291Y-113320995D01*
X100402801Y-113329211D01*
X100347990Y-113411242D01*
X100271242Y-113487990D01*
X100269558Y-113489115D01*
X100180995Y-113548291D01*
X100080721Y-113589826D01*
X99974270Y-113611000D01*
X99865730Y-113611000D01*
X99759279Y-113589826D01*
X99659005Y-113548291D01*
X99570442Y-113489115D01*
X99568758Y-113487990D01*
X99492010Y-113411242D01*
X99437199Y-113329211D01*
X99431709Y-113320995D01*
X99390174Y-113220721D01*
X99369000Y-113114270D01*
X99369000Y-113005730D01*
X99390174Y-112899279D01*
X99431709Y-112799005D01*
X99461655Y-112754188D01*
X99492010Y-112708758D01*
X99568758Y-112632010D01*
X99614188Y-112601655D01*
X99659005Y-112571709D01*
X99759279Y-112530174D01*
X99865730Y-112509000D01*
X99974270Y-112509000D01*
X100080721Y-112530174D01*
X100080721Y-112530174D01*
G37*
G36*
X97540721Y-112530174D02*
G01*
X97640995Y-112571709D01*
X97685812Y-112601655D01*
X97731242Y-112632010D01*
X97807990Y-112708758D01*
X97838345Y-112754188D01*
X97868291Y-112799005D01*
X97909826Y-112899279D01*
X97931000Y-113005730D01*
X97931000Y-113114270D01*
X97909826Y-113220721D01*
X97868291Y-113320995D01*
X97862801Y-113329211D01*
X97807990Y-113411242D01*
X97731242Y-113487990D01*
X97729558Y-113489115D01*
X97640995Y-113548291D01*
X97540721Y-113589826D01*
X97434270Y-113611000D01*
X97325730Y-113611000D01*
X97219279Y-113589826D01*
X97119005Y-113548291D01*
X97030442Y-113489115D01*
X97028758Y-113487990D01*
X96952010Y-113411242D01*
X96897199Y-113329211D01*
X96891709Y-113320995D01*
X96850174Y-113220721D01*
X96829000Y-113114270D01*
X96829000Y-113005730D01*
X96850174Y-112899279D01*
X96891709Y-112799005D01*
X96921655Y-112754188D01*
X96952010Y-112708758D01*
X97028758Y-112632010D01*
X97074188Y-112601655D01*
X97119005Y-112571709D01*
X97219279Y-112530174D01*
X97325730Y-112509000D01*
X97434270Y-112509000D01*
X97540721Y-112530174D01*
X97540721Y-112530174D01*
G37*
G36*
X148446499Y-112458445D02*
G01*
X148483995Y-112469820D01*
X148518554Y-112488292D01*
X148548847Y-112513153D01*
X148573708Y-112543446D01*
X148592180Y-112578005D01*
X148603555Y-112615501D01*
X148608000Y-112660638D01*
X148608000Y-113399362D01*
X148603555Y-113444499D01*
X148592180Y-113481995D01*
X148573708Y-113516554D01*
X148548847Y-113546847D01*
X148518554Y-113571708D01*
X148483995Y-113590180D01*
X148446499Y-113601555D01*
X148401362Y-113606000D01*
X147762638Y-113606000D01*
X147717501Y-113601555D01*
X147680005Y-113590180D01*
X147645446Y-113571708D01*
X147615153Y-113546847D01*
X147590292Y-113516554D01*
X147571820Y-113481995D01*
X147560445Y-113444499D01*
X147556000Y-113399362D01*
X147556000Y-112660638D01*
X147560445Y-112615501D01*
X147571820Y-112578005D01*
X147590292Y-112543446D01*
X147615153Y-112513153D01*
X147645446Y-112488292D01*
X147680005Y-112469820D01*
X147717501Y-112458445D01*
X147762638Y-112454000D01*
X148401362Y-112454000D01*
X148446499Y-112458445D01*
X148446499Y-112458445D01*
G37*
G36*
X151240499Y-112430445D02*
G01*
X151277995Y-112441820D01*
X151312554Y-112460292D01*
X151342847Y-112485153D01*
X151367708Y-112515446D01*
X151386180Y-112550005D01*
X151397555Y-112587501D01*
X151402000Y-112632638D01*
X151402000Y-113371362D01*
X151397555Y-113416499D01*
X151386180Y-113453995D01*
X151367708Y-113488554D01*
X151342847Y-113518847D01*
X151312554Y-113543708D01*
X151277995Y-113562180D01*
X151240499Y-113573555D01*
X151195362Y-113578000D01*
X150556638Y-113578000D01*
X150511501Y-113573555D01*
X150474005Y-113562180D01*
X150439446Y-113543708D01*
X150409153Y-113518847D01*
X150384292Y-113488554D01*
X150365820Y-113453995D01*
X150354445Y-113416499D01*
X150350000Y-113371362D01*
X150350000Y-112632638D01*
X150354445Y-112587501D01*
X150365820Y-112550005D01*
X150384292Y-112515446D01*
X150409153Y-112485153D01*
X150439446Y-112460292D01*
X150474005Y-112441820D01*
X150511501Y-112430445D01*
X150556638Y-112426000D01*
X151195362Y-112426000D01*
X151240499Y-112430445D01*
X151240499Y-112430445D01*
G37*
G36*
X145652499Y-112430445D02*
G01*
X145689995Y-112441820D01*
X145724554Y-112460292D01*
X145754847Y-112485153D01*
X145779708Y-112515446D01*
X145798180Y-112550005D01*
X145809555Y-112587501D01*
X145814000Y-112632638D01*
X145814000Y-113371362D01*
X145809555Y-113416499D01*
X145798180Y-113453995D01*
X145779708Y-113488554D01*
X145754847Y-113518847D01*
X145724554Y-113543708D01*
X145689995Y-113562180D01*
X145652499Y-113573555D01*
X145607362Y-113578000D01*
X144968638Y-113578000D01*
X144923501Y-113573555D01*
X144886005Y-113562180D01*
X144851446Y-113543708D01*
X144821153Y-113518847D01*
X144796292Y-113488554D01*
X144777820Y-113453995D01*
X144766445Y-113416499D01*
X144762000Y-113371362D01*
X144762000Y-112632638D01*
X144766445Y-112587501D01*
X144777820Y-112550005D01*
X144796292Y-112515446D01*
X144821153Y-112485153D01*
X144851446Y-112460292D01*
X144886005Y-112441820D01*
X144923501Y-112430445D01*
X144968638Y-112426000D01*
X145607362Y-112426000D01*
X145652499Y-112430445D01*
X145652499Y-112430445D01*
G37*
G36*
X142858499Y-112430445D02*
G01*
X142895995Y-112441820D01*
X142930554Y-112460292D01*
X142960847Y-112485153D01*
X142985708Y-112515446D01*
X143004180Y-112550005D01*
X143015555Y-112587501D01*
X143020000Y-112632638D01*
X143020000Y-113371362D01*
X143015555Y-113416499D01*
X143004180Y-113453995D01*
X142985708Y-113488554D01*
X142960847Y-113518847D01*
X142930554Y-113543708D01*
X142895995Y-113562180D01*
X142858499Y-113573555D01*
X142813362Y-113578000D01*
X142174638Y-113578000D01*
X142129501Y-113573555D01*
X142092005Y-113562180D01*
X142057446Y-113543708D01*
X142027153Y-113518847D01*
X142002292Y-113488554D01*
X141983820Y-113453995D01*
X141972445Y-113416499D01*
X141968000Y-113371362D01*
X141968000Y-112632638D01*
X141972445Y-112587501D01*
X141983820Y-112550005D01*
X142002292Y-112515446D01*
X142027153Y-112485153D01*
X142057446Y-112460292D01*
X142092005Y-112441820D01*
X142129501Y-112430445D01*
X142174638Y-112426000D01*
X142813362Y-112426000D01*
X142858499Y-112430445D01*
X142858499Y-112430445D01*
G37*
G36*
X140064499Y-112430445D02*
G01*
X140101995Y-112441820D01*
X140136554Y-112460292D01*
X140166847Y-112485153D01*
X140191708Y-112515446D01*
X140210180Y-112550005D01*
X140221555Y-112587501D01*
X140226000Y-112632638D01*
X140226000Y-113371362D01*
X140221555Y-113416499D01*
X140210180Y-113453995D01*
X140191708Y-113488554D01*
X140166847Y-113518847D01*
X140136554Y-113543708D01*
X140101995Y-113562180D01*
X140064499Y-113573555D01*
X140019362Y-113578000D01*
X139380638Y-113578000D01*
X139335501Y-113573555D01*
X139298005Y-113562180D01*
X139263446Y-113543708D01*
X139233153Y-113518847D01*
X139208292Y-113488554D01*
X139189820Y-113453995D01*
X139178445Y-113416499D01*
X139174000Y-113371362D01*
X139174000Y-112632638D01*
X139178445Y-112587501D01*
X139189820Y-112550005D01*
X139208292Y-112515446D01*
X139233153Y-112485153D01*
X139263446Y-112460292D01*
X139298005Y-112441820D01*
X139335501Y-112430445D01*
X139380638Y-112426000D01*
X140019362Y-112426000D01*
X140064499Y-112430445D01*
X140064499Y-112430445D01*
G37*
G36*
X120810499Y-112508445D02*
G01*
X120847995Y-112519820D01*
X120882554Y-112538292D01*
X120912847Y-112563153D01*
X120937708Y-112593446D01*
X120956180Y-112628005D01*
X120967555Y-112665501D01*
X120972000Y-112710638D01*
X120972000Y-113349362D01*
X120967555Y-113394499D01*
X120956180Y-113431995D01*
X120937708Y-113466554D01*
X120912847Y-113496847D01*
X120882554Y-113521708D01*
X120847995Y-113540180D01*
X120810499Y-113551555D01*
X120765362Y-113556000D01*
X120026638Y-113556000D01*
X119981501Y-113551555D01*
X119944005Y-113540180D01*
X119909446Y-113521708D01*
X119879153Y-113496847D01*
X119854292Y-113466554D01*
X119835820Y-113431995D01*
X119824445Y-113394499D01*
X119820000Y-113349362D01*
X119820000Y-112710638D01*
X119824445Y-112665501D01*
X119835820Y-112628005D01*
X119854292Y-112593446D01*
X119879153Y-112563153D01*
X119909446Y-112538292D01*
X119944005Y-112519820D01*
X119981501Y-112508445D01*
X120026638Y-112504000D01*
X120765362Y-112504000D01*
X120810499Y-112508445D01*
X120810499Y-112508445D01*
G37*
G36*
X122560499Y-112508445D02*
G01*
X122597995Y-112519820D01*
X122632554Y-112538292D01*
X122662847Y-112563153D01*
X122687708Y-112593446D01*
X122706180Y-112628005D01*
X122717555Y-112665501D01*
X122722000Y-112710638D01*
X122722000Y-113349362D01*
X122717555Y-113394499D01*
X122706180Y-113431995D01*
X122687708Y-113466554D01*
X122662847Y-113496847D01*
X122632554Y-113521708D01*
X122597995Y-113540180D01*
X122560499Y-113551555D01*
X122515362Y-113556000D01*
X121776638Y-113556000D01*
X121731501Y-113551555D01*
X121694005Y-113540180D01*
X121659446Y-113521708D01*
X121629153Y-113496847D01*
X121604292Y-113466554D01*
X121585820Y-113431995D01*
X121574445Y-113394499D01*
X121570000Y-113349362D01*
X121570000Y-112710638D01*
X121574445Y-112665501D01*
X121585820Y-112628005D01*
X121604292Y-112593446D01*
X121629153Y-112563153D01*
X121659446Y-112538292D01*
X121694005Y-112519820D01*
X121731501Y-112508445D01*
X121776638Y-112504000D01*
X122515362Y-112504000D01*
X122560499Y-112508445D01*
X122560499Y-112508445D01*
G37*
G36*
X158438228Y-111586703D02*
G01*
X158593100Y-111650853D01*
X158732481Y-111743985D01*
X158851015Y-111862519D01*
X158944147Y-112001900D01*
X159008297Y-112156772D01*
X159041000Y-112321184D01*
X159041000Y-112488816D01*
X159008297Y-112653228D01*
X158944147Y-112808100D01*
X158851015Y-112947481D01*
X158732481Y-113066015D01*
X158593100Y-113159147D01*
X158438228Y-113223297D01*
X158273816Y-113256000D01*
X158106184Y-113256000D01*
X157941772Y-113223297D01*
X157786900Y-113159147D01*
X157647519Y-113066015D01*
X157528985Y-112947481D01*
X157435853Y-112808100D01*
X157371703Y-112653228D01*
X157339000Y-112488816D01*
X157339000Y-112321184D01*
X157371703Y-112156772D01*
X157435853Y-112001900D01*
X157528985Y-111862519D01*
X157647519Y-111743985D01*
X157786900Y-111650853D01*
X157941772Y-111586703D01*
X158106184Y-111554000D01*
X158273816Y-111554000D01*
X158438228Y-111586703D01*
X158438228Y-111586703D01*
G37*
G36*
X128825499Y-111873445D02*
G01*
X128862995Y-111884820D01*
X128897554Y-111903292D01*
X128927847Y-111928153D01*
X128952708Y-111958446D01*
X128971180Y-111993005D01*
X128982555Y-112030501D01*
X128987000Y-112075638D01*
X128987000Y-112714362D01*
X128982555Y-112759499D01*
X128971180Y-112796995D01*
X128952708Y-112831554D01*
X128927847Y-112861847D01*
X128897554Y-112886708D01*
X128862995Y-112905180D01*
X128825499Y-112916555D01*
X128780362Y-112921000D01*
X128041638Y-112921000D01*
X127996501Y-112916555D01*
X127959005Y-112905180D01*
X127924446Y-112886708D01*
X127894153Y-112861847D01*
X127869292Y-112831554D01*
X127850820Y-112796995D01*
X127839445Y-112759499D01*
X127835000Y-112714362D01*
X127835000Y-112075638D01*
X127839445Y-112030501D01*
X127850820Y-111993005D01*
X127869292Y-111958446D01*
X127894153Y-111928153D01*
X127924446Y-111903292D01*
X127959005Y-111884820D01*
X127996501Y-111873445D01*
X128041638Y-111869000D01*
X128780362Y-111869000D01*
X128825499Y-111873445D01*
X128825499Y-111873445D01*
G37*
G36*
X130575499Y-111873445D02*
G01*
X130612995Y-111884820D01*
X130647554Y-111903292D01*
X130677847Y-111928153D01*
X130702708Y-111958446D01*
X130721180Y-111993005D01*
X130732555Y-112030501D01*
X130737000Y-112075638D01*
X130737000Y-112714362D01*
X130732555Y-112759499D01*
X130721180Y-112796995D01*
X130702708Y-112831554D01*
X130677847Y-112861847D01*
X130647554Y-112886708D01*
X130612995Y-112905180D01*
X130575499Y-112916555D01*
X130530362Y-112921000D01*
X129791638Y-112921000D01*
X129746501Y-112916555D01*
X129709005Y-112905180D01*
X129674446Y-112886708D01*
X129644153Y-112861847D01*
X129619292Y-112831554D01*
X129600820Y-112796995D01*
X129589445Y-112759499D01*
X129585000Y-112714362D01*
X129585000Y-112075638D01*
X129589445Y-112030501D01*
X129600820Y-111993005D01*
X129619292Y-111958446D01*
X129644153Y-111928153D01*
X129674446Y-111903292D01*
X129709005Y-111884820D01*
X129746501Y-111873445D01*
X129791638Y-111869000D01*
X130530362Y-111869000D01*
X130575499Y-111873445D01*
X130575499Y-111873445D01*
G37*
G36*
X101350721Y-111260174D02*
G01*
X101450995Y-111301709D01*
X101478323Y-111319969D01*
X101541242Y-111362010D01*
X101617990Y-111438758D01*
X101617991Y-111438760D01*
X101678291Y-111529005D01*
X101719826Y-111629279D01*
X101741000Y-111735730D01*
X101741000Y-111844270D01*
X101719826Y-111950721D01*
X101678291Y-112050995D01*
X101678290Y-112050996D01*
X101617990Y-112141242D01*
X101541242Y-112217990D01*
X101495812Y-112248345D01*
X101450995Y-112278291D01*
X101350721Y-112319826D01*
X101244270Y-112341000D01*
X101135730Y-112341000D01*
X101029279Y-112319826D01*
X100929005Y-112278291D01*
X100884188Y-112248345D01*
X100838758Y-112217990D01*
X100762010Y-112141242D01*
X100701710Y-112050996D01*
X100701709Y-112050995D01*
X100660174Y-111950721D01*
X100639000Y-111844270D01*
X100639000Y-111735730D01*
X100660174Y-111629279D01*
X100701709Y-111529005D01*
X100762009Y-111438760D01*
X100762010Y-111438758D01*
X100838758Y-111362010D01*
X100901677Y-111319969D01*
X100929005Y-111301709D01*
X101029279Y-111260174D01*
X101135730Y-111239000D01*
X101244270Y-111239000D01*
X101350721Y-111260174D01*
X101350721Y-111260174D01*
G37*
G36*
X96270721Y-111260174D02*
G01*
X96370995Y-111301709D01*
X96398323Y-111319969D01*
X96461242Y-111362010D01*
X96537990Y-111438758D01*
X96537991Y-111438760D01*
X96598291Y-111529005D01*
X96639826Y-111629279D01*
X96661000Y-111735730D01*
X96661000Y-111844270D01*
X96639826Y-111950721D01*
X96598291Y-112050995D01*
X96598290Y-112050996D01*
X96537990Y-112141242D01*
X96461242Y-112217990D01*
X96415812Y-112248345D01*
X96370995Y-112278291D01*
X96270721Y-112319826D01*
X96164270Y-112341000D01*
X96055730Y-112341000D01*
X95949279Y-112319826D01*
X95849005Y-112278291D01*
X95804188Y-112248345D01*
X95758758Y-112217990D01*
X95682010Y-112141242D01*
X95621710Y-112050996D01*
X95621709Y-112050995D01*
X95580174Y-111950721D01*
X95559000Y-111844270D01*
X95559000Y-111735730D01*
X95580174Y-111629279D01*
X95621709Y-111529005D01*
X95682009Y-111438760D01*
X95682010Y-111438758D01*
X95758758Y-111362010D01*
X95821677Y-111319969D01*
X95849005Y-111301709D01*
X95949279Y-111260174D01*
X96055730Y-111239000D01*
X96164270Y-111239000D01*
X96270721Y-111260174D01*
X96270721Y-111260174D01*
G37*
G36*
X160418228Y-110441703D02*
G01*
X160573100Y-110505853D01*
X160712481Y-110598985D01*
X160831015Y-110717519D01*
X160924147Y-110856900D01*
X160988297Y-111011772D01*
X161021000Y-111176184D01*
X161021000Y-111343816D01*
X160988297Y-111508228D01*
X160924147Y-111663100D01*
X160831015Y-111802481D01*
X160712481Y-111921015D01*
X160573100Y-112014147D01*
X160418228Y-112078297D01*
X160253816Y-112111000D01*
X160086184Y-112111000D01*
X159921772Y-112078297D01*
X159766900Y-112014147D01*
X159627519Y-111921015D01*
X159508985Y-111802481D01*
X159415853Y-111663100D01*
X159351703Y-111508228D01*
X159319000Y-111343816D01*
X159319000Y-111176184D01*
X159351703Y-111011772D01*
X159415853Y-110856900D01*
X159508985Y-110717519D01*
X159627519Y-110598985D01*
X159766900Y-110505853D01*
X159921772Y-110441703D01*
X160086184Y-110409000D01*
X160253816Y-110409000D01*
X160418228Y-110441703D01*
X160418228Y-110441703D01*
G37*
G36*
X156458228Y-110441703D02*
G01*
X156613100Y-110505853D01*
X156752481Y-110598985D01*
X156871015Y-110717519D01*
X156964147Y-110856900D01*
X157028297Y-111011772D01*
X157061000Y-111176184D01*
X157061000Y-111343816D01*
X157028297Y-111508228D01*
X156964147Y-111663100D01*
X156871015Y-111802481D01*
X156752481Y-111921015D01*
X156613100Y-112014147D01*
X156458228Y-112078297D01*
X156293816Y-112111000D01*
X156126184Y-112111000D01*
X155961772Y-112078297D01*
X155806900Y-112014147D01*
X155667519Y-111921015D01*
X155548985Y-111802481D01*
X155455853Y-111663100D01*
X155391703Y-111508228D01*
X155359000Y-111343816D01*
X155359000Y-111176184D01*
X155391703Y-111011772D01*
X155455853Y-110856900D01*
X155548985Y-110717519D01*
X155667519Y-110598985D01*
X155806900Y-110505853D01*
X155961772Y-110441703D01*
X156126184Y-110409000D01*
X156293816Y-110409000D01*
X156458228Y-110441703D01*
X156458228Y-110441703D01*
G37*
G36*
X148446499Y-110708445D02*
G01*
X148483995Y-110719820D01*
X148518554Y-110738292D01*
X148548847Y-110763153D01*
X148573708Y-110793446D01*
X148592180Y-110828005D01*
X148603555Y-110865501D01*
X148608000Y-110910638D01*
X148608000Y-111649362D01*
X148603555Y-111694499D01*
X148592180Y-111731995D01*
X148573708Y-111766554D01*
X148548847Y-111796847D01*
X148518554Y-111821708D01*
X148483995Y-111840180D01*
X148446499Y-111851555D01*
X148401362Y-111856000D01*
X147762638Y-111856000D01*
X147717501Y-111851555D01*
X147680005Y-111840180D01*
X147645446Y-111821708D01*
X147615153Y-111796847D01*
X147590292Y-111766554D01*
X147571820Y-111731995D01*
X147560445Y-111694499D01*
X147556000Y-111649362D01*
X147556000Y-110910638D01*
X147560445Y-110865501D01*
X147571820Y-110828005D01*
X147590292Y-110793446D01*
X147615153Y-110763153D01*
X147645446Y-110738292D01*
X147680005Y-110719820D01*
X147717501Y-110708445D01*
X147762638Y-110704000D01*
X148401362Y-110704000D01*
X148446499Y-110708445D01*
X148446499Y-110708445D01*
G37*
G36*
X151240499Y-110680445D02*
G01*
X151277995Y-110691820D01*
X151312554Y-110710292D01*
X151342847Y-110735153D01*
X151367708Y-110765446D01*
X151386180Y-110800005D01*
X151397555Y-110837501D01*
X151402000Y-110882638D01*
X151402000Y-111621362D01*
X151397555Y-111666499D01*
X151386180Y-111703995D01*
X151367708Y-111738554D01*
X151342847Y-111768847D01*
X151312554Y-111793708D01*
X151277995Y-111812180D01*
X151240499Y-111823555D01*
X151195362Y-111828000D01*
X150556638Y-111828000D01*
X150511501Y-111823555D01*
X150474005Y-111812180D01*
X150439446Y-111793708D01*
X150409153Y-111768847D01*
X150384292Y-111738554D01*
X150365820Y-111703995D01*
X150354445Y-111666499D01*
X150350000Y-111621362D01*
X150350000Y-110882638D01*
X150354445Y-110837501D01*
X150365820Y-110800005D01*
X150384292Y-110765446D01*
X150409153Y-110735153D01*
X150439446Y-110710292D01*
X150474005Y-110691820D01*
X150511501Y-110680445D01*
X150556638Y-110676000D01*
X151195362Y-110676000D01*
X151240499Y-110680445D01*
X151240499Y-110680445D01*
G37*
G36*
X140064499Y-110680445D02*
G01*
X140101995Y-110691820D01*
X140136554Y-110710292D01*
X140166847Y-110735153D01*
X140191708Y-110765446D01*
X140210180Y-110800005D01*
X140221555Y-110837501D01*
X140226000Y-110882638D01*
X140226000Y-111621362D01*
X140221555Y-111666499D01*
X140210180Y-111703995D01*
X140191708Y-111738554D01*
X140166847Y-111768847D01*
X140136554Y-111793708D01*
X140101995Y-111812180D01*
X140064499Y-111823555D01*
X140019362Y-111828000D01*
X139380638Y-111828000D01*
X139335501Y-111823555D01*
X139298005Y-111812180D01*
X139263446Y-111793708D01*
X139233153Y-111768847D01*
X139208292Y-111738554D01*
X139189820Y-111703995D01*
X139178445Y-111666499D01*
X139174000Y-111621362D01*
X139174000Y-110882638D01*
X139178445Y-110837501D01*
X139189820Y-110800005D01*
X139208292Y-110765446D01*
X139233153Y-110735153D01*
X139263446Y-110710292D01*
X139298005Y-110691820D01*
X139335501Y-110680445D01*
X139380638Y-110676000D01*
X140019362Y-110676000D01*
X140064499Y-110680445D01*
X140064499Y-110680445D01*
G37*
G36*
X142858499Y-110680445D02*
G01*
X142895995Y-110691820D01*
X142930554Y-110710292D01*
X142960847Y-110735153D01*
X142985708Y-110765446D01*
X143004180Y-110800005D01*
X143015555Y-110837501D01*
X143020000Y-110882638D01*
X143020000Y-111621362D01*
X143015555Y-111666499D01*
X143004180Y-111703995D01*
X142985708Y-111738554D01*
X142960847Y-111768847D01*
X142930554Y-111793708D01*
X142895995Y-111812180D01*
X142858499Y-111823555D01*
X142813362Y-111828000D01*
X142174638Y-111828000D01*
X142129501Y-111823555D01*
X142092005Y-111812180D01*
X142057446Y-111793708D01*
X142027153Y-111768847D01*
X142002292Y-111738554D01*
X141983820Y-111703995D01*
X141972445Y-111666499D01*
X141968000Y-111621362D01*
X141968000Y-110882638D01*
X141972445Y-110837501D01*
X141983820Y-110800005D01*
X142002292Y-110765446D01*
X142027153Y-110735153D01*
X142057446Y-110710292D01*
X142092005Y-110691820D01*
X142129501Y-110680445D01*
X142174638Y-110676000D01*
X142813362Y-110676000D01*
X142858499Y-110680445D01*
X142858499Y-110680445D01*
G37*
G36*
X145652499Y-110680445D02*
G01*
X145689995Y-110691820D01*
X145724554Y-110710292D01*
X145754847Y-110735153D01*
X145779708Y-110765446D01*
X145798180Y-110800005D01*
X145809555Y-110837501D01*
X145814000Y-110882638D01*
X145814000Y-111621362D01*
X145809555Y-111666499D01*
X145798180Y-111703995D01*
X145779708Y-111738554D01*
X145754847Y-111768847D01*
X145724554Y-111793708D01*
X145689995Y-111812180D01*
X145652499Y-111823555D01*
X145607362Y-111828000D01*
X144968638Y-111828000D01*
X144923501Y-111823555D01*
X144886005Y-111812180D01*
X144851446Y-111793708D01*
X144821153Y-111768847D01*
X144796292Y-111738554D01*
X144777820Y-111703995D01*
X144766445Y-111666499D01*
X144762000Y-111621362D01*
X144762000Y-110882638D01*
X144766445Y-110837501D01*
X144777820Y-110800005D01*
X144796292Y-110765446D01*
X144821153Y-110735153D01*
X144851446Y-110710292D01*
X144886005Y-110691820D01*
X144923501Y-110680445D01*
X144968638Y-110676000D01*
X145607362Y-110676000D01*
X145652499Y-110680445D01*
X145652499Y-110680445D01*
G37*
G36*
X130561499Y-110349445D02*
G01*
X130598995Y-110360820D01*
X130633554Y-110379292D01*
X130663847Y-110404153D01*
X130688708Y-110434446D01*
X130707180Y-110469005D01*
X130718555Y-110506501D01*
X130723000Y-110551638D01*
X130723000Y-111190362D01*
X130718555Y-111235499D01*
X130707180Y-111272995D01*
X130688708Y-111307554D01*
X130663847Y-111337847D01*
X130633554Y-111362708D01*
X130598995Y-111381180D01*
X130561499Y-111392555D01*
X130516362Y-111397000D01*
X129777638Y-111397000D01*
X129732501Y-111392555D01*
X129695005Y-111381180D01*
X129660446Y-111362708D01*
X129630153Y-111337847D01*
X129605292Y-111307554D01*
X129586820Y-111272995D01*
X129575445Y-111235499D01*
X129571000Y-111190362D01*
X129571000Y-110551638D01*
X129575445Y-110506501D01*
X129586820Y-110469005D01*
X129605292Y-110434446D01*
X129630153Y-110404153D01*
X129660446Y-110379292D01*
X129695005Y-110360820D01*
X129732501Y-110349445D01*
X129777638Y-110345000D01*
X130516362Y-110345000D01*
X130561499Y-110349445D01*
X130561499Y-110349445D01*
G37*
G36*
X128811499Y-110349445D02*
G01*
X128848995Y-110360820D01*
X128883554Y-110379292D01*
X128913847Y-110404153D01*
X128938708Y-110434446D01*
X128957180Y-110469005D01*
X128968555Y-110506501D01*
X128973000Y-110551638D01*
X128973000Y-111190362D01*
X128968555Y-111235499D01*
X128957180Y-111272995D01*
X128938708Y-111307554D01*
X128913847Y-111337847D01*
X128883554Y-111362708D01*
X128848995Y-111381180D01*
X128811499Y-111392555D01*
X128766362Y-111397000D01*
X128027638Y-111397000D01*
X127982501Y-111392555D01*
X127945005Y-111381180D01*
X127910446Y-111362708D01*
X127880153Y-111337847D01*
X127855292Y-111307554D01*
X127836820Y-111272995D01*
X127825445Y-111235499D01*
X127821000Y-111190362D01*
X127821000Y-110551638D01*
X127825445Y-110506501D01*
X127836820Y-110469005D01*
X127855292Y-110434446D01*
X127880153Y-110404153D01*
X127910446Y-110379292D01*
X127945005Y-110360820D01*
X127982501Y-110349445D01*
X128027638Y-110345000D01*
X128766362Y-110345000D01*
X128811499Y-110349445D01*
X128811499Y-110349445D01*
G37*
G36*
X97540721Y-109990174D02*
G01*
X97640995Y-110031709D01*
X97640996Y-110031710D01*
X97731242Y-110092010D01*
X97807990Y-110168758D01*
X97807991Y-110168760D01*
X97868291Y-110259005D01*
X97909826Y-110359279D01*
X97931000Y-110465730D01*
X97931000Y-110574270D01*
X97909826Y-110680721D01*
X97868291Y-110780995D01*
X97868290Y-110780996D01*
X97807990Y-110871242D01*
X97731242Y-110947990D01*
X97704288Y-110966000D01*
X97640995Y-111008291D01*
X97540721Y-111049826D01*
X97434270Y-111071000D01*
X97325730Y-111071000D01*
X97219279Y-111049826D01*
X97119005Y-111008291D01*
X97055712Y-110966000D01*
X97028758Y-110947990D01*
X96952010Y-110871242D01*
X96891710Y-110780996D01*
X96891709Y-110780995D01*
X96850174Y-110680721D01*
X96829000Y-110574270D01*
X96829000Y-110465730D01*
X96850174Y-110359279D01*
X96891709Y-110259005D01*
X96952009Y-110168760D01*
X96952010Y-110168758D01*
X97028758Y-110092010D01*
X97119004Y-110031710D01*
X97119005Y-110031709D01*
X97219279Y-109990174D01*
X97325730Y-109969000D01*
X97434270Y-109969000D01*
X97540721Y-109990174D01*
X97540721Y-109990174D01*
G37*
G36*
X100080721Y-109990174D02*
G01*
X100180995Y-110031709D01*
X100180996Y-110031710D01*
X100271242Y-110092010D01*
X100347990Y-110168758D01*
X100347991Y-110168760D01*
X100408291Y-110259005D01*
X100449826Y-110359279D01*
X100471000Y-110465730D01*
X100471000Y-110574270D01*
X100449826Y-110680721D01*
X100408291Y-110780995D01*
X100408290Y-110780996D01*
X100347990Y-110871242D01*
X100271242Y-110947990D01*
X100244288Y-110966000D01*
X100180995Y-111008291D01*
X100080721Y-111049826D01*
X99974270Y-111071000D01*
X99865730Y-111071000D01*
X99759279Y-111049826D01*
X99659005Y-111008291D01*
X99595712Y-110966000D01*
X99568758Y-110947990D01*
X99492010Y-110871242D01*
X99431710Y-110780996D01*
X99431709Y-110780995D01*
X99390174Y-110680721D01*
X99369000Y-110574270D01*
X99369000Y-110465730D01*
X99390174Y-110359279D01*
X99431709Y-110259005D01*
X99492009Y-110168760D01*
X99492010Y-110168758D01*
X99568758Y-110092010D01*
X99659004Y-110031710D01*
X99659005Y-110031709D01*
X99759279Y-109990174D01*
X99865730Y-109969000D01*
X99974270Y-109969000D01*
X100080721Y-109990174D01*
X100080721Y-109990174D01*
G37*
G36*
X158438228Y-109296703D02*
G01*
X158593100Y-109360853D01*
X158732481Y-109453985D01*
X158851015Y-109572519D01*
X158944147Y-109711900D01*
X159008297Y-109866772D01*
X159041000Y-110031184D01*
X159041000Y-110198816D01*
X159008297Y-110363228D01*
X158944147Y-110518100D01*
X158851015Y-110657481D01*
X158732481Y-110776015D01*
X158593100Y-110869147D01*
X158438228Y-110933297D01*
X158273816Y-110966000D01*
X158106184Y-110966000D01*
X157941772Y-110933297D01*
X157786900Y-110869147D01*
X157647519Y-110776015D01*
X157528985Y-110657481D01*
X157435853Y-110518100D01*
X157371703Y-110363228D01*
X157339000Y-110198816D01*
X157339000Y-110031184D01*
X157371703Y-109866772D01*
X157435853Y-109711900D01*
X157528985Y-109572519D01*
X157647519Y-109453985D01*
X157786900Y-109360853D01*
X157941772Y-109296703D01*
X158106184Y-109264000D01*
X158273816Y-109264000D01*
X158438228Y-109296703D01*
X158438228Y-109296703D01*
G37*
G36*
X120584499Y-109714445D02*
G01*
X120621995Y-109725820D01*
X120656554Y-109744292D01*
X120686847Y-109769153D01*
X120711708Y-109799446D01*
X120730180Y-109834005D01*
X120741555Y-109871501D01*
X120746000Y-109916638D01*
X120746000Y-110555362D01*
X120741555Y-110600499D01*
X120730180Y-110637995D01*
X120711708Y-110672554D01*
X120686847Y-110702847D01*
X120656554Y-110727708D01*
X120621995Y-110746180D01*
X120584499Y-110757555D01*
X120539362Y-110762000D01*
X119800638Y-110762000D01*
X119755501Y-110757555D01*
X119718005Y-110746180D01*
X119683446Y-110727708D01*
X119653153Y-110702847D01*
X119628292Y-110672554D01*
X119609820Y-110637995D01*
X119598445Y-110600499D01*
X119594000Y-110555362D01*
X119594000Y-109916638D01*
X119598445Y-109871501D01*
X119609820Y-109834005D01*
X119628292Y-109799446D01*
X119653153Y-109769153D01*
X119683446Y-109744292D01*
X119718005Y-109725820D01*
X119755501Y-109714445D01*
X119800638Y-109710000D01*
X120539362Y-109710000D01*
X120584499Y-109714445D01*
X120584499Y-109714445D01*
G37*
G36*
X122334499Y-109714445D02*
G01*
X122371995Y-109725820D01*
X122406554Y-109744292D01*
X122436847Y-109769153D01*
X122461708Y-109799446D01*
X122480180Y-109834005D01*
X122491555Y-109871501D01*
X122496000Y-109916638D01*
X122496000Y-110555362D01*
X122491555Y-110600499D01*
X122480180Y-110637995D01*
X122461708Y-110672554D01*
X122436847Y-110702847D01*
X122406554Y-110727708D01*
X122371995Y-110746180D01*
X122334499Y-110757555D01*
X122289362Y-110762000D01*
X121550638Y-110762000D01*
X121505501Y-110757555D01*
X121468005Y-110746180D01*
X121433446Y-110727708D01*
X121403153Y-110702847D01*
X121378292Y-110672554D01*
X121359820Y-110637995D01*
X121348445Y-110600499D01*
X121344000Y-110555362D01*
X121344000Y-109916638D01*
X121348445Y-109871501D01*
X121359820Y-109834005D01*
X121378292Y-109799446D01*
X121403153Y-109769153D01*
X121433446Y-109744292D01*
X121468005Y-109725820D01*
X121505501Y-109714445D01*
X121550638Y-109710000D01*
X122289362Y-109710000D01*
X122334499Y-109714445D01*
X122334499Y-109714445D01*
G37*
G36*
X160418228Y-108151703D02*
G01*
X160573100Y-108215853D01*
X160712481Y-108308985D01*
X160831015Y-108427519D01*
X160924147Y-108566900D01*
X160988297Y-108721772D01*
X161021000Y-108886184D01*
X161021000Y-109053816D01*
X160988297Y-109218228D01*
X160924147Y-109373100D01*
X160831015Y-109512481D01*
X160712481Y-109631015D01*
X160573100Y-109724147D01*
X160418228Y-109788297D01*
X160253816Y-109821000D01*
X160086184Y-109821000D01*
X159921772Y-109788297D01*
X159766900Y-109724147D01*
X159627519Y-109631015D01*
X159508985Y-109512481D01*
X159415853Y-109373100D01*
X159351703Y-109218228D01*
X159319000Y-109053816D01*
X159319000Y-108886184D01*
X159351703Y-108721772D01*
X159415853Y-108566900D01*
X159508985Y-108427519D01*
X159627519Y-108308985D01*
X159766900Y-108215853D01*
X159921772Y-108151703D01*
X160086184Y-108119000D01*
X160253816Y-108119000D01*
X160418228Y-108151703D01*
X160418228Y-108151703D01*
G37*
G36*
X156458228Y-108151703D02*
G01*
X156613100Y-108215853D01*
X156752481Y-108308985D01*
X156871015Y-108427519D01*
X156964147Y-108566900D01*
X157028297Y-108721772D01*
X157061000Y-108886184D01*
X157061000Y-109053816D01*
X157028297Y-109218228D01*
X156964147Y-109373100D01*
X156871015Y-109512481D01*
X156752481Y-109631015D01*
X156613100Y-109724147D01*
X156458228Y-109788297D01*
X156293816Y-109821000D01*
X156126184Y-109821000D01*
X155961772Y-109788297D01*
X155806900Y-109724147D01*
X155667519Y-109631015D01*
X155548985Y-109512481D01*
X155455853Y-109373100D01*
X155391703Y-109218228D01*
X155359000Y-109053816D01*
X155359000Y-108886184D01*
X155391703Y-108721772D01*
X155455853Y-108566900D01*
X155548985Y-108427519D01*
X155667519Y-108308985D01*
X155806900Y-108215853D01*
X155961772Y-108151703D01*
X156126184Y-108119000D01*
X156293816Y-108119000D01*
X156458228Y-108151703D01*
X156458228Y-108151703D01*
G37*
G36*
X158438228Y-107006703D02*
G01*
X158593100Y-107070853D01*
X158732481Y-107163985D01*
X158851015Y-107282519D01*
X158944147Y-107421900D01*
X159008297Y-107576772D01*
X159041000Y-107741184D01*
X159041000Y-107908816D01*
X159008297Y-108073228D01*
X158944147Y-108228100D01*
X158851015Y-108367481D01*
X158732481Y-108486015D01*
X158593100Y-108579147D01*
X158438228Y-108643297D01*
X158273816Y-108676000D01*
X158106184Y-108676000D01*
X157941772Y-108643297D01*
X157786900Y-108579147D01*
X157647519Y-108486015D01*
X157528985Y-108367481D01*
X157435853Y-108228100D01*
X157371703Y-108073228D01*
X157339000Y-107908816D01*
X157339000Y-107741184D01*
X157371703Y-107576772D01*
X157435853Y-107421900D01*
X157528985Y-107282519D01*
X157647519Y-107163985D01*
X157786900Y-107070853D01*
X157941772Y-107006703D01*
X158106184Y-106974000D01*
X158273816Y-106974000D01*
X158438228Y-107006703D01*
X158438228Y-107006703D01*
G37*
G36*
X131910997Y-106849051D02*
G01*
X131944652Y-106859261D01*
X131975665Y-106875838D01*
X132002851Y-106898149D01*
X132025162Y-106925335D01*
X132041739Y-106956348D01*
X132051949Y-106990003D01*
X132056000Y-107031138D01*
X132056000Y-108360862D01*
X132051949Y-108401997D01*
X132041739Y-108435652D01*
X132025162Y-108466665D01*
X132002851Y-108493851D01*
X131975665Y-108516162D01*
X131944652Y-108532739D01*
X131910997Y-108542949D01*
X131869862Y-108547000D01*
X129540138Y-108547000D01*
X129499003Y-108542949D01*
X129465348Y-108532739D01*
X129434335Y-108516162D01*
X129407149Y-108493851D01*
X129384838Y-108466665D01*
X129368261Y-108435652D01*
X129358051Y-108401997D01*
X129354000Y-108360862D01*
X129354000Y-107031138D01*
X129358051Y-106990003D01*
X129368261Y-106956348D01*
X129384838Y-106925335D01*
X129407149Y-106898149D01*
X129434335Y-106875838D01*
X129465348Y-106859261D01*
X129499003Y-106849051D01*
X129540138Y-106845000D01*
X131869862Y-106845000D01*
X131910997Y-106849051D01*
X131910997Y-106849051D01*
G37*
G36*
X128310997Y-106849051D02*
G01*
X128344652Y-106859261D01*
X128375665Y-106875838D01*
X128402851Y-106898149D01*
X128425162Y-106925335D01*
X128441739Y-106956348D01*
X128451949Y-106990003D01*
X128456000Y-107031138D01*
X128456000Y-108360862D01*
X128451949Y-108401997D01*
X128441739Y-108435652D01*
X128425162Y-108466665D01*
X128402851Y-108493851D01*
X128375665Y-108516162D01*
X128344652Y-108532739D01*
X128310997Y-108542949D01*
X128269862Y-108547000D01*
X125940138Y-108547000D01*
X125899003Y-108542949D01*
X125865348Y-108532739D01*
X125834335Y-108516162D01*
X125807149Y-108493851D01*
X125784838Y-108466665D01*
X125768261Y-108435652D01*
X125758051Y-108401997D01*
X125754000Y-108360862D01*
X125754000Y-107031138D01*
X125758051Y-106990003D01*
X125768261Y-106956348D01*
X125784838Y-106925335D01*
X125807149Y-106898149D01*
X125834335Y-106875838D01*
X125865348Y-106859261D01*
X125899003Y-106849051D01*
X125940138Y-106845000D01*
X128269862Y-106845000D01*
X128310997Y-106849051D01*
X128310997Y-106849051D01*
G37*
G36*
X96989059Y-106657860D02*
G01*
X97125732Y-106714472D01*
X97248735Y-106796660D01*
X97353340Y-106901265D01*
X97435528Y-107024268D01*
X97435529Y-107024270D01*
X97492140Y-107160941D01*
X97521000Y-107306032D01*
X97521000Y-107453968D01*
X97496573Y-107576771D01*
X97492140Y-107599059D01*
X97435528Y-107735732D01*
X97353340Y-107858735D01*
X97248735Y-107963340D01*
X97125732Y-108045528D01*
X97125731Y-108045529D01*
X97125730Y-108045529D01*
X96989059Y-108102140D01*
X96843968Y-108131000D01*
X96696032Y-108131000D01*
X96550941Y-108102140D01*
X96414270Y-108045529D01*
X96414269Y-108045529D01*
X96414268Y-108045528D01*
X96291265Y-107963340D01*
X96186660Y-107858735D01*
X96104472Y-107735732D01*
X96047860Y-107599059D01*
X96043427Y-107576771D01*
X96019000Y-107453968D01*
X96019000Y-107306032D01*
X96047860Y-107160941D01*
X96104471Y-107024270D01*
X96104472Y-107024268D01*
X96186660Y-106901265D01*
X96291265Y-106796660D01*
X96414268Y-106714472D01*
X96550941Y-106657860D01*
X96696032Y-106629000D01*
X96843968Y-106629000D01*
X96989059Y-106657860D01*
X96989059Y-106657860D01*
G37*
G36*
X98899059Y-106657860D02*
G01*
X99035732Y-106714472D01*
X99158735Y-106796660D01*
X99263340Y-106901265D01*
X99345528Y-107024268D01*
X99345529Y-107024270D01*
X99402140Y-107160941D01*
X99431000Y-107306032D01*
X99431000Y-107453968D01*
X99406573Y-107576771D01*
X99402140Y-107599059D01*
X99345528Y-107735732D01*
X99263340Y-107858735D01*
X99158735Y-107963340D01*
X99035732Y-108045528D01*
X99035731Y-108045529D01*
X99035730Y-108045529D01*
X98899059Y-108102140D01*
X98753968Y-108131000D01*
X98606032Y-108131000D01*
X98460941Y-108102140D01*
X98324270Y-108045529D01*
X98324269Y-108045529D01*
X98324268Y-108045528D01*
X98201265Y-107963340D01*
X98096660Y-107858735D01*
X98014472Y-107735732D01*
X97957860Y-107599059D01*
X97953427Y-107576771D01*
X97929000Y-107453968D01*
X97929000Y-107306032D01*
X97957860Y-107160941D01*
X98014471Y-107024270D01*
X98014472Y-107024268D01*
X98096660Y-106901265D01*
X98201265Y-106796660D01*
X98324268Y-106714472D01*
X98460941Y-106657860D01*
X98606032Y-106629000D01*
X98753968Y-106629000D01*
X98899059Y-106657860D01*
X98899059Y-106657860D01*
G37*
G36*
X100809059Y-106657860D02*
G01*
X100945732Y-106714472D01*
X101068735Y-106796660D01*
X101173340Y-106901265D01*
X101255528Y-107024268D01*
X101255529Y-107024270D01*
X101312140Y-107160941D01*
X101341000Y-107306032D01*
X101341000Y-107453968D01*
X101316573Y-107576771D01*
X101312140Y-107599059D01*
X101255528Y-107735732D01*
X101173340Y-107858735D01*
X101068735Y-107963340D01*
X100945732Y-108045528D01*
X100945731Y-108045529D01*
X100945730Y-108045529D01*
X100809059Y-108102140D01*
X100663968Y-108131000D01*
X100516032Y-108131000D01*
X100370941Y-108102140D01*
X100234270Y-108045529D01*
X100234269Y-108045529D01*
X100234268Y-108045528D01*
X100111265Y-107963340D01*
X100006660Y-107858735D01*
X99924472Y-107735732D01*
X99867860Y-107599059D01*
X99863427Y-107576771D01*
X99839000Y-107453968D01*
X99839000Y-107306032D01*
X99867860Y-107160941D01*
X99924471Y-107024270D01*
X99924472Y-107024268D01*
X100006660Y-106901265D01*
X100111265Y-106796660D01*
X100234268Y-106714472D01*
X100370941Y-106657860D01*
X100516032Y-106629000D01*
X100663968Y-106629000D01*
X100809059Y-106657860D01*
X100809059Y-106657860D01*
G37*
G36*
X160418228Y-105861703D02*
G01*
X160573100Y-105925853D01*
X160712481Y-106018985D01*
X160831015Y-106137519D01*
X160924147Y-106276900D01*
X160988297Y-106431772D01*
X161021000Y-106596184D01*
X161021000Y-106763816D01*
X160988297Y-106928228D01*
X160924147Y-107083100D01*
X160831015Y-107222481D01*
X160712481Y-107341015D01*
X160573100Y-107434147D01*
X160418228Y-107498297D01*
X160253816Y-107531000D01*
X160086184Y-107531000D01*
X159921772Y-107498297D01*
X159766900Y-107434147D01*
X159627519Y-107341015D01*
X159508985Y-107222481D01*
X159415853Y-107083100D01*
X159351703Y-106928228D01*
X159319000Y-106763816D01*
X159319000Y-106596184D01*
X159351703Y-106431772D01*
X159415853Y-106276900D01*
X159508985Y-106137519D01*
X159627519Y-106018985D01*
X159766900Y-105925853D01*
X159921772Y-105861703D01*
X160086184Y-105829000D01*
X160253816Y-105829000D01*
X160418228Y-105861703D01*
X160418228Y-105861703D01*
G37*
G36*
X157061000Y-107531000D02*
G01*
X155359000Y-107531000D01*
X155359000Y-105829000D01*
X157061000Y-105829000D01*
X157061000Y-107531000D01*
X157061000Y-107531000D01*
G37*
G36*
X137320499Y-106158445D02*
G01*
X137357995Y-106169820D01*
X137392554Y-106188292D01*
X137422847Y-106213153D01*
X137447708Y-106243446D01*
X137466180Y-106278005D01*
X137477555Y-106315501D01*
X137482000Y-106360638D01*
X137482000Y-106999362D01*
X137477555Y-107044499D01*
X137466180Y-107081995D01*
X137447708Y-107116554D01*
X137422847Y-107146847D01*
X137392554Y-107171708D01*
X137357995Y-107190180D01*
X137320499Y-107201555D01*
X137275362Y-107206000D01*
X136536638Y-107206000D01*
X136491501Y-107201555D01*
X136454005Y-107190180D01*
X136419446Y-107171708D01*
X136389153Y-107146847D01*
X136364292Y-107116554D01*
X136345820Y-107081995D01*
X136334445Y-107044499D01*
X136330000Y-106999362D01*
X136330000Y-106360638D01*
X136334445Y-106315501D01*
X136345820Y-106278005D01*
X136364292Y-106243446D01*
X136389153Y-106213153D01*
X136419446Y-106188292D01*
X136454005Y-106169820D01*
X136491501Y-106158445D01*
X136536638Y-106154000D01*
X137275362Y-106154000D01*
X137320499Y-106158445D01*
X137320499Y-106158445D01*
G37*
G36*
X135570499Y-106158445D02*
G01*
X135607995Y-106169820D01*
X135642554Y-106188292D01*
X135672847Y-106213153D01*
X135697708Y-106243446D01*
X135716180Y-106278005D01*
X135727555Y-106315501D01*
X135732000Y-106360638D01*
X135732000Y-106999362D01*
X135727555Y-107044499D01*
X135716180Y-107081995D01*
X135697708Y-107116554D01*
X135672847Y-107146847D01*
X135642554Y-107171708D01*
X135607995Y-107190180D01*
X135570499Y-107201555D01*
X135525362Y-107206000D01*
X134786638Y-107206000D01*
X134741501Y-107201555D01*
X134704005Y-107190180D01*
X134669446Y-107171708D01*
X134639153Y-107146847D01*
X134614292Y-107116554D01*
X134595820Y-107081995D01*
X134584445Y-107044499D01*
X134580000Y-106999362D01*
X134580000Y-106360638D01*
X134584445Y-106315501D01*
X134595820Y-106278005D01*
X134614292Y-106243446D01*
X134639153Y-106213153D01*
X134669446Y-106188292D01*
X134704005Y-106169820D01*
X134741501Y-106158445D01*
X134786638Y-106154000D01*
X135525362Y-106154000D01*
X135570499Y-106158445D01*
X135570499Y-106158445D01*
G37*
G36*
X158438228Y-104716703D02*
G01*
X158593100Y-104780853D01*
X158732481Y-104873985D01*
X158851015Y-104992519D01*
X158944147Y-105131900D01*
X159008297Y-105286772D01*
X159041000Y-105451184D01*
X159041000Y-105618816D01*
X159008297Y-105783228D01*
X158944147Y-105938100D01*
X158851015Y-106077481D01*
X158732481Y-106196015D01*
X158593100Y-106289147D01*
X158438228Y-106353297D01*
X158273816Y-106386000D01*
X158106184Y-106386000D01*
X157941772Y-106353297D01*
X157786900Y-106289147D01*
X157647519Y-106196015D01*
X157528985Y-106077481D01*
X157435853Y-105938100D01*
X157371703Y-105783228D01*
X157339000Y-105618816D01*
X157339000Y-105451184D01*
X157371703Y-105286772D01*
X157435853Y-105131900D01*
X157528985Y-104992519D01*
X157647519Y-104873985D01*
X157786900Y-104780853D01*
X157941772Y-104716703D01*
X158106184Y-104684000D01*
X158273816Y-104684000D01*
X158438228Y-104716703D01*
X158438228Y-104716703D01*
G37*
G36*
X100809059Y-104747860D02*
G01*
X100940559Y-104802329D01*
X100945732Y-104804472D01*
X101068735Y-104886660D01*
X101173340Y-104991265D01*
X101243969Y-105096969D01*
X101255529Y-105114270D01*
X101262833Y-105131903D01*
X101312140Y-105250941D01*
X101341000Y-105396033D01*
X101341000Y-105543967D01*
X101312140Y-105689059D01*
X101255528Y-105825732D01*
X101173340Y-105948735D01*
X101068735Y-106053340D01*
X100945732Y-106135528D01*
X100945731Y-106135529D01*
X100945730Y-106135529D01*
X100809059Y-106192140D01*
X100663968Y-106221000D01*
X100516032Y-106221000D01*
X100370941Y-106192140D01*
X100234270Y-106135529D01*
X100234269Y-106135529D01*
X100234268Y-106135528D01*
X100111265Y-106053340D01*
X100006660Y-105948735D01*
X99924472Y-105825732D01*
X99867860Y-105689059D01*
X99839000Y-105543967D01*
X99839000Y-105396033D01*
X99867860Y-105250941D01*
X99917167Y-105131903D01*
X99924471Y-105114270D01*
X99936031Y-105096969D01*
X100006660Y-104991265D01*
X100111265Y-104886660D01*
X100234268Y-104804472D01*
X100239442Y-104802329D01*
X100370941Y-104747860D01*
X100516032Y-104719000D01*
X100663968Y-104719000D01*
X100809059Y-104747860D01*
X100809059Y-104747860D01*
G37*
G36*
X98899059Y-104747860D02*
G01*
X99030559Y-104802329D01*
X99035732Y-104804472D01*
X99158735Y-104886660D01*
X99263340Y-104991265D01*
X99333969Y-105096969D01*
X99345529Y-105114270D01*
X99352833Y-105131903D01*
X99402140Y-105250941D01*
X99431000Y-105396033D01*
X99431000Y-105543967D01*
X99402140Y-105689059D01*
X99345528Y-105825732D01*
X99263340Y-105948735D01*
X99158735Y-106053340D01*
X99035732Y-106135528D01*
X99035731Y-106135529D01*
X99035730Y-106135529D01*
X98899059Y-106192140D01*
X98753968Y-106221000D01*
X98606032Y-106221000D01*
X98460941Y-106192140D01*
X98324270Y-106135529D01*
X98324269Y-106135529D01*
X98324268Y-106135528D01*
X98201265Y-106053340D01*
X98096660Y-105948735D01*
X98014472Y-105825732D01*
X97957860Y-105689059D01*
X97929000Y-105543967D01*
X97929000Y-105396033D01*
X97957860Y-105250941D01*
X98007167Y-105131903D01*
X98014471Y-105114270D01*
X98026031Y-105096969D01*
X98096660Y-104991265D01*
X98201265Y-104886660D01*
X98324268Y-104804472D01*
X98329442Y-104802329D01*
X98460941Y-104747860D01*
X98606032Y-104719000D01*
X98753968Y-104719000D01*
X98899059Y-104747860D01*
X98899059Y-104747860D01*
G37*
G36*
X96989059Y-104747860D02*
G01*
X97120559Y-104802329D01*
X97125732Y-104804472D01*
X97248735Y-104886660D01*
X97353340Y-104991265D01*
X97423969Y-105096969D01*
X97435529Y-105114270D01*
X97442833Y-105131903D01*
X97492140Y-105250941D01*
X97521000Y-105396033D01*
X97521000Y-105543967D01*
X97492140Y-105689059D01*
X97435528Y-105825732D01*
X97353340Y-105948735D01*
X97248735Y-106053340D01*
X97125732Y-106135528D01*
X97125731Y-106135529D01*
X97125730Y-106135529D01*
X96989059Y-106192140D01*
X96843968Y-106221000D01*
X96696032Y-106221000D01*
X96550941Y-106192140D01*
X96414270Y-106135529D01*
X96414269Y-106135529D01*
X96414268Y-106135528D01*
X96291265Y-106053340D01*
X96186660Y-105948735D01*
X96104472Y-105825732D01*
X96047860Y-105689059D01*
X96019000Y-105543967D01*
X96019000Y-105396033D01*
X96047860Y-105250941D01*
X96097167Y-105131903D01*
X96104471Y-105114270D01*
X96116031Y-105096969D01*
X96186660Y-104991265D01*
X96291265Y-104886660D01*
X96414268Y-104804472D01*
X96419442Y-104802329D01*
X96550941Y-104747860D01*
X96696032Y-104719000D01*
X96843968Y-104719000D01*
X96989059Y-104747860D01*
X96989059Y-104747860D01*
G37*
G36*
X135570499Y-104126445D02*
G01*
X135607995Y-104137820D01*
X135642554Y-104156292D01*
X135672847Y-104181153D01*
X135697708Y-104211446D01*
X135716180Y-104246005D01*
X135727555Y-104283501D01*
X135732000Y-104328638D01*
X135732000Y-104967362D01*
X135727555Y-105012499D01*
X135716180Y-105049995D01*
X135697708Y-105084554D01*
X135672847Y-105114847D01*
X135642554Y-105139708D01*
X135607995Y-105158180D01*
X135570499Y-105169555D01*
X135525362Y-105174000D01*
X134786638Y-105174000D01*
X134741501Y-105169555D01*
X134704005Y-105158180D01*
X134669446Y-105139708D01*
X134639153Y-105114847D01*
X134614292Y-105084554D01*
X134595820Y-105049995D01*
X134584445Y-105012499D01*
X134580000Y-104967362D01*
X134580000Y-104328638D01*
X134584445Y-104283501D01*
X134595820Y-104246005D01*
X134614292Y-104211446D01*
X134639153Y-104181153D01*
X134669446Y-104156292D01*
X134704005Y-104137820D01*
X134741501Y-104126445D01*
X134786638Y-104122000D01*
X135525362Y-104122000D01*
X135570499Y-104126445D01*
X135570499Y-104126445D01*
G37*
G36*
X137320499Y-104126445D02*
G01*
X137357995Y-104137820D01*
X137392554Y-104156292D01*
X137422847Y-104181153D01*
X137447708Y-104211446D01*
X137466180Y-104246005D01*
X137477555Y-104283501D01*
X137482000Y-104328638D01*
X137482000Y-104967362D01*
X137477555Y-105012499D01*
X137466180Y-105049995D01*
X137447708Y-105084554D01*
X137422847Y-105114847D01*
X137392554Y-105139708D01*
X137357995Y-105158180D01*
X137320499Y-105169555D01*
X137275362Y-105174000D01*
X136536638Y-105174000D01*
X136491501Y-105169555D01*
X136454005Y-105158180D01*
X136419446Y-105139708D01*
X136389153Y-105114847D01*
X136364292Y-105084554D01*
X136345820Y-105049995D01*
X136334445Y-105012499D01*
X136330000Y-104967362D01*
X136330000Y-104328638D01*
X136334445Y-104283501D01*
X136345820Y-104246005D01*
X136364292Y-104211446D01*
X136389153Y-104181153D01*
X136419446Y-104156292D01*
X136454005Y-104137820D01*
X136491501Y-104126445D01*
X136536638Y-104122000D01*
X137275362Y-104122000D01*
X137320499Y-104126445D01*
X137320499Y-104126445D01*
G37*
G36*
X117681934Y-102207671D02*
G01*
X117711877Y-102216754D01*
X117739465Y-102231500D01*
X117763651Y-102251349D01*
X117783500Y-102275535D01*
X117798246Y-102303123D01*
X117807329Y-102333066D01*
X117811000Y-102370340D01*
X117811000Y-104639660D01*
X117807329Y-104676934D01*
X117798246Y-104706877D01*
X117783500Y-104734465D01*
X117763651Y-104758651D01*
X117739465Y-104778500D01*
X117711877Y-104793246D01*
X117681934Y-104802329D01*
X117644660Y-104806000D01*
X113875340Y-104806000D01*
X113838066Y-104802329D01*
X113808123Y-104793246D01*
X113780535Y-104778500D01*
X113756349Y-104758651D01*
X113736500Y-104734465D01*
X113721754Y-104706877D01*
X113712671Y-104676934D01*
X113709000Y-104639660D01*
X113709000Y-102370340D01*
X113712671Y-102333066D01*
X113721754Y-102303123D01*
X113736500Y-102275535D01*
X113756349Y-102251349D01*
X113780535Y-102231500D01*
X113808123Y-102216754D01*
X113838066Y-102207671D01*
X113875340Y-102204000D01*
X117644660Y-102204000D01*
X117681934Y-102207671D01*
X117681934Y-102207671D01*
G37*
G36*
X109681934Y-102207671D02*
G01*
X109711877Y-102216754D01*
X109739465Y-102231500D01*
X109763651Y-102251349D01*
X109783500Y-102275535D01*
X109798246Y-102303123D01*
X109807329Y-102333066D01*
X109811000Y-102370340D01*
X109811000Y-104639660D01*
X109807329Y-104676934D01*
X109798246Y-104706877D01*
X109783500Y-104734465D01*
X109763651Y-104758651D01*
X109739465Y-104778500D01*
X109711877Y-104793246D01*
X109681934Y-104802329D01*
X109644660Y-104806000D01*
X105875340Y-104806000D01*
X105838066Y-104802329D01*
X105808123Y-104793246D01*
X105780535Y-104778500D01*
X105756349Y-104758651D01*
X105736500Y-104734465D01*
X105721754Y-104706877D01*
X105712671Y-104676934D01*
X105709000Y-104639660D01*
X105709000Y-102370340D01*
X105712671Y-102333066D01*
X105721754Y-102303123D01*
X105736500Y-102275535D01*
X105756349Y-102251349D01*
X105780535Y-102231500D01*
X105808123Y-102216754D01*
X105838066Y-102207671D01*
X105875340Y-102204000D01*
X109644660Y-102204000D01*
X109681934Y-102207671D01*
X109681934Y-102207671D01*
G37*
G36*
X132758000Y-104801000D02*
G01*
X131206000Y-104801000D01*
X131206000Y-98399000D01*
X132758000Y-98399000D01*
X132758000Y-104801000D01*
X132758000Y-104801000D01*
G37*
G36*
X126858000Y-104801000D02*
G01*
X125306000Y-104801000D01*
X125306000Y-98399000D01*
X126858000Y-98399000D01*
X126858000Y-104801000D01*
X126858000Y-104801000D01*
G37*
G36*
X98899059Y-102837860D02*
G01*
X98998380Y-102879000D01*
X99035732Y-102894472D01*
X99158735Y-102976660D01*
X99263340Y-103081265D01*
X99336456Y-103190691D01*
X99345529Y-103204270D01*
X99402140Y-103340941D01*
X99431000Y-103486032D01*
X99431000Y-103633968D01*
X99402140Y-103779059D01*
X99364679Y-103869499D01*
X99345528Y-103915732D01*
X99263340Y-104038735D01*
X99158735Y-104143340D01*
X99035732Y-104225528D01*
X99035731Y-104225529D01*
X99035730Y-104225529D01*
X98899059Y-104282140D01*
X98753968Y-104311000D01*
X98606032Y-104311000D01*
X98460941Y-104282140D01*
X98324270Y-104225529D01*
X98324269Y-104225529D01*
X98324268Y-104225528D01*
X98201265Y-104143340D01*
X98096660Y-104038735D01*
X98014472Y-103915732D01*
X97995322Y-103869499D01*
X97957860Y-103779059D01*
X97929000Y-103633968D01*
X97929000Y-103486032D01*
X97957860Y-103340941D01*
X98014471Y-103204270D01*
X98023544Y-103190691D01*
X98096660Y-103081265D01*
X98201265Y-102976660D01*
X98324268Y-102894472D01*
X98361621Y-102879000D01*
X98460941Y-102837860D01*
X98606032Y-102809000D01*
X98753968Y-102809000D01*
X98899059Y-102837860D01*
X98899059Y-102837860D01*
G37*
G36*
X100809059Y-102837860D02*
G01*
X100908380Y-102879000D01*
X100945732Y-102894472D01*
X101068735Y-102976660D01*
X101173340Y-103081265D01*
X101246456Y-103190691D01*
X101255529Y-103204270D01*
X101312140Y-103340941D01*
X101341000Y-103486032D01*
X101341000Y-103633968D01*
X101312140Y-103779059D01*
X101274679Y-103869499D01*
X101255528Y-103915732D01*
X101173340Y-104038735D01*
X101068735Y-104143340D01*
X100945732Y-104225528D01*
X100945731Y-104225529D01*
X100945730Y-104225529D01*
X100809059Y-104282140D01*
X100663968Y-104311000D01*
X100516032Y-104311000D01*
X100370941Y-104282140D01*
X100234270Y-104225529D01*
X100234269Y-104225529D01*
X100234268Y-104225528D01*
X100111265Y-104143340D01*
X100006660Y-104038735D01*
X99924472Y-103915732D01*
X99905322Y-103869499D01*
X99867860Y-103779059D01*
X99839000Y-103633968D01*
X99839000Y-103486032D01*
X99867860Y-103340941D01*
X99924471Y-103204270D01*
X99933544Y-103190691D01*
X100006660Y-103081265D01*
X100111265Y-102976660D01*
X100234268Y-102894472D01*
X100271621Y-102879000D01*
X100370941Y-102837860D01*
X100516032Y-102809000D01*
X100663968Y-102809000D01*
X100809059Y-102837860D01*
X100809059Y-102837860D01*
G37*
G36*
X96989059Y-102837860D02*
G01*
X97088380Y-102879000D01*
X97125732Y-102894472D01*
X97248735Y-102976660D01*
X97353340Y-103081265D01*
X97426456Y-103190691D01*
X97435529Y-103204270D01*
X97492140Y-103340941D01*
X97521000Y-103486032D01*
X97521000Y-103633968D01*
X97492140Y-103779059D01*
X97454679Y-103869499D01*
X97435528Y-103915732D01*
X97353340Y-104038735D01*
X97248735Y-104143340D01*
X97125732Y-104225528D01*
X97125731Y-104225529D01*
X97125730Y-104225529D01*
X96989059Y-104282140D01*
X96843968Y-104311000D01*
X96696032Y-104311000D01*
X96550941Y-104282140D01*
X96414270Y-104225529D01*
X96414269Y-104225529D01*
X96414268Y-104225528D01*
X96291265Y-104143340D01*
X96186660Y-104038735D01*
X96104472Y-103915732D01*
X96085322Y-103869499D01*
X96047860Y-103779059D01*
X96019000Y-103633968D01*
X96019000Y-103486032D01*
X96047860Y-103340941D01*
X96104471Y-103204270D01*
X96113544Y-103190691D01*
X96186660Y-103081265D01*
X96291265Y-102976660D01*
X96414268Y-102894472D01*
X96451621Y-102879000D01*
X96550941Y-102837860D01*
X96696032Y-102809000D01*
X96843968Y-102809000D01*
X96989059Y-102837860D01*
X96989059Y-102837860D01*
G37*
G36*
X120584499Y-102983445D02*
G01*
X120621995Y-102994820D01*
X120656554Y-103013292D01*
X120686847Y-103038153D01*
X120711708Y-103068446D01*
X120730180Y-103103005D01*
X120741555Y-103140501D01*
X120746000Y-103185638D01*
X120746000Y-103824362D01*
X120741555Y-103869499D01*
X120730180Y-103906995D01*
X120711708Y-103941554D01*
X120686847Y-103971847D01*
X120656554Y-103996708D01*
X120621995Y-104015180D01*
X120584499Y-104026555D01*
X120539362Y-104031000D01*
X119800638Y-104031000D01*
X119755501Y-104026555D01*
X119718005Y-104015180D01*
X119683446Y-103996708D01*
X119653153Y-103971847D01*
X119628292Y-103941554D01*
X119609820Y-103906995D01*
X119598445Y-103869499D01*
X119594000Y-103824362D01*
X119594000Y-103185638D01*
X119598445Y-103140501D01*
X119609820Y-103103005D01*
X119628292Y-103068446D01*
X119653153Y-103038153D01*
X119683446Y-103013292D01*
X119718005Y-102994820D01*
X119755501Y-102983445D01*
X119800638Y-102979000D01*
X120539362Y-102979000D01*
X120584499Y-102983445D01*
X120584499Y-102983445D01*
G37*
G36*
X122334499Y-102983445D02*
G01*
X122371995Y-102994820D01*
X122406554Y-103013292D01*
X122436847Y-103038153D01*
X122461708Y-103068446D01*
X122480180Y-103103005D01*
X122491555Y-103140501D01*
X122496000Y-103185638D01*
X122496000Y-103824362D01*
X122491555Y-103869499D01*
X122480180Y-103906995D01*
X122461708Y-103941554D01*
X122436847Y-103971847D01*
X122406554Y-103996708D01*
X122371995Y-104015180D01*
X122334499Y-104026555D01*
X122289362Y-104031000D01*
X121550638Y-104031000D01*
X121505501Y-104026555D01*
X121468005Y-104015180D01*
X121433446Y-103996708D01*
X121403153Y-103971847D01*
X121378292Y-103941554D01*
X121359820Y-103906995D01*
X121348445Y-103869499D01*
X121344000Y-103824362D01*
X121344000Y-103185638D01*
X121348445Y-103140501D01*
X121359820Y-103103005D01*
X121378292Y-103068446D01*
X121403153Y-103038153D01*
X121433446Y-103013292D01*
X121468005Y-102994820D01*
X121505501Y-102983445D01*
X121550638Y-102979000D01*
X122289362Y-102979000D01*
X122334499Y-102983445D01*
X122334499Y-102983445D01*
G37*
G36*
X137320499Y-102094445D02*
G01*
X137357995Y-102105820D01*
X137392554Y-102124292D01*
X137422847Y-102149153D01*
X137447708Y-102179446D01*
X137466180Y-102214005D01*
X137477555Y-102251501D01*
X137482000Y-102296638D01*
X137482000Y-102935362D01*
X137477555Y-102980499D01*
X137466180Y-103017995D01*
X137447708Y-103052554D01*
X137422847Y-103082847D01*
X137392554Y-103107708D01*
X137357995Y-103126180D01*
X137320499Y-103137555D01*
X137275362Y-103142000D01*
X136536638Y-103142000D01*
X136491501Y-103137555D01*
X136454005Y-103126180D01*
X136419446Y-103107708D01*
X136389153Y-103082847D01*
X136364292Y-103052554D01*
X136345820Y-103017995D01*
X136334445Y-102980499D01*
X136330000Y-102935362D01*
X136330000Y-102296638D01*
X136334445Y-102251501D01*
X136345820Y-102214005D01*
X136364292Y-102179446D01*
X136389153Y-102149153D01*
X136419446Y-102124292D01*
X136454005Y-102105820D01*
X136491501Y-102094445D01*
X136536638Y-102090000D01*
X137275362Y-102090000D01*
X137320499Y-102094445D01*
X137320499Y-102094445D01*
G37*
G36*
X135570499Y-102094445D02*
G01*
X135607995Y-102105820D01*
X135642554Y-102124292D01*
X135672847Y-102149153D01*
X135697708Y-102179446D01*
X135716180Y-102214005D01*
X135727555Y-102251501D01*
X135732000Y-102296638D01*
X135732000Y-102935362D01*
X135727555Y-102980499D01*
X135716180Y-103017995D01*
X135697708Y-103052554D01*
X135672847Y-103082847D01*
X135642554Y-103107708D01*
X135607995Y-103126180D01*
X135570499Y-103137555D01*
X135525362Y-103142000D01*
X134786638Y-103142000D01*
X134741501Y-103137555D01*
X134704005Y-103126180D01*
X134669446Y-103107708D01*
X134639153Y-103082847D01*
X134614292Y-103052554D01*
X134595820Y-103017995D01*
X134584445Y-102980499D01*
X134580000Y-102935362D01*
X134580000Y-102296638D01*
X134584445Y-102251501D01*
X134595820Y-102214005D01*
X134614292Y-102179446D01*
X134639153Y-102149153D01*
X134669446Y-102124292D01*
X134704005Y-102105820D01*
X134741501Y-102094445D01*
X134786638Y-102090000D01*
X135525362Y-102090000D01*
X135570499Y-102094445D01*
X135570499Y-102094445D01*
G37*
G36*
X100809059Y-100927860D02*
G01*
X100856827Y-100947646D01*
X100945732Y-100984472D01*
X101068735Y-101066660D01*
X101173340Y-101171265D01*
X101255528Y-101294268D01*
X101312140Y-101430941D01*
X101341000Y-101576033D01*
X101341000Y-101723967D01*
X101312140Y-101869059D01*
X101255528Y-102005732D01*
X101173340Y-102128735D01*
X101068735Y-102233340D01*
X100945732Y-102315528D01*
X100945731Y-102315529D01*
X100945730Y-102315529D01*
X100809059Y-102372140D01*
X100663968Y-102401000D01*
X100516032Y-102401000D01*
X100370941Y-102372140D01*
X100234270Y-102315529D01*
X100234269Y-102315529D01*
X100234268Y-102315528D01*
X100111265Y-102233340D01*
X100006660Y-102128735D01*
X99924472Y-102005732D01*
X99867860Y-101869059D01*
X99839000Y-101723967D01*
X99839000Y-101576033D01*
X99867860Y-101430941D01*
X99924472Y-101294268D01*
X100006660Y-101171265D01*
X100111265Y-101066660D01*
X100234268Y-100984472D01*
X100323174Y-100947646D01*
X100370941Y-100927860D01*
X100516032Y-100899000D01*
X100663968Y-100899000D01*
X100809059Y-100927860D01*
X100809059Y-100927860D01*
G37*
G36*
X96989059Y-100927860D02*
G01*
X97036827Y-100947646D01*
X97125732Y-100984472D01*
X97248735Y-101066660D01*
X97353340Y-101171265D01*
X97435528Y-101294268D01*
X97492140Y-101430941D01*
X97521000Y-101576033D01*
X97521000Y-101723967D01*
X97492140Y-101869059D01*
X97435528Y-102005732D01*
X97353340Y-102128735D01*
X97248735Y-102233340D01*
X97125732Y-102315528D01*
X97125731Y-102315529D01*
X97125730Y-102315529D01*
X96989059Y-102372140D01*
X96843968Y-102401000D01*
X96696032Y-102401000D01*
X96550941Y-102372140D01*
X96414270Y-102315529D01*
X96414269Y-102315529D01*
X96414268Y-102315528D01*
X96291265Y-102233340D01*
X96186660Y-102128735D01*
X96104472Y-102005732D01*
X96047860Y-101869059D01*
X96019000Y-101723967D01*
X96019000Y-101576033D01*
X96047860Y-101430941D01*
X96104472Y-101294268D01*
X96186660Y-101171265D01*
X96291265Y-101066660D01*
X96414268Y-100984472D01*
X96503174Y-100947646D01*
X96550941Y-100927860D01*
X96696032Y-100899000D01*
X96843968Y-100899000D01*
X96989059Y-100927860D01*
X96989059Y-100927860D01*
G37*
G36*
X98899059Y-100927860D02*
G01*
X98946827Y-100947646D01*
X99035732Y-100984472D01*
X99158735Y-101066660D01*
X99263340Y-101171265D01*
X99345528Y-101294268D01*
X99402140Y-101430941D01*
X99431000Y-101576033D01*
X99431000Y-101723967D01*
X99402140Y-101869059D01*
X99345528Y-102005732D01*
X99263340Y-102128735D01*
X99158735Y-102233340D01*
X99035732Y-102315528D01*
X99035731Y-102315529D01*
X99035730Y-102315529D01*
X98899059Y-102372140D01*
X98753968Y-102401000D01*
X98606032Y-102401000D01*
X98460941Y-102372140D01*
X98324270Y-102315529D01*
X98324269Y-102315529D01*
X98324268Y-102315528D01*
X98201265Y-102233340D01*
X98096660Y-102128735D01*
X98014472Y-102005732D01*
X97957860Y-101869059D01*
X97929000Y-101723967D01*
X97929000Y-101576033D01*
X97957860Y-101430941D01*
X98014472Y-101294268D01*
X98096660Y-101171265D01*
X98201265Y-101066660D01*
X98324268Y-100984472D01*
X98413174Y-100947646D01*
X98460941Y-100927860D01*
X98606032Y-100899000D01*
X98753968Y-100899000D01*
X98899059Y-100927860D01*
X98899059Y-100927860D01*
G37*
G36*
X137320499Y-100062445D02*
G01*
X137357995Y-100073820D01*
X137392554Y-100092292D01*
X137422847Y-100117153D01*
X137447708Y-100147446D01*
X137466180Y-100182005D01*
X137477555Y-100219501D01*
X137482000Y-100264638D01*
X137482000Y-100903362D01*
X137477555Y-100948499D01*
X137466180Y-100985995D01*
X137447708Y-101020554D01*
X137422847Y-101050847D01*
X137392554Y-101075708D01*
X137357995Y-101094180D01*
X137320499Y-101105555D01*
X137275362Y-101110000D01*
X136536638Y-101110000D01*
X136491501Y-101105555D01*
X136454005Y-101094180D01*
X136419446Y-101075708D01*
X136389153Y-101050847D01*
X136364292Y-101020554D01*
X136345820Y-100985995D01*
X136334445Y-100948499D01*
X136330000Y-100903362D01*
X136330000Y-100264638D01*
X136334445Y-100219501D01*
X136345820Y-100182005D01*
X136364292Y-100147446D01*
X136389153Y-100117153D01*
X136419446Y-100092292D01*
X136454005Y-100073820D01*
X136491501Y-100062445D01*
X136536638Y-100058000D01*
X137275362Y-100058000D01*
X137320499Y-100062445D01*
X137320499Y-100062445D01*
G37*
G36*
X135570499Y-100062445D02*
G01*
X135607995Y-100073820D01*
X135642554Y-100092292D01*
X135672847Y-100117153D01*
X135697708Y-100147446D01*
X135716180Y-100182005D01*
X135727555Y-100219501D01*
X135732000Y-100264638D01*
X135732000Y-100903362D01*
X135727555Y-100948499D01*
X135716180Y-100985995D01*
X135697708Y-101020554D01*
X135672847Y-101050847D01*
X135642554Y-101075708D01*
X135607995Y-101094180D01*
X135570499Y-101105555D01*
X135525362Y-101110000D01*
X134786638Y-101110000D01*
X134741501Y-101105555D01*
X134704005Y-101094180D01*
X134669446Y-101075708D01*
X134639153Y-101050847D01*
X134614292Y-101020554D01*
X134595820Y-100985995D01*
X134584445Y-100948499D01*
X134580000Y-100903362D01*
X134580000Y-100264638D01*
X134584445Y-100219501D01*
X134595820Y-100182005D01*
X134614292Y-100147446D01*
X134639153Y-100117153D01*
X134669446Y-100092292D01*
X134704005Y-100073820D01*
X134741501Y-100062445D01*
X134786638Y-100058000D01*
X135525362Y-100058000D01*
X135570499Y-100062445D01*
X135570499Y-100062445D01*
G37*
G36*
X158858254Y-96522818D02*
G01*
X159197893Y-96663501D01*
X159231513Y-96677427D01*
X159567436Y-96901884D01*
X159853116Y-97187564D01*
X160046491Y-97476969D01*
X160077574Y-97523489D01*
X160232182Y-97896746D01*
X160311000Y-98292993D01*
X160311000Y-98697007D01*
X160232182Y-99093254D01*
X160111640Y-99384268D01*
X160077573Y-99466513D01*
X159853116Y-99802436D01*
X159567436Y-100088116D01*
X159231513Y-100312573D01*
X159231512Y-100312574D01*
X159231511Y-100312574D01*
X158858254Y-100467182D01*
X158462007Y-100546000D01*
X158057993Y-100546000D01*
X157661746Y-100467182D01*
X157288489Y-100312574D01*
X157288488Y-100312574D01*
X157288487Y-100312573D01*
X156952564Y-100088116D01*
X156666884Y-99802436D01*
X156442427Y-99466513D01*
X156408360Y-99384268D01*
X156287818Y-99093254D01*
X156209000Y-98697007D01*
X156209000Y-98292993D01*
X156287818Y-97896746D01*
X156442426Y-97523489D01*
X156473510Y-97476969D01*
X156666884Y-97187564D01*
X156952564Y-96901884D01*
X157288487Y-96677427D01*
X157322107Y-96663501D01*
X157661746Y-96522818D01*
X158057993Y-96444000D01*
X158462007Y-96444000D01*
X158858254Y-96522818D01*
X158858254Y-96522818D01*
G37*
G36*
X98899059Y-99017860D02*
G01*
X99033519Y-99073555D01*
X99035732Y-99074472D01*
X99158735Y-99156660D01*
X99263340Y-99261265D01*
X99263341Y-99261267D01*
X99345529Y-99384270D01*
X99402140Y-99520941D01*
X99424502Y-99633362D01*
X99431000Y-99666033D01*
X99431000Y-99813967D01*
X99402140Y-99959059D01*
X99345528Y-100095732D01*
X99263340Y-100218735D01*
X99158735Y-100323340D01*
X99035732Y-100405528D01*
X99035731Y-100405529D01*
X99035730Y-100405529D01*
X98899059Y-100462140D01*
X98753968Y-100491000D01*
X98606032Y-100491000D01*
X98460941Y-100462140D01*
X98324270Y-100405529D01*
X98324269Y-100405529D01*
X98324268Y-100405528D01*
X98201265Y-100323340D01*
X98096660Y-100218735D01*
X98014472Y-100095732D01*
X97957860Y-99959059D01*
X97929000Y-99813967D01*
X97929000Y-99666033D01*
X97935499Y-99633362D01*
X97957860Y-99520941D01*
X98014471Y-99384270D01*
X98096659Y-99261267D01*
X98096660Y-99261265D01*
X98201265Y-99156660D01*
X98324268Y-99074472D01*
X98326482Y-99073555D01*
X98460941Y-99017860D01*
X98606032Y-98989000D01*
X98753968Y-98989000D01*
X98899059Y-99017860D01*
X98899059Y-99017860D01*
G37*
G36*
X100809059Y-99017860D02*
G01*
X100943519Y-99073555D01*
X100945732Y-99074472D01*
X101068735Y-99156660D01*
X101173340Y-99261265D01*
X101173341Y-99261267D01*
X101255529Y-99384270D01*
X101312140Y-99520941D01*
X101334502Y-99633362D01*
X101341000Y-99666033D01*
X101341000Y-99813967D01*
X101312140Y-99959059D01*
X101255528Y-100095732D01*
X101173340Y-100218735D01*
X101068735Y-100323340D01*
X100945732Y-100405528D01*
X100945731Y-100405529D01*
X100945730Y-100405529D01*
X100809059Y-100462140D01*
X100663968Y-100491000D01*
X100516032Y-100491000D01*
X100370941Y-100462140D01*
X100234270Y-100405529D01*
X100234269Y-100405529D01*
X100234268Y-100405528D01*
X100111265Y-100323340D01*
X100006660Y-100218735D01*
X99924472Y-100095732D01*
X99867860Y-99959059D01*
X99839000Y-99813967D01*
X99839000Y-99666033D01*
X99845499Y-99633362D01*
X99867860Y-99520941D01*
X99924471Y-99384270D01*
X100006659Y-99261267D01*
X100006660Y-99261265D01*
X100111265Y-99156660D01*
X100234268Y-99074472D01*
X100236482Y-99073555D01*
X100370941Y-99017860D01*
X100516032Y-98989000D01*
X100663968Y-98989000D01*
X100809059Y-99017860D01*
X100809059Y-99017860D01*
G37*
G36*
X96989059Y-99017860D02*
G01*
X97123519Y-99073555D01*
X97125732Y-99074472D01*
X97248735Y-99156660D01*
X97353340Y-99261265D01*
X97353341Y-99261267D01*
X97435529Y-99384270D01*
X97492140Y-99520941D01*
X97514502Y-99633362D01*
X97521000Y-99666033D01*
X97521000Y-99813967D01*
X97492140Y-99959059D01*
X97435528Y-100095732D01*
X97353340Y-100218735D01*
X97248735Y-100323340D01*
X97125732Y-100405528D01*
X97125731Y-100405529D01*
X97125730Y-100405529D01*
X96989059Y-100462140D01*
X96843968Y-100491000D01*
X96696032Y-100491000D01*
X96550941Y-100462140D01*
X96414270Y-100405529D01*
X96414269Y-100405529D01*
X96414268Y-100405528D01*
X96291265Y-100323340D01*
X96186660Y-100218735D01*
X96104472Y-100095732D01*
X96047860Y-99959059D01*
X96019000Y-99813967D01*
X96019000Y-99666033D01*
X96025499Y-99633362D01*
X96047860Y-99520941D01*
X96104471Y-99384270D01*
X96186659Y-99261267D01*
X96186660Y-99261265D01*
X96291265Y-99156660D01*
X96414268Y-99074472D01*
X96416482Y-99073555D01*
X96550941Y-99017860D01*
X96696032Y-98989000D01*
X96843968Y-98989000D01*
X96989059Y-99017860D01*
X96989059Y-99017860D01*
G37*
G36*
X147734499Y-98792445D02*
G01*
X147771995Y-98803820D01*
X147806554Y-98822292D01*
X147836847Y-98847153D01*
X147861708Y-98877446D01*
X147880180Y-98912005D01*
X147891555Y-98949501D01*
X147896000Y-98994638D01*
X147896000Y-99633362D01*
X147891555Y-99678499D01*
X147880180Y-99715995D01*
X147861708Y-99750554D01*
X147836847Y-99780847D01*
X147806554Y-99805708D01*
X147771995Y-99824180D01*
X147734499Y-99835555D01*
X147689362Y-99840000D01*
X146950638Y-99840000D01*
X146905501Y-99835555D01*
X146868005Y-99824180D01*
X146833446Y-99805708D01*
X146803153Y-99780847D01*
X146778292Y-99750554D01*
X146759820Y-99715995D01*
X146748445Y-99678499D01*
X146744000Y-99633362D01*
X146744000Y-98994638D01*
X146748445Y-98949501D01*
X146759820Y-98912005D01*
X146778292Y-98877446D01*
X146803153Y-98847153D01*
X146833446Y-98822292D01*
X146868005Y-98803820D01*
X146905501Y-98792445D01*
X146950638Y-98788000D01*
X147689362Y-98788000D01*
X147734499Y-98792445D01*
X147734499Y-98792445D01*
G37*
G36*
X149484499Y-98792445D02*
G01*
X149521995Y-98803820D01*
X149556554Y-98822292D01*
X149586847Y-98847153D01*
X149611708Y-98877446D01*
X149630180Y-98912005D01*
X149641555Y-98949501D01*
X149646000Y-98994638D01*
X149646000Y-99633362D01*
X149641555Y-99678499D01*
X149630180Y-99715995D01*
X149611708Y-99750554D01*
X149586847Y-99780847D01*
X149556554Y-99805708D01*
X149521995Y-99824180D01*
X149484499Y-99835555D01*
X149439362Y-99840000D01*
X148700638Y-99840000D01*
X148655501Y-99835555D01*
X148618005Y-99824180D01*
X148583446Y-99805708D01*
X148553153Y-99780847D01*
X148528292Y-99750554D01*
X148509820Y-99715995D01*
X148498445Y-99678499D01*
X148494000Y-99633362D01*
X148494000Y-98994638D01*
X148498445Y-98949501D01*
X148509820Y-98912005D01*
X148528292Y-98877446D01*
X148553153Y-98847153D01*
X148583446Y-98822292D01*
X148618005Y-98803820D01*
X148655501Y-98792445D01*
X148700638Y-98788000D01*
X149439362Y-98788000D01*
X149484499Y-98792445D01*
X149484499Y-98792445D01*
G37*
G36*
X135542499Y-98030445D02*
G01*
X135579995Y-98041820D01*
X135614554Y-98060292D01*
X135644847Y-98085153D01*
X135669708Y-98115446D01*
X135688180Y-98150005D01*
X135699555Y-98187501D01*
X135704000Y-98232638D01*
X135704000Y-98871362D01*
X135699555Y-98916499D01*
X135688180Y-98953995D01*
X135669708Y-98988554D01*
X135644847Y-99018847D01*
X135614554Y-99043708D01*
X135579995Y-99062180D01*
X135542499Y-99073555D01*
X135497362Y-99078000D01*
X134758638Y-99078000D01*
X134713501Y-99073555D01*
X134676005Y-99062180D01*
X134641446Y-99043708D01*
X134611153Y-99018847D01*
X134586292Y-98988554D01*
X134567820Y-98953995D01*
X134556445Y-98916499D01*
X134552000Y-98871362D01*
X134552000Y-98232638D01*
X134556445Y-98187501D01*
X134567820Y-98150005D01*
X134586292Y-98115446D01*
X134611153Y-98085153D01*
X134641446Y-98060292D01*
X134676005Y-98041820D01*
X134713501Y-98030445D01*
X134758638Y-98026000D01*
X135497362Y-98026000D01*
X135542499Y-98030445D01*
X135542499Y-98030445D01*
G37*
G36*
X137292499Y-98030445D02*
G01*
X137329995Y-98041820D01*
X137364554Y-98060292D01*
X137394847Y-98085153D01*
X137419708Y-98115446D01*
X137438180Y-98150005D01*
X137449555Y-98187501D01*
X137454000Y-98232638D01*
X137454000Y-98871362D01*
X137449555Y-98916499D01*
X137438180Y-98953995D01*
X137419708Y-98988554D01*
X137394847Y-99018847D01*
X137364554Y-99043708D01*
X137329995Y-99062180D01*
X137292499Y-99073555D01*
X137247362Y-99078000D01*
X136508638Y-99078000D01*
X136463501Y-99073555D01*
X136426005Y-99062180D01*
X136391446Y-99043708D01*
X136361153Y-99018847D01*
X136336292Y-98988554D01*
X136317820Y-98953995D01*
X136306445Y-98916499D01*
X136302000Y-98871362D01*
X136302000Y-98232638D01*
X136306445Y-98187501D01*
X136317820Y-98150005D01*
X136336292Y-98115446D01*
X136361153Y-98085153D01*
X136391446Y-98060292D01*
X136426005Y-98041820D01*
X136463501Y-98030445D01*
X136508638Y-98026000D01*
X137247362Y-98026000D01*
X137292499Y-98030445D01*
X137292499Y-98030445D01*
G37*
G36*
X96904030Y-97090947D02*
G01*
X96989059Y-97107860D01*
X97125732Y-97164472D01*
X97248735Y-97246660D01*
X97353340Y-97351265D01*
X97435528Y-97474268D01*
X97435529Y-97474270D01*
X97492140Y-97610941D01*
X97521000Y-97756032D01*
X97521000Y-97903968D01*
X97495722Y-98031053D01*
X97492140Y-98049059D01*
X97435528Y-98185732D01*
X97353340Y-98308735D01*
X97248735Y-98413340D01*
X97125732Y-98495528D01*
X97125731Y-98495529D01*
X97125730Y-98495529D01*
X96989059Y-98552140D01*
X96843968Y-98581000D01*
X96696032Y-98581000D01*
X96550941Y-98552140D01*
X96414270Y-98495529D01*
X96414269Y-98495529D01*
X96414268Y-98495528D01*
X96291265Y-98413340D01*
X96186660Y-98308735D01*
X96104472Y-98185732D01*
X96047860Y-98049059D01*
X96044278Y-98031053D01*
X96019000Y-97903968D01*
X96019000Y-97756032D01*
X96047860Y-97610941D01*
X96104471Y-97474270D01*
X96104472Y-97474268D01*
X96186660Y-97351265D01*
X96291265Y-97246660D01*
X96414268Y-97164472D01*
X96550941Y-97107860D01*
X96635970Y-97090947D01*
X96696032Y-97079000D01*
X96843968Y-97079000D01*
X96904030Y-97090947D01*
X96904030Y-97090947D01*
G37*
G36*
X98814030Y-97090947D02*
G01*
X98899059Y-97107860D01*
X99035732Y-97164472D01*
X99158735Y-97246660D01*
X99263340Y-97351265D01*
X99345528Y-97474268D01*
X99345529Y-97474270D01*
X99402140Y-97610941D01*
X99431000Y-97756032D01*
X99431000Y-97903968D01*
X99405722Y-98031053D01*
X99402140Y-98049059D01*
X99345528Y-98185732D01*
X99263340Y-98308735D01*
X99158735Y-98413340D01*
X99035732Y-98495528D01*
X99035731Y-98495529D01*
X99035730Y-98495529D01*
X98899059Y-98552140D01*
X98753968Y-98581000D01*
X98606032Y-98581000D01*
X98460941Y-98552140D01*
X98324270Y-98495529D01*
X98324269Y-98495529D01*
X98324268Y-98495528D01*
X98201265Y-98413340D01*
X98096660Y-98308735D01*
X98014472Y-98185732D01*
X97957860Y-98049059D01*
X97954278Y-98031053D01*
X97929000Y-97903968D01*
X97929000Y-97756032D01*
X97957860Y-97610941D01*
X98014471Y-97474270D01*
X98014472Y-97474268D01*
X98096660Y-97351265D01*
X98201265Y-97246660D01*
X98324268Y-97164472D01*
X98460941Y-97107860D01*
X98545970Y-97090947D01*
X98606032Y-97079000D01*
X98753968Y-97079000D01*
X98814030Y-97090947D01*
X98814030Y-97090947D01*
G37*
G36*
X100724030Y-97090947D02*
G01*
X100809059Y-97107860D01*
X100945732Y-97164472D01*
X101068735Y-97246660D01*
X101173340Y-97351265D01*
X101255528Y-97474268D01*
X101255529Y-97474270D01*
X101312140Y-97610941D01*
X101341000Y-97756032D01*
X101341000Y-97903968D01*
X101315722Y-98031053D01*
X101312140Y-98049059D01*
X101255528Y-98185732D01*
X101173340Y-98308735D01*
X101068735Y-98413340D01*
X100945732Y-98495528D01*
X100945731Y-98495529D01*
X100945730Y-98495529D01*
X100809059Y-98552140D01*
X100663968Y-98581000D01*
X100516032Y-98581000D01*
X100370941Y-98552140D01*
X100234270Y-98495529D01*
X100234269Y-98495529D01*
X100234268Y-98495528D01*
X100111265Y-98413340D01*
X100006660Y-98308735D01*
X99924472Y-98185732D01*
X99867860Y-98049059D01*
X99864278Y-98031053D01*
X99839000Y-97903968D01*
X99839000Y-97756032D01*
X99867860Y-97610941D01*
X99924471Y-97474270D01*
X99924472Y-97474268D01*
X100006660Y-97351265D01*
X100111265Y-97246660D01*
X100234268Y-97164472D01*
X100370941Y-97107860D01*
X100455970Y-97090947D01*
X100516032Y-97079000D01*
X100663968Y-97079000D01*
X100724030Y-97090947D01*
X100724030Y-97090947D01*
G37*
G36*
X147734499Y-97268445D02*
G01*
X147771995Y-97279820D01*
X147806554Y-97298292D01*
X147836847Y-97323153D01*
X147861708Y-97353446D01*
X147880180Y-97388005D01*
X147891555Y-97425501D01*
X147896000Y-97470638D01*
X147896000Y-98109362D01*
X147891555Y-98154499D01*
X147880180Y-98191995D01*
X147861708Y-98226554D01*
X147836847Y-98256847D01*
X147806554Y-98281708D01*
X147771995Y-98300180D01*
X147734499Y-98311555D01*
X147689362Y-98316000D01*
X146950638Y-98316000D01*
X146905501Y-98311555D01*
X146868005Y-98300180D01*
X146833446Y-98281708D01*
X146803153Y-98256847D01*
X146778292Y-98226554D01*
X146759820Y-98191995D01*
X146748445Y-98154499D01*
X146744000Y-98109362D01*
X146744000Y-97470638D01*
X146748445Y-97425501D01*
X146759820Y-97388005D01*
X146778292Y-97353446D01*
X146803153Y-97323153D01*
X146833446Y-97298292D01*
X146868005Y-97279820D01*
X146905501Y-97268445D01*
X146950638Y-97264000D01*
X147689362Y-97264000D01*
X147734499Y-97268445D01*
X147734499Y-97268445D01*
G37*
G36*
X149484499Y-97268445D02*
G01*
X149521995Y-97279820D01*
X149556554Y-97298292D01*
X149586847Y-97323153D01*
X149611708Y-97353446D01*
X149630180Y-97388005D01*
X149641555Y-97425501D01*
X149646000Y-97470638D01*
X149646000Y-98109362D01*
X149641555Y-98154499D01*
X149630180Y-98191995D01*
X149611708Y-98226554D01*
X149586847Y-98256847D01*
X149556554Y-98281708D01*
X149521995Y-98300180D01*
X149484499Y-98311555D01*
X149439362Y-98316000D01*
X148700638Y-98316000D01*
X148655501Y-98311555D01*
X148618005Y-98300180D01*
X148583446Y-98281708D01*
X148553153Y-98256847D01*
X148528292Y-98226554D01*
X148509820Y-98191995D01*
X148498445Y-98154499D01*
X148494000Y-98109362D01*
X148494000Y-97470638D01*
X148498445Y-97425501D01*
X148509820Y-97388005D01*
X148528292Y-97353446D01*
X148553153Y-97323153D01*
X148583446Y-97298292D01*
X148618005Y-97279820D01*
X148655501Y-97268445D01*
X148700638Y-97264000D01*
X149439362Y-97264000D01*
X149484499Y-97268445D01*
X149484499Y-97268445D01*
G37*
G36*
X122334499Y-96506445D02*
G01*
X122371995Y-96517820D01*
X122406554Y-96536292D01*
X122436847Y-96561153D01*
X122461708Y-96591446D01*
X122480180Y-96626005D01*
X122491555Y-96663501D01*
X122496000Y-96708638D01*
X122496000Y-97347362D01*
X122491555Y-97392499D01*
X122480180Y-97429995D01*
X122461708Y-97464554D01*
X122436847Y-97494847D01*
X122406554Y-97519708D01*
X122371995Y-97538180D01*
X122334499Y-97549555D01*
X122289362Y-97554000D01*
X121550638Y-97554000D01*
X121505501Y-97549555D01*
X121468005Y-97538180D01*
X121433446Y-97519708D01*
X121403153Y-97494847D01*
X121378292Y-97464554D01*
X121359820Y-97429995D01*
X121348445Y-97392499D01*
X121344000Y-97347362D01*
X121344000Y-96708638D01*
X121348445Y-96663501D01*
X121359820Y-96626005D01*
X121378292Y-96591446D01*
X121403153Y-96561153D01*
X121433446Y-96536292D01*
X121468005Y-96517820D01*
X121505501Y-96506445D01*
X121550638Y-96502000D01*
X122289362Y-96502000D01*
X122334499Y-96506445D01*
X122334499Y-96506445D01*
G37*
G36*
X120584499Y-96506445D02*
G01*
X120621995Y-96517820D01*
X120656554Y-96536292D01*
X120686847Y-96561153D01*
X120711708Y-96591446D01*
X120730180Y-96626005D01*
X120741555Y-96663501D01*
X120746000Y-96708638D01*
X120746000Y-97347362D01*
X120741555Y-97392499D01*
X120730180Y-97429995D01*
X120711708Y-97464554D01*
X120686847Y-97494847D01*
X120656554Y-97519708D01*
X120621995Y-97538180D01*
X120584499Y-97549555D01*
X120539362Y-97554000D01*
X119800638Y-97554000D01*
X119755501Y-97549555D01*
X119718005Y-97538180D01*
X119683446Y-97519708D01*
X119653153Y-97494847D01*
X119628292Y-97464554D01*
X119609820Y-97429995D01*
X119598445Y-97392499D01*
X119594000Y-97347362D01*
X119594000Y-96708638D01*
X119598445Y-96663501D01*
X119609820Y-96626005D01*
X119628292Y-96591446D01*
X119653153Y-96561153D01*
X119683446Y-96536292D01*
X119718005Y-96517820D01*
X119755501Y-96506445D01*
X119800638Y-96502000D01*
X120539362Y-96502000D01*
X120584499Y-96506445D01*
X120584499Y-96506445D01*
G37*
G36*
X143366499Y-95948445D02*
G01*
X143403995Y-95959820D01*
X143438554Y-95978292D01*
X143468847Y-96003153D01*
X143493708Y-96033446D01*
X143512180Y-96068005D01*
X143523555Y-96105501D01*
X143528000Y-96150638D01*
X143528000Y-96889362D01*
X143523555Y-96934499D01*
X143512180Y-96971995D01*
X143493708Y-97006554D01*
X143468847Y-97036847D01*
X143438554Y-97061708D01*
X143403995Y-97080180D01*
X143366499Y-97091555D01*
X143321362Y-97096000D01*
X142682638Y-97096000D01*
X142637501Y-97091555D01*
X142600005Y-97080180D01*
X142565446Y-97061708D01*
X142535153Y-97036847D01*
X142510292Y-97006554D01*
X142491820Y-96971995D01*
X142480445Y-96934499D01*
X142476000Y-96889362D01*
X142476000Y-96150638D01*
X142480445Y-96105501D01*
X142491820Y-96068005D01*
X142510292Y-96033446D01*
X142535153Y-96003153D01*
X142565446Y-95978292D01*
X142600005Y-95959820D01*
X142637501Y-95948445D01*
X142682638Y-95944000D01*
X143321362Y-95944000D01*
X143366499Y-95948445D01*
X143366499Y-95948445D01*
G37*
G36*
X140826499Y-95948445D02*
G01*
X140863995Y-95959820D01*
X140898554Y-95978292D01*
X140928847Y-96003153D01*
X140953708Y-96033446D01*
X140972180Y-96068005D01*
X140983555Y-96105501D01*
X140988000Y-96150638D01*
X140988000Y-96889362D01*
X140983555Y-96934499D01*
X140972180Y-96971995D01*
X140953708Y-97006554D01*
X140928847Y-97036847D01*
X140898554Y-97061708D01*
X140863995Y-97080180D01*
X140826499Y-97091555D01*
X140781362Y-97096000D01*
X140142638Y-97096000D01*
X140097501Y-97091555D01*
X140060005Y-97080180D01*
X140025446Y-97061708D01*
X139995153Y-97036847D01*
X139970292Y-97006554D01*
X139951820Y-96971995D01*
X139940445Y-96934499D01*
X139936000Y-96889362D01*
X139936000Y-96150638D01*
X139940445Y-96105501D01*
X139951820Y-96068005D01*
X139970292Y-96033446D01*
X139995153Y-96003153D01*
X140025446Y-95978292D01*
X140060005Y-95959820D01*
X140097501Y-95948445D01*
X140142638Y-95944000D01*
X140781362Y-95944000D01*
X140826499Y-95948445D01*
X140826499Y-95948445D01*
G37*
G36*
X96989059Y-95197860D02*
G01*
X97125732Y-95254472D01*
X97248735Y-95336660D01*
X97353340Y-95441265D01*
X97435528Y-95564268D01*
X97435529Y-95564270D01*
X97492140Y-95700941D01*
X97521000Y-95846032D01*
X97521000Y-95993968D01*
X97506273Y-96068005D01*
X97492140Y-96139059D01*
X97435528Y-96275732D01*
X97353340Y-96398735D01*
X97248735Y-96503340D01*
X97125732Y-96585528D01*
X97125731Y-96585529D01*
X97125730Y-96585529D01*
X96989059Y-96642140D01*
X96843968Y-96671000D01*
X96696032Y-96671000D01*
X96550941Y-96642140D01*
X96414270Y-96585529D01*
X96414269Y-96585529D01*
X96414268Y-96585528D01*
X96291265Y-96503340D01*
X96186660Y-96398735D01*
X96104472Y-96275732D01*
X96047860Y-96139059D01*
X96033727Y-96068005D01*
X96019000Y-95993968D01*
X96019000Y-95846032D01*
X96047860Y-95700941D01*
X96104471Y-95564270D01*
X96104472Y-95564268D01*
X96186660Y-95441265D01*
X96291265Y-95336660D01*
X96414268Y-95254472D01*
X96550941Y-95197860D01*
X96696032Y-95169000D01*
X96843968Y-95169000D01*
X96989059Y-95197860D01*
X96989059Y-95197860D01*
G37*
G36*
X98899059Y-95197860D02*
G01*
X99035732Y-95254472D01*
X99158735Y-95336660D01*
X99263340Y-95441265D01*
X99345528Y-95564268D01*
X99345529Y-95564270D01*
X99402140Y-95700941D01*
X99431000Y-95846032D01*
X99431000Y-95993968D01*
X99416273Y-96068005D01*
X99402140Y-96139059D01*
X99345528Y-96275732D01*
X99263340Y-96398735D01*
X99158735Y-96503340D01*
X99035732Y-96585528D01*
X99035731Y-96585529D01*
X99035730Y-96585529D01*
X98899059Y-96642140D01*
X98753968Y-96671000D01*
X98606032Y-96671000D01*
X98460941Y-96642140D01*
X98324270Y-96585529D01*
X98324269Y-96585529D01*
X98324268Y-96585528D01*
X98201265Y-96503340D01*
X98096660Y-96398735D01*
X98014472Y-96275732D01*
X97957860Y-96139059D01*
X97943727Y-96068005D01*
X97929000Y-95993968D01*
X97929000Y-95846032D01*
X97957860Y-95700941D01*
X98014471Y-95564270D01*
X98014472Y-95564268D01*
X98096660Y-95441265D01*
X98201265Y-95336660D01*
X98324268Y-95254472D01*
X98460941Y-95197860D01*
X98606032Y-95169000D01*
X98753968Y-95169000D01*
X98899059Y-95197860D01*
X98899059Y-95197860D01*
G37*
G36*
X100809059Y-95197860D02*
G01*
X100945732Y-95254472D01*
X101068735Y-95336660D01*
X101173340Y-95441265D01*
X101255528Y-95564268D01*
X101255529Y-95564270D01*
X101312140Y-95700941D01*
X101341000Y-95846032D01*
X101341000Y-95993968D01*
X101326273Y-96068005D01*
X101312140Y-96139059D01*
X101255528Y-96275732D01*
X101173340Y-96398735D01*
X101068735Y-96503340D01*
X100945732Y-96585528D01*
X100945731Y-96585529D01*
X100945730Y-96585529D01*
X100809059Y-96642140D01*
X100663968Y-96671000D01*
X100516032Y-96671000D01*
X100370941Y-96642140D01*
X100234270Y-96585529D01*
X100234269Y-96585529D01*
X100234268Y-96585528D01*
X100111265Y-96503340D01*
X100006660Y-96398735D01*
X99924472Y-96275732D01*
X99867860Y-96139059D01*
X99853727Y-96068005D01*
X99839000Y-95993968D01*
X99839000Y-95846032D01*
X99867860Y-95700941D01*
X99924471Y-95564270D01*
X99924472Y-95564268D01*
X100006660Y-95441265D01*
X100111265Y-95336660D01*
X100234268Y-95254472D01*
X100370941Y-95197860D01*
X100516032Y-95169000D01*
X100663968Y-95169000D01*
X100809059Y-95197860D01*
X100809059Y-95197860D01*
G37*
G36*
X151363997Y-93895051D02*
G01*
X151397652Y-93905261D01*
X151428665Y-93921838D01*
X151455851Y-93944149D01*
X151478162Y-93971335D01*
X151494739Y-94002348D01*
X151504949Y-94036003D01*
X151509000Y-94077138D01*
X151509000Y-95406862D01*
X151504949Y-95447997D01*
X151494739Y-95481652D01*
X151478162Y-95512665D01*
X151455851Y-95539851D01*
X151428665Y-95562162D01*
X151397652Y-95578739D01*
X151363997Y-95588949D01*
X151322862Y-95593000D01*
X148993138Y-95593000D01*
X148952003Y-95588949D01*
X148918348Y-95578739D01*
X148887335Y-95562162D01*
X148860149Y-95539851D01*
X148837838Y-95512665D01*
X148821261Y-95481652D01*
X148811051Y-95447997D01*
X148807000Y-95406862D01*
X148807000Y-94077138D01*
X148811051Y-94036003D01*
X148821261Y-94002348D01*
X148837838Y-93971335D01*
X148860149Y-93944149D01*
X148887335Y-93921838D01*
X148918348Y-93905261D01*
X148952003Y-93895051D01*
X148993138Y-93891000D01*
X151322862Y-93891000D01*
X151363997Y-93895051D01*
X151363997Y-93895051D01*
G37*
G36*
X147763997Y-93895051D02*
G01*
X147797652Y-93905261D01*
X147828665Y-93921838D01*
X147855851Y-93944149D01*
X147878162Y-93971335D01*
X147894739Y-94002348D01*
X147904949Y-94036003D01*
X147909000Y-94077138D01*
X147909000Y-95406862D01*
X147904949Y-95447997D01*
X147894739Y-95481652D01*
X147878162Y-95512665D01*
X147855851Y-95539851D01*
X147828665Y-95562162D01*
X147797652Y-95578739D01*
X147763997Y-95588949D01*
X147722862Y-95593000D01*
X145393138Y-95593000D01*
X145352003Y-95588949D01*
X145318348Y-95578739D01*
X145287335Y-95562162D01*
X145260149Y-95539851D01*
X145237838Y-95512665D01*
X145221261Y-95481652D01*
X145211051Y-95447997D01*
X145207000Y-95406862D01*
X145207000Y-94077138D01*
X145211051Y-94036003D01*
X145221261Y-94002348D01*
X145237838Y-93971335D01*
X145260149Y-93944149D01*
X145287335Y-93921838D01*
X145318348Y-93905261D01*
X145352003Y-93895051D01*
X145393138Y-93891000D01*
X147722862Y-93891000D01*
X147763997Y-93895051D01*
X147763997Y-93895051D01*
G37*
G36*
X143366499Y-94198445D02*
G01*
X143403995Y-94209820D01*
X143438554Y-94228292D01*
X143468847Y-94253153D01*
X143493708Y-94283446D01*
X143512180Y-94318005D01*
X143523555Y-94355501D01*
X143528000Y-94400638D01*
X143528000Y-95139362D01*
X143523555Y-95184499D01*
X143512180Y-95221995D01*
X143493708Y-95256554D01*
X143468847Y-95286847D01*
X143438554Y-95311708D01*
X143403995Y-95330180D01*
X143366499Y-95341555D01*
X143321362Y-95346000D01*
X142682638Y-95346000D01*
X142637501Y-95341555D01*
X142600005Y-95330180D01*
X142565446Y-95311708D01*
X142535153Y-95286847D01*
X142510292Y-95256554D01*
X142491820Y-95221995D01*
X142480445Y-95184499D01*
X142476000Y-95139362D01*
X142476000Y-94400638D01*
X142480445Y-94355501D01*
X142491820Y-94318005D01*
X142510292Y-94283446D01*
X142535153Y-94253153D01*
X142565446Y-94228292D01*
X142600005Y-94209820D01*
X142637501Y-94198445D01*
X142682638Y-94194000D01*
X143321362Y-94194000D01*
X143366499Y-94198445D01*
X143366499Y-94198445D01*
G37*
G36*
X140826499Y-94198445D02*
G01*
X140863995Y-94209820D01*
X140898554Y-94228292D01*
X140928847Y-94253153D01*
X140953708Y-94283446D01*
X140972180Y-94318005D01*
X140983555Y-94355501D01*
X140988000Y-94400638D01*
X140988000Y-95139362D01*
X140983555Y-95184499D01*
X140972180Y-95221995D01*
X140953708Y-95256554D01*
X140928847Y-95286847D01*
X140898554Y-95311708D01*
X140863995Y-95330180D01*
X140826499Y-95341555D01*
X140781362Y-95346000D01*
X140142638Y-95346000D01*
X140097501Y-95341555D01*
X140060005Y-95330180D01*
X140025446Y-95311708D01*
X139995153Y-95286847D01*
X139970292Y-95256554D01*
X139951820Y-95221995D01*
X139940445Y-95184499D01*
X139936000Y-95139362D01*
X139936000Y-94400638D01*
X139940445Y-94355501D01*
X139951820Y-94318005D01*
X139970292Y-94283446D01*
X139995153Y-94253153D01*
X140025446Y-94228292D01*
X140060005Y-94209820D01*
X140097501Y-94198445D01*
X140142638Y-94194000D01*
X140781362Y-94194000D01*
X140826499Y-94198445D01*
X140826499Y-94198445D01*
G37*
G36*
X132317499Y-93789445D02*
G01*
X132354995Y-93800820D01*
X132389554Y-93819292D01*
X132419847Y-93844153D01*
X132444708Y-93874446D01*
X132463180Y-93909005D01*
X132474555Y-93946501D01*
X132479000Y-93991638D01*
X132479000Y-94730362D01*
X132474555Y-94775499D01*
X132463180Y-94812995D01*
X132444708Y-94847554D01*
X132419847Y-94877847D01*
X132389554Y-94902708D01*
X132354995Y-94921180D01*
X132317499Y-94932555D01*
X132272362Y-94937000D01*
X131633638Y-94937000D01*
X131588501Y-94932555D01*
X131551005Y-94921180D01*
X131516446Y-94902708D01*
X131486153Y-94877847D01*
X131461292Y-94847554D01*
X131442820Y-94812995D01*
X131431445Y-94775499D01*
X131427000Y-94730362D01*
X131427000Y-93991638D01*
X131431445Y-93946501D01*
X131442820Y-93909005D01*
X131461292Y-93874446D01*
X131486153Y-93844153D01*
X131516446Y-93819292D01*
X131551005Y-93800820D01*
X131588501Y-93789445D01*
X131633638Y-93785000D01*
X132272362Y-93785000D01*
X132317499Y-93789445D01*
X132317499Y-93789445D01*
G37*
G36*
X127110499Y-93789445D02*
G01*
X127147995Y-93800820D01*
X127182554Y-93819292D01*
X127212847Y-93844153D01*
X127237708Y-93874446D01*
X127256180Y-93909005D01*
X127267555Y-93946501D01*
X127272000Y-93991638D01*
X127272000Y-94730362D01*
X127267555Y-94775499D01*
X127256180Y-94812995D01*
X127237708Y-94847554D01*
X127212847Y-94877847D01*
X127182554Y-94902708D01*
X127147995Y-94921180D01*
X127110499Y-94932555D01*
X127065362Y-94937000D01*
X126426638Y-94937000D01*
X126381501Y-94932555D01*
X126344005Y-94921180D01*
X126309446Y-94902708D01*
X126279153Y-94877847D01*
X126254292Y-94847554D01*
X126235820Y-94812995D01*
X126224445Y-94775499D01*
X126220000Y-94730362D01*
X126220000Y-93991638D01*
X126224445Y-93946501D01*
X126235820Y-93909005D01*
X126254292Y-93874446D01*
X126279153Y-93844153D01*
X126309446Y-93819292D01*
X126344005Y-93800820D01*
X126381501Y-93789445D01*
X126426638Y-93785000D01*
X127065362Y-93785000D01*
X127110499Y-93789445D01*
X127110499Y-93789445D01*
G37*
G36*
X129650499Y-93761445D02*
G01*
X129687995Y-93772820D01*
X129722554Y-93791292D01*
X129752847Y-93816153D01*
X129777708Y-93846446D01*
X129796180Y-93881005D01*
X129807555Y-93918501D01*
X129812000Y-93963638D01*
X129812000Y-94702362D01*
X129807555Y-94747499D01*
X129796180Y-94784995D01*
X129777708Y-94819554D01*
X129752847Y-94849847D01*
X129722554Y-94874708D01*
X129687995Y-94893180D01*
X129650499Y-94904555D01*
X129605362Y-94909000D01*
X128966638Y-94909000D01*
X128921501Y-94904555D01*
X128884005Y-94893180D01*
X128849446Y-94874708D01*
X128819153Y-94849847D01*
X128794292Y-94819554D01*
X128775820Y-94784995D01*
X128764445Y-94747499D01*
X128760000Y-94702362D01*
X128760000Y-93963638D01*
X128764445Y-93918501D01*
X128775820Y-93881005D01*
X128794292Y-93846446D01*
X128819153Y-93816153D01*
X128849446Y-93791292D01*
X128884005Y-93772820D01*
X128921501Y-93761445D01*
X128966638Y-93757000D01*
X129605362Y-93757000D01*
X129650499Y-93761445D01*
X129650499Y-93761445D01*
G37*
G36*
X98899059Y-93287860D02*
G01*
X99035732Y-93344472D01*
X99158735Y-93426660D01*
X99263340Y-93531265D01*
X99263341Y-93531267D01*
X99345529Y-93654270D01*
X99402140Y-93790941D01*
X99431000Y-93936032D01*
X99431000Y-94083968D01*
X99402140Y-94229059D01*
X99368247Y-94310885D01*
X99345528Y-94365732D01*
X99263340Y-94488735D01*
X99158735Y-94593340D01*
X99035732Y-94675528D01*
X99035731Y-94675529D01*
X99035730Y-94675529D01*
X98899059Y-94732140D01*
X98753968Y-94761000D01*
X98606032Y-94761000D01*
X98460941Y-94732140D01*
X98324270Y-94675529D01*
X98324269Y-94675529D01*
X98324268Y-94675528D01*
X98201265Y-94593340D01*
X98096660Y-94488735D01*
X98014472Y-94365732D01*
X97991754Y-94310885D01*
X97957860Y-94229059D01*
X97929000Y-94083968D01*
X97929000Y-93936032D01*
X97957860Y-93790941D01*
X98014471Y-93654270D01*
X98096659Y-93531267D01*
X98096660Y-93531265D01*
X98201265Y-93426660D01*
X98324268Y-93344472D01*
X98460941Y-93287860D01*
X98606032Y-93259000D01*
X98753968Y-93259000D01*
X98899059Y-93287860D01*
X98899059Y-93287860D01*
G37*
G36*
X96989059Y-93287860D02*
G01*
X97125732Y-93344472D01*
X97248735Y-93426660D01*
X97353340Y-93531265D01*
X97353341Y-93531267D01*
X97435529Y-93654270D01*
X97492140Y-93790941D01*
X97521000Y-93936032D01*
X97521000Y-94083968D01*
X97492140Y-94229059D01*
X97458247Y-94310885D01*
X97435528Y-94365732D01*
X97353340Y-94488735D01*
X97248735Y-94593340D01*
X97125732Y-94675528D01*
X97125731Y-94675529D01*
X97125730Y-94675529D01*
X96989059Y-94732140D01*
X96843968Y-94761000D01*
X96696032Y-94761000D01*
X96550941Y-94732140D01*
X96414270Y-94675529D01*
X96414269Y-94675529D01*
X96414268Y-94675528D01*
X96291265Y-94593340D01*
X96186660Y-94488735D01*
X96104472Y-94365732D01*
X96081754Y-94310885D01*
X96047860Y-94229059D01*
X96019000Y-94083968D01*
X96019000Y-93936032D01*
X96047860Y-93790941D01*
X96104471Y-93654270D01*
X96186659Y-93531267D01*
X96186660Y-93531265D01*
X96291265Y-93426660D01*
X96414268Y-93344472D01*
X96550941Y-93287860D01*
X96696032Y-93259000D01*
X96843968Y-93259000D01*
X96989059Y-93287860D01*
X96989059Y-93287860D01*
G37*
G36*
X101341000Y-94761000D02*
G01*
X99839000Y-94761000D01*
X99839000Y-93259000D01*
X101341000Y-93259000D01*
X101341000Y-94761000D01*
X101341000Y-94761000D01*
G37*
G36*
X109681934Y-91158671D02*
G01*
X109711877Y-91167754D01*
X109739465Y-91182500D01*
X109763651Y-91202349D01*
X109783500Y-91226535D01*
X109798246Y-91254123D01*
X109807329Y-91284066D01*
X109811000Y-91321340D01*
X109811000Y-93590660D01*
X109807329Y-93627934D01*
X109798246Y-93657877D01*
X109783500Y-93685465D01*
X109763651Y-93709651D01*
X109739465Y-93729500D01*
X109711877Y-93744246D01*
X109681934Y-93753329D01*
X109644660Y-93757000D01*
X105875340Y-93757000D01*
X105838066Y-93753329D01*
X105808123Y-93744246D01*
X105780535Y-93729500D01*
X105756349Y-93709651D01*
X105736500Y-93685465D01*
X105721754Y-93657877D01*
X105712671Y-93627934D01*
X105709000Y-93590660D01*
X105709000Y-91321340D01*
X105712671Y-91284066D01*
X105721754Y-91254123D01*
X105736500Y-91226535D01*
X105756349Y-91202349D01*
X105780535Y-91182500D01*
X105808123Y-91167754D01*
X105838066Y-91158671D01*
X105875340Y-91155000D01*
X109644660Y-91155000D01*
X109681934Y-91158671D01*
X109681934Y-91158671D01*
G37*
G36*
X117681934Y-91158671D02*
G01*
X117711877Y-91167754D01*
X117739465Y-91182500D01*
X117763651Y-91202349D01*
X117783500Y-91226535D01*
X117798246Y-91254123D01*
X117807329Y-91284066D01*
X117811000Y-91321340D01*
X117811000Y-93590660D01*
X117807329Y-93627934D01*
X117798246Y-93657877D01*
X117783500Y-93685465D01*
X117763651Y-93709651D01*
X117739465Y-93729500D01*
X117711877Y-93744246D01*
X117681934Y-93753329D01*
X117644660Y-93757000D01*
X113875340Y-93757000D01*
X113838066Y-93753329D01*
X113808123Y-93744246D01*
X113780535Y-93729500D01*
X113756349Y-93709651D01*
X113736500Y-93685465D01*
X113721754Y-93657877D01*
X113712671Y-93627934D01*
X113709000Y-93590660D01*
X113709000Y-91321340D01*
X113712671Y-91284066D01*
X113721754Y-91254123D01*
X113736500Y-91226535D01*
X113756349Y-91202349D01*
X113780535Y-91182500D01*
X113808123Y-91167754D01*
X113838066Y-91158671D01*
X113875340Y-91155000D01*
X117644660Y-91155000D01*
X117681934Y-91158671D01*
X117681934Y-91158671D01*
G37*
G36*
X132317499Y-92039445D02*
G01*
X132354995Y-92050820D01*
X132389554Y-92069292D01*
X132419847Y-92094153D01*
X132444708Y-92124446D01*
X132463180Y-92159005D01*
X132474555Y-92196501D01*
X132479000Y-92241638D01*
X132479000Y-92980362D01*
X132474555Y-93025499D01*
X132463180Y-93062995D01*
X132444708Y-93097554D01*
X132419847Y-93127847D01*
X132389554Y-93152708D01*
X132354995Y-93171180D01*
X132317499Y-93182555D01*
X132272362Y-93187000D01*
X131633638Y-93187000D01*
X131588501Y-93182555D01*
X131551005Y-93171180D01*
X131516446Y-93152708D01*
X131486153Y-93127847D01*
X131461292Y-93097554D01*
X131442820Y-93062995D01*
X131431445Y-93025499D01*
X131427000Y-92980362D01*
X131427000Y-92241638D01*
X131431445Y-92196501D01*
X131442820Y-92159005D01*
X131461292Y-92124446D01*
X131486153Y-92094153D01*
X131516446Y-92069292D01*
X131551005Y-92050820D01*
X131588501Y-92039445D01*
X131633638Y-92035000D01*
X132272362Y-92035000D01*
X132317499Y-92039445D01*
X132317499Y-92039445D01*
G37*
G36*
X127110499Y-92039445D02*
G01*
X127147995Y-92050820D01*
X127182554Y-92069292D01*
X127212847Y-92094153D01*
X127237708Y-92124446D01*
X127256180Y-92159005D01*
X127267555Y-92196501D01*
X127272000Y-92241638D01*
X127272000Y-92980362D01*
X127267555Y-93025499D01*
X127256180Y-93062995D01*
X127237708Y-93097554D01*
X127212847Y-93127847D01*
X127182554Y-93152708D01*
X127147995Y-93171180D01*
X127110499Y-93182555D01*
X127065362Y-93187000D01*
X126426638Y-93187000D01*
X126381501Y-93182555D01*
X126344005Y-93171180D01*
X126309446Y-93152708D01*
X126279153Y-93127847D01*
X126254292Y-93097554D01*
X126235820Y-93062995D01*
X126224445Y-93025499D01*
X126220000Y-92980362D01*
X126220000Y-92241638D01*
X126224445Y-92196501D01*
X126235820Y-92159005D01*
X126254292Y-92124446D01*
X126279153Y-92094153D01*
X126309446Y-92069292D01*
X126344005Y-92050820D01*
X126381501Y-92039445D01*
X126426638Y-92035000D01*
X127065362Y-92035000D01*
X127110499Y-92039445D01*
X127110499Y-92039445D01*
G37*
G36*
X129650499Y-92011445D02*
G01*
X129687995Y-92022820D01*
X129722554Y-92041292D01*
X129752847Y-92066153D01*
X129777708Y-92096446D01*
X129796180Y-92131005D01*
X129807555Y-92168501D01*
X129812000Y-92213638D01*
X129812000Y-92952362D01*
X129807555Y-92997499D01*
X129796180Y-93034995D01*
X129777708Y-93069554D01*
X129752847Y-93099847D01*
X129722554Y-93124708D01*
X129687995Y-93143180D01*
X129650499Y-93154555D01*
X129605362Y-93159000D01*
X128966638Y-93159000D01*
X128921501Y-93154555D01*
X128884005Y-93143180D01*
X128849446Y-93124708D01*
X128819153Y-93099847D01*
X128794292Y-93069554D01*
X128775820Y-93034995D01*
X128764445Y-92997499D01*
X128760000Y-92952362D01*
X128760000Y-92213638D01*
X128764445Y-92168501D01*
X128775820Y-92131005D01*
X128794292Y-92096446D01*
X128819153Y-92066153D01*
X128849446Y-92041292D01*
X128884005Y-92022820D01*
X128921501Y-92011445D01*
X128966638Y-92007000D01*
X129605362Y-92007000D01*
X129650499Y-92011445D01*
X129650499Y-92011445D01*
G37*
G36*
X122334499Y-91934445D02*
G01*
X122371995Y-91945820D01*
X122406554Y-91964292D01*
X122436847Y-91989153D01*
X122461708Y-92019446D01*
X122480180Y-92054005D01*
X122491555Y-92091501D01*
X122496000Y-92136638D01*
X122496000Y-92775362D01*
X122491555Y-92820499D01*
X122480180Y-92857995D01*
X122461708Y-92892554D01*
X122436847Y-92922847D01*
X122406554Y-92947708D01*
X122371995Y-92966180D01*
X122334499Y-92977555D01*
X122289362Y-92982000D01*
X121550638Y-92982000D01*
X121505501Y-92977555D01*
X121468005Y-92966180D01*
X121433446Y-92947708D01*
X121403153Y-92922847D01*
X121378292Y-92892554D01*
X121359820Y-92857995D01*
X121348445Y-92820499D01*
X121344000Y-92775362D01*
X121344000Y-92136638D01*
X121348445Y-92091501D01*
X121359820Y-92054005D01*
X121378292Y-92019446D01*
X121403153Y-91989153D01*
X121433446Y-91964292D01*
X121468005Y-91945820D01*
X121505501Y-91934445D01*
X121550638Y-91930000D01*
X122289362Y-91930000D01*
X122334499Y-91934445D01*
X122334499Y-91934445D01*
G37*
G36*
X120584499Y-91934445D02*
G01*
X120621995Y-91945820D01*
X120656554Y-91964292D01*
X120686847Y-91989153D01*
X120711708Y-92019446D01*
X120730180Y-92054005D01*
X120741555Y-92091501D01*
X120746000Y-92136638D01*
X120746000Y-92775362D01*
X120741555Y-92820499D01*
X120730180Y-92857995D01*
X120711708Y-92892554D01*
X120686847Y-92922847D01*
X120656554Y-92947708D01*
X120621995Y-92966180D01*
X120584499Y-92977555D01*
X120539362Y-92982000D01*
X119800638Y-92982000D01*
X119755501Y-92977555D01*
X119718005Y-92966180D01*
X119683446Y-92947708D01*
X119653153Y-92922847D01*
X119628292Y-92892554D01*
X119609820Y-92857995D01*
X119598445Y-92820499D01*
X119594000Y-92775362D01*
X119594000Y-92136638D01*
X119598445Y-92091501D01*
X119609820Y-92054005D01*
X119628292Y-92019446D01*
X119653153Y-91989153D01*
X119683446Y-91964292D01*
X119718005Y-91945820D01*
X119755501Y-91934445D01*
X119800638Y-91930000D01*
X120539362Y-91930000D01*
X120584499Y-91934445D01*
X120584499Y-91934445D01*
G37*
G36*
X139096000Y-92299000D02*
G01*
X137444000Y-92299000D01*
X137444000Y-91597000D01*
X139096000Y-91597000D01*
X139096000Y-92299000D01*
X139096000Y-92299000D01*
G37*
G36*
X144496000Y-92299000D02*
G01*
X142844000Y-92299000D01*
X142844000Y-91597000D01*
X144496000Y-91597000D01*
X144496000Y-92299000D01*
X144496000Y-92299000D01*
G37*
G36*
X136508499Y-90868445D02*
G01*
X136545995Y-90879820D01*
X136580554Y-90898292D01*
X136610847Y-90923153D01*
X136635708Y-90953446D01*
X136654180Y-90988005D01*
X136665555Y-91025501D01*
X136670000Y-91070638D01*
X136670000Y-91809362D01*
X136665555Y-91854499D01*
X136654180Y-91891995D01*
X136635708Y-91926554D01*
X136610847Y-91956847D01*
X136580554Y-91981708D01*
X136545995Y-92000180D01*
X136508499Y-92011555D01*
X136463362Y-92016000D01*
X135824638Y-92016000D01*
X135779501Y-92011555D01*
X135742005Y-92000180D01*
X135707446Y-91981708D01*
X135677153Y-91956847D01*
X135652292Y-91926554D01*
X135633820Y-91891995D01*
X135622445Y-91854499D01*
X135618000Y-91809362D01*
X135618000Y-91070638D01*
X135622445Y-91025501D01*
X135633820Y-90988005D01*
X135652292Y-90953446D01*
X135677153Y-90923153D01*
X135707446Y-90898292D01*
X135742005Y-90879820D01*
X135779501Y-90868445D01*
X135824638Y-90864000D01*
X136463362Y-90864000D01*
X136508499Y-90868445D01*
X136508499Y-90868445D01*
G37*
G36*
X159308410Y-89558525D02*
G01*
X159393426Y-89584314D01*
X159471775Y-89626193D01*
X159540449Y-89682551D01*
X159596807Y-89751225D01*
X159638686Y-89829574D01*
X159664475Y-89914590D01*
X159673182Y-90003000D01*
X159664475Y-90091410D01*
X159638686Y-90176426D01*
X159596807Y-90254775D01*
X159540449Y-90323449D01*
X159471775Y-90379807D01*
X159393426Y-90421686D01*
X159308410Y-90447475D01*
X159242158Y-90454000D01*
X159197842Y-90454000D01*
X159131588Y-90447475D01*
X159075477Y-90430454D01*
X159051444Y-90425674D01*
X159026940Y-90425674D01*
X159002907Y-90430455D01*
X158980268Y-90439832D01*
X158959894Y-90453446D01*
X158942567Y-90470773D01*
X158928953Y-90491148D01*
X158919576Y-90513787D01*
X158914796Y-90537820D01*
X158914796Y-90562324D01*
X158919577Y-90586357D01*
X158928954Y-90608996D01*
X158942568Y-90629370D01*
X158959895Y-90646697D01*
X158996367Y-90676629D01*
X159093345Y-90794796D01*
X159165398Y-90929598D01*
X159209772Y-91075879D01*
X159224754Y-91228000D01*
X159209772Y-91380121D01*
X159165398Y-91526402D01*
X159093345Y-91661204D01*
X159093343Y-91661207D01*
X159093342Y-91661208D01*
X158996369Y-91779369D01*
X158904824Y-91854499D01*
X158878204Y-91876345D01*
X158743402Y-91948398D01*
X158597121Y-91992772D01*
X158483118Y-92004000D01*
X157856882Y-92004000D01*
X157742879Y-91992772D01*
X157596598Y-91948398D01*
X157461796Y-91876345D01*
X157435177Y-91854499D01*
X157343631Y-91779369D01*
X157246658Y-91661208D01*
X157246657Y-91661207D01*
X157246655Y-91661204D01*
X157174602Y-91526402D01*
X157130228Y-91380121D01*
X157115246Y-91228000D01*
X157130228Y-91075879D01*
X157174602Y-90929598D01*
X157246655Y-90794796D01*
X157343631Y-90676631D01*
X157426044Y-90608996D01*
X157461792Y-90579658D01*
X157461793Y-90579657D01*
X157461796Y-90579655D01*
X157596598Y-90507602D01*
X157742879Y-90463228D01*
X157856882Y-90452000D01*
X158483118Y-90452000D01*
X158597121Y-90463228D01*
X158750790Y-90509843D01*
X158759249Y-90513346D01*
X158783283Y-90518124D01*
X158807787Y-90518122D01*
X158831820Y-90513339D01*
X158854458Y-90503959D01*
X158874831Y-90490344D01*
X158892156Y-90473015D01*
X158905768Y-90452639D01*
X158915143Y-90430000D01*
X158919921Y-90405966D01*
X158919919Y-90381462D01*
X158915136Y-90357429D01*
X158905756Y-90334791D01*
X158892149Y-90314428D01*
X158843193Y-90254775D01*
X158801314Y-90176426D01*
X158775525Y-90091410D01*
X158766818Y-90003000D01*
X158775525Y-89914590D01*
X158801314Y-89829574D01*
X158843193Y-89751225D01*
X158899551Y-89682551D01*
X158968225Y-89626193D01*
X159046574Y-89584314D01*
X159131590Y-89558525D01*
X159197842Y-89552000D01*
X159242158Y-89552000D01*
X159308410Y-89558525D01*
X159308410Y-89558525D01*
G37*
G36*
X162417715Y-90761058D02*
G01*
X162513753Y-90790191D01*
X162528935Y-90794796D01*
X162535722Y-90796855D01*
X162644468Y-90854981D01*
X162739790Y-90933210D01*
X162818019Y-91028532D01*
X162876145Y-91137278D01*
X162911942Y-91255285D01*
X162924028Y-91378000D01*
X162911942Y-91500715D01*
X162876145Y-91618722D01*
X162818019Y-91727468D01*
X162739790Y-91822790D01*
X162644468Y-91901019D01*
X162535722Y-91959145D01*
X162417715Y-91994942D01*
X162325746Y-92004000D01*
X161614254Y-92004000D01*
X161522285Y-91994942D01*
X161404278Y-91959145D01*
X161295532Y-91901019D01*
X161200210Y-91822790D01*
X161121981Y-91727468D01*
X161063855Y-91618722D01*
X161028058Y-91500715D01*
X161015972Y-91378000D01*
X161028058Y-91255285D01*
X161063855Y-91137278D01*
X161121981Y-91028532D01*
X161200210Y-90933210D01*
X161295532Y-90854981D01*
X161404278Y-90796855D01*
X161411066Y-90794796D01*
X161426247Y-90790191D01*
X161522285Y-90761058D01*
X161614254Y-90752000D01*
X162325746Y-90752000D01*
X162417715Y-90761058D01*
X162417715Y-90761058D01*
G37*
G36*
X147049499Y-90106445D02*
G01*
X147086995Y-90117820D01*
X147121554Y-90136292D01*
X147151847Y-90161153D01*
X147176708Y-90191446D01*
X147195180Y-90226005D01*
X147206555Y-90263501D01*
X147211000Y-90308638D01*
X147211000Y-91047362D01*
X147206555Y-91092499D01*
X147195180Y-91129995D01*
X147176708Y-91164554D01*
X147151847Y-91194847D01*
X147121554Y-91219708D01*
X147086995Y-91238180D01*
X147049499Y-91249555D01*
X147004362Y-91254000D01*
X146365638Y-91254000D01*
X146320501Y-91249555D01*
X146283005Y-91238180D01*
X146248446Y-91219708D01*
X146218153Y-91194847D01*
X146193292Y-91164554D01*
X146174820Y-91129995D01*
X146163445Y-91092499D01*
X146159000Y-91047362D01*
X146159000Y-90308638D01*
X146163445Y-90263501D01*
X146174820Y-90226005D01*
X146193292Y-90191446D01*
X146218153Y-90161153D01*
X146248446Y-90136292D01*
X146283005Y-90117820D01*
X146320501Y-90106445D01*
X146365638Y-90102000D01*
X147004362Y-90102000D01*
X147049499Y-90106445D01*
X147049499Y-90106445D01*
G37*
G36*
X150605499Y-90106445D02*
G01*
X150642995Y-90117820D01*
X150677554Y-90136292D01*
X150707847Y-90161153D01*
X150732708Y-90191446D01*
X150751180Y-90226005D01*
X150762555Y-90263501D01*
X150767000Y-90308638D01*
X150767000Y-91047362D01*
X150762555Y-91092499D01*
X150751180Y-91129995D01*
X150732708Y-91164554D01*
X150707847Y-91194847D01*
X150677554Y-91219708D01*
X150642995Y-91238180D01*
X150605499Y-91249555D01*
X150560362Y-91254000D01*
X149921638Y-91254000D01*
X149876501Y-91249555D01*
X149839005Y-91238180D01*
X149804446Y-91219708D01*
X149774153Y-91194847D01*
X149749292Y-91164554D01*
X149730820Y-91129995D01*
X149719445Y-91092499D01*
X149715000Y-91047362D01*
X149715000Y-90308638D01*
X149719445Y-90263501D01*
X149730820Y-90226005D01*
X149749292Y-90191446D01*
X149774153Y-90161153D01*
X149804446Y-90136292D01*
X149839005Y-90117820D01*
X149876501Y-90106445D01*
X149921638Y-90102000D01*
X150560362Y-90102000D01*
X150605499Y-90106445D01*
X150605499Y-90106445D01*
G37*
G36*
X139096000Y-91029000D02*
G01*
X137444000Y-91029000D01*
X137444000Y-90327000D01*
X139096000Y-90327000D01*
X139096000Y-91029000D01*
X139096000Y-91029000D01*
G37*
G36*
X144496000Y-91029000D02*
G01*
X142844000Y-91029000D01*
X142844000Y-90327000D01*
X144496000Y-90327000D01*
X144496000Y-91029000D01*
X144496000Y-91029000D01*
G37*
G36*
X131992823Y-88823313D02*
G01*
X132153242Y-88871976D01*
X132285906Y-88942886D01*
X132301078Y-88950996D01*
X132430659Y-89057341D01*
X132537004Y-89186922D01*
X132537005Y-89186924D01*
X132616024Y-89334758D01*
X132616025Y-89334761D01*
X132618372Y-89342499D01*
X132664687Y-89495177D01*
X132681117Y-89662000D01*
X132664687Y-89828823D01*
X132616024Y-89989242D01*
X132554874Y-90103646D01*
X132537004Y-90137078D01*
X132430659Y-90266659D01*
X132301078Y-90373004D01*
X132301076Y-90373005D01*
X132153242Y-90452024D01*
X132153239Y-90452025D01*
X132146728Y-90454000D01*
X131992823Y-90500687D01*
X131867804Y-90513000D01*
X131784196Y-90513000D01*
X131659177Y-90500687D01*
X131505272Y-90454000D01*
X131498761Y-90452025D01*
X131498758Y-90452024D01*
X131350924Y-90373005D01*
X131350922Y-90373004D01*
X131221341Y-90266659D01*
X131114996Y-90137078D01*
X131097126Y-90103646D01*
X131035976Y-89989242D01*
X130987313Y-89828823D01*
X130970883Y-89662000D01*
X130987313Y-89495177D01*
X131033628Y-89342499D01*
X131035975Y-89334761D01*
X131035976Y-89334758D01*
X131114995Y-89186924D01*
X131114996Y-89186922D01*
X131221341Y-89057341D01*
X131350922Y-88950996D01*
X131366094Y-88942886D01*
X131498758Y-88871976D01*
X131659177Y-88823313D01*
X131784196Y-88811000D01*
X131867804Y-88811000D01*
X131992823Y-88823313D01*
X131992823Y-88823313D01*
G37*
G36*
X129452823Y-88823313D02*
G01*
X129613242Y-88871976D01*
X129745906Y-88942886D01*
X129761078Y-88950996D01*
X129890659Y-89057341D01*
X129997004Y-89186922D01*
X129997005Y-89186924D01*
X130076024Y-89334758D01*
X130076025Y-89334761D01*
X130078372Y-89342499D01*
X130124687Y-89495177D01*
X130141117Y-89662000D01*
X130124687Y-89828823D01*
X130076024Y-89989242D01*
X130014874Y-90103646D01*
X129997004Y-90137078D01*
X129890659Y-90266659D01*
X129761078Y-90373004D01*
X129761076Y-90373005D01*
X129613242Y-90452024D01*
X129613239Y-90452025D01*
X129606728Y-90454000D01*
X129452823Y-90500687D01*
X129327804Y-90513000D01*
X129244196Y-90513000D01*
X129119177Y-90500687D01*
X128965272Y-90454000D01*
X128958761Y-90452025D01*
X128958758Y-90452024D01*
X128810924Y-90373005D01*
X128810922Y-90373004D01*
X128681341Y-90266659D01*
X128574996Y-90137078D01*
X128557126Y-90103646D01*
X128495976Y-89989242D01*
X128447313Y-89828823D01*
X128430883Y-89662000D01*
X128447313Y-89495177D01*
X128493628Y-89342499D01*
X128495975Y-89334761D01*
X128495976Y-89334758D01*
X128574995Y-89186924D01*
X128574996Y-89186922D01*
X128681341Y-89057341D01*
X128810922Y-88950996D01*
X128826094Y-88942886D01*
X128958758Y-88871976D01*
X129119177Y-88823313D01*
X129244196Y-88811000D01*
X129327804Y-88811000D01*
X129452823Y-88823313D01*
X129452823Y-88823313D01*
G37*
G36*
X126912823Y-88823313D02*
G01*
X127073242Y-88871976D01*
X127205906Y-88942886D01*
X127221078Y-88950996D01*
X127350659Y-89057341D01*
X127457004Y-89186922D01*
X127457005Y-89186924D01*
X127536024Y-89334758D01*
X127536025Y-89334761D01*
X127538372Y-89342499D01*
X127584687Y-89495177D01*
X127601117Y-89662000D01*
X127584687Y-89828823D01*
X127536024Y-89989242D01*
X127474874Y-90103646D01*
X127457004Y-90137078D01*
X127350659Y-90266659D01*
X127221078Y-90373004D01*
X127221076Y-90373005D01*
X127073242Y-90452024D01*
X127073239Y-90452025D01*
X127066728Y-90454000D01*
X126912823Y-90500687D01*
X126787804Y-90513000D01*
X126704196Y-90513000D01*
X126579177Y-90500687D01*
X126425272Y-90454000D01*
X126418761Y-90452025D01*
X126418758Y-90452024D01*
X126270924Y-90373005D01*
X126270922Y-90373004D01*
X126141341Y-90266659D01*
X126034996Y-90137078D01*
X126017126Y-90103646D01*
X125955976Y-89989242D01*
X125907313Y-89828823D01*
X125890883Y-89662000D01*
X125907313Y-89495177D01*
X125953628Y-89342499D01*
X125955975Y-89334761D01*
X125955976Y-89334758D01*
X126034995Y-89186924D01*
X126034996Y-89186922D01*
X126141341Y-89057341D01*
X126270922Y-88950996D01*
X126286094Y-88942886D01*
X126418758Y-88871976D01*
X126579177Y-88823313D01*
X126704196Y-88811000D01*
X126787804Y-88811000D01*
X126912823Y-88823313D01*
X126912823Y-88823313D01*
G37*
G36*
X136508499Y-89118445D02*
G01*
X136545995Y-89129820D01*
X136580554Y-89148292D01*
X136610847Y-89173153D01*
X136635708Y-89203446D01*
X136654180Y-89238005D01*
X136665555Y-89275501D01*
X136670000Y-89320638D01*
X136670000Y-90059362D01*
X136665555Y-90104499D01*
X136654180Y-90141995D01*
X136635708Y-90176554D01*
X136610847Y-90206847D01*
X136580554Y-90231708D01*
X136545995Y-90250180D01*
X136508499Y-90261555D01*
X136463362Y-90266000D01*
X135824638Y-90266000D01*
X135779501Y-90261555D01*
X135742005Y-90250180D01*
X135707446Y-90231708D01*
X135677153Y-90206847D01*
X135652292Y-90176554D01*
X135633820Y-90141995D01*
X135622445Y-90104499D01*
X135618000Y-90059362D01*
X135618000Y-89320638D01*
X135622445Y-89275501D01*
X135633820Y-89238005D01*
X135652292Y-89203446D01*
X135677153Y-89173153D01*
X135707446Y-89148292D01*
X135742005Y-89129820D01*
X135779501Y-89118445D01*
X135824638Y-89114000D01*
X136463362Y-89114000D01*
X136508499Y-89118445D01*
X136508499Y-89118445D01*
G37*
G36*
X95877423Y-85561661D02*
G01*
X96250031Y-85716000D01*
X96268881Y-85723808D01*
X96621183Y-85959209D01*
X96920791Y-86258817D01*
X97081909Y-86499947D01*
X97156193Y-86611121D01*
X97318339Y-87002577D01*
X97401000Y-87418144D01*
X97401000Y-87841856D01*
X97318339Y-88257423D01*
X97222417Y-88489000D01*
X97156192Y-88648881D01*
X96920791Y-89001183D01*
X96621183Y-89300791D01*
X96268881Y-89536192D01*
X96268880Y-89536193D01*
X96268879Y-89536193D01*
X95877423Y-89698339D01*
X95461856Y-89781000D01*
X95038144Y-89781000D01*
X94622577Y-89698339D01*
X94231121Y-89536193D01*
X94231120Y-89536193D01*
X94231119Y-89536192D01*
X93878817Y-89300791D01*
X93579209Y-89001183D01*
X93343808Y-88648881D01*
X93277583Y-88489000D01*
X93181661Y-88257423D01*
X93099000Y-87841856D01*
X93099000Y-87418144D01*
X93181661Y-87002577D01*
X93343807Y-86611121D01*
X93418091Y-86499947D01*
X93579209Y-86258817D01*
X93878817Y-85959209D01*
X94231119Y-85723808D01*
X94249969Y-85716000D01*
X94622577Y-85561661D01*
X95038144Y-85479000D01*
X95461856Y-85479000D01*
X95877423Y-85561661D01*
X95877423Y-85561661D01*
G37*
G36*
X144496000Y-89759000D02*
G01*
X142844000Y-89759000D01*
X142844000Y-89057000D01*
X144496000Y-89057000D01*
X144496000Y-89759000D01*
X144496000Y-89759000D01*
G37*
G36*
X139096000Y-89759000D02*
G01*
X137444000Y-89759000D01*
X137444000Y-89057000D01*
X139096000Y-89057000D01*
X139096000Y-89759000D01*
X139096000Y-89759000D01*
G37*
G36*
X150605499Y-88356445D02*
G01*
X150642995Y-88367820D01*
X150677554Y-88386292D01*
X150707847Y-88411153D01*
X150732708Y-88441446D01*
X150751180Y-88476005D01*
X150762555Y-88513501D01*
X150767000Y-88558638D01*
X150767000Y-89297362D01*
X150762555Y-89342499D01*
X150751180Y-89379995D01*
X150732708Y-89414554D01*
X150707847Y-89444847D01*
X150677554Y-89469708D01*
X150642995Y-89488180D01*
X150605499Y-89499555D01*
X150560362Y-89504000D01*
X149921638Y-89504000D01*
X149876501Y-89499555D01*
X149839005Y-89488180D01*
X149804446Y-89469708D01*
X149774153Y-89444847D01*
X149749292Y-89414554D01*
X149730820Y-89379995D01*
X149719445Y-89342499D01*
X149715000Y-89297362D01*
X149715000Y-88558638D01*
X149719445Y-88513501D01*
X149730820Y-88476005D01*
X149749292Y-88441446D01*
X149774153Y-88411153D01*
X149804446Y-88386292D01*
X149839005Y-88367820D01*
X149876501Y-88356445D01*
X149921638Y-88352000D01*
X150560362Y-88352000D01*
X150605499Y-88356445D01*
X150605499Y-88356445D01*
G37*
G36*
X147049499Y-88356445D02*
G01*
X147086995Y-88367820D01*
X147121554Y-88386292D01*
X147151847Y-88411153D01*
X147176708Y-88441446D01*
X147195180Y-88476005D01*
X147206555Y-88513501D01*
X147211000Y-88558638D01*
X147211000Y-89297362D01*
X147206555Y-89342499D01*
X147195180Y-89379995D01*
X147176708Y-89414554D01*
X147151847Y-89444847D01*
X147121554Y-89469708D01*
X147086995Y-89488180D01*
X147049499Y-89499555D01*
X147004362Y-89504000D01*
X146365638Y-89504000D01*
X146320501Y-89499555D01*
X146283005Y-89488180D01*
X146248446Y-89469708D01*
X146218153Y-89444847D01*
X146193292Y-89414554D01*
X146174820Y-89379995D01*
X146163445Y-89342499D01*
X146159000Y-89297362D01*
X146159000Y-88558638D01*
X146163445Y-88513501D01*
X146174820Y-88476005D01*
X146193292Y-88441446D01*
X146218153Y-88411153D01*
X146248446Y-88386292D01*
X146283005Y-88367820D01*
X146320501Y-88356445D01*
X146365638Y-88352000D01*
X147004362Y-88352000D01*
X147049499Y-88356445D01*
X147049499Y-88356445D01*
G37*
G36*
X158821000Y-89079000D02*
G01*
X157419000Y-89079000D01*
X157419000Y-85927000D01*
X158821000Y-85927000D01*
X158821000Y-89079000D01*
X158821000Y-89079000D01*
G37*
G36*
X144496000Y-88489000D02*
G01*
X142844000Y-88489000D01*
X142844000Y-87787000D01*
X144496000Y-87787000D01*
X144496000Y-88489000D01*
X144496000Y-88489000D01*
G37*
G36*
X139096000Y-88489000D02*
G01*
X137444000Y-88489000D01*
X137444000Y-87787000D01*
X139096000Y-87787000D01*
X139096000Y-88489000D01*
X139096000Y-88489000D01*
G37*
G36*
X140523499Y-85838445D02*
G01*
X140560995Y-85849820D01*
X140595554Y-85868292D01*
X140625847Y-85893153D01*
X140650708Y-85923446D01*
X140669180Y-85958005D01*
X140680555Y-85995501D01*
X140685000Y-86040638D01*
X140685000Y-86679362D01*
X140680555Y-86724499D01*
X140669180Y-86761995D01*
X140650708Y-86796554D01*
X140625847Y-86826847D01*
X140595554Y-86851708D01*
X140560995Y-86870180D01*
X140523499Y-86881555D01*
X140478362Y-86886000D01*
X139739638Y-86886000D01*
X139694501Y-86881555D01*
X139657005Y-86870180D01*
X139622446Y-86851708D01*
X139592153Y-86826847D01*
X139567292Y-86796554D01*
X139548820Y-86761995D01*
X139537445Y-86724499D01*
X139533000Y-86679362D01*
X139533000Y-86040638D01*
X139537445Y-85995501D01*
X139548820Y-85958005D01*
X139567292Y-85923446D01*
X139592153Y-85893153D01*
X139622446Y-85868292D01*
X139657005Y-85849820D01*
X139694501Y-85838445D01*
X139739638Y-85834000D01*
X140478362Y-85834000D01*
X140523499Y-85838445D01*
X140523499Y-85838445D01*
G37*
G36*
X142273499Y-85838445D02*
G01*
X142310995Y-85849820D01*
X142345554Y-85868292D01*
X142375847Y-85893153D01*
X142400708Y-85923446D01*
X142419180Y-85958005D01*
X142430555Y-85995501D01*
X142435000Y-86040638D01*
X142435000Y-86679362D01*
X142430555Y-86724499D01*
X142419180Y-86761995D01*
X142400708Y-86796554D01*
X142375847Y-86826847D01*
X142345554Y-86851708D01*
X142310995Y-86870180D01*
X142273499Y-86881555D01*
X142228362Y-86886000D01*
X141489638Y-86886000D01*
X141444501Y-86881555D01*
X141407005Y-86870180D01*
X141372446Y-86851708D01*
X141342153Y-86826847D01*
X141317292Y-86796554D01*
X141298820Y-86761995D01*
X141287445Y-86724499D01*
X141283000Y-86679362D01*
X141283000Y-86040638D01*
X141287445Y-85995501D01*
X141298820Y-85958005D01*
X141317292Y-85923446D01*
X141342153Y-85893153D01*
X141372446Y-85868292D01*
X141407005Y-85849820D01*
X141444501Y-85838445D01*
X141489638Y-85834000D01*
X142228362Y-85834000D01*
X142273499Y-85838445D01*
X142273499Y-85838445D01*
G37*
G36*
X135951499Y-85457445D02*
G01*
X135988995Y-85468820D01*
X136023554Y-85487292D01*
X136053847Y-85512153D01*
X136078708Y-85542446D01*
X136097180Y-85577005D01*
X136108555Y-85614501D01*
X136113000Y-85659638D01*
X136113000Y-86298362D01*
X136108555Y-86343499D01*
X136097180Y-86380995D01*
X136078708Y-86415554D01*
X136053847Y-86445847D01*
X136023554Y-86470708D01*
X135988995Y-86489180D01*
X135951499Y-86500555D01*
X135906362Y-86505000D01*
X135167638Y-86505000D01*
X135122501Y-86500555D01*
X135085005Y-86489180D01*
X135050446Y-86470708D01*
X135020153Y-86445847D01*
X134995292Y-86415554D01*
X134976820Y-86380995D01*
X134965445Y-86343499D01*
X134961000Y-86298362D01*
X134961000Y-85659638D01*
X134965445Y-85614501D01*
X134976820Y-85577005D01*
X134995292Y-85542446D01*
X135020153Y-85512153D01*
X135050446Y-85487292D01*
X135085005Y-85468820D01*
X135122501Y-85457445D01*
X135167638Y-85453000D01*
X135906362Y-85453000D01*
X135951499Y-85457445D01*
X135951499Y-85457445D01*
G37*
G36*
X137701499Y-85457445D02*
G01*
X137738995Y-85468820D01*
X137773554Y-85487292D01*
X137803847Y-85512153D01*
X137828708Y-85542446D01*
X137847180Y-85577005D01*
X137858555Y-85614501D01*
X137863000Y-85659638D01*
X137863000Y-86298362D01*
X137858555Y-86343499D01*
X137847180Y-86380995D01*
X137828708Y-86415554D01*
X137803847Y-86445847D01*
X137773554Y-86470708D01*
X137738995Y-86489180D01*
X137701499Y-86500555D01*
X137656362Y-86505000D01*
X136917638Y-86505000D01*
X136872501Y-86500555D01*
X136835005Y-86489180D01*
X136800446Y-86470708D01*
X136770153Y-86445847D01*
X136745292Y-86415554D01*
X136726820Y-86380995D01*
X136715445Y-86343499D01*
X136711000Y-86298362D01*
X136711000Y-85659638D01*
X136715445Y-85614501D01*
X136726820Y-85577005D01*
X136745292Y-85542446D01*
X136770153Y-85512153D01*
X136800446Y-85487292D01*
X136835005Y-85468820D01*
X136872501Y-85457445D01*
X136917638Y-85453000D01*
X137656362Y-85453000D01*
X137701499Y-85457445D01*
X137701499Y-85457445D01*
G37*
G36*
X150730813Y-82208823D02*
G01*
X150849579Y-82232447D01*
X151150042Y-82356903D01*
X151420451Y-82537585D01*
X151650415Y-82767549D01*
X151831097Y-83037958D01*
X151831098Y-83037960D01*
X151839234Y-83057602D01*
X151930746Y-83278531D01*
X151955553Y-83338422D01*
X152019000Y-83657389D01*
X152019000Y-83982611D01*
X151985501Y-84151018D01*
X151955553Y-84301579D01*
X151878386Y-84487877D01*
X151842073Y-84575545D01*
X151831097Y-84602042D01*
X151650415Y-84872451D01*
X151420451Y-85102415D01*
X151150042Y-85283097D01*
X150849579Y-85407553D01*
X150743256Y-85428702D01*
X150530611Y-85471000D01*
X150205389Y-85471000D01*
X149992744Y-85428702D01*
X149886421Y-85407553D01*
X149585958Y-85283097D01*
X149315549Y-85102415D01*
X149085585Y-84872451D01*
X148904903Y-84602042D01*
X148893928Y-84575545D01*
X148857614Y-84487877D01*
X148780447Y-84301579D01*
X148750499Y-84151018D01*
X148717000Y-83982611D01*
X148717000Y-83657389D01*
X148780447Y-83338422D01*
X148805255Y-83278531D01*
X148896766Y-83057602D01*
X148904902Y-83037960D01*
X148904903Y-83037958D01*
X149085585Y-82767549D01*
X149315549Y-82537585D01*
X149585958Y-82356903D01*
X149886421Y-82232447D01*
X150005187Y-82208823D01*
X150205389Y-82169000D01*
X150530611Y-82169000D01*
X150730813Y-82208823D01*
X150730813Y-82208823D01*
G37*
G36*
X106534813Y-82208823D02*
G01*
X106653579Y-82232447D01*
X106954042Y-82356903D01*
X107224451Y-82537585D01*
X107454415Y-82767549D01*
X107635097Y-83037958D01*
X107635098Y-83037960D01*
X107643234Y-83057602D01*
X107734746Y-83278531D01*
X107759553Y-83338422D01*
X107823000Y-83657389D01*
X107823000Y-83982611D01*
X107789501Y-84151018D01*
X107759553Y-84301579D01*
X107682386Y-84487877D01*
X107646073Y-84575545D01*
X107635097Y-84602042D01*
X107454415Y-84872451D01*
X107224451Y-85102415D01*
X106954042Y-85283097D01*
X106653579Y-85407553D01*
X106547256Y-85428702D01*
X106334611Y-85471000D01*
X106009389Y-85471000D01*
X105796744Y-85428702D01*
X105690421Y-85407553D01*
X105389958Y-85283097D01*
X105119549Y-85102415D01*
X104889585Y-84872451D01*
X104708903Y-84602042D01*
X104697928Y-84575545D01*
X104661614Y-84487877D01*
X104584447Y-84301579D01*
X104554499Y-84151018D01*
X104521000Y-83982611D01*
X104521000Y-83657389D01*
X104584447Y-83338422D01*
X104609255Y-83278531D01*
X104700766Y-83057602D01*
X104708902Y-83037960D01*
X104708903Y-83037958D01*
X104889585Y-82767549D01*
X105119549Y-82537585D01*
X105389958Y-82356903D01*
X105690421Y-82232447D01*
X105809187Y-82208823D01*
X106009389Y-82169000D01*
X106334611Y-82169000D01*
X106534813Y-82208823D01*
X106534813Y-82208823D01*
G37*
G36*
X158597121Y-83013228D02*
G01*
X158743402Y-83057602D01*
X158878204Y-83129655D01*
X158878207Y-83129657D01*
X158878208Y-83129658D01*
X158996369Y-83226631D01*
X159038963Y-83278531D01*
X159093345Y-83344796D01*
X159165398Y-83479598D01*
X159209772Y-83625879D01*
X159224754Y-83778000D01*
X159209772Y-83930121D01*
X159165398Y-84076402D01*
X159093345Y-84211204D01*
X159093343Y-84211207D01*
X159093342Y-84211208D01*
X159000238Y-84324655D01*
X158996367Y-84329371D01*
X158959895Y-84359303D01*
X158942568Y-84376630D01*
X158928954Y-84397004D01*
X158919577Y-84419643D01*
X158914796Y-84443676D01*
X158914796Y-84468180D01*
X158919576Y-84492213D01*
X158928953Y-84514852D01*
X158942567Y-84535227D01*
X158959894Y-84552554D01*
X158980268Y-84566168D01*
X159002907Y-84575545D01*
X159026940Y-84580326D01*
X159051444Y-84580326D01*
X159075477Y-84575546D01*
X159131588Y-84558525D01*
X159197842Y-84552000D01*
X159242158Y-84552000D01*
X159308410Y-84558525D01*
X159393426Y-84584314D01*
X159471775Y-84626193D01*
X159540449Y-84682551D01*
X159596807Y-84751225D01*
X159638686Y-84829574D01*
X159664475Y-84914590D01*
X159673182Y-85003000D01*
X159664475Y-85091410D01*
X159638686Y-85176426D01*
X159596807Y-85254775D01*
X159540449Y-85323449D01*
X159471775Y-85379807D01*
X159393426Y-85421686D01*
X159308410Y-85447475D01*
X159242158Y-85454000D01*
X159197842Y-85454000D01*
X159131590Y-85447475D01*
X159046574Y-85421686D01*
X158968225Y-85379807D01*
X158899551Y-85323449D01*
X158843193Y-85254775D01*
X158801314Y-85176426D01*
X158775525Y-85091410D01*
X158766818Y-85003000D01*
X158775525Y-84914590D01*
X158801314Y-84829574D01*
X158843193Y-84751225D01*
X158892149Y-84691572D01*
X158905762Y-84671198D01*
X158915140Y-84648559D01*
X158919920Y-84624526D01*
X158919920Y-84600022D01*
X158915139Y-84575988D01*
X158905762Y-84553350D01*
X158892148Y-84532975D01*
X158874821Y-84515648D01*
X158854447Y-84502035D01*
X158831808Y-84492657D01*
X158807775Y-84487877D01*
X158783271Y-84487877D01*
X158759237Y-84492658D01*
X158750784Y-84496159D01*
X158597121Y-84542772D01*
X158483118Y-84554000D01*
X157856882Y-84554000D01*
X157742879Y-84542772D01*
X157613329Y-84503473D01*
X157596601Y-84498399D01*
X157596598Y-84498398D01*
X157461796Y-84426345D01*
X157453630Y-84419643D01*
X157343631Y-84329369D01*
X157246658Y-84211208D01*
X157246657Y-84211207D01*
X157246655Y-84211204D01*
X157174602Y-84076402D01*
X157130228Y-83930121D01*
X157115246Y-83778000D01*
X157130228Y-83625879D01*
X157174602Y-83479598D01*
X157246655Y-83344796D01*
X157301038Y-83278531D01*
X157343631Y-83226631D01*
X157461792Y-83129658D01*
X157461793Y-83129657D01*
X157461796Y-83129655D01*
X157596598Y-83057602D01*
X157742879Y-83013228D01*
X157856882Y-83002000D01*
X158483118Y-83002000D01*
X158597121Y-83013228D01*
X158597121Y-83013228D01*
G37*
G36*
X141204984Y-83629358D02*
G01*
X141351593Y-83690086D01*
X141351595Y-83690087D01*
X141418014Y-83734467D01*
X141483539Y-83778249D01*
X141595751Y-83890461D01*
X141683914Y-84022407D01*
X141744642Y-84169016D01*
X141775600Y-84324654D01*
X141775600Y-84483346D01*
X141744642Y-84638984D01*
X141726595Y-84682552D01*
X141683913Y-84785595D01*
X141595750Y-84917540D01*
X141483540Y-85029750D01*
X141351595Y-85117913D01*
X141351594Y-85117914D01*
X141351593Y-85117914D01*
X141204984Y-85178642D01*
X141049346Y-85209600D01*
X140890654Y-85209600D01*
X140735016Y-85178642D01*
X140588407Y-85117914D01*
X140588406Y-85117914D01*
X140588405Y-85117913D01*
X140456460Y-85029750D01*
X140344250Y-84917540D01*
X140256087Y-84785595D01*
X140213405Y-84682552D01*
X140195358Y-84638984D01*
X140164400Y-84483346D01*
X140164400Y-84324654D01*
X140195358Y-84169016D01*
X140256086Y-84022407D01*
X140344249Y-83890461D01*
X140456461Y-83778249D01*
X140521986Y-83734467D01*
X140588405Y-83690087D01*
X140588407Y-83690086D01*
X140735016Y-83629358D01*
X140890654Y-83598400D01*
X141049346Y-83598400D01*
X141204984Y-83629358D01*
X141204984Y-83629358D01*
G37*
G36*
X138704984Y-83629358D02*
G01*
X138851593Y-83690086D01*
X138851595Y-83690087D01*
X138918014Y-83734467D01*
X138983539Y-83778249D01*
X139095751Y-83890461D01*
X139183914Y-84022407D01*
X139244642Y-84169016D01*
X139275600Y-84324654D01*
X139275600Y-84483346D01*
X139244642Y-84638984D01*
X139226595Y-84682552D01*
X139183913Y-84785595D01*
X139095750Y-84917540D01*
X138983540Y-85029750D01*
X138851595Y-85117913D01*
X138851594Y-85117914D01*
X138851593Y-85117914D01*
X138704984Y-85178642D01*
X138549346Y-85209600D01*
X138390654Y-85209600D01*
X138235016Y-85178642D01*
X138088407Y-85117914D01*
X138088406Y-85117914D01*
X138088405Y-85117913D01*
X137956460Y-85029750D01*
X137844250Y-84917540D01*
X137756087Y-84785595D01*
X137713405Y-84682552D01*
X137695358Y-84638984D01*
X137664400Y-84483346D01*
X137664400Y-84324654D01*
X137695358Y-84169016D01*
X137756086Y-84022407D01*
X137844249Y-83890461D01*
X137956461Y-83778249D01*
X138021986Y-83734467D01*
X138088405Y-83690087D01*
X138088407Y-83690086D01*
X138235016Y-83629358D01*
X138390654Y-83598400D01*
X138549346Y-83598400D01*
X138704984Y-83629358D01*
X138704984Y-83629358D01*
G37*
G36*
X143704984Y-83629358D02*
G01*
X143851593Y-83690086D01*
X143851595Y-83690087D01*
X143918014Y-83734467D01*
X143983539Y-83778249D01*
X144095751Y-83890461D01*
X144183914Y-84022407D01*
X144244642Y-84169016D01*
X144275600Y-84324654D01*
X144275600Y-84483346D01*
X144244642Y-84638984D01*
X144226595Y-84682552D01*
X144183913Y-84785595D01*
X144095750Y-84917540D01*
X143983540Y-85029750D01*
X143851595Y-85117913D01*
X143851594Y-85117914D01*
X143851593Y-85117914D01*
X143704984Y-85178642D01*
X143549346Y-85209600D01*
X143390654Y-85209600D01*
X143235016Y-85178642D01*
X143088407Y-85117914D01*
X143088406Y-85117914D01*
X143088405Y-85117913D01*
X142956460Y-85029750D01*
X142844250Y-84917540D01*
X142756087Y-84785595D01*
X142713405Y-84682552D01*
X142695358Y-84638984D01*
X142664400Y-84483346D01*
X142664400Y-84324654D01*
X142695358Y-84169016D01*
X142756086Y-84022407D01*
X142844249Y-83890461D01*
X142956461Y-83778249D01*
X143021986Y-83734467D01*
X143088405Y-83690087D01*
X143088407Y-83690086D01*
X143235016Y-83629358D01*
X143390654Y-83598400D01*
X143549346Y-83598400D01*
X143704984Y-83629358D01*
X143704984Y-83629358D01*
G37*
G36*
X162417715Y-83011058D02*
G01*
X162535722Y-83046855D01*
X162644468Y-83104981D01*
X162739790Y-83183210D01*
X162818019Y-83278532D01*
X162876145Y-83387278D01*
X162911942Y-83505285D01*
X162924028Y-83628000D01*
X162911942Y-83750715D01*
X162876145Y-83868722D01*
X162818019Y-83977468D01*
X162739790Y-84072790D01*
X162644468Y-84151019D01*
X162535722Y-84209145D01*
X162535719Y-84209146D01*
X162528921Y-84211208D01*
X162417715Y-84244942D01*
X162325746Y-84254000D01*
X161614254Y-84254000D01*
X161522285Y-84244942D01*
X161411079Y-84211208D01*
X161404281Y-84209146D01*
X161404278Y-84209145D01*
X161295532Y-84151019D01*
X161200210Y-84072790D01*
X161121981Y-83977468D01*
X161063855Y-83868722D01*
X161028058Y-83750715D01*
X161015972Y-83628000D01*
X161028058Y-83505285D01*
X161063855Y-83387278D01*
X161121981Y-83278532D01*
X161200210Y-83183210D01*
X161295532Y-83104981D01*
X161404278Y-83046855D01*
X161522285Y-83011058D01*
X161614254Y-83002000D01*
X162325746Y-83002000D01*
X162417715Y-83011058D01*
X162417715Y-83011058D01*
G37*
G36*
X126912823Y-81203313D02*
G01*
X127073242Y-81251976D01*
X127205906Y-81322886D01*
X127221078Y-81330996D01*
X127350659Y-81437341D01*
X127457004Y-81566922D01*
X127457005Y-81566924D01*
X127536024Y-81714758D01*
X127584687Y-81875177D01*
X127601117Y-82042000D01*
X127584687Y-82208823D01*
X127536024Y-82369242D01*
X127465114Y-82501906D01*
X127457004Y-82517078D01*
X127350659Y-82646659D01*
X127221078Y-82753004D01*
X127221076Y-82753005D01*
X127073242Y-82832024D01*
X126912823Y-82880687D01*
X126787804Y-82893000D01*
X126704196Y-82893000D01*
X126579177Y-82880687D01*
X126418758Y-82832024D01*
X126270924Y-82753005D01*
X126270922Y-82753004D01*
X126141341Y-82646659D01*
X126034996Y-82517078D01*
X126026886Y-82501906D01*
X125955976Y-82369242D01*
X125907313Y-82208823D01*
X125890883Y-82042000D01*
X125907313Y-81875177D01*
X125955976Y-81714758D01*
X126034995Y-81566924D01*
X126034996Y-81566922D01*
X126141341Y-81437341D01*
X126270922Y-81330996D01*
X126286094Y-81322886D01*
X126418758Y-81251976D01*
X126579177Y-81203313D01*
X126704196Y-81191000D01*
X126787804Y-81191000D01*
X126912823Y-81203313D01*
X126912823Y-81203313D01*
G37*
G36*
X129452823Y-81203313D02*
G01*
X129613242Y-81251976D01*
X129745906Y-81322886D01*
X129761078Y-81330996D01*
X129890659Y-81437341D01*
X129997004Y-81566922D01*
X129997005Y-81566924D01*
X130076024Y-81714758D01*
X130124687Y-81875177D01*
X130141117Y-82042000D01*
X130124687Y-82208823D01*
X130076024Y-82369242D01*
X130005114Y-82501906D01*
X129997004Y-82517078D01*
X129890659Y-82646659D01*
X129761078Y-82753004D01*
X129761076Y-82753005D01*
X129613242Y-82832024D01*
X129452823Y-82880687D01*
X129327804Y-82893000D01*
X129244196Y-82893000D01*
X129119177Y-82880687D01*
X128958758Y-82832024D01*
X128810924Y-82753005D01*
X128810922Y-82753004D01*
X128681341Y-82646659D01*
X128574996Y-82517078D01*
X128566886Y-82501906D01*
X128495976Y-82369242D01*
X128447313Y-82208823D01*
X128430883Y-82042000D01*
X128447313Y-81875177D01*
X128495976Y-81714758D01*
X128574995Y-81566924D01*
X128574996Y-81566922D01*
X128681341Y-81437341D01*
X128810922Y-81330996D01*
X128826094Y-81322886D01*
X128958758Y-81251976D01*
X129119177Y-81203313D01*
X129244196Y-81191000D01*
X129327804Y-81191000D01*
X129452823Y-81203313D01*
X129452823Y-81203313D01*
G37*
G36*
X132677000Y-82893000D02*
G01*
X130975000Y-82893000D01*
X130975000Y-81191000D01*
X132677000Y-81191000D01*
X132677000Y-82893000D01*
X132677000Y-82893000D01*
G37*
G36*
X141204984Y-80329358D02*
G01*
X141351593Y-80390086D01*
X141351595Y-80390087D01*
X141418014Y-80434467D01*
X141483539Y-80478249D01*
X141595751Y-80590461D01*
X141683914Y-80722407D01*
X141744642Y-80869016D01*
X141775600Y-81024654D01*
X141775600Y-81183346D01*
X141744642Y-81338984D01*
X141703901Y-81437341D01*
X141683913Y-81485595D01*
X141595750Y-81617540D01*
X141483540Y-81729750D01*
X141351595Y-81817913D01*
X141351594Y-81817914D01*
X141351593Y-81817914D01*
X141204984Y-81878642D01*
X141049346Y-81909600D01*
X140890654Y-81909600D01*
X140735016Y-81878642D01*
X140588407Y-81817914D01*
X140588406Y-81817914D01*
X140588405Y-81817913D01*
X140456460Y-81729750D01*
X140344250Y-81617540D01*
X140256087Y-81485595D01*
X140236099Y-81437341D01*
X140195358Y-81338984D01*
X140164400Y-81183346D01*
X140164400Y-81024654D01*
X140195358Y-80869016D01*
X140256086Y-80722407D01*
X140344249Y-80590461D01*
X140456461Y-80478249D01*
X140521986Y-80434467D01*
X140588405Y-80390087D01*
X140588407Y-80390086D01*
X140735016Y-80329358D01*
X140890654Y-80298400D01*
X141049346Y-80298400D01*
X141204984Y-80329358D01*
X141204984Y-80329358D01*
G37*
G36*
X138704984Y-80329358D02*
G01*
X138851593Y-80390086D01*
X138851595Y-80390087D01*
X138918014Y-80434467D01*
X138983539Y-80478249D01*
X139095751Y-80590461D01*
X139183914Y-80722407D01*
X139244642Y-80869016D01*
X139275600Y-81024654D01*
X139275600Y-81183346D01*
X139244642Y-81338984D01*
X139203901Y-81437341D01*
X139183913Y-81485595D01*
X139095750Y-81617540D01*
X138983540Y-81729750D01*
X138851595Y-81817913D01*
X138851594Y-81817914D01*
X138851593Y-81817914D01*
X138704984Y-81878642D01*
X138549346Y-81909600D01*
X138390654Y-81909600D01*
X138235016Y-81878642D01*
X138088407Y-81817914D01*
X138088406Y-81817914D01*
X138088405Y-81817913D01*
X137956460Y-81729750D01*
X137844250Y-81617540D01*
X137756087Y-81485595D01*
X137736099Y-81437341D01*
X137695358Y-81338984D01*
X137664400Y-81183346D01*
X137664400Y-81024654D01*
X137695358Y-80869016D01*
X137756086Y-80722407D01*
X137844249Y-80590461D01*
X137956461Y-80478249D01*
X138021986Y-80434467D01*
X138088405Y-80390087D01*
X138088407Y-80390086D01*
X138235016Y-80329358D01*
X138390654Y-80298400D01*
X138549346Y-80298400D01*
X138704984Y-80329358D01*
X138704984Y-80329358D01*
G37*
G36*
X143704984Y-80329358D02*
G01*
X143851593Y-80390086D01*
X143851595Y-80390087D01*
X143918014Y-80434467D01*
X143983539Y-80478249D01*
X144095751Y-80590461D01*
X144183914Y-80722407D01*
X144244642Y-80869016D01*
X144275600Y-81024654D01*
X144275600Y-81183346D01*
X144244642Y-81338984D01*
X144203901Y-81437341D01*
X144183913Y-81485595D01*
X144095750Y-81617540D01*
X143983540Y-81729750D01*
X143851595Y-81817913D01*
X143851594Y-81817914D01*
X143851593Y-81817914D01*
X143704984Y-81878642D01*
X143549346Y-81909600D01*
X143390654Y-81909600D01*
X143235016Y-81878642D01*
X143088407Y-81817914D01*
X143088406Y-81817914D01*
X143088405Y-81817913D01*
X142956460Y-81729750D01*
X142844250Y-81617540D01*
X142756087Y-81485595D01*
X142736099Y-81437341D01*
X142695358Y-81338984D01*
X142664400Y-81183346D01*
X142664400Y-81024654D01*
X142695358Y-80869016D01*
X142756086Y-80722407D01*
X142844249Y-80590461D01*
X142956461Y-80478249D01*
X143021986Y-80434467D01*
X143088405Y-80390087D01*
X143088407Y-80390086D01*
X143235016Y-80329358D01*
X143390654Y-80298400D01*
X143549346Y-80298400D01*
X143704984Y-80329358D01*
X143704984Y-80329358D01*
G37*
M02*
